<svg width="24" height="24" viewBox="0 0 24 24" fill="none" xmlns="http://www.w3.org/2000/svg">
<path opacity="0.4" d="M16.19 2H7.81C4.17 2 2 4.17 2 7.81V16.18C2 19.83 4.17 22 7.81 22H16.18C19.82 22 21.99 19.83 21.99 16.19V7.81C22 4.17 19.83 2 16.19 2Z" fill="#292D32"/>
<path d="M17.85 13.5299C17.77 13.3499 17.63 13.1999 17.44 13.1199C17.35 13.0799 17.25 13.0599 17.15 13.0599H6.85001C6.44001 13.0599 6.10001 13.3999 6.10001 13.8099C6.10001 14.2199 6.44001 14.5599 6.85001 14.5599H15.35L13.59 16.3199C13.3 16.6099 13.3 17.0899 13.59 17.3799C13.74 17.5299 13.93 17.5999 14.12 17.5999C14.31 17.5999 14.5 17.5299 14.65 17.3799L17.69 14.3399C17.76 14.2699 17.81 14.1899 17.85 14.0999C17.92 13.9199 17.92 13.7099 17.85 13.5299Z" fill="#292D32"/>
<path d="M6.15 10.47C6.23 10.65 6.37 10.8 6.56 10.88C6.65 10.92 6.75 10.94 6.85 10.94H17.16C17.57 10.94 17.91 10.6 17.91 10.19C17.91 9.77997 17.57 9.43997 17.16 9.43997H8.66L10.42 7.67997C10.71 7.38997 10.71 6.90997 10.42 6.61997C10.13 6.32997 9.65 6.32997 9.36 6.61997L6.32 9.64997C6.25 9.71997 6.19 9.80997 6.15 9.89997C6.08 10.08 6.08 10.29 6.15 10.47Z" fill="#292D32"/>
</svg>
