<svg width="24" height="24" viewBox="0 0 24 24" fill="none" xmlns="http://www.w3.org/2000/svg">
<path d="M11.88 14.99C11.69 14.99 11.5 14.92 11.35 14.77L8.79001 12.21C8.50001 11.92 8.50001 11.44 8.79001 11.15C9.08001 10.86 9.56001 10.86 9.85001 11.15L11.88 13.18L13.91 11.15C14.2 10.86 14.68 10.86 14.97 11.15C15.26 11.44 15.26 11.92 14.97 12.21L12.41 14.77C12.26 14.92 12.07 14.99 11.88 14.99Z" fill="#292D32"/>
<path d="M11.88 14.92C11.47 14.92 11.13 14.58 11.13 14.17V4C11.13 3.59 11.47 3.25 11.88 3.25C12.29 3.25 12.63 3.59 12.63 4V14.17C12.63 14.58 12.29 14.92 11.88 14.92Z" fill="#292D32"/>
<path d="M12 20.9301C6.85 20.9301 3.25 17.3301 3.25 12.1801C3.25 11.7701 3.59 11.4301 4 11.4301C4.41 11.4301 4.75 11.7701 4.75 12.1801C4.75 16.4501 7.73 19.4301 12 19.4301C16.27 19.4301 19.25 16.4501 19.25 12.1801C19.25 11.7701 19.59 11.4301 20 11.4301C20.41 11.4301 20.75 11.7701 20.75 12.1801C20.75 17.3301 17.15 20.9301 12 20.9301Z" fill="#292D32"/>
</svg>
