<svg width="24" height="24" viewBox="0 0 24 24" fill="none" xmlns="http://www.w3.org/2000/svg">
<path opacity="0.4" d="M16.19 2H7.82002C4.18002 2 2.01001 4.17 2.01001 7.81V16.18C2.01001 19.82 4.18002 21.99 7.82002 21.99H16.19C19.83 21.99 22 19.82 22 16.18V7.81C22 4.17 19.83 2 16.19 2Z" fill="#292D32"/>
<path d="M9.16997 14.09C9.35997 14.09 9.54997 14.02 9.69997 13.87L14.08 9.49004V11.92C14.08 12.33 14.42 12.67 14.83 12.67C15.24 12.67 15.58 12.33 15.58 11.92V7.68005C15.58 7.58005 15.56 7.49005 15.52 7.39005C15.44 7.21005 15.3 7.06005 15.11 6.98005C15.02 6.94005 14.92 6.92004 14.82 6.92004H10.58C10.17 6.92004 9.82997 7.26004 9.82997 7.67004C9.82997 8.08004 10.17 8.42004 10.58 8.42004H13.01L8.62998 12.8C8.33998 13.09 8.33998 13.57 8.62998 13.86C8.78998 14.02 8.97997 14.09 9.16997 14.09Z" fill="#292D32"/>
<path d="M18.7099 16.2801C18.5799 15.8901 18.1599 15.6801 17.7599 15.8101C14.0399 17.0501 9.94993 17.0501 6.22993 15.8101C5.83993 15.6801 5.40994 15.8901 5.27994 16.2801C5.14994 16.6701 5.35994 17.1001 5.74994 17.2301C7.75994 17.9001 9.86994 18.2401 11.9899 18.2401C14.1099 18.2401 16.2199 17.9001 18.2299 17.2301C18.6299 17.0901 18.8399 16.6701 18.7099 16.2801Z" fill="#292D32"/>
</svg>
