<svg width="24" height="24" viewBox="0 0 24 24" fill="none" xmlns="http://www.w3.org/2000/svg">
<path d="M1.97 5.94986V5.08986C1.97 2.46986 3.92 1.27986 6.31 2.44986L10.75 4.62986C11.71 5.09986 12.5 6.34986 12.5 7.40986V21.9999H4.08C2.92 21.9999 1.97 21.0699 1.97 19.9299V10.0199" stroke="#292D32" stroke-width="1.5" stroke-linecap="round" stroke-linejoin="round"/>
<path d="M21.97 15.0599V18.8399C21.97 20.9999 20.97 21.9999 18.81 21.9999H12.5V10.4199L12.97 10.5199L17.47 11.5299L19.5 11.9799C20.82 12.2699 21.9 12.9499 21.96 14.8699C21.97 14.9299 21.97 14.9899 21.97 15.0599Z" stroke="#292D32" stroke-width="1.5" stroke-linecap="round" stroke-linejoin="round"/>
<path d="M5.5 9H8.97" stroke="#292D32" stroke-width="1.5" stroke-linecap="round" stroke-linejoin="round"/>
<path d="M5.5 13H8.97" stroke="#292D32" stroke-width="1.5" stroke-linecap="round" stroke-linejoin="round"/>
<path d="M17.47 11.53V14.75C17.47 15.99 16.46 17 15.22 17C13.98 17 12.97 15.99 12.97 14.75V10.52L17.47 11.53Z" stroke="#292D32" stroke-width="1.5" stroke-linecap="round" stroke-linejoin="round"/>
<path d="M21.96 14.8698C21.9 16.0498 20.92 16.9998 19.72 16.9998C18.48 16.9998 17.47 15.9898 17.47 14.7498V11.5298L19.5 11.9798C20.82 12.2698 21.9 12.9498 21.96 14.8698Z" stroke="#292D32" stroke-width="1.5" stroke-linecap="round" stroke-linejoin="round"/>
</svg>
