<svg width="24" height="24" viewBox="0 0 24 24" fill="none" xmlns="http://www.w3.org/2000/svg">
<path d="M8.18144 16.02C7.42144 15.95 6.67144 15.6 6.09144 14.99C4.77144 13.6 4.77144 11.32 6.09144 9.93001L8.28144 7.63002C9.60144 6.24002 11.7714 6.24002 13.1014 7.63002C14.4215 9.02002 14.4215 11.3 13.1014 12.69L12.0114 13.84" stroke="#292D32" stroke-width="1.5" stroke-linecap="round" stroke-linejoin="round"/>
<path d="M15.8215 7.97998C16.5815 8.04998 17.3314 8.39998 17.9114 9.00998C19.2314 10.4 19.2314 12.68 17.9114 14.07L15.7214 16.37C14.4014 17.76 12.2314 17.76 10.9014 16.37C9.58144 14.98 9.58144 12.7 10.9014 11.31L11.9914 10.16" stroke="#292D32" stroke-width="1.5" stroke-linecap="round" stroke-linejoin="round"/>
<path d="M9.00146 22H15.0015C20.0015 22 22.0015 20 22.0015 15V9C22.0015 4 20.0015 2 15.0015 2H9.00146C4.00146 2 2.00146 4 2.00146 9V15C2.00146 20 4.00146 22 9.00146 22Z" stroke="#292D32" stroke-width="1.5" stroke-linecap="round" stroke-linejoin="round"/>
</svg>
