<svg width="24" height="24" viewBox="0 0 24 24" fill="none" xmlns="http://www.w3.org/2000/svg">
<path opacity="0.4" d="M12.0015 22C17.5243 22 22.0015 17.5228 22.0015 12C22.0015 6.47715 17.5243 2 12.0015 2C6.47862 2 2.00146 6.47715 2.00146 12C2.00146 17.5228 6.47862 22 12.0015 22Z" fill="#292D32"/>
<path d="M17.0015 15.97C15.6915 15.97 14.4415 15.37 13.4415 14.26C14.4315 12.99 15.0715 11.42 15.2115 9.70004H16.9915C17.4015 9.70004 17.7415 9.36004 17.7415 8.95004C17.7415 8.54004 17.4015 8.20004 16.9915 8.20004H14.5615C14.5415 8.20004 14.5215 8.19003 14.5015 8.19003C14.4815 8.19003 14.4615 8.20004 14.4415 8.20004H12.7515V7.27002C12.7515 6.86002 12.4115 6.52002 12.0015 6.52002C11.5915 6.52002 11.2515 6.86002 11.2515 7.27002V8.20004H7.01147C6.60147 8.20004 6.26147 8.54004 6.26147 8.95004C6.26147 9.36004 6.60147 9.70004 7.01147 9.70004H12.0015H13.7015C13.3315 13.22 10.4715 15.97 6.99146 15.97C6.58146 15.97 6.24146 16.31 6.24146 16.72C6.24146 17.13 6.58146 17.47 6.99146 17.47C9.06146 17.47 10.9515 16.67 12.4015 15.36C13.6715 16.72 15.2815 17.47 16.9915 17.47C17.4015 17.47 17.7415 17.13 17.7415 16.72C17.7415 16.31 17.4115 15.97 17.0015 15.97Z" fill="#292D32"/>
</svg>
