<svg width="24" height="24" viewBox="0 0 24 24" fill="none" xmlns="http://www.w3.org/2000/svg">
<path opacity="0.4" d="M12.0015 22C17.5243 22 22.0015 17.5228 22.0015 12C22.0015 6.47715 17.5243 2 12.0015 2C6.47862 2 2.00146 6.47715 2.00146 12C2.00146 17.5228 6.47862 22 12.0015 22Z" fill="#292D32"/>
<path d="M15.8115 7.21997H14.3215C13.2315 7.21997 12.3815 8.06997 12.3815 9.15997V10.65C12.3815 11.74 13.2315 12.59 14.3215 12.59H16.2315C16.1515 14.4 15.7315 14.67 14.5215 15.38C14.1615 15.59 14.0515 16.05 14.2615 16.41C14.4015 16.65 14.6515 16.78 14.9115 16.78C15.0415 16.78 15.1715 16.75 15.2915 16.68C17.0815 15.62 17.7515 14.93 17.7515 11.85V9.17999C17.7515 8.08999 16.8815 7.21997 15.8115 7.21997Z" fill="#292D32"/>
<path d="M9.68146 7.21997H8.19147C7.10147 7.21997 6.25146 8.06997 6.25146 9.15997V10.65C6.25146 11.74 7.10147 12.59 8.19147 12.59H10.1015C10.0215 14.4 9.60146 14.67 8.39146 15.38C8.03146 15.59 7.92147 16.05 8.13147 16.41C8.27147 16.65 8.52146 16.78 8.78146 16.78C8.91146 16.78 9.04147 16.75 9.16147 16.68C10.9515 15.62 11.6215 14.93 11.6215 11.85V9.17999C11.6115 8.08999 10.7415 7.21997 9.68146 7.21997Z" fill="#292D32"/>
</svg>
