<svg width="24" height="24" viewBox="0 0 24 24" fill="none" xmlns="http://www.w3.org/2000/svg">
<g opacity="0.4">
<path d="M17.0013 11.84H14.3214C13.6114 11.84 13.1313 11.3 13.1313 10.65V9.15997C13.1313 8.50997 13.6114 7.96997 14.3214 7.96997H15.8113C16.4613 7.96997 17.0013 8.50997 17.0013 9.15997V11.84Z" stroke="#292D32" stroke-width="1.5" stroke-linecap="round" stroke-linejoin="round"/>
<path d="M17.0011 11.8401C17.0011 14.6301 16.4811 15.1001 14.9111 16.0301" stroke="#292D32" stroke-width="1.5" stroke-linecap="round" stroke-linejoin="round"/>
<path d="M10.8617 11.84H8.18169C7.47169 11.84 6.9917 11.3 6.9917 10.65V9.15997C6.9917 8.50997 7.47169 7.96997 8.18169 7.96997H9.67169C10.3217 7.96997 10.8617 8.50997 10.8617 9.15997V11.84Z" stroke="#292D32" stroke-width="1.5" stroke-linecap="round" stroke-linejoin="round"/>
<path d="M10.8615 11.8401C10.8615 14.6301 10.3415 15.1001 8.77148 16.0301" stroke="#292D32" stroke-width="1.5" stroke-linecap="round" stroke-linejoin="round"/>
</g>
<path d="M12.0015 22C17.5243 22 22.0015 17.5228 22.0015 12C22.0015 6.47715 17.5243 2 12.0015 2C6.47862 2 2.00146 6.47715 2.00146 12C2.00146 17.5228 6.47862 22 12.0015 22Z" stroke="#292D32" stroke-width="1.5" stroke-linecap="round" stroke-linejoin="round"/>
</svg>
