<svg width="24" height="24" viewBox="0 0 24 24" fill="none" xmlns="http://www.w3.org/2000/svg">
<path d="M21.0015 22.75H3.00146C2.59146 22.75 2.25146 22.41 2.25146 22C2.25146 21.59 2.59146 21.25 3.00146 21.25H21.0015C21.4115 21.25 21.7515 21.59 21.7515 22C21.7515 22.41 21.4115 22.75 21.0015 22.75Z" fill="#292D32"/>
<path d="M21.0015 2.75H3.00146C2.59146 2.75 2.25146 2.41 2.25146 2C2.25146 1.59 2.59146 1.25 3.00146 1.25H21.0015C21.4115 1.25 21.7515 1.59 21.7515 2C21.7515 2.41 21.4115 2.75 21.0015 2.75Z" fill="#292D32"/>
<path d="M12.0015 18.75C11.5915 18.75 11.2515 18.41 11.2515 18V6C11.2515 5.59 11.5915 5.25 12.0015 5.25C12.4115 5.25 12.7515 5.59 12.7515 6V18C12.7515 18.41 12.4115 18.75 12.0015 18.75Z" fill="#292D32"/>
<path d="M14.8314 8.47002C14.6414 8.47002 14.4515 8.40002 14.3015 8.25002L12.0014 5.95002L9.70145 8.25002C9.41145 8.54002 8.93145 8.54002 8.64145 8.25002C8.35145 7.96002 8.35145 7.48002 8.64145 7.19002L11.4715 4.36002C11.7515 4.08002 12.2514 4.08002 12.5314 4.36002L15.3614 7.19002C15.6514 7.48002 15.6514 7.96002 15.3614 8.25002C15.2114 8.40002 15.0215 8.47002 14.8314 8.47002Z" fill="#292D32"/>
<path d="M12.0014 19.47C11.8014 19.47 11.6115 19.39 11.4715 19.25L8.64145 16.42C8.35145 16.13 8.35145 15.65 8.64145 15.36C8.93145 15.07 9.41145 15.07 9.70145 15.36L12.0014 17.66L14.3015 15.36C14.5915 15.07 15.0714 15.07 15.3614 15.36C15.6514 15.65 15.6514 16.13 15.3614 16.42L12.5314 19.25C12.3914 19.39 12.2014 19.47 12.0014 19.47Z" fill="#292D32"/>
</svg>
