<svg width="24" height="24" viewBox="0 0 24 24" fill="none" xmlns="http://www.w3.org/2000/svg">
<path d="M2.00146 12.83V15C2.00146 20 4.00146 22 9.00146 22H15.0015C20.0015 22 22.0015 20 22.0015 15V9C22.0015 4 20.0015 2 15.0015 2H9.00146C4.00146 2 2.00146 4 2.00146 9" stroke="#292D32" stroke-width="1.5" stroke-linecap="round" stroke-linejoin="round"/>
<path d="M7.00146 12.1599H9.68147C10.3915 12.1599 10.8715 12.6999 10.8715 13.3499V14.84C10.8715 15.49 10.3915 16.03 9.68147 16.03H8.19147C7.54147 16.03 7.00146 15.49 7.00146 14.84V12.1599" stroke="#292D32" stroke-width="1.5" stroke-linecap="round" stroke-linejoin="round"/>
<path d="M7.00146 12.16C7.00146 9.36997 7.52146 8.89997 9.09146 7.96997" stroke="#292D32" stroke-width="1.5" stroke-linecap="round" stroke-linejoin="round"/>
<path d="M13.1415 12.1599H15.8215C16.5315 12.1599 17.0115 12.6999 17.0115 13.3499V14.84C17.0115 15.49 16.5315 16.03 15.8215 16.03H14.3315C13.6815 16.03 13.1415 15.49 13.1415 14.84V12.1599" stroke="#292D32" stroke-width="1.5" stroke-linecap="round" stroke-linejoin="round"/>
<path d="M13.1415 12.16C13.1415 9.36997 13.6615 8.89997 15.2315 7.96997" stroke="#292D32" stroke-width="1.5" stroke-linecap="round" stroke-linejoin="round"/>
</svg>
