<svg width="24" height="24" viewBox="0 0 24 24" fill="none" xmlns="http://www.w3.org/2000/svg">
<path d="M2.00146 12.35H7.80145C9.33145 12.35 10.3815 13.51 10.3815 14.93V18.15C10.3815 19.57 9.33145 20.73 7.80145 20.73H4.58148C3.16148 20.73 2.00146 19.57 2.00146 18.15V12.35" stroke="#292D32" stroke-width="1.5" stroke-linecap="round" stroke-linejoin="round"/>
<path d="M2.00146 12.35C2.00146 6.29998 3.13149 5.30003 6.53149 3.28003" stroke="#292D32" stroke-width="1.5" stroke-linecap="round" stroke-linejoin="round"/>
<path d="M13.6315 12.35H19.4315C20.9615 12.35 22.0115 13.51 22.0115 14.93V18.15C22.0115 19.57 20.9615 20.73 19.4315 20.73H16.2115C14.7915 20.73 13.6315 19.57 13.6315 18.15V12.35" stroke="#292D32" stroke-width="1.5" stroke-linecap="round" stroke-linejoin="round"/>
<path d="M13.6315 12.35C13.6315 6.29998 14.7614 5.30003 18.1614 3.28003" stroke="#292D32" stroke-width="1.5" stroke-linecap="round" stroke-linejoin="round"/>
</svg>
