<svg width="24" height="24" viewBox="0 0 24 24" fill="none" xmlns="http://www.w3.org/2000/svg">
<path opacity="0.4" d="M16.1915 2H7.82149C4.18149 2 2.01147 4.17 2.01147 7.81V16.18C2.01147 19.82 4.18149 21.99 7.82149 21.99H16.1915C19.8315 21.99 22.0015 19.82 22.0015 16.18V7.81C22.0015 4.17 19.8315 2 16.1915 2Z" fill="#292D32"/>
<path d="M13.5814 14.69L11.2614 17.01C10.6214 17.66 9.5714 17.66 8.9214 17.01L6.99141 15.08C6.34141 14.43 6.34141 13.38 6.99141 12.74L9.3114 10.42L13.5814 14.69Z" fill="#292D32"/>
<path opacity="0.6" d="M17.0115 11.2599L13.5815 14.6899L9.31152 10.4199L12.7415 6.98994C13.3815 6.33994 14.4315 6.33994 15.0815 6.98994L17.0115 8.91994C17.6615 9.56994 17.6615 10.6199 17.0115 11.2599Z" fill="#292D32"/>
</svg>
