<svg width="24" height="24" viewBox="0 0 24 24" fill="none" xmlns="http://www.w3.org/2000/svg">
<path opacity="0.4" d="M12.0015 22C17.5243 22 22.0015 17.5228 22.0015 12C22.0015 6.47715 17.5243 2 12.0015 2C6.47862 2 2.00146 6.47715 2.00146 12C2.00146 17.5228 6.47862 22 12.0015 22Z" fill="#292D32"/>
<path d="M7.94145 15.2599C7.85145 15.2599 7.77144 15.2499 7.68144 15.2099C6.87144 14.9099 6.19144 14.3199 5.76144 13.5499C4.76144 11.7499 5.38145 9.39992 7.13145 8.30992L9.47145 6.85991C10.3314 6.32991 11.3414 6.16994 12.3014 6.41994C13.2614 6.66994 14.0714 7.29992 14.5614 8.17992C15.5614 9.97992 14.9414 12.3299 13.1914 13.4199L12.9314 13.6099C12.5914 13.8499 12.1215 13.7699 11.8815 13.4399C11.6415 13.0999 11.7214 12.6299 12.0514 12.3899L12.3614 12.1699C13.4814 11.4699 13.8614 10.0199 13.2514 8.90993C12.9614 8.38993 12.4914 8.01992 11.9314 7.86992C11.3714 7.71992 10.7815 7.80993 10.2715 8.12993L7.93144 9.57991C6.85144 10.2499 6.47145 11.6999 7.08145 12.8199C7.33145 13.2699 7.73145 13.6199 8.21145 13.7999C8.60145 13.9399 8.80144 14.3699 8.65144 14.7599C8.54144 15.0699 8.25145 15.2599 7.94145 15.2599Z" fill="#292D32"/>
<path d="M12.6615 17.65C12.3615 17.65 12.0515 17.61 11.7515 17.53C10.7915 17.28 9.98146 16.65 9.50147 15.77C8.50147 13.97 9.12146 11.62 10.8715 10.53L11.1315 10.34C11.4715 10.1 11.9415 10.18 12.1815 10.51C12.4215 10.85 12.3415 11.32 12.0115 11.56L11.7015 11.78C10.5815 12.48 10.2015 13.93 10.8115 15.04C11.1015 15.56 11.5715 15.93 12.1315 16.08C12.6915 16.23 13.2815 16.14 13.7915 15.82L16.1315 14.37C17.2115 13.7 17.5915 12.25 16.9815 11.13C16.7315 10.68 16.3315 10.33 15.8515 10.15C15.4615 10.01 15.2615 9.57999 15.4115 9.18999C15.5515 8.79999 15.9915 8.59999 16.3715 8.74999C17.1815 9.04999 17.8615 9.63999 18.2915 10.41C19.2915 12.21 18.6715 14.56 16.9215 15.65L14.5815 17.1C13.9915 17.46 13.3315 17.65 12.6615 17.65Z" fill="#292D32"/>
</svg>
