<svg width="24" height="24" viewBox="0 0 24 24" fill="none" xmlns="http://www.w3.org/2000/svg">
<path d="M18.6115 6.67995C18.2015 6.67995 17.8615 6.33995 17.8615 5.92995V4.41995C17.8615 3.81995 17.3715 3.31995 16.7615 3.31995H3.83145C3.23145 3.31995 2.73146 3.80995 2.73146 4.41995V5.92995C2.73146 6.33995 2.39146 6.67995 1.98146 6.67995C1.57146 6.67995 1.24146 6.33995 1.24146 5.92995V4.41995C1.24146 2.98995 2.41146 1.81995 3.84145 1.81995H16.7615C18.1915 1.81995 19.3615 2.97995 19.3615 4.41995V5.92995C19.3615 6.33995 19.0215 6.67995 18.6115 6.67995Z" fill="#292D32"/>
<path d="M10.3015 18.8499C9.89145 18.8499 9.55145 18.5099 9.55145 18.0999V3.31995C9.55145 2.90995 9.89145 2.56995 10.3015 2.56995C10.7115 2.56995 11.0515 2.90995 11.0515 3.31995V18.0999C11.0515 18.5199 10.7115 18.8499 10.3015 18.8499Z" fill="#292D32"/>
<path d="M12.4815 18.85H6.90146C6.49146 18.85 6.15146 18.51 6.15146 18.1C6.15146 17.69 6.49146 17.35 6.90146 17.35H12.4815C12.8915 17.35 13.2315 17.69 13.2315 18.1C13.2315 18.51 12.8915 18.85 12.4815 18.85Z" fill="#292D32"/>
<path d="M22.0115 13.2C21.6015 13.2 21.2615 12.86 21.2615 12.45V11.65C21.2615 11.34 21.0015 11.08 20.6915 11.08H13.6815C13.2715 11.08 12.9315 10.74 12.9315 10.33C12.9315 9.91996 13.2715 9.57996 13.6815 9.57996H20.6915C21.8315 9.57996 22.7615 10.51 22.7615 11.65V12.45C22.7615 12.87 22.4315 13.2 22.0115 13.2Z" fill="#292D32"/>
<path d="M16.0815 22.18C15.6715 22.18 15.3315 21.84 15.3315 21.43V10.87C15.3315 10.46 15.6715 10.12 16.0815 10.12C16.4915 10.12 16.8315 10.46 16.8315 10.87V21.43C16.8315 21.84 16.4915 22.18 16.0815 22.18Z" fill="#292D32"/>
<path d="M18.2215 22.1801H13.9415C13.5315 22.1801 13.1915 21.8401 13.1915 21.4301C13.1915 21.0201 13.5315 20.6801 13.9415 20.6801H18.2215C18.6315 20.6801 18.9715 21.0201 18.9715 21.4301C18.9715 21.8401 18.6315 22.1801 18.2215 22.1801Z" fill="#292D32"/>
</svg>
