<svg width="24" height="24" viewBox="0 0 24 24" fill="none" xmlns="http://www.w3.org/2000/svg">
<path d="M22.0015 11.65H16.2015C14.6715 11.65 13.6215 10.49 13.6215 9.07001V5.84998C13.6215 4.42998 14.6715 3.27002 16.2015 3.27002H19.4215C20.8415 3.27002 22.0015 4.42998 22.0015 5.84998V11.65Z" stroke="#292D32" stroke-width="1.5" stroke-linecap="round" stroke-linejoin="round"/>
<path d="M22.0014 11.65C22.0014 17.7 20.8714 18.7 17.4714 20.72" stroke="#292D32" stroke-width="1.5" stroke-linecap="round" stroke-linejoin="round"/>
<g opacity="0.4">
<path d="M10.3717 11.65H4.5717C3.0417 11.65 1.9917 10.49 1.9917 9.07001V5.84998C1.9917 4.42998 3.0417 3.27002 4.5717 3.27002H7.8017C9.2217 3.27002 10.3817 4.42998 10.3817 5.84998V11.65" stroke="#292D32" stroke-width="1.5" stroke-linecap="round" stroke-linejoin="round"/>
<path d="M10.3713 11.65C10.3713 17.7 9.24131 18.7 5.84131 20.72" stroke="#292D32" stroke-width="1.5" stroke-linecap="round" stroke-linejoin="round"/>
</g>
</svg>
