<svg width="24" height="24" viewBox="0 0 24 24" fill="none" xmlns="http://www.w3.org/2000/svg">
<path opacity="0.4" d="M16.1915 2H7.82147C4.18147 2 2.01147 4.17 2.01147 7.81V16.18C2.01147 19.82 4.18147 21.99 7.82147 21.99H16.1915C19.8315 21.99 22.0015 19.82 22.0015 16.18V7.81C22.0015 4.17 19.8315 2 16.1915 2Z" fill="#292D32"/>
<path d="M12.2015 17.3799C11.5015 17.3799 10.7915 17.1099 10.2615 16.5799C9.74147 16.0599 9.45148 15.3699 9.45148 14.6399C9.45148 13.9099 9.74147 13.2099 10.2615 12.6999L11.6714 11.2899C11.9614 10.9999 12.4414 10.9999 12.7314 11.2899C13.0214 11.5799 13.0214 12.0599 12.7314 12.3499L11.3215 13.7599C11.0815 13.9999 10.9515 14.3099 10.9515 14.6399C10.9515 14.9699 11.0815 15.2899 11.3215 15.5199C11.8115 16.0099 12.6015 16.0099 13.0915 15.5199L15.3115 13.2999C16.5815 12.0299 16.5815 9.96994 15.3115 8.69994C14.0415 7.42994 11.9815 7.42994 10.7115 8.69994L8.29144 11.1199C7.78144 11.6299 7.50146 12.2999 7.50146 13.0099C7.50146 13.7199 7.78144 14.3999 8.29144 14.8999C8.58144 15.1899 8.58144 15.6699 8.29144 15.9599C8.00144 16.2499 7.52145 16.2499 7.23145 15.9599C6.44145 15.1699 6.01147 14.1199 6.01147 12.9999C6.01147 11.8799 6.44145 10.8299 7.23145 10.0399L9.65149 7.61992C11.5015 5.76992 14.5215 5.76992 16.3715 7.61992C18.2215 9.46992 18.2215 12.4899 16.3715 14.3399L14.1515 16.5599C13.6115 17.1099 12.9115 17.3799 12.2015 17.3799Z" fill="#292D32"/>
</svg>
