<svg width="24" height="24" viewBox="0 0 24 24" fill="none" xmlns="http://www.w3.org/2000/svg">
<path opacity="0.4" d="M16.1915 2H7.81146C4.17146 2 2.00146 4.17 2.00146 7.81V16.18C2.00146 19.83 4.17146 22 7.81146 22H16.1815C19.8215 22 21.9915 19.83 21.9915 16.19V7.81C22.0015 4.17 19.8315 2 16.1915 2Z" fill="#292D32"/>
<path d="M17.3415 8.21002C14.0015 6.54002 10.0115 6.54002 6.67148 8.21002C6.29148 8.40002 6.14148 8.85002 6.33148 9.22002C6.46148 9.48002 6.73148 9.63002 7.00148 9.63002C7.11148 9.63002 7.23148 9.60002 7.34148 9.55002C8.57148 8.94002 9.90148 8.60002 11.2515 8.50002V16.29C11.2515 16.7 11.5915 17.04 12.0015 17.04C12.4115 17.04 12.7515 16.7 12.7515 16.29V8.50002C14.1015 8.60002 15.4315 8.94002 16.6615 9.55002C17.0315 9.73002 17.4815 9.59002 17.6715 9.21002C17.8615 8.85002 17.7115 8.40002 17.3415 8.21002Z" fill="#292D32"/>
</svg>
