<svg width="24" height="24" viewBox="0 0 24 24" fill="none" xmlns="http://www.w3.org/2000/svg">
<path d="M22.0015 11.65H16.2015C14.6715 11.65 13.6215 10.49 13.6215 9.07001V5.84998C13.6215 4.42998 14.6715 3.27002 16.2015 3.27002H19.4215C20.8415 3.27002 22.0015 4.42998 22.0015 5.84998V11.65Z" stroke="#292D32" stroke-width="1.5" stroke-linecap="round" stroke-linejoin="round"/>
<path d="M22.0014 11.65C22.0014 17.7 20.8714 18.7 17.4714 20.72" stroke="#292D32" stroke-width="1.5" stroke-linecap="round" stroke-linejoin="round"/>
<path d="M10.3715 11.65H4.57146C3.04146 11.65 1.99146 10.49 1.99146 9.07001V5.84998C1.99146 4.42998 3.04146 3.27002 4.57146 3.27002H7.80146C9.22146 3.27002 10.3815 4.42998 10.3815 5.84998V11.65" stroke="#292D32" stroke-width="1.5" stroke-linecap="round" stroke-linejoin="round"/>
<path d="M10.3714 11.65C10.3714 17.7 9.24143 18.7 5.84143 20.72" stroke="#292D32" stroke-width="1.5" stroke-linecap="round" stroke-linejoin="round"/>
</svg>
