<svg width="24" height="24" viewBox="0 0 24 24" fill="none" xmlns="http://www.w3.org/2000/svg">
<path opacity="0.4" d="M16.1915 2H7.82147C4.18147 2 2.01147 4.17 2.01147 7.81V16.18C2.01147 19.82 4.18147 21.99 7.82147 21.99H16.1915C19.8315 21.99 22.0015 19.82 22.0015 16.18V7.81C22.0015 4.17 19.8315 2 16.1915 2Z" fill="#292D32"/>
<path d="M8.19147 16.78H9.68147C10.7715 16.78 11.6215 15.93 11.6215 14.84V13.35C11.6215 12.26 10.7715 11.41 9.68147 11.41H7.77146C7.85146 9.59997 8.27147 9.33 9.48147 8.62C9.84147 8.41 9.95146 7.95003 9.74146 7.59003C9.60146 7.35003 9.35146 7.21997 9.09146 7.21997C8.96146 7.21997 8.83146 7.25001 8.71146 7.32001C6.92146 8.38001 6.25146 9.07002 6.25146 12.15V14.82C6.25146 15.91 7.12147 16.78 8.19147 16.78Z" fill="#292D32"/>
<path d="M14.3215 16.78H15.8115C16.9015 16.78 17.7515 15.93 17.7515 14.84V13.35C17.7515 12.26 16.9015 11.41 15.8115 11.41H13.9015C13.9815 9.59997 14.4015 9.33 15.6115 8.62C15.9715 8.41 16.0815 7.95003 15.8715 7.59003C15.7315 7.35003 15.4815 7.21997 15.2215 7.21997C15.0915 7.21997 14.9615 7.25001 14.8415 7.32001C13.0515 8.38001 12.3815 9.07002 12.3815 12.15V14.82C12.3915 15.91 13.2615 16.78 14.3215 16.78Z" fill="#292D32"/>
</svg>
