<svg width="24" height="24" viewBox="0 0 24 24" fill="none" xmlns="http://www.w3.org/2000/svg">
<path opacity="0.4" d="M16.1915 2H7.81146C4.17146 2 2.00146 4.17 2.00146 7.81V16.18C2.00146 19.83 4.17146 22 7.81146 22H16.1815C19.8215 22 21.9915 19.83 21.9915 16.19V7.81C22.0015 4.17 19.8315 2 16.1915 2Z" fill="#292D32"/>
<path d="M12.2014 17.66C11.5014 17.66 10.7914 17.39 10.2614 16.86C9.19141 15.79 9.19141 14.04 10.2614 12.97L11.6714 11.56C11.9614 11.27 12.4414 11.27 12.7314 11.56C13.0214 11.85 13.0214 12.33 12.7314 12.62L11.3214 14.03C10.8314 14.52 10.8314 15.31 11.3214 15.8C11.8114 16.29 12.6014 16.29 13.0914 15.8L15.3114 13.58C15.9214 12.97 16.2614 12.15 16.2614 11.28C16.2614 10.41 15.9214 9.60003 15.3114 8.98003C14.0814 7.75003 11.9414 7.75003 10.7114 8.98003L8.29141 11.4C7.25141 12.44 7.25141 14.14 8.29141 15.19C8.58141 15.48 8.58141 15.96 8.29141 16.25C8.00141 16.54 7.52141 16.54 7.23141 16.25C5.60141 14.62 5.60141 11.97 7.23141 10.34L9.65141 7.92003C10.5514 7.02003 11.7414 6.53003 13.0114 6.53003C14.2814 6.53003 15.4714 7.02003 16.3714 7.92003C17.2714 8.82003 17.7614 10.01 17.7614 11.28C17.7614 12.55 17.2714 13.74 16.3714 14.64L14.1514 16.86C13.6114 17.39 12.9114 17.66 12.2014 17.66Z" fill="#292D32"/>
</svg>
