<svg width="24" height="24" viewBox="0 0 24 24" fill="none" xmlns="http://www.w3.org/2000/svg">
<path d="M10.3715 18.1401C10.3715 19.5601 9.32144 20.72 7.79144 20.72H4.57147C3.15147 20.72 1.99146 19.5601 1.99146 18.1401L1.99146 12.3401" stroke="#292D32" stroke-width="1.5" stroke-linecap="round" stroke-linejoin="round"/>
<path d="M2.00146 12.35H7.80145C8.76145 12.35 9.52149 12.8 9.96149 13.49" stroke="#292D32" stroke-width="1.5" stroke-linecap="round" stroke-linejoin="round"/>
<path d="M2.00146 12.35C2.00146 6.29998 3.13149 5.30003 6.53149 3.28003" stroke="#292D32" stroke-width="1.5" stroke-linecap="round" stroke-linejoin="round"/>
<path d="M13.6315 12.35H19.4315C20.9615 12.35 22.0115 13.51 22.0115 14.93V18.15C22.0115 19.57 20.9615 20.73 19.4315 20.73H16.2115C14.7915 20.73 13.6315 19.57 13.6315 18.15V12.35" stroke="#292D32" stroke-width="1.5" stroke-linecap="round" stroke-linejoin="round"/>
<path d="M13.6315 12.35C13.6315 6.29998 14.7614 5.30003 18.1614 3.28003" stroke="#292D32" stroke-width="1.5" stroke-linecap="round" stroke-linejoin="round"/>
</svg>
