<svg width="24" height="24" viewBox="0 0 24 24" fill="none" xmlns="http://www.w3.org/2000/svg">
<path opacity="0.4" d="M12.0015 22C17.5243 22 22.0015 17.5228 22.0015 12C22.0015 6.47715 17.5243 2 12.0015 2C6.47862 2 2.00146 6.47715 2.00146 12C2.00146 17.5228 6.47862 22 12.0015 22Z" fill="#292D32"/>
<path d="M8.19147 16.78H9.68146C10.7715 16.78 11.6215 15.93 11.6215 14.84V13.35C11.6215 12.26 10.7715 11.41 9.68146 11.41H7.77147C7.85147 9.59997 8.27146 9.33 9.48146 8.62C9.84146 8.41 9.95147 7.95003 9.74147 7.59003C9.60147 7.35003 9.35146 7.21997 9.09146 7.21997C8.96146 7.21997 8.83147 7.25001 8.71147 7.32001C6.92147 8.38001 6.25146 9.07002 6.25146 12.15V14.82C6.25146 15.91 7.12147 16.78 8.19147 16.78Z" fill="#292D32"/>
<path d="M14.3215 16.78H15.8115C16.9015 16.78 17.7515 15.93 17.7515 14.84V13.35C17.7515 12.26 16.9015 11.41 15.8115 11.41H13.9015C13.9815 9.59997 14.4015 9.33 15.6115 8.62C15.9715 8.41 16.0815 7.95003 15.8715 7.59003C15.7315 7.35003 15.4815 7.21997 15.2215 7.21997C15.0915 7.21997 14.9615 7.25001 14.8415 7.32001C13.0515 8.38001 12.3815 9.07002 12.3815 12.15V14.82C12.3915 15.91 13.2615 16.78 14.3215 16.78Z" fill="#292D32"/>
</svg>
