<svg width="24" height="24" viewBox="0 0 24 24" fill="none" xmlns="http://www.w3.org/2000/svg">
<path d="M15.9115 12.3699H20.6015C20.5215 17.0399 19.6015 17.8099 16.7315 19.5099C16.4015 19.7099 16.2915 20.1299 16.4915 20.4699C16.6915 20.7999 17.1115 20.9099 17.4515 20.7099C20.8315 18.7099 22.0115 17.4899 22.0115 11.6699V6.27994C22.0115 4.56994 20.6215 3.18994 18.9215 3.18994H15.9215C14.1615 3.18994 12.8315 4.51994 12.8315 6.27994V9.27994C12.8215 11.0399 14.1515 12.3699 15.9115 12.3699Z" fill="#292D32"/>
<path d="M5.09146 12.3699H9.78146C9.70146 17.0399 8.78146 17.8099 5.91146 19.5099C5.58146 19.7099 5.47146 20.1299 5.67146 20.4699C5.87146 20.7999 6.29146 20.9099 6.63146 20.7099C10.0115 18.7099 11.1915 17.4899 11.1915 11.6699V6.27994C11.1915 4.56994 9.80147 3.18994 8.10147 3.18994H5.10146C3.33146 3.18994 2.00146 4.51994 2.00146 6.27994V9.27994C2.00146 11.0399 3.33147 12.3699 5.09146 12.3699Z" fill="#292D32"/>
</svg>
