<svg width="24" height="24" viewBox="0 0 24 24" fill="none" xmlns="http://www.w3.org/2000/svg">
<path d="M8.18155 16.77C8.16155 16.77 8.13156 16.77 8.11156 16.77C7.14156 16.68 6.23156 16.23 5.55156 15.51C3.95156 13.83 3.95156 11.1 5.55156 9.41998L7.74156 7.11996C8.52156 6.29996 9.57156 5.83997 10.6916 5.83997C11.8116 5.83997 12.8616 6.28996 13.6416 7.11996C15.2416 8.79996 15.2416 11.53 13.6416 13.21L12.5516 14.36C12.2616 14.66 11.7916 14.67 11.4916 14.39C11.1916 14.1 11.1816 13.63 11.4616 13.33L12.5516 12.18C13.6116 11.07 13.6116 9.25997 12.5516 8.15997C11.5616 7.11997 9.82157 7.11997 8.82157 8.15997L6.63156 10.46C5.57156 11.57 5.57156 13.38 6.63156 14.48C7.06156 14.94 7.64156 15.22 8.25156 15.28C8.66156 15.32 8.96156 15.69 8.92156 16.1C8.89156 16.48 8.56155 16.77 8.18155 16.77Z" fill="#292D32"/>
<path d="M13.3116 18.1599C12.1916 18.1599 11.1416 17.7099 10.3616 16.8799C8.76162 15.1999 8.76162 12.4699 10.3616 10.7899L11.4516 9.63991C11.7416 9.33991 12.2116 9.32988 12.5116 9.60988C12.8116 9.89988 12.8216 10.3699 12.5416 10.6699L11.4516 11.8199C10.3916 12.9299 10.3916 14.7399 11.4516 15.8399C12.4416 16.8799 14.1816 16.8899 15.1816 15.8399L17.3716 13.5399C18.4316 12.4299 18.4316 10.6199 17.3716 9.51989C16.9416 9.05989 16.3616 8.7799 15.7516 8.7199C15.3416 8.6799 15.0416 8.30989 15.0816 7.89989C15.1216 7.48989 15.4816 7.17991 15.9016 7.22991C16.8716 7.32991 17.7816 7.76989 18.4616 8.48989C20.0616 10.1699 20.0616 12.8999 18.4616 14.5799L16.2716 16.8799C15.4816 17.7099 14.4316 18.1599 13.3116 18.1599Z" fill="#292D32"/>
<path d="M15.0015 22.75H9.00146C3.57147 22.75 1.25146 20.43 1.25146 15V9C1.25146 3.57 3.57147 1.25 9.00146 1.25H15.0015C20.4315 1.25 22.7515 3.57 22.7515 9V15C22.7515 20.43 20.4315 22.75 15.0015 22.75ZM9.00146 2.75C4.39146 2.75 2.75146 4.39 2.75146 9V15C2.75146 19.61 4.39146 21.25 9.00146 21.25H15.0015C19.6115 21.25 21.2515 19.61 21.2515 15V9C21.2515 4.39 19.6115 2.75 15.0015 2.75H9.00146Z" fill="#292D32"/>
</svg>
