<svg width="24" height="24" viewBox="0 0 24 24" fill="none" xmlns="http://www.w3.org/2000/svg">
<path d="M12.2015 11.8L10.7914 13.21C10.0114 13.99 10.0114 15.26 10.7914 16.04C11.5714 16.82 12.8415 16.82 13.6215 16.04L15.8415 13.82C17.4015 12.26 17.4015 9.72999 15.8415 8.15999C14.2815 6.59999 11.7515 6.59999 10.1815 8.15999L7.76147 10.58C6.42147 11.92 6.42147 14.09 7.76147 15.43" stroke="#292D32" stroke-width="1.5" stroke-linecap="round" stroke-linejoin="round"/>
<path d="M4.00146 6C2.75146 7.67 2.00146 9.75 2.00146 12C2.00146 17.52 6.48146 22 12.0015 22C17.5215 22 22.0015 17.52 22.0015 12C22.0015 6.48 17.5215 2 12.0015 2C10.5715 2 9.20144 2.30001 7.97144 2.85001" stroke="#292D32" stroke-width="1.5" stroke-linecap="round" stroke-linejoin="round"/>
</svg>
