<svg width="24" height="24" viewBox="0 0 24 24" fill="none" xmlns="http://www.w3.org/2000/svg">
<path d="M17.0013 12.59H14.3214C13.2314 12.59 12.3813 11.74 12.3813 10.65V9.15997C12.3813 8.06997 13.2314 7.21997 14.3214 7.21997H15.8113C16.8813 7.21997 17.7513 8.08997 17.7513 9.15997V11.83C17.7513 12.25 17.4113 12.59 17.0013 12.59ZM14.3214 8.71997C14.0014 8.71997 13.8813 8.95997 13.8813 9.15997V10.65C13.8813 10.85 13.9914 11.09 14.3214 11.09H16.2513V9.16998C16.2513 8.92998 16.0513 8.72998 15.8113 8.72998H14.3214V8.71997Z" fill="#292D32"/>
<path d="M14.9114 16.7801C14.6514 16.7801 14.4014 16.65 14.2614 16.41C14.0514 16.05 14.1714 15.5901 14.5214 15.3801C15.8814 14.5701 16.2514 14.3601 16.2514 11.8401C16.2514 11.4301 16.5914 11.0901 17.0014 11.0901C17.4114 11.0901 17.7514 11.4301 17.7514 11.8401C17.7514 14.9201 17.0814 15.61 15.2914 16.67C15.1714 16.74 15.0414 16.7801 14.9114 16.7801Z" fill="#292D32"/>
<path d="M10.8617 12.59H8.18169C7.09169 12.59 6.2417 11.74 6.2417 10.65V9.15997C6.2417 8.06997 7.09169 7.21997 8.18169 7.21997H9.67169C10.7417 7.21997 11.6117 8.08997 11.6117 9.15997V11.83C11.6117 12.25 11.2817 12.59 10.8617 12.59ZM8.1917 8.71997C7.8717 8.71997 7.75169 8.95997 7.75169 9.15997V10.65C7.75169 10.85 7.8617 11.09 8.1917 11.09H10.1217V9.16998C10.1217 8.92998 9.92169 8.72998 9.68169 8.72998H8.1917V8.71997Z" fill="#292D32"/>
<path d="M8.77129 16.7801C8.51129 16.7801 8.26128 16.65 8.12128 16.41C7.91128 16.05 8.03129 15.5901 8.38129 15.3801C9.74129 14.5701 10.1113 14.3601 10.1113 11.8401C10.1113 11.4301 10.4513 11.0901 10.8613 11.0901C11.2713 11.0901 11.6113 11.4301 11.6113 11.8401C11.6113 14.9201 10.9413 15.61 9.15128 16.67C9.03128 16.74 8.90129 16.7801 8.77129 16.7801Z" fill="#292D32"/>
<path d="M12.0015 22.75C6.07147 22.75 1.25146 17.93 1.25146 12C1.25146 6.07 6.07147 1.25 12.0015 1.25C17.9315 1.25 22.7515 6.07 22.7515 12C22.7515 17.93 17.9315 22.75 12.0015 22.75ZM12.0015 2.75C6.90146 2.75 2.75146 6.9 2.75146 12C2.75146 17.1 6.90146 21.25 12.0015 21.25C17.1015 21.25 21.2515 17.1 21.2515 12C21.2515 6.9 17.1015 2.75 12.0015 2.75Z" fill="#292D32"/>
</svg>
