<svg width="24" height="24" viewBox="0 0 24 24" fill="none" xmlns="http://www.w3.org/2000/svg">
<path d="M19.0615 18.67L16.9215 14.4L14.7815 18.67" stroke="#292D32" stroke-width="1.5" stroke-linecap="round" stroke-linejoin="round"/>
<path d="M15.1714 17.9099H18.6915" stroke="#292D32" stroke-width="1.5" stroke-linecap="round" stroke-linejoin="round"/>
<path d="M16.9215 22.0001C14.1215 22.0001 11.8415 19.73 11.8415 16.92C11.8415 14.12 14.1115 11.8401 16.9215 11.8401C19.7215 11.8401 22.0015 14.11 22.0015 16.92C22.0015 19.73 19.7315 22.0001 16.9215 22.0001Z" stroke="#292D32" stroke-width="1.5" stroke-linecap="round" stroke-linejoin="round"/>
<path d="M5.02147 2H8.94147C11.0115 2 12.0115 3.00002 11.9615 5.02002V8.94C12.0115 11.01 11.0115 12.01 8.94147 11.96H5.02147C3.00147 12 2.00146 11 2.00146 8.92999V5.01001C2.00146 3.00001 3.00147 2 5.02147 2Z" stroke="#292D32" stroke-width="1.5" stroke-linecap="round" stroke-linejoin="round"/>
<path d="M9.01147 5.84985H4.95148" stroke="#292D32" stroke-width="1.5" stroke-linecap="round" stroke-linejoin="round"/>
<path d="M6.97147 5.16992V5.84991" stroke="#292D32" stroke-width="1.5" stroke-linecap="round" stroke-linejoin="round"/>
<path d="M7.99147 5.83997C7.99147 7.58997 6.62147 9.00995 4.94147 9.00995" stroke="#292D32" stroke-width="1.5" stroke-linecap="round" stroke-linejoin="round"/>
<path d="M9.01146 9.01001C8.28146 9.01001 7.62147 8.62 7.16147 8" stroke="#292D32" stroke-width="1.5" stroke-linecap="round" stroke-linejoin="round"/>
<path opacity="0.4" d="M2.00146 15C2.00146 18.87 5.13146 22 9.00146 22L7.95146 20.25" stroke="#292D32" stroke-width="1.5" stroke-linecap="round" stroke-linejoin="round"/>
<path opacity="0.4" d="M22.0015 9C22.0015 5.13 18.8715 2 15.0015 2L16.0515 3.75" stroke="#292D32" stroke-width="1.5" stroke-linecap="round" stroke-linejoin="round"/>
</svg>
