<svg width="24" height="24" viewBox="0 0 24 24" fill="none" xmlns="http://www.w3.org/2000/svg">
<path d="M15.0015 22.75H9.00146C3.57147 22.75 1.25146 20.43 1.25146 15V9C1.25146 3.57 3.57147 1.25 9.00146 1.25H15.0015C20.4315 1.25 22.7515 3.57 22.7515 9V15C22.7515 20.43 20.4315 22.75 15.0015 22.75ZM9.00146 2.75C4.39146 2.75 2.75146 4.39 2.75146 9V15C2.75146 19.61 4.39146 21.25 9.00146 21.25H15.0015C19.6115 21.25 21.2515 19.61 21.2515 15V9C21.2515 4.39 19.6115 2.75 15.0015 2.75H9.00146Z" fill="#292D32"/>
<path d="M10.0916 18.25C9.47158 18.25 8.86158 18.02 8.39158 17.55L6.45158 15.61C5.51158 14.67 5.51158 13.15 6.45158 12.21L12.2016 6.46C13.1416 5.52 14.6616 5.52 15.6016 6.46L17.5416 8.39999C18.4816 9.33999 18.4816 10.86 17.5416 11.8L11.7916 17.55C11.3216 18.01 10.7116 18.25 10.0916 18.25ZM7.52159 14.55L9.46159 16.49C9.81159 16.84 10.3916 16.84 10.7416 16.49L16.4916 10.74C16.8416 10.39 16.8416 9.81 16.4916 9.46L14.5516 7.52C14.2016 7.17 13.6216 7.17 13.2716 7.52L7.52159 13.27C7.17159 13.62 7.17159 14.19 7.52159 14.55Z" fill="#292D32"/>
<path d="M13.5817 15.44C13.3917 15.44 13.2017 15.37 13.0517 15.22L8.7717 10.94C8.4817 10.65 8.4817 10.17 8.7717 9.87998C9.0617 9.58998 9.5417 9.58998 9.8317 9.87998L14.1117 14.16C14.4017 14.45 14.4017 14.93 14.1117 15.22C13.9717 15.37 13.7717 15.44 13.5817 15.44Z" fill="#292D32"/>
</svg>
