<svg width="24" height="24" viewBox="0 0 24 24" fill="none" xmlns="http://www.w3.org/2000/svg">
<path d="M15.9115 12.3699H20.6015C20.5215 17.0399 19.6015 17.8099 16.7315 19.5099C16.4015 19.7099 16.2915 20.1299 16.4915 20.4699C16.6915 20.7999 17.1115 20.91 17.4515 20.71C20.8315 18.71 22.0115 17.4899 22.0115 11.6699V6.27997C22.0115 4.56997 20.6215 3.18994 18.9215 3.18994H15.9215C14.1615 3.18994 12.8315 4.51997 12.8315 6.27997V9.27997C12.8215 11.04 14.1515 12.3699 15.9115 12.3699Z" fill="#292D32"/>
<path opacity="0.4" d="M5.09141 12.3699H9.78141C9.70141 17.0399 8.78141 17.8099 5.91141 19.5099C5.58141 19.7099 5.47141 20.1299 5.67141 20.4699C5.87141 20.7999 6.29141 20.91 6.63141 20.71C10.0114 18.71 11.1914 17.4899 11.1914 11.6699V6.27997C11.1914 4.56997 9.80141 3.18994 8.10141 3.18994H5.10141C3.34141 3.18994 2.01141 4.51997 2.01141 6.27997V9.27997C2.00141 11.04 3.33141 12.3699 5.09141 12.3699Z" fill="#292D32"/>
</svg>
