<svg width="24" height="24" viewBox="0 0 24 24" fill="none" xmlns="http://www.w3.org/2000/svg">
<path d="M9.00146 22H15.0015C20.0015 22 22.0015 20 22.0015 15V9C22.0015 4 20.0015 2 15.0015 2H9.00146C4.00146 2 2.00146 4 2.00146 9V15C2.00146 20 4.00146 22 9.00146 22Z" stroke="#292D32" stroke-width="1.5" stroke-linecap="round" stroke-linejoin="round"/>
<g opacity="0.4">
<path d="M17.0013 11.84H14.3213C13.6113 11.84 13.1313 11.3 13.1313 10.65V9.15997C13.1313 8.50997 13.6113 7.96997 14.3213 7.96997H15.8113C16.4613 7.96997 17.0013 8.50997 17.0013 9.15997V11.84Z" stroke="#292D32" stroke-width="1.5" stroke-linecap="round" stroke-linejoin="round"/>
<path d="M17.0011 11.8401C17.0011 14.6301 16.4811 15.1001 14.9111 16.0301" stroke="#292D32" stroke-width="1.5" stroke-linecap="round" stroke-linejoin="round"/>
<path d="M10.8617 11.84H8.1817C7.4717 11.84 6.9917 11.3 6.9917 10.65V9.15997C6.9917 8.50997 7.4717 7.96997 8.1817 7.96997H9.6717C10.3217 7.96997 10.8617 8.50997 10.8617 9.15997V11.84Z" stroke="#292D32" stroke-width="1.5" stroke-linecap="round" stroke-linejoin="round"/>
<path d="M10.8615 11.8401C10.8615 14.6301 10.3415 15.1001 8.77148 16.0301" stroke="#292D32" stroke-width="1.5" stroke-linecap="round" stroke-linejoin="round"/>
</g>
</svg>
