<svg width="24" height="24" viewBox="0 0 24 24" fill="none" xmlns="http://www.w3.org/2000/svg">
<path opacity="0.4" d="M16.9215 22C14.1215 22 11.8415 19.73 11.8415 16.92C11.8415 14.12 14.1115 11.84 16.9215 11.84C19.7215 11.84 22.0015 14.11 22.0015 16.92C22.0015 19.73 19.7315 22 16.9215 22Z" fill="#292D32"/>
<path opacity="0.4" d="M5.02147 2H8.94147C11.0115 2 12.0115 2.99999 11.9615 5.01999V8.94C12.0115 11.01 11.0115 12.01 8.94147 11.96H5.02147C3.00147 12 2.00146 11 2.00146 8.92999V5.01001C2.00146 3.00001 3.00147 2 5.02147 2Z" fill="#292D32"/>
<path d="M9.01146 8.26004C8.70146 8.26004 8.41146 8.14003 8.14146 7.94003C8.39146 7.54003 8.57147 7.09004 8.66147 6.60004H9.00146C9.41146 6.60004 9.75146 6.26004 9.75146 5.85004C9.75146 5.44004 9.41146 5.10004 9.00146 5.10004H8.01146C8.00146 5.10004 7.99147 5.10004 7.99147 5.10004H7.97147H7.71147C7.67147 4.72004 7.36147 4.42004 6.97147 4.42004C6.58147 4.42004 6.27146 4.72004 6.23146 5.10004H4.94147C4.53147 5.10004 4.19147 5.44004 4.19147 5.85004C4.19147 6.26004 4.53147 6.60004 4.94147 6.60004H7.11147C6.81147 7.56004 5.95146 8.26004 4.93146 8.26004C4.52146 8.26004 4.18146 8.60004 4.18146 9.01004C4.18146 9.42004 4.52146 9.76004 4.93146 9.76004C5.74146 9.76004 6.49147 9.49004 7.11147 9.04004C7.66147 9.50004 8.32147 9.76004 9.00146 9.76004C9.41146 9.76004 9.75146 9.42004 9.75146 9.01004C9.75146 8.60004 9.42146 8.26004 9.01146 8.26004Z" fill="#292D32"/>
<path d="M9.00146 22.75C4.73146 22.75 1.25146 19.27 1.25146 15C1.25146 14.59 1.59146 14.25 2.00146 14.25C2.41146 14.25 2.75146 14.59 2.75146 15C2.75146 17.96 4.81147 20.44 7.58147 21.09L7.31146 20.64C7.10146 20.28 7.21147 19.82 7.57147 19.61C7.92147 19.4 8.39147 19.51 8.60147 19.87L9.65146 21.62C9.79146 21.85 9.79147 22.14 9.66147 22.37C9.52147 22.6 9.27147 22.75 9.00146 22.75Z" fill="#292D32"/>
<path d="M22.0015 9.75C21.5915 9.75 21.2515 9.41 21.2515 9C21.2515 6.04 19.1915 3.56 16.4215 2.91L16.6915 3.35999C16.9015 3.71999 16.7915 4.18001 16.4315 4.39001C16.0815 4.60001 15.6115 4.49001 15.4015 4.13L14.3515 2.38C14.2115 2.15 14.2115 1.86 14.3415 1.63C14.4715 1.39 14.7215 1.25 14.9915 1.25C19.2615 1.25 22.7415 4.73 22.7415 9C22.7515 9.41 22.4115 9.75 22.0015 9.75Z" fill="#292D32"/>
<path d="M19.7314 18.33L17.5914 14.06C17.4614 13.81 17.2014 13.64 16.9214 13.64C16.6414 13.64 16.3814 13.8 16.2514 14.05L14.1114 18.32C13.9214 18.69 14.0714 19.14 14.4514 19.33C14.5614 19.38 14.6714 19.41 14.7814 19.41C15.0514 19.41 15.3214 19.26 15.4514 19L15.6214 18.66H18.2115L18.3815 19C18.5715 19.37 19.0214 19.52 19.3914 19.34C19.7714 19.15 19.9214 18.7 19.7314 18.33ZM16.3815 17.16L16.9314 16.07L17.4814 17.16H16.3815Z" fill="#292D32"/>
</svg>
