<svg width="24" height="24" viewBox="0 0 24 24" fill="none" xmlns="http://www.w3.org/2000/svg">
<path opacity="0.4" d="M16.1915 2H7.82149C4.18149 2 2.01147 4.17 2.01147 7.81V16.18C2.01147 19.82 4.18149 21.99 7.82149 21.99H16.1915C19.8315 21.99 22.0015 19.82 22.0015 16.18V7.81C22.0015 4.17 19.8315 2 16.1915 2Z" fill="#292D32"/>
<path d="M8.18143 16.77C8.16143 16.77 8.13144 16.77 8.11144 16.77C7.14144 16.68 6.23144 16.23 5.55144 15.51C3.95144 13.83 3.95144 11.1 5.55144 9.41998L7.74144 7.11996C8.52144 6.29996 9.57144 5.83997 10.6914 5.83997C11.8114 5.83997 12.8614 6.28996 13.6414 7.11996C15.2414 8.79996 15.2414 11.53 13.6414 13.21L12.5514 14.36C12.2614 14.66 11.7914 14.67 11.4914 14.39C11.1914 14.1 11.1814 13.63 11.4614 13.33L12.5514 12.18C13.6114 11.07 13.6114 9.25997 12.5514 8.15997C11.5614 7.11997 9.82144 7.11997 8.82144 8.15997L6.63144 10.46C5.57144 11.57 5.57144 13.38 6.63144 14.48C7.06144 14.94 7.64144 15.22 8.25144 15.28C8.66144 15.32 8.96144 15.69 8.92144 16.1C8.89144 16.48 8.56143 16.77 8.18143 16.77Z" fill="#292D32"/>
<path d="M13.3114 18.1599C12.1914 18.1599 11.1414 17.7099 10.3614 16.8799C8.76144 15.1999 8.76144 12.4699 10.3614 10.7899L11.4514 9.63991C11.7414 9.33991 12.2114 9.32988 12.5114 9.60988C12.8114 9.89988 12.8214 10.3699 12.5414 10.6699L11.4514 11.8199C10.3914 12.9299 10.3914 14.7399 11.4514 15.8399C12.4414 16.8799 14.1814 16.8899 15.1814 15.8399L17.3714 13.5399C18.4314 12.4299 18.4314 10.6199 17.3714 9.51989C16.9414 9.05989 16.3614 8.7799 15.7514 8.7199C15.3414 8.6799 15.0414 8.30989 15.0814 7.89989C15.1214 7.48989 15.4814 7.17991 15.9014 7.22991C16.8714 7.32991 17.7814 7.76989 18.4614 8.48989C20.0614 10.1699 20.0614 12.8999 18.4614 14.5799L16.2714 16.8799C15.4814 17.7099 14.4314 18.1599 13.3114 18.1599Z" fill="#292D32"/>
</svg>
