<svg width="24" height="24" viewBox="0 0 24 24" fill="none" xmlns="http://www.w3.org/2000/svg">
<path d="M15.0015 22.75H9.00146C3.57147 22.75 1.25146 20.43 1.25146 15V9C1.25146 3.57 3.57147 1.25 9.00146 1.25H15.0015C20.4315 1.25 22.7515 3.57 22.7515 9V15C22.7515 20.43 20.4315 22.75 15.0015 22.75ZM9.00146 2.75C4.39146 2.75 2.75146 4.39 2.75146 9V15C2.75146 19.61 4.39146 21.25 9.00146 21.25H15.0015C19.6115 21.25 21.2515 19.61 21.2515 15V9C21.2515 4.39 19.6115 2.75 15.0015 2.75H9.00146Z" fill="#292D32"/>
<path d="M17.0013 12.59H14.3213C13.2313 12.59 12.3813 11.74 12.3813 10.65V9.15997C12.3813 8.06997 13.2313 7.21997 14.3213 7.21997H15.8113C16.8813 7.21997 17.7513 8.08997 17.7513 9.15997V11.83C17.7513 12.25 17.4113 12.59 17.0013 12.59ZM14.3213 8.71997C14.0013 8.71997 13.8813 8.95997 13.8813 9.15997V10.65C13.8813 10.85 13.9913 11.09 14.3213 11.09H16.2513V9.16998C16.2513 8.92998 16.0513 8.72998 15.8113 8.72998H14.3213V8.71997Z" fill="#292D32"/>
<path d="M14.9114 16.7801C14.6514 16.7801 14.4014 16.65 14.2614 16.41C14.0514 16.05 14.1714 15.5901 14.5214 15.3801C15.8814 14.5701 16.2514 14.3601 16.2514 11.8401C16.2514 11.4301 16.5914 11.0901 17.0014 11.0901C17.4114 11.0901 17.7514 11.4301 17.7514 11.8401C17.7514 14.9201 17.0814 15.61 15.2914 16.67C15.1714 16.74 15.0414 16.7801 14.9114 16.7801Z" fill="#292D32"/>
<path d="M10.8617 12.59H8.1817C7.0917 12.59 6.2417 11.74 6.2417 10.65V9.15997C6.2417 8.06997 7.0917 7.21997 8.1817 7.21997H9.6717C10.7417 7.21997 11.6117 8.08997 11.6117 9.15997V11.83C11.6117 12.25 11.2817 12.59 10.8617 12.59ZM8.1917 8.71997C7.8717 8.71997 7.7517 8.95997 7.7517 9.15997V10.65C7.7517 10.85 7.8617 11.09 8.1917 11.09H10.1217V9.16998C10.1217 8.92998 9.9217 8.72998 9.6817 8.72998H8.1917V8.71997Z" fill="#292D32"/>
<path d="M8.77129 16.7801C8.51129 16.7801 8.26128 16.65 8.12128 16.41C7.91128 16.05 8.03129 15.5901 8.38129 15.3801C9.74129 14.5701 10.1113 14.3601 10.1113 11.8401C10.1113 11.4301 10.4513 11.0901 10.8613 11.0901C11.2713 11.0901 11.6113 11.4301 11.6113 11.8401C11.6113 14.9201 10.9413 15.61 9.15129 16.67C9.03129 16.74 8.90129 16.7801 8.77129 16.7801Z" fill="#292D32"/>
</svg>
