<svg width="24" height="24" viewBox="0 0 24 24" fill="none" xmlns="http://www.w3.org/2000/svg">
<path d="M8.09149 11.63H3.40149C3.48149 6.95997 4.40148 6.18996 7.27148 4.48996C7.60148 4.28996 7.71147 3.86996 7.51147 3.52996C7.31147 3.19996 6.89145 3.08997 6.55145 3.28997C3.17145 5.28997 1.99146 6.50995 1.99146 12.33V17.72C1.99146 19.43 3.38148 20.81 5.08148 20.81H8.08148C9.84148 20.81 11.1714 19.48 11.1714 17.72V14.72C11.1814 12.96 9.85149 11.63 8.09149 11.63Z" fill="#292D32"/>
<path opacity="0.4" d="M18.9115 11.63H14.2215C14.3015 6.95997 15.2216 6.18996 18.0916 4.48996C18.4216 4.28996 18.5315 3.86996 18.3315 3.52996C18.1315 3.19996 17.7115 3.08997 17.3715 3.28997C13.9915 5.28997 12.8115 6.50995 12.8115 12.33V17.72C12.8115 19.43 14.2016 20.81 15.9016 20.81H18.9016C20.6616 20.81 21.9915 19.48 21.9915 17.72V14.72C22.0015 12.96 20.6715 11.63 18.9115 11.63Z" fill="#292D32"/>
</svg>
