<svg width="24" height="24" viewBox="0 0 24 24" fill="none" xmlns="http://www.w3.org/2000/svg">
<path opacity="0.4" d="M16.1915 2H7.81146C4.17146 2 2.00146 4.17 2.00146 7.81V16.18C2.00146 19.83 4.17146 22 7.81146 22H16.1815C19.8215 22 21.9915 19.83 21.9915 16.19V7.81C22.0015 4.17 19.8315 2 16.1915 2Z" fill="#292D32"/>
<path d="M11.4315 18.1799C9.13147 18.1799 7.25146 16.2999 7.25146 13.9999V10.5699C7.25146 7.94995 9.38146 5.81995 12.0015 5.81995C14.6215 5.81995 16.7515 7.94995 16.7515 10.5699V13.7099C16.7515 15.2299 15.5215 16.4599 14.0015 16.4599C12.4815 16.4599 11.2515 15.2299 11.2515 13.7099V11.7099C11.2515 11.2999 11.5915 10.9599 12.0015 10.9599C12.4115 10.9599 12.7515 11.2999 12.7515 11.7099V13.7099C12.7515 14.3999 13.3115 14.9599 14.0015 14.9599C14.6915 14.9599 15.2515 14.3999 15.2515 13.7099V10.5699C15.2515 8.77995 13.7915 7.31995 12.0015 7.31995C10.2115 7.31995 8.75146 8.77995 8.75146 10.5699V13.9999C8.75146 15.4799 9.95147 16.6799 11.4315 16.6799C11.8415 16.6799 12.1815 17.0199 12.1815 17.4299C12.1815 17.8399 11.8415 18.1799 11.4315 18.1799Z" fill="#292D32"/>
</svg>
