<svg width="24" height="24" viewBox="0 0 24 24" fill="none" xmlns="http://www.w3.org/2000/svg">
<path d="M21.3315 7.92003C20.9215 7.92003 20.5815 7.58003 20.5815 7.17003V5.35003C20.5815 4.62003 19.9915 4.03003 19.2615 4.03003H4.74148C4.01148 4.03003 3.42148 4.62003 3.42148 5.35003V7.18003C3.42148 7.59003 3.08148 7.93003 2.67148 7.93003C2.26148 7.93003 1.92148 7.59003 1.92148 7.17003V5.35003C1.92148 3.79003 3.19148 2.53003 4.74148 2.53003H19.2615C20.8215 2.53003 22.0815 3.80003 22.0815 5.35003V7.18003C22.0815 7.59003 21.7515 7.92003 21.3315 7.92003Z" fill="#292D32"/>
<path d="M12.0015 21.47C11.5915 21.47 11.2515 21.13 11.2515 20.72V4.10999C11.2515 3.69999 11.5915 3.35999 12.0015 3.35999C12.4115 3.35999 12.7515 3.69999 12.7515 4.10999V20.72C12.7515 21.14 12.4115 21.47 12.0015 21.47Z" fill="#292D32"/>
<path d="M15.9415 21.47H8.06146C7.65146 21.47 7.31146 21.13 7.31146 20.72C7.31146 20.31 7.65146 19.97 8.06146 19.97H15.9415C16.3515 19.97 16.6915 20.31 16.6915 20.72C16.6915 21.13 16.3515 21.47 15.9415 21.47Z" fill="#292D32"/>
</svg>
