<svg width="24" height="24" viewBox="0 0 24 24" fill="none" xmlns="http://www.w3.org/2000/svg">
<path opacity="0.4" d="M22.0015 7.81V16.19C22.0015 19.83 19.8315 22 16.1915 22H7.81146C7.61146 22 7.41146 21.99 7.22146 21.98C5.99146 21.9 4.95146 21.55 4.13146 20.95C3.71147 20.66 3.34146 20.29 3.05146 19.87C2.36146 18.92 2.00146 17.68 2.00146 16.19V7.81C2.00146 4.37 3.94146 2.24 7.22146 2.03C7.41146 2.01 7.61146 2 7.81146 2H16.1915C17.6815 2 18.9215 2.36 19.8715 3.05C20.2915 3.34 20.6615 3.71 20.9515 4.13C21.6415 5.08 22.0015 6.32 22.0015 7.81Z" fill="#292D32"/>
<path d="M16.8315 18.96H7.17151C6.76151 18.96 6.42151 18.62 6.42151 18.21C6.42151 17.8 6.76151 17.46 7.17151 17.46H16.8415C17.2515 17.46 17.5915 17.8 17.5915 18.21C17.5915 18.62 17.2515 18.96 16.8315 18.96Z" fill="#292D32"/>
<path d="M12.0015 16.2C8.92151 16.2 6.42151 13.7 6.42151 10.62V5.79004C6.42151 5.38004 6.76151 5.04004 7.17151 5.04004C7.58151 5.04004 7.92151 5.38004 7.92151 5.79004V10.62C7.92151 12.87 9.75151 14.7 12.0015 14.7C14.2515 14.7 16.0815 12.87 16.0815 10.62V5.79004C16.0815 5.38004 16.4215 5.04004 16.8315 5.04004C17.2415 5.04004 17.5815 5.38004 17.5815 5.79004V10.62C17.5815 13.7 15.0815 16.2 12.0015 16.2Z" fill="#292D32"/>
</svg>
