<svg width="24" height="24" viewBox="0 0 24 24" fill="none" xmlns="http://www.w3.org/2000/svg">
<path d="M13.6315 5.85992C13.6315 4.43992 14.6815 3.27997 16.2115 3.27997L19.4215 3.27997C20.8415 3.27997 22.0015 4.43992 22.0015 5.85992L22.0015 11.6599" stroke="#292D32" stroke-width="1.5" stroke-linecap="round" stroke-linejoin="round"/>
<path d="M22.0015 11.65L16.2015 11.65C15.2415 11.65 14.4815 11.2 14.0415 10.51" stroke="#292D32" stroke-width="1.5" stroke-linecap="round" stroke-linejoin="round"/>
<path d="M22.0015 11.65C22.0015 17.7 20.8715 18.7 17.4715 20.72" stroke="#292D32" stroke-width="1.5" stroke-linecap="round" stroke-linejoin="round"/>
<path d="M10.3715 11.65L4.57147 11.65C3.04147 11.65 1.99147 10.49 1.99147 9.07001L1.99147 5.84997C1.99147 4.42997 3.04147 3.27002 4.57147 3.27002L7.80147 3.27002C9.22147 3.27002 10.3815 4.42998 10.3815 5.84998L10.3815 11.65" stroke="#292D32" stroke-width="1.5" stroke-linecap="round" stroke-linejoin="round"/>
<path d="M10.3715 11.65C10.3715 17.7 9.24146 18.7 5.84146 20.72" stroke="#292D32" stroke-width="1.5" stroke-linecap="round" stroke-linejoin="round"/>
</svg>
