<svg width="24" height="24" viewBox="0 0 24 24" fill="none" xmlns="http://www.w3.org/2000/svg">
<path d="M7.9412 15.2599C7.8512 15.2599 7.77119 15.2499 7.68119 15.2099C6.87119 14.9099 6.1912 14.3199 5.7612 13.5499C4.7612 11.7499 5.38121 9.39992 7.13121 8.30992L9.4712 6.85991C10.3312 6.32991 11.3412 6.16994 12.3012 6.41994C13.2612 6.66994 14.0712 7.29992 14.5612 8.17992C15.5612 9.97992 14.9412 12.3299 13.1912 13.4199L12.9312 13.6099C12.5912 13.8499 12.1212 13.7699 11.8812 13.4399C11.6412 13.0999 11.7212 12.6299 12.0512 12.3899L12.3612 12.1699C13.4812 11.4699 13.8612 10.0199 13.2512 8.90993C12.9612 8.38993 12.4912 8.01992 11.9312 7.86992C11.3712 7.71992 10.7812 7.81993 10.2712 8.12993L7.93119 9.57991C6.85119 10.2499 6.4712 11.6999 7.0812 12.8199C7.3312 13.2699 7.73121 13.6199 8.21121 13.7999C8.60121 13.9399 8.8012 14.3699 8.6512 14.7599C8.5412 15.0699 8.2512 15.2599 7.9412 15.2599Z" fill="#292D32"/>
<path d="M12.6614 17.65C12.3614 17.65 12.0514 17.61 11.7514 17.53C10.7914 17.28 9.98143 16.65 9.50143 15.77C8.50143 13.97 9.12143 11.62 10.8714 10.53L11.1314 10.34C11.4714 10.1 11.9414 10.18 12.1814 10.51C12.4214 10.85 12.3414 11.32 12.0114 11.56L11.7014 11.78C10.5814 12.48 10.2014 13.93 10.8114 15.04C11.1014 15.56 11.5714 15.93 12.1314 16.08C12.6914 16.23 13.2814 16.13 13.7914 15.82L16.1314 14.37C17.2114 13.7 17.5914 12.25 16.9814 11.13C16.7314 10.68 16.3314 10.33 15.8514 10.15C15.4614 10.01 15.2614 9.57999 15.4114 9.18999C15.5514 8.79999 15.9814 8.59999 16.3714 8.74999C17.1814 9.04999 17.8614 9.63999 18.2914 10.41C19.2914 12.21 18.6714 14.56 16.9214 15.65L14.5814 17.1C13.9914 17.46 13.3314 17.65 12.6614 17.65Z" fill="#292D32"/>
<path d="M12.0015 22.75C6.07147 22.75 1.25146 17.93 1.25146 12C1.25146 6.07 6.07147 1.25 12.0015 1.25C17.9315 1.25 22.7515 6.07 22.7515 12C22.7515 17.93 17.9315 22.75 12.0015 22.75ZM12.0015 2.75C6.90146 2.75 2.75146 6.9 2.75146 12C2.75146 17.1 6.90146 21.25 12.0015 21.25C17.1015 21.25 21.2515 17.1 21.2515 12C21.2515 6.9 17.1015 2.75 12.0015 2.75Z" fill="#292D32"/>
</svg>
