<svg width="24" height="24" viewBox="0 0 24 24" fill="none" xmlns="http://www.w3.org/2000/svg">
<path d="M19.0715 14.24C18.7815 14.53 18.3215 14.53 18.0415 14.24C17.7515 13.95 17.7515 13.49 18.0415 13.21C20.0415 11.21 20.0415 7.95998 18.0415 5.96998C16.0415 3.97998 12.7915 3.96998 10.8015 5.96998C8.81149 7.96998 8.80149 11.22 10.8015 13.21C11.0915 13.5 11.0915 13.96 10.8015 14.24C10.5115 14.53 10.0515 14.53 9.77149 14.24C7.20149 11.67 7.20149 7.48998 9.77149 4.92998C12.3415 2.36998 16.5215 2.35998 19.0815 4.92998C21.6415 7.49998 21.6415 11.67 19.0715 14.24Z" fill="#292D32"/>
<path opacity="0.4" d="M19.0715 4.92994C21.6415 7.49994 21.6415 11.6699 19.0715 14.2399C18.1915 15.1199 17.1115 15.6999 15.9815 15.9799C16.5115 13.8199 15.9315 11.4499 14.2415 9.75994C12.5515 8.06994 10.1815 7.48994 8.02148 8.01994C8.30148 6.88994 8.87148 5.80994 9.76148 4.92994C12.3315 2.35994 16.5015 2.35994 19.0715 4.92994Z" fill="#292D32"/>
<path d="M4.93144 9.75998C5.22144 9.46998 5.68144 9.46998 5.96144 9.75998C6.25144 10.05 6.25144 10.51 5.96144 10.79C3.96144 12.79 3.96144 16.04 5.96144 18.03C7.96144 20.02 11.2114 20.03 13.2014 18.03C15.1914 16.03 15.2014 12.78 13.2014 10.79C12.9114 10.5 12.9114 10.04 13.2014 9.75998C13.4914 9.46998 13.9514 9.46998 14.2314 9.75998C16.8014 12.33 16.8014 16.51 14.2314 19.07C11.6614 21.63 7.48144 21.64 4.92144 19.07C2.36144 16.5 2.36144 12.33 4.93144 9.75998Z" fill="#292D32"/>
<path opacity="0.5" d="M14.2415 9.76C15.9315 11.45 16.5115 13.82 15.9815 15.98C15.7015 17.11 15.1215 18.19 14.2415 19.07C11.6715 21.64 7.50147 21.64 4.93147 19.07C2.36147 16.5 2.36147 12.33 4.93147 9.76C5.81147 8.87 6.89147 8.3 8.02147 8.02C10.1815 7.49 12.5515 8.07 14.2415 9.76Z" fill="#292D32"/>
</svg>
