<svg width="24" height="24" viewBox="0 0 24 24" fill="none" xmlns="http://www.w3.org/2000/svg">
<path d="M17.0015 11.84H14.3215C13.6115 11.84 13.1315 11.3 13.1315 10.65V9.15997C13.1315 8.50997 13.6115 7.96997 14.3215 7.96997H15.8115C16.4615 7.96997 17.0015 8.50997 17.0015 9.15997V11.84Z" stroke="#292D32" stroke-width="1.5" stroke-linecap="round" stroke-linejoin="round"/>
<path d="M17.0015 11.8401C17.0015 14.6301 16.4815 15.1001 14.9115 16.0301" stroke="#292D32" stroke-width="1.5" stroke-linecap="round" stroke-linejoin="round"/>
<path d="M10.8615 11.84H8.18144C7.47144 11.84 6.99146 11.3 6.99146 10.65V9.15997C6.99146 8.50997 7.47144 7.96997 8.18144 7.96997H9.67145C10.3214 7.96997 10.8615 8.50997 10.8615 9.15997V11.84Z" stroke="#292D32" stroke-width="1.5" stroke-linecap="round" stroke-linejoin="round"/>
<path d="M10.8615 11.8401C10.8615 14.6301 10.3415 15.1001 8.77148 16.0301" stroke="#292D32" stroke-width="1.5" stroke-linecap="round" stroke-linejoin="round"/>
<path d="M4.00146 6C2.75146 7.67 2.00146 9.75 2.00146 12C2.00146 17.52 6.48146 22 12.0015 22C17.5215 22 22.0015 17.52 22.0015 12C22.0015 6.48 17.5215 2 12.0015 2C10.5715 2 9.20147 2.29998 7.97147 2.84998" stroke="#292D32" stroke-width="1.5" stroke-linecap="round" stroke-linejoin="round"/>
</svg>
