<svg width="24" height="24" viewBox="0 0 24 24" fill="none" xmlns="http://www.w3.org/2000/svg">
<path d="M7.80145 21.47H4.58148C2.75148 21.47 1.25146 19.9801 1.25146 18.1401V12.3401C1.25146 11.9301 1.59146 11.5901 2.00146 11.5901H7.80145C9.70145 11.5901 11.1315 13.02 11.1315 14.92V18.1401C11.1215 20.0401 9.69145 21.47 7.80145 21.47ZM2.75146 13.1V18.1501C2.75146 19.1601 3.57148 19.98 4.58148 19.98H7.80145C8.86145 19.98 9.63147 19.2101 9.63147 18.1501V14.9301C9.63147 13.8701 8.86145 13.1 7.80145 13.1H2.75146Z" fill="#292D32"/>
<path d="M2.00146 13.1C1.59146 13.1 1.25146 12.76 1.25146 12.35C1.25146 6.10004 2.52149 4.79008 6.15149 2.64008C6.51149 2.43008 6.97146 2.55009 7.18146 2.90009C7.39146 3.26009 7.27145 3.72006 6.92145 3.93006C3.68145 5.85006 2.75146 6.65004 2.75146 12.35C2.75146 12.76 2.41146 13.1 2.00146 13.1Z" fill="#292D32"/>
<path d="M19.4216 21.47H16.2016C14.3716 21.47 12.8716 19.9801 12.8716 18.1401V12.3401C12.8716 11.9301 13.2116 11.5901 13.6216 11.5901H19.4216C21.3216 11.5901 22.7516 13.02 22.7516 14.92V18.1401C22.7516 20.0401 21.3216 21.47 19.4216 21.47ZM14.3816 13.1V18.1501C14.3816 19.1601 15.2016 19.98 16.2116 19.98H19.4316C20.4916 19.98 21.2616 19.2101 21.2616 18.1501V14.9301C21.2616 13.8701 20.4916 13.1 19.4316 13.1H14.3816Z" fill="#292D32"/>
<path d="M13.6313 13.1C13.2213 13.1 12.8813 12.76 12.8813 12.35C12.8813 6.10004 14.1514 4.79008 17.7814 2.64008C18.1414 2.43008 18.6013 2.55009 18.8113 2.90009C19.0213 3.26009 18.9013 3.72006 18.5513 3.93006C15.3113 5.85006 14.3813 6.65004 14.3813 12.35C14.3813 12.76 14.0413 13.1 13.6313 13.1Z" fill="#292D32"/>
</svg>
