<svg width="24" height="24" viewBox="0 0 24 24" fill="none" xmlns="http://www.w3.org/2000/svg">
<path d="M7.00146 12.1599H9.68146C10.3915 12.1599 10.8715 12.6999 10.8715 13.3499V14.84C10.8715 15.49 10.3915 16.03 9.68146 16.03H8.19147C7.54147 16.03 7.00146 15.49 7.00146 14.84V12.1599Z" stroke="#292D32" stroke-width="1.5" stroke-linecap="round" stroke-linejoin="round"/>
<path d="M7.00146 12.16C7.00146 9.36997 7.52146 8.89997 9.09146 7.96997" stroke="#292D32" stroke-width="1.5" stroke-linecap="round" stroke-linejoin="round"/>
<path d="M13.1415 12.1599H15.8215C16.5315 12.1599 17.0115 12.6999 17.0115 13.3499V14.84C17.0115 15.49 16.5315 16.03 15.8215 16.03H14.3315C13.6815 16.03 13.1415 15.49 13.1415 14.84V12.1599Z" stroke="#292D32" stroke-width="1.5" stroke-linecap="round" stroke-linejoin="round"/>
<path d="M13.1415 12.16C13.1415 9.36997 13.6615 8.89997 15.2315 7.96997" stroke="#292D32" stroke-width="1.5" stroke-linecap="round" stroke-linejoin="round"/>
<path d="M4.00146 6C2.75146 7.67 2.00146 9.75 2.00146 12C2.00146 17.52 6.48146 22 12.0015 22C17.5215 22 22.0015 17.52 22.0015 12C22.0015 6.48 17.5215 2 12.0015 2C10.5715 2 9.20147 2.29998 7.97147 2.84998" stroke="#292D32" stroke-width="1.5" stroke-linecap="round" stroke-linejoin="round"/>
</svg>
