<svg width="24" height="24" viewBox="0 0 24 24" fill="none" xmlns="http://www.w3.org/2000/svg">
<path d="M16.9912 9.70996H7.01123C6.60123 9.70996 6.26123 9.36996 6.26123 8.95996C6.26123 8.54996 6.60123 8.20996 7.01123 8.20996H16.9912C17.4012 8.20996 17.7412 8.54996 17.7412 8.95996C17.7412 9.36996 17.4012 9.70996 16.9912 9.70996Z" fill="#292D32"/>
<path d="M12.0015 9.71002C11.5915 9.71002 11.2515 9.37002 11.2515 8.96002V7.28003C11.2515 6.87003 11.5915 6.53003 12.0015 6.53003C12.4115 6.53003 12.7515 6.87003 12.7515 7.28003V8.96002C12.7515 9.37002 12.4115 9.71002 12.0015 9.71002Z" fill="#292D32"/>
<path d="M7.00146 17.4699C6.59146 17.4699 6.25146 17.1299 6.25146 16.7199C6.25146 16.3099 6.59146 15.9699 7.00146 15.9699C10.7215 15.9699 13.7515 12.8199 13.7515 8.93994C13.7515 8.52994 14.0915 8.18994 14.5015 8.18994C14.9115 8.18994 15.2515 8.52994 15.2515 8.93994C15.2515 13.6499 11.5515 17.4699 7.00146 17.4699Z" fill="#292D32"/>
<path d="M17.0017 17.47C15.0317 17.47 13.2017 16.49 11.8617 14.7C11.6117 14.37 11.6817 13.9 12.0117 13.65C12.3417 13.4 12.8117 13.47 13.0617 13.8C14.1217 15.2 15.5217 15.97 17.0117 15.97C17.4217 15.97 17.7617 16.31 17.7617 16.72C17.7617 17.13 17.4117 17.47 17.0017 17.47Z" fill="#292D32"/>
<path d="M12.0015 22.75C6.07147 22.75 1.25146 17.93 1.25146 12C1.25146 6.07 6.07147 1.25 12.0015 1.25C17.9315 1.25 22.7515 6.07 22.7515 12C22.7515 17.93 17.9315 22.75 12.0015 22.75ZM12.0015 2.75C6.90146 2.75 2.75146 6.9 2.75146 12C2.75146 17.1 6.90146 21.25 12.0015 21.25C17.1015 21.25 21.2515 17.1 21.2515 12C21.2515 6.9 17.1015 2.75 12.0015 2.75Z" fill="#292D32"/>
</svg>
