<svg width="24" height="24" viewBox="0 0 24 24" fill="none" xmlns="http://www.w3.org/2000/svg">
<path opacity="0.4" d="M7.94147 14.51C7.32147 14.28 6.77146 13.83 6.42146 13.19C5.62146 11.73 6.11146 9.83001 7.53146 8.95001L9.87146 7.5C11.2815 6.62 13.1015 7.09999 13.9015 8.54999C14.7015 10.01 14.2115 11.91 12.7915 12.79L12.4815 13.01" stroke="#292D32" stroke-width="1.5" stroke-linecap="round" stroke-linejoin="round"/>
<path opacity="0.4" d="M16.1115 9.44995C16.7315 9.67995 17.2815 10.1299 17.6315 10.7699C18.4315 12.2299 17.9415 14.1299 16.5215 15.0099L14.1815 16.4599C12.7715 17.3399 10.9515 16.8599 10.1515 15.4099C9.35147 13.9499 9.84147 12.05 11.2615 11.17L11.5715 10.95" stroke="#292D32" stroke-width="1.5" stroke-linecap="round" stroke-linejoin="round"/>
<path d="M12.0015 22C17.5243 22 22.0015 17.5228 22.0015 12C22.0015 6.47715 17.5243 2 12.0015 2C6.47862 2 2.00146 6.47715 2.00146 12C2.00146 17.5228 6.47862 22 12.0015 22Z" stroke="#292D32" stroke-width="1.5" stroke-linecap="round" stroke-linejoin="round"/>
</svg>
