<svg width="24" height="24" viewBox="0 0 24 24" fill="none" xmlns="http://www.w3.org/2000/svg">
<path d="M17.001 2C20.001 2 22.001 4 22.001 7V9" stroke="#292D32" stroke-width="1.5" stroke-miterlimit="10" stroke-linecap="round" stroke-linejoin="round"/>
<path d="M2.00098 9V7C2.00098 4 4.00098 2 7.00098 2H12.771" stroke="#292D32" stroke-width="1.5" stroke-miterlimit="10" stroke-linecap="round" stroke-linejoin="round"/>
<path d="M22.0009 15V17C22.0009 20 20.0009 22 17.0009 22H11.4709" stroke="#292D32" stroke-width="1.5" stroke-miterlimit="10" stroke-linecap="round" stroke-linejoin="round"/>
<path d="M2.00098 15V17C2.00098 20 4.00098 22 7.00098 22" stroke="#292D32" stroke-width="1.5" stroke-miterlimit="10" stroke-linecap="round" stroke-linejoin="round"/>
<path d="M6.70093 9.25977L12.0009 12.3298L17.2609 9.27979" stroke="#292D32" stroke-width="1.5" stroke-linecap="round" stroke-linejoin="round"/>
<path d="M12.001 17.7698V12.3198" stroke="#292D32" stroke-width="1.5" stroke-linecap="round" stroke-linejoin="round"/>
<path d="M10.761 6.29006L7.56096 8.07009C6.84096 8.47009 6.24097 9.48008 6.24097 10.3101V13.7001C6.24097 14.5301 6.83096 15.5401 7.56096 15.9401L10.761 17.7201C11.441 18.1001 12.561 18.1001 13.251 17.7201L16.451 15.9401C17.171 15.5401 17.771 14.5301 17.771 13.7001V10.3101C17.771 9.48008 17.181 8.47009 16.451 8.07009L13.251 6.29006C12.561 5.90006 11.441 5.90006 10.761 6.29006Z" stroke="#292D32" stroke-width="1.5" stroke-linecap="round" stroke-linejoin="round"/>
</svg>
