<svg width="24" height="24" viewBox="0 0 24 24" fill="none" xmlns="http://www.w3.org/2000/svg">
<path d="M6.70093 9.26025L12.0009 12.3303L17.2609 9.28025" stroke="#292D32" stroke-width="1.5" stroke-linecap="round" stroke-linejoin="round"/>
<path d="M12.001 17.7703V12.3203" stroke="#292D32" stroke-width="1.5" stroke-linecap="round" stroke-linejoin="round"/>
<path d="M6.23096 10.3001C6.23096 9.47012 6.82093 8.46012 7.55093 8.06012L10.7509 6.28012C11.4309 5.90012 12.5509 5.90012 13.2409 6.28012L16.4409 8.06012C17.1609 8.46012 17.761 9.47012 17.761 10.3001V13.6901C17.761 14.5201 17.1709 15.5301 16.4409 15.9301L13.2409 17.7101C12.5609 18.0901 11.4409 18.0901 10.7509 17.7101L7.55093 15.9301C7.19093 15.7301 6.86094 15.3801 6.62094 14.9701" stroke="#292D32" stroke-width="1.5" stroke-linecap="round" stroke-linejoin="round"/>
<path d="M22.001 15C22.001 18.87 18.871 22 15.001 22L16.051 20.25" stroke="#292D32" stroke-width="1.5" stroke-linecap="round" stroke-linejoin="round"/>
<path d="M2.00098 9C2.00098 5.13 5.13098 2 9.00098 2L7.95099 3.75" stroke="#292D32" stroke-width="1.5" stroke-linecap="round" stroke-linejoin="round"/>
</svg>
