<svg width="24" height="24" viewBox="0 0 24 24" fill="none" xmlns="http://www.w3.org/2000/svg">
<path d="M17.601 5.31003L11.951 2.27003C11.351 1.95003 10.641 1.95003 10.041 2.27003L4.40096 5.31003C3.99096 5.54003 3.73096 5.98003 3.73096 6.46003C3.73096 6.95003 3.98096 7.39003 4.40096 7.61003L10.051 10.65C10.351 10.81 10.681 10.89 11.001 10.89C11.321 10.89 11.661 10.81 11.951 10.65L17.601 7.61003C18.011 7.39003 18.271 6.95003 18.271 6.46003C18.271 5.98003 18.011 5.54003 17.601 5.31003Z" fill="#292D32"/>
<path d="M9.12098 11.7101L3.87098 9.09009C3.46098 8.88009 3.00098 8.91009 2.61098 9.14009C2.23098 9.38009 2.00098 9.79009 2.00098 10.2401V15.2001C2.00098 16.0601 2.48098 16.8301 3.25098 17.2201L8.50098 19.8401C8.68098 19.9301 8.88098 19.9801 9.08098 19.9801C9.31098 19.9801 9.55098 19.9101 9.76098 19.7901C10.141 19.5501 10.371 19.1401 10.371 18.6901V13.7301C10.361 12.8701 9.88098 12.1001 9.12098 11.7101Z" fill="#292D32"/>
<path d="M20.001 10.2401V12.7001C19.521 12.5601 19.011 12.5001 18.501 12.5001C17.141 12.5001 15.811 12.9701 14.761 13.8101C13.321 14.9401 12.501 16.6501 12.501 18.5001C12.501 18.9901 12.561 19.4801 12.691 19.9501C12.541 19.9301 12.391 19.8701 12.251 19.7801C11.871 19.5501 11.641 19.1401 11.641 18.6901V13.7301C11.641 12.8701 12.121 12.1001 12.881 11.7101L18.131 9.09009C18.541 8.88009 19.001 8.91009 19.391 9.14009C19.771 9.38009 20.001 9.79009 20.001 10.2401Z" fill="#292D32"/>
<path d="M21.981 15.65C21.161 14.64 19.911 14 18.501 14C17.441 14 16.461 14.37 15.691 14.99C14.651 15.81 14.001 17.08 14.001 18.5C14.001 19.91 14.641 21.16 15.651 21.98C16.421 22.62 17.421 23 18.501 23C19.641 23 20.671 22.57 21.471 21.88C22.401 21.05 23.001 19.85 23.001 18.5C23.001 17.42 22.621 16.42 21.981 15.65ZM19.531 18.78C19.531 19.04 19.391 19.29 19.171 19.42L17.761 20.26C17.641 20.33 17.511 20.37 17.371 20.37C17.121 20.37 16.871 20.24 16.731 20.01C16.521 19.65 16.631 19.19 16.991 18.98L18.031 18.36V17.1C18.031 16.69 18.371 16.35 18.781 16.35C19.191 16.35 19.531 16.69 19.531 17.1V18.78Z" fill="#292D32"/>
</svg>
