<svg width="24" height="24" viewBox="0 0 24 24" fill="none" xmlns="http://www.w3.org/2000/svg">
<path d="M21.68 15.3202C20.79 14.4302 19.61 13.9802 18.44 14.0002C17.31 14.0102 16.18 14.4602 15.32 15.3202C14.72 15.9102 14.33 16.6501 14.14 17.4201C14.03 17.8401 13.99 18.2702 14.02 18.7002V18.7502C14.02 18.8202 14.03 18.8802 14.04 18.9602C14.04 18.9602 14.04 18.9601 14.05 18.9701V19.0002C14.14 19.9802 14.56 20.9301 15.32 21.6801C16.48 22.8401 18.11 23.2301 19.58 22.8601C20.02 22.7501 20.45 22.5702 20.85 22.3302C21.15 22.1602 21.43 21.9401 21.68 21.6801C22.43 20.9301 22.86 19.9801 22.95 18.9901C22.96 18.9901 22.96 18.9702 22.96 18.9602C22.98 18.8902 22.98 18.8101 22.98 18.7401C22.98 18.7301 22.99 18.7102 22.99 18.6902C23.05 17.4802 22.61 16.2402 21.68 15.3202ZM20.23 20.2102C19.94 20.5002 19.47 20.5002 19.17 20.2102L18.51 19.5501L17.83 20.2301C17.53 20.5301 17.06 20.5301 16.77 20.2301C16.47 19.9401 16.47 19.4701 16.77 19.1701L17.45 18.4901L16.79 17.8302C16.5 17.5302 16.5 17.0602 16.79 16.7702C17.09 16.4702 17.56 16.4702 17.86 16.7702L18.51 17.4301L19.14 16.7901C19.44 16.5001 19.91 16.5001 20.21 16.7901C20.5 17.0901 20.5 17.5601 20.21 17.8601L19.57 18.4901L20.23 19.1402C20.53 19.4402 20.53 19.9102 20.23 20.2102Z" fill="#292D32"/>
<path opacity="0.4" d="M19.35 5.65995L13.06 2.27C12.4 1.91 11.6 1.91 10.93 2.27L4.64005 5.65995C4.18005 5.90995 3.90002 6.39998 3.90002 6.93998C3.90002 7.47998 4.18005 7.96995 4.64005 8.21995L10.93 11.61C11.26 11.79 11.63 11.88 11.99 11.88C12.35 11.88 12.72 11.79 13.05 11.61L19.34 8.21995C19.8 7.96995 20.08 7.47998 20.08 6.93998C20.1 6.39998 19.81 5.90995 19.35 5.65995Z" fill="#292D32"/>
<path opacity="0.4" d="M9.89996 12.7899L4.04996 9.85989C3.59996 9.62989 3.07996 9.65989 2.64996 9.91989C2.21996 10.1799 1.96997 10.6399 1.96997 11.1399V16.6699C1.96997 17.6299 2.49995 18.4899 3.35995 18.9199L9.20996 21.8399C9.40996 21.9399 9.62998 21.9899 9.84998 21.9899C10.11 21.9899 10.37 21.9199 10.6 21.7699C11.03 21.5099 11.28 21.0499 11.28 20.5499V15.0199C11.29 14.0799 10.76 13.2199 9.89996 12.7899Z" fill="#292D32"/>
<path opacity="0.4" d="M22.03 11.1502V15.7401C22.02 15.7301 22.01 15.7101 22 15.7001C22 15.6901 21.99 15.6801 21.98 15.6701C21.94 15.6101 21.89 15.5501 21.84 15.5001C21.83 15.4901 21.82 15.4702 21.81 15.4602C21 14.5602 19.81 14.0001 18.5 14.0001C17.24 14.0001 16.09 14.5201 15.27 15.3601C14.48 16.1701 14 17.2801 14 18.5001C14 19.3401 14.24 20.1401 14.65 20.8201C14.82 21.1101 15.03 21.3701 15.26 21.6101L14.79 21.8501C14.59 21.9501 14.37 22.0001 14.15 22.0001C13.89 22.0001 13.63 21.9302 13.39 21.7802C12.97 21.5202 12.71 21.0601 12.71 20.5601V15.0401C12.71 14.0801 13.24 13.2201 14.1 12.7901L19.95 9.87013C20.4 9.64013 20.92 9.66012 21.35 9.93012C21.77 10.1901 22.03 10.6502 22.03 11.1502Z" fill="#292D32"/>
</svg>
