<svg width="24" height="24" viewBox="0 0 24 24" fill="none" xmlns="http://www.w3.org/2000/svg">
<path opacity="0.4" d="M14.9999 22.75C14.7299 22.75 14.4799 22.6 14.3499 22.37C14.2199 22.14 14.2199 21.85 14.3599 21.62L15.4099 19.87C15.6199 19.51 16.0799 19.4 16.4399 19.61C16.7999 19.82 16.9099 20.28 16.6999 20.64L16.4299 21.09C19.1899 20.44 21.2599 17.96 21.2599 15C21.2599 14.59 21.5999 14.25 22.0099 14.25C22.4199 14.25 22.7599 14.59 22.7599 15C22.7499 19.27 19.2699 22.75 14.9999 22.75Z" fill="#292D32"/>
<path opacity="0.4" d="M2 9.75C1.59 9.75 1.25 9.41 1.25 9C1.25 4.73 4.73 1.25 9 1.25C9.27 1.25 9.51999 1.4 9.64999 1.63C9.77999 1.86 9.78 2.15 9.64 2.38L8.59 4.13C8.38 4.49001 7.92 4.60001 7.56 4.39001C7.2 4.18001 7.09 3.71999 7.3 3.35999L7.57001 2.90997C4.81001 3.55997 2.74001 6.04 2.74001 9C2.75001 9.41 2.41 9.75 2 9.75Z" fill="#292D32"/>
<path d="M10.67 13.8499L7.52995 12.1599C7.19995 11.9799 6.79996 11.9799 6.46996 12.1599L3.32996 13.8499C3.09996 13.9699 2.95996 14.2199 2.95996 14.4899C2.95996 14.7599 3.09996 15.0099 3.32996 15.1299L6.46996 16.8199C6.63996 16.9099 6.81995 16.9499 6.99995 16.9499C7.17995 16.9499 7.35995 16.9099 7.52995 16.8199L10.67 15.1299C10.9 15.0099 11.0399 14.7599 11.0399 14.4899C11.0399 14.2199 10.89 13.9799 10.67 13.8499Z" fill="#292D32"/>
<path d="M5.94998 17.4101L3.02998 15.9502C2.80998 15.8402 2.54999 15.8501 2.32999 15.9801C2.11999 16.1101 1.98999 16.3402 1.98999 16.5902V19.3501C1.98999 19.8301 2.24998 20.2601 2.67998 20.4701L5.59999 21.9301C5.69999 21.9801 5.80998 22.0101 5.91998 22.0101C6.04998 22.0101 6.17999 21.9702 6.29999 21.9002C6.50999 21.7702 6.63998 21.5401 6.63998 21.2901V18.5302C6.64998 18.0502 6.37998 17.6201 5.94998 17.4101Z" fill="#292D32"/>
<path d="M11.66 15.9801C11.45 15.8501 11.19 15.8402 10.96 15.9502L8.03996 17.4101C7.60996 17.6201 7.34998 18.0502 7.34998 18.5302V21.2901C7.34998 21.5401 7.47997 21.7702 7.68997 21.9002C7.80997 21.9702 7.93998 22.0101 8.06998 22.0101C8.17998 22.0101 8.28997 21.9801 8.38997 21.9301L11.31 20.4701C11.74 20.2601 12 19.8301 12 19.3501V16.5902C12 16.3402 11.87 16.1101 11.66 15.9801Z" fill="#292D32"/>
<path d="M20.67 3.82989L17.53 2.13988C17.2 1.95988 16.8 1.95988 16.47 2.13988L13.33 3.82989C13.1 3.94989 12.96 4.19984 12.96 4.46984C12.96 4.73984 13.1 4.98985 13.33 5.10985L16.47 6.79986C16.64 6.88986 16.82 6.92986 17 6.92986C17.18 6.92986 17.36 6.88986 17.53 6.79986L20.67 5.10985C20.9 4.98985 21.0399 4.73984 21.0399 4.46984C21.0399 4.18984 20.89 3.94989 20.67 3.82989Z" fill="#292D32"/>
<path d="M15.95 7.37987L13.03 5.91985C12.81 5.80985 12.55 5.81988 12.33 5.94988C12.12 6.07988 11.99 6.30987 11.99 6.55987V9.31987C11.99 9.79987 12.25 10.2299 12.68 10.4399L15.6 11.8999C15.7 11.9499 15.81 11.9798 15.92 11.9798C16.05 11.9798 16.18 11.9399 16.3 11.8699C16.51 11.7399 16.64 11.5099 16.64 11.2599V8.49987C16.65 8.01987 16.38 7.58987 15.95 7.37987Z" fill="#292D32"/>
<path d="M21.66 5.94988C21.45 5.81988 21.19 5.80985 20.96 5.91985L18.04 7.37987C17.61 7.58987 17.35 8.01987 17.35 8.49987V11.2599C17.35 11.5099 17.48 11.7399 17.69 11.8699C17.81 11.9399 17.94 11.9798 18.07 11.9798C18.18 11.9798 18.29 11.9499 18.39 11.8999L21.31 10.4399C21.74 10.2299 22 9.79987 22 9.31987V6.55987C22 6.30987 21.87 6.07988 21.66 5.94988Z" fill="#292D32"/>
</svg>
