<svg width="24" height="24" viewBox="0 0 24 24" fill="none" xmlns="http://www.w3.org/2000/svg">
<path opacity="0.4" d="M16.19 2.33008H7.82001C4.18001 2.33008 2.01001 4.50008 2.01001 8.14008V16.5101C2.01001 20.1501 4.18001 22.3201 7.82001 22.3201H16.19C19.83 22.3201 22 20.1501 22 16.5101V8.15008C22 4.51008 19.83 2.33008 16.19 2.33008Z" fill="#292D32"/>
<path d="M16.3999 8.20996L12.6399 6.17996C12.2399 5.96996 11.7699 5.96996 11.3699 6.17996L7.60989 8.20996C7.33989 8.35996 7.16992 8.64996 7.16992 8.97996C7.16992 9.30996 7.33989 9.59996 7.60989 9.74996L11.3699 11.78C11.5699 11.89 11.7899 11.94 12.0099 11.94C12.2299 11.94 12.4499 11.89 12.6499 11.78L16.4099 9.74996C16.6799 9.59996 16.8499 9.30996 16.8499 8.97996C16.8399 8.64996 16.6699 8.35996 16.3999 8.20996Z" fill="#292D32"/>
<path d="M10.74 12.4699L7.23999 10.7199C6.96999 10.5899 6.65999 10.5999 6.39999 10.7599C6.13999 10.9199 5.98999 11.1899 5.98999 11.4899V14.7999C5.98999 15.3699 6.31001 15.8899 6.82001 16.1399L10.32 17.8899C10.44 17.9499 10.57 17.9799 10.71 17.9799C10.87 17.9799 11.02 17.9399 11.16 17.8499C11.42 17.6899 11.57 17.4199 11.57 17.1199V13.8099C11.57 13.2399 11.26 12.7299 10.74 12.4699Z" fill="#292D32"/>
<path d="M17.5899 10.7599C17.3299 10.5999 17.0199 10.5899 16.7499 10.7199L13.2499 12.4699C12.7399 12.7299 12.4199 13.2399 12.4199 13.8099V17.1199C12.4199 17.4199 12.5699 17.6899 12.8299 17.8499C12.9699 17.9399 13.1199 17.9799 13.2799 17.9799C13.4099 17.9799 13.5399 17.9499 13.6699 17.8899L17.1699 16.1399C17.6799 15.8799 17.9999 15.3699 17.9999 14.7999V11.4899C17.9999 11.1899 17.8499 10.9199 17.5899 10.7599Z" fill="#292D32"/>
</svg>
