<svg width="24" height="24" viewBox="0 0 24 24" fill="none" xmlns="http://www.w3.org/2000/svg">
<path d="M15.0009 22.75C14.7309 22.75 14.4809 22.6 14.3509 22.37C14.2209 22.13 14.2209 21.85 14.3609 21.61L15.4109 19.86C15.6209 19.51 16.0809 19.39 16.4409 19.6C16.8009 19.81 16.9109 20.27 16.7009 20.63L16.4309 21.08C19.1909 20.43 21.2609 17.95 21.2609 14.99C21.2609 14.58 21.6009 14.24 22.0109 14.24C22.4209 14.24 22.7609 14.58 22.7609 14.99C22.7509 19.27 19.2709 22.75 15.0009 22.75Z" fill="#292D32"/>
<path d="M2.00098 9.75C1.59098 9.75 1.25098 9.41 1.25098 9C1.25098 4.73 4.73098 1.25 9.00098 1.25C9.27098 1.25 9.52098 1.4 9.65098 1.63C9.78098 1.87 9.78098 2.15 9.64098 2.39L8.59098 4.14C8.38098 4.49 7.92098 4.61 7.56098 4.39C7.21098 4.18 7.09098 3.72 7.31098 3.36L7.58098 2.91C4.81098 3.56 2.75098 6.04 2.75098 9C2.75098 9.41 2.41098 9.75 2.00098 9.75Z" fill="#292D32"/>
<path d="M16.4009 8.20996L12.6409 6.17996C12.2409 5.96996 11.7709 5.96996 11.3709 6.17996L7.60089 8.20996C7.33089 8.35996 7.16089 8.64996 7.16089 8.96996C7.16089 9.29996 7.33089 9.58996 7.60089 9.73996L11.3609 11.77C11.5609 11.88 11.7809 11.93 12.0009 11.93C12.2209 11.93 12.4409 11.88 12.6409 11.77L16.4009 9.73996C16.6709 9.58996 16.8409 9.29996 16.8409 8.96996C16.8409 8.64996 16.6709 8.35996 16.4009 8.20996Z" fill="#292D32"/>
<path d="M10.741 12.4699L7.24098 10.7199C6.97098 10.5899 6.66098 10.5999 6.40098 10.7599C6.15098 10.9199 6.00098 11.1899 6.00098 11.4899V14.7999C6.00098 15.3699 6.32098 15.8899 6.83098 16.1399L10.331 17.8899C10.451 17.9499 10.581 17.9799 10.721 17.9799C10.881 17.9799 11.031 17.9399 11.171 17.8499C11.431 17.6899 11.581 17.4199 11.581 17.1199V13.8099C11.571 13.2399 11.261 12.7299 10.741 12.4699Z" fill="#292D32"/>
<path d="M17.5909 10.7599C17.3309 10.5999 17.0209 10.5899 16.7509 10.7199L13.2509 12.4699C12.7409 12.7299 12.4209 13.2399 12.4209 13.8099V17.1199C12.4209 17.4199 12.5709 17.6899 12.8309 17.8499C12.9709 17.9399 13.1209 17.9799 13.2809 17.9799C13.4109 17.9799 13.5409 17.9499 13.6709 17.8899L17.1709 16.1399C17.6809 15.8799 18.0009 15.3699 18.0009 14.7999V11.4899C18.0009 11.1899 17.8509 10.9199 17.5909 10.7599Z" fill="#292D32"/>
</svg>
