<svg width="24" height="24" viewBox="0 0 24 24" fill="none" xmlns="http://www.w3.org/2000/svg">
<path d="M6.70093 9.26001L12.0009 12.33L17.2609 9.28001" stroke="#292D32" stroke-width="1.5" stroke-linecap="round" stroke-linejoin="round"/>
<path d="M12.001 17.7701V12.3201" stroke="#292D32" stroke-width="1.5" stroke-linecap="round" stroke-linejoin="round"/>
<path d="M10.761 6.2901L7.56097 8.0701C6.84097 8.4701 6.24097 9.4801 6.24097 10.3101V13.7001C6.24097 14.5301 6.83097 15.5401 7.56097 15.9401L10.761 17.7201C11.441 18.1001 12.561 18.1001 13.251 17.7201L16.451 15.9401C17.171 15.5401 17.771 14.5301 17.771 13.7001V10.3001C17.771 9.4701 17.181 8.4601 16.451 8.0601L13.251 6.2801C12.561 5.9001 11.441 5.9001 10.761 6.2901Z" stroke="#292D32" stroke-width="1.5" stroke-linecap="round" stroke-linejoin="round"/>
<path d="M22.001 15C22.001 18.87 18.871 22 15.001 22L16.051 20.25" stroke="#292D32" stroke-width="1.5" stroke-linecap="round" stroke-linejoin="round"/>
<path d="M2.00098 9C2.00098 5.13 5.13098 2 9.00098 2L7.95099 3.75" stroke="#292D32" stroke-width="1.5" stroke-linecap="round" stroke-linejoin="round"/>
</svg>
