<svg width="24" height="24" viewBox="0 0 24 24" fill="none" xmlns="http://www.w3.org/2000/svg">
<path d="M22 15.7C22 15.69 21.99 15.68 21.98 15.67C21.94 15.61 21.89 15.55 21.84 15.5C21.83 15.49 21.82 15.47 21.81 15.46C21 14.56 19.81 14 18.5 14C17.24 14 16.09 14.52 15.27 15.36C14.48 16.17 14 17.28 14 18.5C14 19.34 14.24 20.14 14.65 20.82C14.87 21.19 15.15 21.53 15.47 21.81C15.49 21.82 15.5 21.83 15.51 21.84C15.56 21.89 15.61 21.93 15.67 21.98C15.67 21.98 15.67 21.98 15.68 21.98C15.69 21.99 15.7 22 15.71 22C16.46 22.63 17.43 23 18.5 23C20.14 23 21.57 22.12 22.35 20.82C22.58 20.43 22.76 20 22.87 19.55C22.96 19.21 23 18.86 23 18.5C23 17.44 22.63 16.46 22 15.7ZM20.18 19.23H19.25V20.2C19.25 20.61 18.91 20.95 18.5 20.95C18.09 20.95 17.75 20.61 17.75 20.2V19.23H16.82C16.41 19.23 16.07 18.89 16.07 18.48C16.07 18.07 16.41 17.73 16.82 17.73H17.75V16.84C17.75 16.43 18.09 16.09 18.5 16.09C18.91 16.09 19.25 16.43 19.25 16.84V17.73H20.18C20.59 17.73 20.93 18.07 20.93 18.48C20.93 18.89 20.6 19.23 20.18 19.23Z" fill="#292D32"/>
<path opacity="0.4" d="M19.35 5.65995L13.06 2.27C12.4 1.91 11.6 1.91 10.93 2.27L4.64003 5.65995C4.18003 5.90995 3.90002 6.39998 3.90002 6.93998C3.90002 7.47998 4.18003 7.96995 4.64003 8.21995L10.93 11.61C11.26 11.79 11.63 11.88 11.99 11.88C12.35 11.88 12.72 11.79 13.05 11.61L19.34 8.21995C19.8 7.96995 20.08 7.47998 20.08 6.93998C20.1 6.39998 19.81 5.90995 19.35 5.65995Z" fill="#292D32"/>
<path opacity="0.4" d="M9.89996 12.7899L4.04997 9.85989C3.59997 9.62989 3.07996 9.65989 2.64996 9.91989C2.21996 10.1799 1.96997 10.6399 1.96997 11.1399V16.6699C1.96997 17.6299 2.49997 18.4899 3.35997 18.9199L9.20998 21.8399C9.40998 21.9399 9.62998 21.9899 9.84998 21.9899C10.11 21.9899 10.37 21.9199 10.6 21.7699C11.03 21.5099 11.28 21.0499 11.28 20.5499V15.0199C11.29 14.0799 10.76 13.2199 9.89996 12.7899Z" fill="#292D32"/>
<path opacity="0.4" d="M22.03 11.1502V15.7401C22.02 15.7301 22.01 15.7101 22 15.7001C22 15.6901 21.99 15.6801 21.9799 15.6701C21.9399 15.6101 21.89 15.5501 21.84 15.5001C21.83 15.4901 21.82 15.4702 21.81 15.4602C21 14.5602 19.81 14.0001 18.5 14.0001C17.24 14.0001 16.09 14.5201 15.27 15.3601C14.48 16.1701 14 17.2801 14 18.5001C14 19.3401 14.2399 20.1401 14.6499 20.8201C14.8199 21.1101 15.0299 21.3701 15.2599 21.6101L14.7899 21.8501C14.5899 21.9501 14.3699 22.0001 14.1499 22.0001C13.8899 22.0001 13.63 21.9302 13.39 21.7802C12.97 21.5202 12.71 21.0601 12.71 20.5601V15.0401C12.71 14.0801 13.24 13.2201 14.1 12.7901L19.95 9.87013C20.4 9.64013 20.92 9.66012 21.35 9.93012C21.77 10.1901 22.03 10.6502 22.03 11.1502Z" fill="#292D32"/>
</svg>
