<svg width="24" height="24" viewBox="0 0 24 24" fill="none" xmlns="http://www.w3.org/2000/svg">
<path d="M12.0011 13.0799C11.8711 13.0799 11.7411 13.0499 11.6211 12.9799L6.3211 9.91994C5.9611 9.70994 5.84108 9.24995 6.05108 8.89995C6.26108 8.53995 6.71108 8.41994 7.08108 8.62994L12.0011 11.4799L16.8911 8.64995C17.2511 8.43995 17.7111 8.56994 17.9211 8.91994C18.1311 9.27994 18.0011 9.73995 17.6511 9.93995L12.3911 12.9799C12.2611 13.0399 12.1311 13.0799 12.0011 13.0799Z" fill="#292D32"/>
<path d="M12.001 18.5201C11.591 18.5201 11.251 18.1801 11.251 17.7701V12.3301C11.251 11.9201 11.591 11.5801 12.001 11.5801C12.411 11.5801 12.751 11.9201 12.751 12.3301V17.7701C12.751 18.1801 12.411 18.5201 12.001 18.5201Z" fill="#292D32"/>
<path d="M12.0012 18.75C11.4212 18.75 10.8512 18.62 10.3912 18.37L7.19122 16.59C6.23122 16.06 5.49121 14.79 5.49121 13.69V10.3C5.49121 9.21005 6.24122 7.93005 7.19122 7.40005L10.3912 5.62005C11.3112 5.11005 12.6912 5.11005 13.6112 5.62005L16.8112 7.40005C17.7712 7.93005 18.5112 9.20005 18.5112 10.3V13.69C18.5112 14.78 17.7612 16.06 16.8112 16.59L13.6112 18.37C13.1512 18.62 12.5812 18.75 12.0012 18.75ZM12.0012 6.75005C11.6712 6.75005 11.3512 6.81005 11.1212 6.94005L7.92123 8.72005C7.43123 8.99005 6.99121 9.75005 6.99121 10.3V13.69C6.99121 14.25 7.43123 15 7.92123 15.27L11.1212 17.05C11.5812 17.31 12.4212 17.31 12.8812 17.05L16.0812 15.27C16.5712 15 17.0112 14.24 17.0112 13.69V10.3C17.0112 9.74005 16.5712 8.99005 16.0812 8.72005L12.8812 6.94005C12.6512 6.81005 12.3312 6.75005 12.0012 6.75005Z" fill="#292D32"/>
<path d="M15.0012 22.75C14.7312 22.75 14.4812 22.6 14.3512 22.37C14.2212 22.13 14.2212 21.85 14.3612 21.61L15.4112 19.86C15.6212 19.51 16.0812 19.39 16.4412 19.6C16.8012 19.81 16.9112 20.27 16.7012 20.63L16.4312 21.08C19.1912 20.43 21.2612 17.95 21.2612 14.99C21.2612 14.58 21.6012 14.24 22.0112 14.24C22.4212 14.24 22.7612 14.58 22.7612 14.99C22.7512 19.27 19.2712 22.75 15.0012 22.75Z" fill="#292D32"/>
<path d="M2.00098 9.75C1.59098 9.75 1.25098 9.41 1.25098 9C1.25098 4.73 4.73098 1.25 9.00098 1.25C9.27098 1.25 9.52097 1.4 9.65097 1.63C9.78097 1.87 9.78099 2.15 9.64099 2.39L8.59097 4.14C8.38097 4.49 7.92097 4.61 7.56097 4.4C7.20097 4.19 7.09096 3.73 7.30096 3.37L7.57098 2.92C4.81098 3.57 2.74097 6.05 2.74097 9.01C2.75097 9.41 2.41098 9.75 2.00098 9.75Z" fill="#292D32"/>
</svg>
