<svg width="24" height="24" viewBox="0 0 24 24" fill="none" xmlns="http://www.w3.org/2000/svg">
<path d="M23.0009 17.91C23.0209 18.66 22.8209 19.37 22.4609 19.98C22.2609 20.34 21.9909 20.6701 21.6909 20.9401C21.0009 21.5801 20.0909 21.9701 19.0809 22.0001C17.6209 22.0301 16.3309 21.2801 15.6209 20.1301C15.2409 19.5401 15.0109 18.8301 15.0009 18.0801C14.9709 16.8201 15.5309 15.6801 16.4309 14.9301C17.1109 14.3701 17.9709 14.0201 18.9109 14.0001C21.1209 13.9501 22.9509 15.7 23.0009 17.91Z" stroke="#292D32" stroke-width="1.5" stroke-miterlimit="10" stroke-linecap="round" stroke-linejoin="round"/>
<path d="M17.4409 18.03L18.4509 18.99L20.5409 16.97" stroke="#292D32" stroke-width="1.5" stroke-linecap="round" stroke-linejoin="round"/>
<path d="M3.17102 7.43994L12.001 12.5499L20.771 7.46991" stroke="#292D32" stroke-width="1.5" stroke-linecap="round" stroke-linejoin="round"/>
<path d="M12.001 21.61V12.54" stroke="#292D32" stroke-width="1.5" stroke-linecap="round" stroke-linejoin="round"/>
<path d="M21.611 9.17V14.83C21.611 14.88 21.611 14.92 21.601 14.97C20.901 14.36 20.001 14 19.001 14C18.061 14 17.191 14.33 16.501 14.88C15.581 15.61 15.001 16.74 15.001 18C15.001 18.75 15.211 19.46 15.581 20.06C15.671 20.22 15.781 20.37 15.901 20.51L14.071 21.52C12.931 22.16 11.071 22.16 9.93097 21.52L4.59097 18.56C3.38097 17.89 2.39099 16.21 2.39099 14.83V9.17C2.39099 7.79 3.38097 6.11002 4.59097 5.44002L9.93097 2.48C11.071 1.84 12.931 1.84 14.071 2.48L19.411 5.44002C20.621 6.11002 21.611 7.79 21.611 9.17Z" stroke="#292D32" stroke-width="1.5" stroke-linecap="round" stroke-linejoin="round"/>
</svg>
