<svg width="24" height="24" viewBox="0 0 24 24" fill="none" xmlns="http://www.w3.org/2000/svg">
<path d="M23.0009 17.91C23.0209 18.66 22.8209 19.37 22.4609 19.98C22.2609 20.34 21.9909 20.6701 21.6909 20.9401C21.0009 21.5801 20.0909 21.9701 19.0809 22.0001C17.6209 22.0301 16.3309 21.2801 15.6209 20.1301C15.2409 19.5401 15.0109 18.8301 15.0009 18.0801C14.9709 16.8201 15.5309 15.6801 16.4309 14.9301C17.1109 14.3701 17.9709 14.0201 18.9109 14.0001C21.1209 13.9501 22.9509 15.7 23.0009 17.91Z" stroke="#292D32" stroke-width="1.5" stroke-miterlimit="10" stroke-linecap="round" stroke-linejoin="round"/>
<path d="M17.4409 18.0303L18.4509 18.9902L20.5409 16.9702" stroke="#292D32" stroke-width="1.5" stroke-linecap="round" stroke-linejoin="round"/>
<g opacity="0.4">
<path d="M3.1709 7.43994L12.0009 12.5499L20.7709 7.46991" stroke="#292D32" stroke-width="1.5" stroke-linecap="round" stroke-linejoin="round"/>
<path d="M12.001 21.61V12.54" stroke="#292D32" stroke-width="1.5" stroke-linecap="round" stroke-linejoin="round"/>
<path d="M21.6111 9.17V14.83C21.6111 14.88 21.6111 14.92 21.6011 14.97C20.9011 14.36 20.0011 14 19.0011 14C18.0611 14 17.1911 14.33 16.5011 14.88C15.5811 15.61 15.0011 16.74 15.0011 18C15.0011 18.75 15.2111 19.46 15.5811 20.06C15.6711 20.22 15.7811 20.37 15.9011 20.51L14.0711 21.52C12.9311 22.16 11.0711 22.16 9.93109 21.52L4.59109 18.56C3.38109 17.89 2.39111 16.21 2.39111 14.83V9.17C2.39111 7.79 3.38109 6.11002 4.59109 5.44002L9.93109 2.48C11.0711 1.84 12.9311 1.84 14.0711 2.48L19.4111 5.44002C20.6211 6.11002 21.6111 7.79 21.6111 9.17Z" stroke="#292D32" stroke-width="1.5" stroke-linecap="round" stroke-linejoin="round"/>
</g>
</svg>
