<svg width="24" height="24" viewBox="0 0 24 24" fill="none" xmlns="http://www.w3.org/2000/svg">
<path d="M15.0009 22.75C14.7309 22.75 14.4809 22.6 14.3509 22.37C14.2209 22.14 14.2209 21.85 14.3609 21.62L15.4109 19.87C15.6209 19.51 16.0809 19.4 16.4409 19.61C16.8009 19.82 16.9109 20.28 16.7009 20.64L16.4309 21.09C19.1909 20.44 21.2609 17.96 21.2609 15C21.2609 14.59 21.6009 14.25 22.0109 14.25C22.4209 14.25 22.7609 14.59 22.7609 15C22.7509 19.27 19.2709 22.75 15.0009 22.75Z" fill="#292D32"/>
<path d="M2.00098 9.75C1.59098 9.75 1.25098 9.41 1.25098 9C1.25098 4.73 4.73098 1.25 9.00098 1.25C9.27098 1.25 9.52098 1.4 9.65098 1.63C9.78098 1.86 9.78098 2.15 9.64098 2.38L8.59098 4.14C8.38098 4.49 7.92098 4.61 7.56098 4.39C7.21098 4.18 7.09098 3.72 7.31098 3.36L7.58098 2.91C4.81098 3.56 2.75098 6.04 2.75098 9C2.75098 9.41 2.41098 9.75 2.00098 9.75Z" fill="#292D32"/>
<path d="M10.6709 13.8499L7.53094 12.1599C7.20094 11.9799 6.80094 11.9799 6.47094 12.1599L3.33094 13.8499C3.10094 13.9699 2.96094 14.2199 2.96094 14.4899C2.96094 14.7599 3.10094 15.0099 3.33094 15.1299L6.47094 16.8199C6.64094 16.9099 6.82094 16.9499 7.00094 16.9499C7.18094 16.9499 7.36094 16.9099 7.53094 16.8199L10.6709 15.1299C10.9009 15.0099 11.0409 14.7599 11.0409 14.4899C11.0409 14.2199 10.8909 13.9799 10.6709 13.8499Z" fill="#292D32"/>
<path d="M5.95098 17.4099L3.03098 15.9499C2.81098 15.8399 2.55098 15.8499 2.33098 15.9799C2.13098 16.1099 2.00098 16.3399 2.00098 16.5899V19.3499C2.00098 19.8299 2.26098 20.2599 2.69098 20.4699L5.61098 21.9299C5.71098 21.9699 5.82098 21.9999 5.93098 21.9999C6.06098 21.9999 6.19098 21.9599 6.31098 21.8899C6.52098 21.7599 6.65098 21.5299 6.65098 21.2799V18.5199C6.65098 18.0499 6.38098 17.6199 5.95098 17.4099Z" fill="#292D32"/>
<path d="M11.661 15.9799C11.451 15.8499 11.191 15.8399 10.961 15.9499L8.04095 17.4099C7.61095 17.6199 7.35095 18.0499 7.35095 18.5299V21.2899C7.35095 21.5399 7.48095 21.7699 7.69095 21.8999C7.81095 21.9599 7.94095 21.9999 8.07095 21.9999C8.18095 21.9999 8.29095 21.9699 8.39095 21.9199L11.311 20.4599C11.741 20.2499 12.001 19.8199 12.001 19.3399V16.5799C12.001 16.3399 11.871 16.1099 11.661 15.9799Z" fill="#292D32"/>
<path d="M20.6709 3.82988L17.5309 2.13988C17.2009 1.95988 16.8009 1.95988 16.4709 2.13988L13.3309 3.82988C13.1009 3.94988 12.9609 4.19988 12.9609 4.46988C12.9609 4.73988 13.1009 4.98988 13.3309 5.10988L16.4709 6.79988C16.6409 6.88988 16.8209 6.92988 17.0009 6.92988C17.1809 6.92988 17.3609 6.88988 17.5309 6.79988L20.6709 5.10988C20.9009 4.98988 21.0409 4.73988 21.0409 4.46988C21.0409 4.18988 20.8909 3.94988 20.6709 3.82988Z" fill="#292D32"/>
<path d="M15.951 7.38011L13.031 5.92011C12.811 5.81011 12.551 5.82011 12.331 5.95011C12.131 6.08011 12.001 6.31011 12.001 6.56011V9.32011C12.001 9.80011 12.261 10.2301 12.691 10.4401L15.611 11.9001C15.711 11.9501 15.821 11.9801 15.931 11.9801C16.061 11.9801 16.191 11.9401 16.311 11.8701C16.521 11.7401 16.651 11.5101 16.651 11.2601V8.50011C16.651 8.02011 16.381 7.59011 15.951 7.38011Z" fill="#292D32"/>
<path d="M21.661 5.95011C21.451 5.82011 21.191 5.81011 20.961 5.92011L18.041 7.38011C17.611 7.59011 17.351 8.02011 17.351 8.50011V11.2601C17.351 11.5101 17.481 11.7401 17.691 11.8701C17.811 11.9401 17.941 11.9801 18.071 11.9801C18.181 11.9801 18.291 11.9501 18.391 11.9001L21.311 10.4401C21.741 10.2201 22.001 9.79011 22.001 9.32011V6.56011C22.001 6.31011 21.871 6.08011 21.661 5.95011Z" fill="#292D32"/>
</svg>
