<svg width="24" height="24" viewBox="0 0 24 24" fill="none" xmlns="http://www.w3.org/2000/svg">
<path d="M12.0009 13.3001C11.8709 13.3001 11.7409 13.2701 11.6209 13.2001L2.79094 8.0901C2.44094 7.8801 2.31094 7.4201 2.52094 7.0601C2.73094 6.7001 3.19094 6.5801 3.55094 6.7901L12.0009 11.6801L20.4009 6.8201C20.7609 6.6101 21.2209 6.7401 21.4309 7.0901C21.6409 7.4501 21.5109 7.9101 21.1609 8.1201L12.3909 13.2001C12.2609 13.2601 12.1309 13.3001 12.0009 13.3001Z" fill="#292D32"/>
<path d="M12.001 22.36C11.591 22.36 11.251 22.02 11.251 21.61V12.54C11.251 12.13 11.591 11.79 12.001 11.79C12.411 11.79 12.751 12.13 12.751 12.54V21.61C12.751 22.02 12.411 22.36 12.001 22.36Z" fill="#292D32"/>
<path d="M12.001 22.75C11.121 22.75 10.251 22.56 9.56099 22.18L4.22099 19.21C2.77099 18.41 1.64099 16.48 1.64099 14.82V9.17C1.64099 7.51 2.77099 5.59 4.22099 4.78L9.56099 1.82C10.931 1.06 13.071 1.06 14.441 1.82L19.781 4.79C21.231 5.59 22.361 7.52 22.361 9.18V14.83C22.361 16.49 21.231 18.41 19.781 19.22L14.441 22.18C13.751 22.56 12.881 22.75 12.001 22.75ZM12.001 2.75C11.371 2.75 10.751 2.88 10.291 3.13L4.95099 6.1C3.99099 6.63 3.14099 8.07 3.14099 9.17V14.82C3.14099 15.92 3.99099 17.36 4.95099 17.9L10.291 20.87C11.201 21.38 12.801 21.38 13.711 20.87L19.051 17.9C20.011 17.36 20.861 15.93 20.861 14.82V9.17C20.861 8.07 20.011 6.63 19.051 6.09L13.711 3.12C13.251 2.88 12.631 2.75 12.001 2.75Z" fill="#292D32"/>
</svg>
