<svg width="24" height="24" viewBox="0 0 24 24" fill="none" xmlns="http://www.w3.org/2000/svg">
<path d="M15.001 22.75H9.00098C3.57098 22.75 1.25098 20.43 1.25098 15V9C1.25098 3.57 3.57098 1.25 9.00098 1.25H15.001C20.431 1.25 22.751 3.57 22.751 9V15C22.751 20.43 20.431 22.75 15.001 22.75ZM9.00098 2.75C4.39098 2.75 2.75098 4.39 2.75098 9V15C2.75098 19.61 4.39098 21.25 9.00098 21.25H15.001C19.611 21.25 21.251 19.61 21.251 15V9C21.251 4.39 19.611 2.75 15.001 2.75H9.00098Z" fill="#292D32"/>
<path d="M12.0011 13.0799C11.8711 13.0799 11.7411 13.0499 11.6211 12.9799L6.3211 9.91994C5.9611 9.70994 5.84108 9.24995 6.05108 8.89995C6.26108 8.53995 6.7211 8.41994 7.0711 8.62994L11.9911 11.4799L16.8811 8.64995C17.2411 8.43995 17.7011 8.56994 17.9011 8.91994C18.1011 9.26994 17.9811 9.73995 17.6311 9.93995L12.3711 12.9799C12.2611 13.0399 12.1311 13.0799 12.0011 13.0799Z" fill="#292D32"/>
<path d="M12.001 18.5201C11.591 18.5201 11.251 18.1801 11.251 17.7701V12.3301C11.251 11.9201 11.591 11.5801 12.001 11.5801C12.411 11.5801 12.751 11.9201 12.751 12.3301V17.7701C12.751 18.1801 12.411 18.5201 12.001 18.5201Z" fill="#292D32"/>
<path d="M12.0012 18.75C11.4212 18.75 10.8512 18.62 10.3912 18.37L7.19122 16.59C6.23122 16.06 5.49121 14.79 5.49121 13.69V10.3C5.49121 9.21005 6.24122 7.94005 7.19122 7.40005L10.3912 5.62005C11.3112 5.11005 12.6912 5.11005 13.6112 5.62005L16.8112 7.40005C17.7712 7.93005 18.5112 9.20005 18.5112 10.3V13.69C18.5112 14.78 17.7612 16.05 16.8112 16.59L13.6112 18.37C13.1512 18.63 12.5812 18.75 12.0012 18.75ZM12.0012 6.75005C11.6712 6.75005 11.3512 6.81005 11.1212 6.94005L7.92123 8.72005C7.43123 8.99005 6.99121 9.75005 6.99121 10.3V13.69C6.99121 14.25 7.43123 15 7.92123 15.27L11.1212 17.05C11.5812 17.31 12.4212 17.31 12.8812 17.05L16.0812 15.27C16.5712 15 17.0112 14.24 17.0112 13.69V10.3C17.0112 9.74005 16.5712 8.99005 16.0812 8.72005L12.8812 6.94005C12.6512 6.81005 12.3312 6.75005 12.0012 6.75005Z" fill="#292D32"/>
</svg>
