<svg width="24" height="24" viewBox="0 0 24 24" fill="none" xmlns="http://www.w3.org/2000/svg">
<path opacity="0.4" d="M15.001 2V12C15.001 13.1 14.101 14 13.001 14H2.00098V7.62C2.73098 8.49 3.851 9.03 5.091 9C6.101 8.98 7.01098 8.59 7.69098 7.94C8.00098 7.68 8.261 7.34999 8.461 6.98999C8.821 6.37999 9.02098 5.65997 9.00098 4.90997C8.97098 3.73997 8.45099 2.71 7.64099 2H15.001Z" stroke="#292D32" stroke-width="1.5" stroke-linecap="round" stroke-linejoin="round"/>
<path d="M22.001 14V17C22.001 18.66 20.661 20 19.001 20H18.001C18.001 18.9 17.101 18 16.001 18C14.901 18 14.001 18.9 14.001 20H10.001C10.001 18.9 9.10098 18 8.00098 18C6.90098 18 6.00098 18.9 6.00098 20H5.00098C3.34098 20 2.00098 18.66 2.00098 17V14H13.001C14.101 14 15.001 13.1 15.001 12V5H16.841C17.561 5 18.221 5.39001 18.581 6.01001L20.291 9H19.001C18.451 9 18.001 9.45 18.001 10V13C18.001 13.55 18.451 14 19.001 14H22.001Z" stroke="#292D32" stroke-width="1.5" stroke-linecap="round" stroke-linejoin="round"/>
<path d="M8.00098 22C9.10555 22 10.001 21.1046 10.001 20C10.001 18.8954 9.10555 18 8.00098 18C6.89641 18 6.00098 18.8954 6.00098 20C6.00098 21.1046 6.89641 22 8.00098 22Z" stroke="#292D32" stroke-width="1.5" stroke-linecap="round" stroke-linejoin="round"/>
<path d="M16.001 22C17.1055 22 18.001 21.1046 18.001 20C18.001 18.8954 17.1055 18 16.001 18C14.8964 18 14.001 18.8954 14.001 20C14.001 21.1046 14.8964 22 16.001 22Z" stroke="#292D32" stroke-width="1.5" stroke-linecap="round" stroke-linejoin="round"/>
<path d="M22.001 12V14H19.001C18.451 14 18.001 13.55 18.001 13V10C18.001 9.45 18.451 9 19.001 9H20.291L22.001 12Z" stroke="#292D32" stroke-width="1.5" stroke-linecap="round" stroke-linejoin="round"/>
<path d="M9.0009 4.90999C9.0209 5.65999 8.82093 6.38001 8.46093 6.99001C8.26093 7.35001 8.00091 7.68002 7.69091 7.94002C7.01091 8.59002 6.10093 8.98002 5.09093 9.00002C3.85093 9.03002 2.7309 8.49001 2.0009 7.62001C1.8609 7.47001 1.74091 7.30002 1.63091 7.13002C1.24091 6.54002 1.0209 5.84005 1.0009 5.09005C0.970904 3.83005 1.5309 2.68001 2.4309 1.93001C3.1109 1.37001 3.97088 1.02002 4.91088 1.00002C5.96088 0.98002 6.92092 1.36002 7.64092 2.00002C8.45092 2.71002 8.9709 3.73999 9.0009 4.90999Z" stroke="#292D32" stroke-width="1.5" stroke-miterlimit="10" stroke-linecap="round" stroke-linejoin="round"/>
<path opacity="0.4" d="M3.44092 5.02979L4.45093 5.98975L6.54089 3.96973" stroke="#292D32" stroke-width="1.5" stroke-linecap="round" stroke-linejoin="round"/>
</svg>
