<svg width="24" height="24" viewBox="0 0 24 24" fill="none" xmlns="http://www.w3.org/2000/svg">
<path d="M17.601 5.31003L11.951 2.27003C11.351 1.95003 10.641 1.95003 10.041 2.27003L4.40096 5.31003C3.99096 5.54003 3.73096 5.98003 3.73096 6.46003C3.73096 6.95003 3.98096 7.39003 4.40096 7.61003L10.051 10.65C10.351 10.81 10.681 10.89 11.001 10.89C11.321 10.89 11.661 10.81 11.951 10.65L17.601 7.61003C18.011 7.39003 18.271 6.95003 18.271 6.46003C18.271 5.98003 18.011 5.54003 17.601 5.31003Z" fill="#292D32"/>
<path d="M9.12098 11.7101L3.87098 9.09009C3.46098 8.88009 3.00098 8.91009 2.61098 9.14009C2.23098 9.38009 2.00098 9.79009 2.00098 10.2401V15.2001C2.00098 16.0601 2.48098 16.8301 3.25098 17.2201L8.50098 19.8401C8.68098 19.9301 8.88098 19.9801 9.08098 19.9801C9.31098 19.9801 9.55098 19.9101 9.76098 19.7901C10.141 19.5501 10.371 19.1401 10.371 18.6901V13.7301C10.361 12.8701 9.88098 12.1001 9.12098 11.7101Z" fill="#292D32"/>
<path d="M20.0009 10.2401V12.7001C19.5209 12.5601 19.0109 12.5001 18.5009 12.5001C17.1409 12.5001 15.8109 12.9701 14.7609 13.8101C13.3209 14.9401 12.5009 16.6501 12.5009 18.5001C12.5009 18.9901 12.5609 19.4801 12.6909 19.9501C12.5409 19.9301 12.3909 19.8701 12.2509 19.7801C11.8709 19.5501 11.6409 19.1401 11.6409 18.6901V13.7301C11.6409 12.8701 12.1209 12.1001 12.8809 11.7101L18.1309 9.09009C18.5409 8.88009 19.0009 8.91009 19.3909 9.14009C19.7709 9.38009 20.0009 9.79009 20.0009 10.2401Z" fill="#292D32"/>
<path d="M22.581 21.4999L21.741 20.6599C22.181 19.9999 22.441 19.1999 22.441 18.3499C22.441 16.0199 20.551 14.1299 18.221 14.1299C15.891 14.1299 14.001 16.0199 14.001 18.3499C14.001 20.6799 15.891 22.5699 18.221 22.5699C19.071 22.5699 19.871 22.3099 20.531 21.8699L21.371 22.7099C21.541 22.8799 21.751 22.9599 21.971 22.9599C22.191 22.9599 22.411 22.8799 22.571 22.7099C22.911 22.3699 22.911 21.8299 22.581 21.4999Z" fill="#292D32"/>
</svg>
