<svg width="24" height="24" viewBox="0 0 24 24" fill="none" xmlns="http://www.w3.org/2000/svg">
<path d="M17.601 5.31003L11.951 2.27003C11.351 1.95003 10.641 1.95003 10.041 2.27003L4.40096 5.31003C3.99096 5.54003 3.73096 5.98003 3.73096 6.46003C3.73096 6.95003 3.98096 7.39003 4.40096 7.61003L10.051 10.65C10.351 10.81 10.681 10.89 11.001 10.89C11.321 10.89 11.661 10.81 11.951 10.65L17.601 7.61003C18.011 7.39003 18.271 6.95003 18.271 6.46003C18.271 5.98003 18.011 5.54003 17.601 5.31003Z" fill="#292D32"/>
<path d="M9.12098 11.7101L3.87098 9.09009C3.46098 8.88009 3.00098 8.91009 2.61098 9.14009C2.23098 9.38009 2.00098 9.79009 2.00098 10.2401V15.2001C2.00098 16.0601 2.48098 16.8301 3.25098 17.2201L8.50098 19.8401C8.68098 19.9301 8.88098 19.9801 9.08098 19.9801C9.31098 19.9801 9.55098 19.9101 9.76098 19.7901C10.141 19.5501 10.371 19.1401 10.371 18.6901V13.7301C10.361 12.8701 9.88098 12.1001 9.12098 11.7101Z" fill="#292D32"/>
<path d="M20.001 10.2401V12.7001C19.521 12.5601 19.011 12.5001 18.501 12.5001C17.141 12.5001 15.811 12.9701 14.761 13.8101C13.321 14.9401 12.501 16.6501 12.501 18.5001C12.501 18.9901 12.561 19.4801 12.691 19.9501C12.541 19.9301 12.391 19.8701 12.251 19.7801C11.871 19.5501 11.641 19.1401 11.641 18.6901V13.7301C11.641 12.8701 12.121 12.1001 12.881 11.7101L18.131 9.09009C18.541 8.88009 19.001 8.91009 19.391 9.14009C19.771 9.38009 20.001 9.79009 20.001 10.2401Z" fill="#292D32"/>
<path d="M21.681 15.3199C20.791 14.4299 19.611 13.9799 18.441 13.9999C17.311 14.0099 16.181 14.4599 15.321 15.3199C14.721 15.9099 14.331 16.6499 14.141 17.4199C14.031 17.8399 13.991 18.2699 14.021 18.6999V18.7499C14.021 18.8199 14.031 18.8799 14.041 18.9599C14.041 18.9599 14.041 18.9599 14.051 18.9699V18.9999C14.141 19.9799 14.561 20.9299 15.321 21.6799C16.481 22.8399 18.111 23.2299 19.581 22.8599C20.021 22.7499 20.451 22.5699 20.851 22.3299C21.151 22.1599 21.431 21.9399 21.681 21.6799C22.431 20.9299 22.861 19.9799 22.951 18.9899C22.961 18.9899 22.961 18.9699 22.961 18.9599C22.981 18.8899 22.981 18.8099 22.981 18.7399C22.981 18.7299 22.991 18.7099 22.991 18.6899C23.051 17.4799 22.611 16.2399 21.681 15.3199ZM20.231 20.2099C19.941 20.4999 19.471 20.4999 19.171 20.2099L18.511 19.5499L17.831 20.2299C17.531 20.5299 17.061 20.5299 16.771 20.2299C16.471 19.9399 16.471 19.4699 16.771 19.1699L17.451 18.4899L16.791 17.8299C16.501 17.5299 16.501 17.0599 16.791 16.7699C17.091 16.4699 17.561 16.4699 17.861 16.7699L18.511 17.4299L19.141 16.7899C19.441 16.4999 19.911 16.4999 20.211 16.7899C20.501 17.0899 20.501 17.5599 20.211 17.8599L19.571 18.4899L20.231 19.1399C20.531 19.4399 20.531 19.9099 20.231 20.2099Z" fill="#292D32"/>
</svg>
