<svg width="24" height="24" viewBox="0 0 24 24" fill="none" xmlns="http://www.w3.org/2000/svg">
<path d="M17.601 5.31003L11.951 2.27003C11.351 1.95003 10.641 1.95003 10.041 2.27003L4.40096 5.31003C3.99096 5.54003 3.73096 5.98003 3.73096 6.46003C3.73096 6.95003 3.98096 7.39003 4.40096 7.61003L10.051 10.65C10.351 10.81 10.681 10.89 11.001 10.89C11.321 10.89 11.661 10.81 11.951 10.65L17.601 7.61003C18.011 7.39003 18.271 6.95003 18.271 6.46003C18.271 5.98003 18.011 5.54003 17.601 5.31003Z" fill="#292D32"/>
<path d="M9.12098 11.7101L3.87098 9.09009C3.46098 8.88009 3.00098 8.91009 2.61098 9.14009C2.23098 9.38009 2.00098 9.79009 2.00098 10.2401V15.2001C2.00098 16.0601 2.48098 16.8301 3.25098 17.2201L8.50098 19.8401C8.68098 19.9301 8.88098 19.9801 9.08098 19.9801C9.31098 19.9801 9.55098 19.9101 9.76098 19.7901C10.141 19.5501 10.371 19.1401 10.371 18.6901V13.7301C10.361 12.8701 9.88098 12.1001 9.12098 11.7101Z" fill="#292D32"/>
<path d="M20.001 10.2401V12.7001C19.521 12.5601 19.011 12.5001 18.501 12.5001C17.141 12.5001 15.811 12.9701 14.761 13.8101C13.321 14.9401 12.501 16.6501 12.501 18.5001C12.501 18.9901 12.561 19.4801 12.691 19.9501C12.541 19.9301 12.391 19.8701 12.251 19.7801C11.871 19.5501 11.641 19.1401 11.641 18.6901V13.7301C11.641 12.8701 12.121 12.1001 12.881 11.7101L18.131 9.09009C18.541 8.88009 19.001 8.91009 19.391 9.14009C19.771 9.38009 20.001 9.79009 20.001 10.2401Z" fill="#292D32"/>
<path d="M22.001 15.7C22.001 15.69 21.991 15.68 21.981 15.67C21.941 15.61 21.891 15.55 21.841 15.5C21.831 15.49 21.821 15.47 21.811 15.46C21.001 14.56 19.811 14 18.501 14C17.241 14 16.091 14.52 15.271 15.36C14.481 16.17 14.001 17.28 14.001 18.5C14.001 19.34 14.241 20.14 14.651 20.82C14.871 21.19 15.151 21.53 15.471 21.81C15.491 21.82 15.501 21.83 15.511 21.84C15.561 21.89 15.611 21.93 15.671 21.98C15.671 21.98 15.671 21.98 15.681 21.98C15.691 21.99 15.701 22 15.711 22C16.461 22.63 17.431 23 18.501 23C20.141 23 21.571 22.12 22.351 20.82C22.581 20.43 22.761 20 22.871 19.55C22.961 19.21 23.001 18.86 23.001 18.5C23.001 17.44 22.631 16.46 22.001 15.7ZM20.181 19.23H19.251V20.2C19.251 20.61 18.911 20.95 18.501 20.95C18.091 20.95 17.751 20.61 17.751 20.2V19.23H16.821C16.411 19.23 16.071 18.89 16.071 18.48C16.071 18.07 16.411 17.73 16.821 17.73H17.751V16.84C17.751 16.43 18.091 16.09 18.501 16.09C18.911 16.09 19.251 16.43 19.251 16.84V17.73H20.181C20.591 17.73 20.931 18.07 20.931 18.48C20.931 18.89 20.601 19.23 20.181 19.23Z" fill="#292D32"/>
</svg>
