<svg width="24" height="24" viewBox="0 0 24 24" fill="none" xmlns="http://www.w3.org/2000/svg">
<path opacity="0.4" d="M19.11 7.46999L15.59 3.94999C12.43 0.799986 10.77 1.95999 8.77005 3.94999L3.11005 9.60999C1.96005 10.76 1.33005 11.5 1.10005 12.32C1.10005 12.33 1.09005 12.33 1.09005 12.33C1.09005 12.34 1.09005 12.34 1.09005 12.34C1.09005 12.35 1.09005 12.35 1.09005 12.35V12.38C0.680048 13.84 1.76005 15.08 3.11005 16.43L6.64005 19.94C7.90005 21.21 8.92005 22 10.05 22C11.18 22 12.15 21.24 13.45 19.94L19.11 14.29C19.6 13.79 19.96 13.38 20.24 12.99C20.24 12.98 20.24 12.98 20.24 12.98C20.24 12.98 20.24 12.98 20.25 12.98C21.53 11.19 21.19 9.53999 19.11 7.46999ZM19.15 9.91999C19.58 10.65 18.9 11.55 18.07 11.37C17.76 11.3 17.46 11.24 17.15 11.18C17.13 11.18 17.11 11.17 17.08 11.17C16.38 11.04 15.67 10.93 14.95 10.84H14.91C14.19 10.75 13.46 10.68 12.73 10.64H12.65C12.01 10.6 11.36 10.58 10.72 10.58C9.94005 10.58 9.16005 10.62 8.39005 10.67C8.26005 10.68 8.14005 10.69 8.02005 10.7C7.44005 10.74 6.86005 10.8 6.29005 10.87C6.13005 10.89 5.98005 10.91 5.83005 10.93C5.25005 11.02 4.68005 11.11 4.11005 11.22C3.98005 11.25 3.86005 11.27 3.73005 11.29C3.68005 11.3 3.62005 11.31 3.57005 11.32C3.75005 11.12 3.96005 10.91 4.19005 10.68L9.84005 5.02999C11.66 3.22999 12.28 2.79999 14.52 5.02999L18.03 8.54999C18.57 9.07999 18.93 9.52999 19.15 9.91999Z" fill="#292D32"/>
<path d="M19.1501 9.91993C19.5801 10.6499 18.9001 11.5499 18.0701 11.3699C17.7601 11.2999 17.4601 11.2399 17.1501 11.1799C17.1301 11.1799 17.1101 11.1699 17.0801 11.1699C16.3801 11.0399 15.6701 10.9299 14.9501 10.8399H14.9101C14.1901 10.7499 13.4601 10.6799 12.7301 10.6399H12.6501C12.0101 10.5999 11.3601 10.5799 10.7201 10.5799C9.94007 10.5799 9.16007 10.6199 8.39007 10.6699C8.26007 10.6799 8.14007 10.6899 8.02007 10.6999C7.44007 10.7399 6.86007 10.7999 6.29007 10.8699C6.13007 10.8899 5.98007 10.9099 5.83007 10.9299C5.25007 11.0199 4.68007 11.1099 4.11007 11.2199C3.98007 11.2499 3.86007 11.2699 3.73007 11.2899C3.68007 11.2999 3.62007 11.3099 3.57007 11.3199C3.75007 11.1199 3.96007 10.9099 4.19007 10.6799L9.84007 5.02993C11.6601 3.22993 12.2801 2.79993 14.5201 5.02993L18.0301 8.54993C18.5701 9.07993 18.9301 9.52993 19.1501 9.91993Z" fill="#292D32"/>
<path d="M20.9499 16.87C20.5699 16.4 20.2399 16 19.4999 16C18.7599 16 18.4299 16.4 18.0599 16.87C17.2599 17.86 16.8999 18.94 17.0299 19.98C17.1799 21.17 18.1999 22 19.4999 22C20.7999 22 21.8199 21.17 21.9699 19.97C22.0999 18.93 21.7499 17.86 20.9499 16.87Z" fill="#292D32"/>
</svg>
