<svg width="24" height="24" viewBox="0 0 24 24" fill="none" xmlns="http://www.w3.org/2000/svg">
<path d="M14.15 22.0001H9.86996C8.33996 22.0001 7.19996 20.7601 7.48996 19.4301L8.18996 16.3501H15.83L16.53 19.4301C16.85 20.8401 15.78 22.0001 14.15 22.0001Z" fill="#292D32"/>
<path opacity="0.4" d="M18.77 13.7399L15.83 16.3499H8.19001L5.25001 13.7399C3.54001 12.3399 3.54001 11.2599 4.84001 9.60993L10.03 3.03993C10.39 2.58993 10.81 2.27993 11.26 2.11993C11.75 1.94993 12.27 1.94993 12.76 2.11993C13.21 2.27993 13.63 2.58993 13.99 3.03993L19.18 9.60993C20.48 11.2599 20.42 12.2799 18.77 13.7399Z" fill="#292D32"/>
<path d="M12.76 2.11993V6.96993C12.76 7.37993 12.42 7.71993 12.01 7.71993C11.6 7.71993 11.26 7.37993 11.26 6.96993V2.11993C11.75 1.94993 12.27 1.94993 12.76 2.11993Z" fill="#292D32"/>
</svg>
