<svg width="24" height="24" viewBox="0 0 24 24" fill="none" xmlns="http://www.w3.org/2000/svg">
<path opacity="0.4" d="M16.19 2H7.81C4.17 2 2 4.17 2 7.81V16.18C2 19.83 4.17 22 7.81 22H16.18C19.82 22 21.99 19.83 21.99 16.19V7.81C22 4.17 19.83 2 16.19 2Z" fill="#292D32"/>
<path d="M16.66 11.25L15.04 12.27L11.74 8.97998L12.77 7.34998C13.24 6.60998 14.2 6.56998 14.9 7.26998L16.75 9.11998C17.41 9.76998 17.37 10.8 16.66 11.25Z" fill="#292D32"/>
<path opacity="0.6" d="M13.5801 16.6199L8.51007 17.2199C8.29007 17.2499 8.09007 17.2399 7.90007 17.1799C7.35007 17.0599 6.96007 16.6699 6.84007 16.1199C6.78007 15.9299 6.77007 15.7299 6.80007 15.5099L7.39007 10.4399C7.55007 9.16993 8.01007 8.75993 9.35007 8.83993L11.7401 8.97993L15.0401 12.2699L15.1801 14.6699C15.3101 16.0099 14.8501 16.4699 13.5801 16.6199Z" fill="#292D32"/>
<path d="M9.88009 15.2001L7.90009 17.1801C7.35009 17.0601 6.96009 16.6701 6.84009 16.1201L8.81009 14.1401C9.11009 13.8501 9.58009 13.8501 9.88009 14.1401C10.1701 14.4301 10.1701 14.9101 9.88009 15.2001Z" fill="#292D32"/>
</svg>
