<svg width="24" height="24" viewBox="0 0 24 24" fill="none" xmlns="http://www.w3.org/2000/svg">
<path opacity="0.4" d="M16.19 2.00024H7.81C4.17 2.00024 2 4.17024 2 7.81024V16.1802C2 19.8302 4.17 22.0002 7.81 22.0002H16.18C19.82 22.0002 21.99 19.8302 21.99 16.1902V7.81024C22 4.17024 19.83 2.00024 16.19 2.00024Z" fill="#292D32"/>
<path d="M21.8301 3.55022C20.7801 6.16022 18.4001 9.57022 16.1201 11.8002C15.7901 9.74022 14.1501 8.13022 12.0701 7.84022C14.3101 5.56022 17.7401 3.14022 20.3601 2.08022C20.8201 1.90022 21.2901 2.04022 21.5701 2.33022C21.8801 2.63022 22.0201 3.09022 21.8301 3.55022Z" fill="#292D32"/>
<path opacity="0.4" d="M16.1199 11.7903C15.7199 12.1803 15.3199 12.5403 14.9399 12.8403L13.3699 14.1003C13.1699 14.2403 12.9699 14.3603 12.7499 14.4603C12.7499 14.3103 12.7299 14.1603 12.7199 14.0003C12.6299 13.3403 12.3299 12.7103 11.7899 12.1703C11.2399 11.6303 10.5799 11.3203 9.90993 11.2303C9.74993 11.2103 9.57993 11.2103 9.42993 11.2103C9.51993 10.9603 9.64993 10.7303 9.81993 10.5403L11.0699 8.97032C11.3699 8.59032 11.7099 8.21032 12.0799 7.83032C14.1499 8.12032 15.7999 9.74032 16.1199 11.7903Z" fill="#292D32"/>
<path d="M12.7501 14.4702C12.7501 15.3502 12.4101 16.1902 11.7801 16.8202C11.2901 17.3102 10.6401 17.6502 9.84007 17.7502L7.88007 17.9702C6.81007 18.0902 5.89007 17.1702 6.01007 16.0902L6.23007 14.1302C6.42007 12.3802 7.88007 11.2602 9.43007 11.2302C9.58007 11.2202 9.75007 11.2302 9.91007 11.2502C10.5901 11.3402 11.2401 11.6502 11.7901 12.1902C12.3201 12.7202 12.6301 13.3602 12.7201 14.0202C12.7301 14.1702 12.7501 14.3202 12.7501 14.4702Z" fill="#292D32"/>
</svg>
