<svg width="24" height="24" viewBox="0 0 24 24" fill="none" xmlns="http://www.w3.org/2000/svg">
<path d="M8.96997 2C12.52 2 15.45 4.64 15.9 8.07C15.95 8.37 15.97 8.68 15.97 9C15.97 12.87 12.84 16 8.96997 16C8.64997 16 8.33997 15.98 8.03997 15.93C4.60997 15.48 1.96997 12.55 1.96997 9C1.96997 7.07 2.74997 5.32 4.01997 4.05" stroke="#292D32" stroke-width="1.5" stroke-linecap="round" stroke-linejoin="round"/>
<path d="M21.97 15.0001C21.97 18.8701 18.84 22.0001 14.97 22.0001C11.42 22.0001 8.49004 19.3601 8.04004 15.9301C8.34004 15.9801 8.65004 16.0001 8.97004 16.0001C12.84 16.0001 15.97 12.8701 15.97 9.00007C15.97 8.68007 15.95 8.37007 15.9 8.07007C19.33 8.52007 21.97 11.4501 21.97 15.0001Z" stroke="#292D32" stroke-width="1.5" stroke-linecap="round" stroke-linejoin="round"/>
<path d="M14.1201 14.1201L15.4301 15.4101" stroke="#292D32" stroke-width="1.5" stroke-linecap="round" stroke-linejoin="round"/>
<path d="M16.97 12L15.97 11" stroke="#292D32" stroke-width="1.5" stroke-linecap="round" stroke-linejoin="round"/>
<path d="M11.97 17L10.97 16" stroke="#292D32" stroke-width="1.5" stroke-linecap="round" stroke-linejoin="round"/>
</svg>
