<svg width="24" height="24" viewBox="0 0 24 24" fill="none" xmlns="http://www.w3.org/2000/svg">
<path d="M11.1501 5.19015L10.3701 4.41012C9.90008 3.94012 9.90008 3.18017 10.3701 2.71017L11.1501 1.93014C11.6201 1.46014 12.3801 1.46014 12.8501 1.93014L13.6301 2.71017C14.1001 3.18017 14.1001 3.94012 13.6301 4.41012L12.8501 5.19015C12.3801 5.66015 11.6201 5.66015 11.1501 5.19015Z" fill="#292D32"/>
<path d="M12.0001 5.91013C11.6001 5.91013 11.1901 5.76016 10.8901 5.45016L10.1101 4.67013C9.50009 4.06013 9.50009 3.06015 10.1101 2.44015L10.8901 1.66013C11.4801 1.06013 12.5201 1.07013 13.1201 1.66013L13.9001 2.44015C14.5101 3.05015 14.5101 4.05013 13.9001 4.67013L13.1201 5.45016C12.8101 5.76016 12.4001 5.91013 12.0001 5.91013ZM12.0001 1.96017C11.7901 1.96017 11.5801 2.04016 11.4201 2.20016L10.6401 2.98013C10.3201 3.30013 10.3201 3.83018 10.6401 4.15018L11.4201 4.93014C11.7401 5.25014 12.2601 5.25014 12.5901 4.93014L13.3701 4.15018C13.6901 3.83018 13.6901 3.31013 13.3701 2.98013L12.5901 2.20016C12.4201 2.04016 12.2101 1.96017 12.0001 1.96017Z" fill="#292D32"/>
<path d="M19.45 9.81006H20.55C21.21 9.81006 21.75 10.3501 21.75 11.0101V12.11C21.75 12.77 21.21 13.3101 20.55 13.3101H19.45C18.79 13.3101 18.25 12.77 18.25 12.11V11.0101C18.25 10.3501 18.79 9.81006 19.45 9.81006Z" fill="#292D32"/>
<path d="M20.5501 13.6899H19.4501C18.5801 13.6899 17.8701 12.9799 17.8701 12.1099V11.0099C17.8701 10.1399 18.5801 9.42993 19.4501 9.42993H20.5501C21.4201 9.42993 22.1301 10.1399 22.1301 11.0099V12.1099C22.1201 12.9799 21.4201 13.6899 20.5501 13.6899ZM19.4501 10.1899C18.9901 10.1899 18.6201 10.56 18.6201 11.02V12.1199C18.6201 12.5799 18.9901 12.95 19.4501 12.95H20.5501C21.0101 12.95 21.3801 12.5799 21.3801 12.1199V11.02C21.3801 10.56 21.0101 10.1899 20.5501 10.1899H19.4501Z" fill="#292D32"/>
<path d="M4.55 9.81006H3.45C2.79 9.81006 2.25 10.3501 2.25 11.0101V12.11C2.25 12.77 2.79 13.3101 3.45 13.3101H4.55C5.21 13.3101 5.75 12.77 5.75 12.11V11.0101C5.75 10.3501 5.21 9.81006 4.55 9.81006Z" fill="#292D32"/>
<path d="M4.55012 13.6899H3.45011C2.58011 13.6899 1.87012 12.9799 1.87012 12.1099V11.0099C1.87012 10.1399 2.58011 9.42993 3.45011 9.42993H4.55012C5.42012 9.42993 6.13011 10.1399 6.13011 11.0099V12.1099C6.12011 12.9799 5.42012 13.6899 4.55012 13.6899ZM3.45011 10.1899C2.99011 10.1899 2.62012 10.56 2.62012 11.02V12.1199C2.62012 12.5799 2.99011 12.95 3.45011 12.95H4.55012C5.01012 12.95 5.38011 12.5799 5.38011 12.1199V11.02C5.38011 10.56 5.01012 10.1899 4.55012 10.1899H3.45011Z" fill="#292D32"/>
<path fill-rule="evenodd" clip-rule="evenodd" d="M12.7097 4.26972C13.0026 3.97683 13.4774 3.97683 13.7703 4.26972L19.0703 9.56971C19.3632 9.8626 19.3632 10.3375 19.0703 10.6304C18.7774 10.9233 18.3026 10.9233 18.0097 10.6304L12.7097 5.33038C12.4168 5.03749 12.4168 4.56261 12.7097 4.26972Z" fill="#292D32"/>
<path fill-rule="evenodd" clip-rule="evenodd" d="M11.2903 4.26972C11.5832 4.56261 11.5832 5.03749 11.2903 5.33038L5.99029 10.6304C5.6974 10.9233 5.22252 10.9233 4.92963 10.6304C4.63674 10.3375 4.63674 9.8626 4.92963 9.56971L10.2296 4.26972C10.5225 3.97683 10.9974 3.97683 11.2903 4.26972Z" fill="#292D32"/>
<path d="M13.26 22.0099H10.7C9.78004 22.0099 9.10004 21.2698 9.27004 20.4698L9.69005 18.6199H14.28L14.7 20.4698C14.89 21.3198 14.24 22.0099 13.26 22.0099Z" fill="#292D32"/>
<path opacity="0.4" d="M16.04 17.0499L14.27 18.6199H9.68002L7.91002 17.0499C6.88002 16.2099 6.88002 15.5599 7.66002 14.5699L10.78 10.6299C11 10.3599 11.25 10.1699 11.52 10.0799C11.81 9.97988 12.13 9.97988 12.42 10.0799C12.69 10.1799 12.94 10.3599 13.16 10.6299L16.28 14.5699C17.07 15.5599 17.03 16.1799 16.04 17.0499Z" fill="#292D32"/>
</svg>
