<svg width="24" height="24" viewBox="0 0 24 24" fill="none" xmlns="http://www.w3.org/2000/svg">
<path d="M18.02 18.9599C19.74 17.7999 19.74 17.7999 19.74 15.9799V11.0099C19.74 9.18993 19.74 9.18993 18.02 8.02993L13.29 5.29993C12.58 4.88993 11.42 4.88993 10.71 5.29993L5.98001 8.03993C4.26001 9.19993 4.26001 9.19993 4.26001 11.0199V15.9899C4.26001 17.8099 4.26001 17.8099 5.98001 18.9699L10.71 21.6999C11.42 22.1099 12.58 22.1099 13.29 21.6999L14.81 20.8199" stroke="#292D32" stroke-width="1.5" stroke-linecap="round" stroke-linejoin="round"/>
<path d="M17.5 7.63V5C17.5 3 16.5 2 14.5 2H9.5C7.5 2 6.5 3 6.5 5V7.56" stroke="#292D32" stroke-width="1.5" stroke-linecap="round" stroke-linejoin="round"/>
<path d="M12.28 16.4199C12.13 16.3599 11.88 16.3599 11.73 16.4199L10.75 16.8099C10.15 17.0499 9.69003 16.7099 9.73003 16.0699L9.79003 15.0199C9.80003 14.8599 9.72003 14.6199 9.62003 14.4999L8.95003 13.6899C8.54003 13.1899 8.71003 12.6499 9.34003 12.4899L10.36 12.2299C10.52 12.1899 10.72 12.0399 10.8 11.9099L11.37 11.0199C11.72 10.4699 12.29 10.4699 12.64 11.0199L13.21 11.9099C13.3 12.0499 13.5 12.1899 13.65 12.2299L14.67 12.4899C15.3 12.6499 15.47 13.1899 15.06 13.6899L14.39 14.4999C14.29 14.6299 14.21 14.8599 14.22 15.0199" stroke="#292D32" stroke-width="1.5" stroke-linecap="round" stroke-linejoin="round"/>
</svg>
