<svg width="24" height="24" viewBox="0 0 24 24" fill="none" xmlns="http://www.w3.org/2000/svg">
<path opacity="0.4" d="M17.9501 7.7101L17.8101 7.6301L16.4201 6.8301L13.5501 5.1701C12.6701 4.6601 11.3301 4.6601 10.4501 5.1701L7.5801 6.8301L6.1901 7.6401L6.0101 7.7401C4.2201 8.9401 4.1001 9.1601 4.1001 11.0901V15.7001C4.1001 17.6301 4.2201 17.8501 6.0501 19.0801L10.4501 21.6201C10.8901 21.8801 11.4401 22.0001 12.0001 22.0001C12.5501 22.0001 13.1101 21.8801 13.5501 21.6201L17.9901 19.0501C19.7801 17.8501 19.9001 17.6301 19.9001 15.7001V11.0901C19.9001 9.1601 19.7801 8.9401 17.9501 7.7101Z" fill="#292D32"/>
<path d="M6.18994 7.64L7.57994 6.83L10.3199 5.25L10.4499 5.17C11.3299 4.66 12.6699 4.66 13.5499 5.17L13.6799 5.25L16.4199 6.83L17.8099 7.63V5.49C17.8099 3.24 16.5699 2 14.3199 2H9.66994C7.41994 2 6.18994 3.24 6.18994 5.49V7.64Z" fill="#292D32"/>
<path d="M14.84 13.34L14.22 14.1C14.12 14.21 14.05 14.43 14.06 14.58L14.12 15.56C14.16 16.16 13.73 16.47 13.17 16.25L12.26 15.89C12.12 15.84 11.88 15.84 11.74 15.89L10.83 16.25C10.27 16.47 9.83999 16.16 9.87999 15.56L9.93999 14.58C9.94999 14.43 9.87999 14.21 9.77999 14.1L9.15999 13.34C8.76999 12.88 8.93999 12.37 9.51999 12.22L10.47 11.98C10.62 11.94 10.8 11.8 10.88 11.67L11.41 10.85C11.74 10.34 12.26 10.34 12.59 10.85L13.12 11.67C13.2 11.8 13.38 11.94 13.53 11.98L14.48 12.22C15.06 12.37 15.23 12.88 14.84 13.34Z" fill="#292D32"/>
</svg>
