<svg width="24" height="24" viewBox="0 0 24 24" fill="none" xmlns="http://www.w3.org/2000/svg">
<path d="M2 6.74003C2 3.37003 2.84 2.53003 6.21 2.53003H16.74C20.11 2.53003 20.95 3.37003 20.95 6.74003" stroke="#292D32" stroke-width="1.5" stroke-linecap="round" stroke-linejoin="round"/>
<path d="M10 16.9501H6.21C2.84 16.9501 2 16.1101 2 12.7401V10.8501" stroke="#292D32" stroke-width="1.5" stroke-linecap="round" stroke-linejoin="round"/>
<path d="M10 21.4699V16.95" stroke="#292D32" stroke-width="1.5" stroke-linecap="round" stroke-linejoin="round"/>
<path d="M2 12.95H10" stroke="#292D32" stroke-width="1.5" stroke-linecap="round" stroke-linejoin="round"/>
<path d="M6.73999 21.47H9.99999" stroke="#292D32" stroke-width="1.5" stroke-linecap="round" stroke-linejoin="round"/>
<path d="M22 12.8001C22 10.4301 21.41 9.84009 19.04 9.84009H15.49C13.12 9.84009 12.53 10.4301 12.53 12.8001V18.5101C12.53 20.8801 13.12 21.4701 15.49 21.4701H19.04C21.41 21.4701 22 20.8801 22 18.5101V16.9401" stroke="#292D32" stroke-width="1.5" stroke-linecap="round" stroke-linejoin="round"/>
<path d="M17.2445 18.25H17.2535" stroke="#292D32" stroke-width="2" stroke-linecap="round" stroke-linejoin="round"/>
</svg>
