<svg width="24" height="24" viewBox="0 0 24 24" fill="none" xmlns="http://www.w3.org/2000/svg">
<path opacity="0.4" d="M19.54 6.54001L16.47 3.47C15.53 2.53 14.26 2.01001 12.93 2.01001H8C5 2.01001 3 4.01001 3 7.01001V17.01C3 20.01 5 22.01 8 22.01H16C19 22.01 21 20.01 21 17.01V10.08C21 8.73999 20.47 7.47001 19.54 6.54001Z" fill="#292D32"/>
<path d="M9.5 18.7499C9.31 18.7499 9.12 18.6799 8.97 18.5299L6.97 16.5299C6.68 16.2399 6.68 15.7599 6.97 15.4699L8.97 13.4699C9.26 13.1799 9.74 13.1799 10.03 13.4699C10.32 13.7599 10.32 14.2399 10.03 14.5299L8.56 15.9999L10.03 17.4699C10.32 17.7599 10.32 18.2399 10.03 18.5299C9.88 18.6799 9.69 18.7499 9.5 18.7499Z" fill="#292D32"/>
<path d="M14.5 18.7499C14.31 18.7499 14.12 18.6799 13.97 18.5299C13.68 18.2399 13.68 17.7599 13.97 17.4699L15.44 15.9999L13.97 14.5299C13.68 14.2399 13.68 13.7599 13.97 13.4699C14.26 13.1799 14.74 13.1799 15.03 13.4699L17.03 15.4699C17.32 15.7599 17.32 16.2399 17.03 16.5299L15.03 18.5299C14.88 18.6799 14.69 18.7499 14.5 18.7499Z" fill="#292D32"/>
</svg>
