<svg width="24" height="24" viewBox="0 0 24 24" fill="none" xmlns="http://www.w3.org/2000/svg">
<path d="M13.18 11.8601C12.78 11.8601 12.42 11.6401 12.25 11.2801L10.8 8.39013L10.38 9.17009C10.15 9.60009 9.68998 9.87011 9.19998 9.87011H8.46997C8.05997 9.87011 7.71997 9.53011 7.71997 9.12011C7.71997 8.71011 8.05997 8.37011 8.46997 8.37011H9.10995L9.89996 6.91008C10.09 6.57008 10.47 6.3401 10.83 6.3601C11.22 6.3601 11.57 6.5901 11.75 6.9301L13.18 9.79009L13.52 9.10009C13.75 8.64009 14.2 8.3601 14.72 8.3601H15.53C15.94 8.3601 16.28 8.7001 16.28 9.1101C16.28 9.5201 15.94 9.8601 15.53 9.8601H14.82L14.11 11.2701C13.93 11.6401 13.58 11.8601 13.18 11.8601Z" fill="#292D32"/>
<path opacity="0.4" d="M2.75 18.6501C2.34 18.6501 2 18.3101 2 17.9001V12.2001C1.95 9.49007 2.96 6.93007 4.84 5.01007C6.72 3.10007 9.24001 2.05005 11.95 2.05005C17.49 2.05005 22 6.56004 22 12.1V17.8C22 18.21 21.66 18.55 21.25 18.55C20.84 18.55 20.5 18.21 20.5 17.8V12.1C20.5 7.39004 16.67 3.55005 11.95 3.55005C9.64001 3.55005 7.50001 4.44006 5.91001 6.06006C4.31001 7.69006 3.46 9.86005 3.5 12.1801V17.8901C3.5 18.3101 3.17 18.6501 2.75 18.6501Z" fill="#292D32"/>
<path d="M5.94 12.4502H5.81C3.71 12.4502 2 14.1602 2 16.2602V18.1402C2 20.2402 3.71 21.9502 5.81 21.9502H5.94C8.04 21.9502 9.75 20.2402 9.75 18.1402V16.2602C9.75 14.1602 8.04 12.4502 5.94 12.4502Z" fill="#292D32"/>
<path d="M18.19 12.4502H18.06C15.96 12.4502 14.25 14.1602 14.25 16.2602V18.1402C14.25 20.2402 15.96 21.9502 18.06 21.9502H18.19C20.29 21.9502 22 20.2402 22 18.1402V16.2602C22 14.1602 20.29 12.4502 18.19 12.4502Z" fill="#292D32"/>
</svg>
