<svg width="24" height="24" viewBox="0 0 24 24" fill="none" xmlns="http://www.w3.org/2000/svg">
<path d="M9.6 20.75C5.21 20.75 3.25 18.79 3.25 14.4V9.6C3.25 5.21 5.21 3.25 9.6 3.25H14.4C18.79 3.25 20.75 5.21 20.75 9.6C20.75 10.01 20.41 10.35 20 10.35C19.59 10.35 19.25 10.01 19.25 9.6C19.25 6.02 17.98 4.75 14.4 4.75H9.6C6.02 4.75 4.75 6.02 4.75 9.6V14.4C4.75 17.98 6.02 19.25 9.6 19.25C10.01 19.25 10.35 19.59 10.35 20C10.35 20.41 10.01 20.75 9.6 20.75Z" fill="#292D32"/>
<path d="M7.98999 17.1C7.82999 17.1 7.65999 17.05 7.51999 16.94C6.64999 16.25 6.23999 15.15 6.23999 13.5V10.5C6.23999 7.6 7.58999 6.25 10.49 6.25H13.49C15.14 6.25 16.23 6.66 16.93 7.53C17.19 7.85 17.13 8.33 16.81 8.58C16.49 8.84 16.01 8.79 15.76 8.46C15.52 8.15 15.02 7.75 13.5 7.75H10.5C8.41999 7.75 7.74999 8.42 7.74999 10.5V13.5C7.74999 15.02 8.15999 15.52 8.45999 15.76C8.77999 16.02 8.83999 16.49 8.57999 16.81C8.42999 17 8.20999 17.1 7.98999 17.1Z" fill="#292D32"/>
<path d="M8.01001 4.75C7.59001 4.75 7.26001 4.41 7.26001 4V2C7.26001 1.59 7.60001 1.25 8.01001 1.25C8.42001 1.25 8.76001 1.59 8.76001 2V4C8.76001 4.41 8.42001 4.75 8.01001 4.75Z" fill="#292D32"/>
<path d="M12 4.75C11.59 4.75 11.25 4.41 11.25 4V2C11.25 1.59 11.59 1.25 12 1.25C12.41 1.25 12.75 1.59 12.75 2V4C12.75 4.41 12.41 4.75 12 4.75Z" fill="#292D32"/>
<path d="M16 4.75C15.59 4.75 15.25 4.41 15.25 4V2C15.25 1.59 15.59 1.25 16 1.25C16.41 1.25 16.75 1.59 16.75 2V4C16.75 4.41 16.41 4.75 16 4.75Z" fill="#292D32"/>
<path d="M22 8.75H20C19.59 8.75 19.25 8.41 19.25 8C19.25 7.59 19.59 7.25 20 7.25H22C22.41 7.25 22.75 7.59 22.75 8C22.75 8.41 22.42 8.75 22 8.75Z" fill="#292D32"/>
<path d="M8.01001 22.75C7.60001 22.75 7.26001 22.41 7.26001 22V20C7.26001 19.59 7.60001 19.25 8.01001 19.25C8.42001 19.25 8.76001 19.59 8.76001 20V22C8.76001 22.41 8.42001 22.75 8.01001 22.75Z" fill="#292D32"/>
<path d="M4 8.75H2C1.59 8.75 1.25 8.42 1.25 8C1.25 7.58 1.59 7.25 2 7.25H4C4.41 7.25 4.75 7.59 4.75 8C4.75 8.41 4.42 8.75 4 8.75Z" fill="#292D32"/>
<path d="M4 12.75H2C1.59 12.75 1.25 12.41 1.25 12C1.25 11.59 1.59 11.25 2 11.25H4C4.41 11.25 4.75 11.59 4.75 12C4.75 12.41 4.42 12.75 4 12.75Z" fill="#292D32"/>
<path d="M4 16.75H2C1.59 16.75 1.25 16.41 1.25 16C1.25 15.59 1.59 15.25 2 15.25H4C4.41 15.25 4.75 15.59 4.75 16C4.75 16.41 4.42 16.75 4 16.75Z" fill="#292D32"/>
<path d="M16.71 19.3399C15.42 19.3399 14.37 18.2899 14.37 16.9999C14.37 15.7099 15.42 14.6599 16.71 14.6599C18 14.6599 19.05 15.7099 19.05 16.9999C19.04 18.2899 18 19.3399 16.71 19.3399ZM16.71 16.1599C16.25 16.1599 15.87 16.5399 15.87 16.9999C15.87 17.4599 16.25 17.8399 16.71 17.8399C17.17 17.8399 17.55 17.4599 17.55 16.9999C17.54 16.5399 17.17 16.1599 16.71 16.1599Z" fill="#292D32"/>
<path d="M18.4 22.7499C17.84 22.7499 17.29 22.4599 16.99 21.9399L16.92 21.8299C16.81 21.6399 16.72 21.5899 16.7 21.5799C16.69 21.5799 16.59 21.6399 16.48 21.8299L16.42 21.9299C15.96 22.7199 14.95 22.9799 14.18 22.5199L13.28 21.9999C12.87 21.7699 12.58 21.3899 12.46 20.9299C12.34 20.4799 12.4 19.9999 12.63 19.5999C12.74 19.4099 12.74 19.2999 12.73 19.2799C12.72 19.2699 12.63 19.2199 12.41 19.2199C11.44 19.2199 10.65 18.4299 10.65 17.4699V16.5399C10.65 15.5699 11.44 14.7899 12.4 14.7899C12.62 14.7899 12.71 14.7299 12.73 14.7199C12.73 14.7099 12.73 14.5999 12.62 14.4099C12.39 13.9999 12.32 13.5299 12.45 13.0799C12.57 12.6299 12.86 12.2499 13.27 12.0099L14.18 11.4799C14.94 11.0299 15.95 11.2899 16.4 12.0699L16.46 12.1799C16.57 12.3699 16.66 12.4199 16.68 12.4299C16.69 12.4299 16.79 12.3699 16.9 12.1799L16.96 12.0799C17.43 11.2899 18.43 11.0299 19.2 11.4899L20.13 11.9999C20.54 12.2299 20.83 12.6099 20.95 13.0699C21.07 13.5199 21.01 13.9999 20.78 14.3999C20.67 14.5899 20.67 14.6999 20.68 14.7199C20.69 14.7299 20.78 14.7799 21 14.7799C21.97 14.7799 22.76 15.5699 22.76 16.5299V17.4599C22.76 18.4299 21.97 19.2099 21.01 19.2099C20.79 19.2099 20.7 19.2699 20.68 19.2799C20.68 19.2899 20.68 19.3999 20.79 19.5899C21.02 19.9999 21.09 20.4699 20.96 20.9199C20.84 21.3699 20.55 21.7499 20.14 21.9899L19.23 22.5199C18.96 22.6699 18.68 22.7499 18.4 22.7499ZM16.71 20.0799C17.31 20.0799 17.86 20.4399 18.23 21.0799L18.29 21.1899C18.32 21.2399 18.4 21.2699 18.46 21.2299L19.38 20.6999C19.46 20.6599 19.49 20.5799 19.5 20.5399C19.51 20.4999 19.52 20.4299 19.48 20.3499C19.11 19.7199 19.08 19.0599 19.38 18.5399C19.68 18.0199 20.27 17.7199 21 17.7199C21.14 17.7199 21.26 17.5999 21.26 17.4699V16.5399C21.26 16.3999 21.14 16.2899 21.01 16.2899C20.28 16.2899 19.68 15.9899 19.39 15.4699C19.09 14.9499 19.13 14.2899 19.49 13.6599C19.54 13.5799 19.53 13.4999 19.51 13.4699C19.5 13.4299 19.47 13.3599 19.39 13.3099L18.48 12.7799C18.41 12.7399 18.33 12.7699 18.29 12.8299L18.24 12.9199C17.87 13.5599 17.32 13.9199 16.72 13.9199C16.12 13.9199 15.57 13.5599 15.2 12.9199L15.14 12.8199C15.11 12.7599 15.02 12.7399 14.97 12.7699L14.05 13.2999C13.97 13.3399 13.94 13.4199 13.93 13.4599C13.92 13.4999 13.91 13.5699 13.95 13.6499C14.32 14.2799 14.35 14.9399 14.05 15.4599C13.75 15.9799 13.16 16.2799 12.43 16.2799C12.29 16.2799 12.17 16.3999 12.17 16.5299V17.4599C12.17 17.5999 12.29 17.7099 12.42 17.7099C13.15 17.7099 13.75 18.0099 14.04 18.5299C14.34 19.0499 14.3 19.7099 13.94 20.3399C13.9 20.4199 13.91 20.4899 13.92 20.5299C13.93 20.5699 13.96 20.6399 14.04 20.6899L14.95 21.2199C15.02 21.2599 15.1 21.2299 15.14 21.1699L15.19 21.0699C15.55 20.4399 16.11 20.0799 16.71 20.0799Z" fill="#292D32"/>
</svg>
