<svg width="24" height="24" viewBox="0 0 24 24" fill="none" xmlns="http://www.w3.org/2000/svg">
<path opacity="0.4" d="M20.9801 3.02C20.1101 2.15 18.8801 1.81 17.6901 2.11L7.8901 4.56C6.2401 4.97 4.9701 6.25 4.5601 7.89L2.1101 17.7C1.8101 18.89 2.1501 20.12 3.0201 20.99C3.6801 21.64 4.5501 22 5.4501 22C5.7301 22 6.0201 21.97 6.3001 21.89L16.1101 19.44C17.7501 19.03 19.0301 17.76 19.4401 16.11L21.8901 6.3C22.1901 5.11 21.8501 3.88 20.9801 3.02Z" fill="#292D32"/>
<path d="M12.0001 15.88C14.143 15.88 15.8801 14.1429 15.8801 12C15.8801 9.85713 14.143 8.12 12.0001 8.12C9.85725 8.12 8.12012 9.85713 8.12012 12C8.12012 14.1429 9.85725 15.88 12.0001 15.88Z" fill="#292D32"/>
</svg>
