<svg width="24" height="24" viewBox="0 0 24 24" fill="none" xmlns="http://www.w3.org/2000/svg">
<path d="M11.9702 22.75C6.05021 22.75 1.22021 17.93 1.22021 12C1.22021 6.07 6.05021 1.25 11.9702 1.25C17.8902 1.25 22.7202 6.07 22.7202 12C22.7202 17.93 17.9002 22.75 11.9702 22.75ZM11.9702 2.75C6.87021 2.75 2.72021 6.9 2.72021 12C2.72021 17.1 6.87021 21.25 11.9702 21.25C17.0702 21.25 21.2202 17.1 21.2202 12C21.2202 6.9 17.0702 2.75 11.9702 2.75Z" fill="#292D32"/>
<path d="M11.9999 19.25C9.84988 19.25 7.82988 18.2 6.59988 16.43C6.35988 16.09 6.44988 15.62 6.78988 15.39C7.12988 15.15 7.59988 15.24 7.82988 15.58C8.77988 16.94 10.3399 17.76 11.9999 17.76C13.6599 17.76 15.2199 16.95 16.1699 15.58C16.4099 15.24 16.8699 15.16 17.2099 15.39C17.5499 15.63 17.6299 16.09 17.3999 16.43C16.1699 18.2 14.1499 19.25 11.9999 19.25Z" fill="#292D32"/>
</svg>
