<svg width="24" height="24" viewBox="0 0 24 24" fill="none" xmlns="http://www.w3.org/2000/svg">
<path opacity="0.4" d="M12.93 4.79001H7.35C3.25 4.79001 2 6.04001 2 10.14V13.86C2 17.96 3.25 19.21 7.35 19.21H12.93C17.03 19.21 18.28 17.96 18.28 13.86V10.14C18.28 6.04001 17.03 4.79001 12.93 4.79001Z" fill="#292D32"/>
<path d="M20.4202 9.00001C20.2802 8.99001 20.1002 8.98001 19.9002 8.98001C19.5102 8.98001 19.2002 9.29001 19.2002 9.68001V14.33C19.2002 14.72 19.5102 15.03 19.9002 15.03C20.1002 15.03 20.2702 15.02 20.4402 15.01C22.0002 14.83 22.0002 13.73 22.0002 12.93V11.07C22.0002 10.27 22.0002 9.17001 20.4202 9.00001Z" fill="#292D32"/>
<path d="M10.0102 16.24C9.84018 16.24 9.66018 16.18 9.52018 16.06C9.21018 15.79 9.17018 15.32 9.44018 15L11.2402 12.89C11.2502 12.86 11.2402 12.83 11.2202 12.8C11.2002 12.76 11.1602 12.74 11.1102 12.74H9.12018C8.53018 12.74 8.01018 12.44 7.71018 11.93C7.42018 11.42 7.42018 10.82 7.71018 10.31L9.42018 8.05C9.67018 7.72 10.1402 7.65 10.4702 7.9C10.8002 8.15 10.8702 8.62 10.6202 8.95L8.97018 11.14C9.00018 11.1 9.00018 11.14 9.02018 11.19C9.04018 11.23 9.08018 11.25 9.13018 11.25H11.1402C11.7302 11.25 12.2502 11.55 12.5502 12.06C12.8402 12.57 12.8402 13.17 12.5502 13.68C12.5302 13.72 12.5002 13.76 12.4702 13.79L10.6002 15.98C10.4402 16.16 10.2302 16.24 10.0102 16.24Z" fill="#292D32"/>
</svg>
