<svg width="24" height="24" viewBox="0 0 24 24" fill="none" xmlns="http://www.w3.org/2000/svg">
<path d="M11.9698 22.75C11.3598 22.75 10.7298 22.7 10.0898 22.59C5.68981 21.84 2.09981 18.24 1.36981 13.82C0.789808 10.31 1.87981 6.88 4.36981 4.39C6.85981 1.9 10.2898 0.820001 13.7898 1.39C18.1998 2.12 21.8098 5.7 22.5598 10.1C22.7198 11.07 22.7598 12.02 22.6798 12.92V12.93C22.6598 13.16 22.6198 13.38 22.5598 13.6C22.4898 13.85 22.2998 14.04 22.0598 14.12C21.8198 14.2 21.5498 14.14 21.3498 13.98C20.4098 13.19 19.2098 12.75 17.9698 12.75C15.0698 12.75 12.7198 15.11 12.7198 18C12.7198 19.24 13.1598 20.44 13.9498 21.38C14.1198 21.58 14.1698 21.84 14.0898 22.09C14.0098 22.34 13.8198 22.52 13.5698 22.59C13.3498 22.65 13.1298 22.69 12.8998 22.71C12.5998 22.74 12.2898 22.75 11.9698 22.75ZM11.9698 2.75C9.51981 2.75 7.19981 3.7 5.43981 5.46C3.29981 7.6 2.35981 10.56 2.85981 13.58C3.48981 17.37 6.55981 20.47 10.3498 21.11C10.9498 21.21 11.5198 21.27 12.0698 21.25C11.5298 20.26 11.2398 19.14 11.2398 18C11.2398 14.28 14.2698 11.25 17.9898 11.25C19.1298 11.25 20.2498 11.54 21.2398 12.08C21.2498 11.53 21.1998 10.96 21.0998 10.36C20.4598 6.58 17.3598 3.5 13.5698 2.88C13.0198 2.79 12.4898 2.75 11.9698 2.75Z" fill="#292D32"/>
<path d="M13.3802 22.61C13.1602 22.61 12.9502 22.52 12.8102 22.34C11.7902 21.13 11.2202 19.59 11.2202 18C11.2202 14.28 14.2502 11.25 17.9702 11.25C19.5602 11.25 21.1002 11.81 22.3102 12.84C22.5402 13.03 22.6302 13.34 22.5502 13.62C22.3702 14.24 22.0502 14.78 21.5902 15.24L15.2102 21.62C14.7502 22.08 14.2002 22.4 13.5902 22.58C13.5202 22.6 13.4502 22.61 13.3802 22.61ZM17.9702 12.75C15.0702 12.75 12.7202 15.11 12.7202 18C12.7202 19.06 13.0402 20.09 13.6302 20.95C13.8202 20.85 13.9902 20.72 14.1502 20.56L20.5302 14.18C20.6902 14.02 20.8202 13.85 20.9202 13.66C20.0602 13.07 19.0302 12.75 17.9702 12.75Z" fill="#292D32"/>
</svg>
