<svg width="24" height="24" viewBox="0 0 24 24" fill="none" xmlns="http://www.w3.org/2000/svg">
<path d="M11.2499 3.9V12.92C11.2499 13.25 11.0899 13.55 10.8199 13.74L3.60993 18.79C3.01993 19.2 2.17993 18.88 2.04993 18.17C1.89993 17.31 2.09993 16.3 2.69993 15.21L5.81993 9.6L8.75993 4.31C8.98993 3.9 9.23993 3.54 9.49993 3.23C10.0999 2.53 11.2499 2.98 11.2499 3.9Z" fill="#292D32"/>
<path d="M20.39 18.79L13.18 13.74C12.91 13.55 12.75 13.25 12.75 12.92V3.9C12.75 2.98 13.9 2.53 14.5 3.23C14.76 3.54 15.01 3.9 15.24 4.31L18.18 9.6L21.3 15.21C21.9 16.3 22.1 17.31 21.95 18.17C21.82 18.88 20.98 19.2 20.39 18.79Z" fill="#292D32"/>
<path d="M5.25994 19.14L11.4099 15.04C11.7399 14.82 12.2799 14.82 12.6099 15.04L18.7599 19.14C20.3899 20.23 20.1199 21.12 18.1599 21.12H5.84994C3.89994 21.11 3.62994 20.22 5.25994 19.14Z" fill="#292D32"/>
</svg>
