<svg width="24" height="24" viewBox="0 0 24 24" fill="none" xmlns="http://www.w3.org/2000/svg">
<path d="M20.5999 4.1V6.3C20.5999 7.1 20.0999 8.1 19.5999 8.6L15.2999 12.4C14.6999 12.9 14.2999 13.9 14.2999 14.7V19C14.2999 19.6 13.8999 20.4 13.3999 20.7L11.9999 21.6C10.6999 22.4 8.89988 21.5 8.89988 19.9V14.6C8.89988 13.9 8.49989 13 8.09989 12.5L7.62989 12.01C7.31989 11.68 7.25989 11.18 7.50989 10.79L12.6299 2.57C12.8099 2.28 13.1299 2.1 13.4799 2.1H18.5999C19.6999 2.1 20.5999 3 20.5999 4.1Z" fill="#292D32"/>
<path d="M10.3499 3.63L6.7999 9.32C6.4599 9.87 5.6799 9.95 5.2299 9.48L4.2999 8.5C3.7999 8 3.3999 7.1 3.3999 6.5V4.2C3.3999 3 4.2999 2.1 5.3999 2.1H9.4999C10.2799 2.1 10.7599 2.96 10.3499 3.63Z" fill="#292D32"/>
</svg>
