<svg width="24" height="24" viewBox="0 0 24 24" fill="none" xmlns="http://www.w3.org/2000/svg">
<path opacity="0.4" d="M19.0798 15.72C18.4898 12.19 15.0998 9.32 11.5198 9.32C7.62979 9.32 4.20979 12.47 3.87979 16.35C3.74979 17.85 4.22979 19.27 5.21979 20.34C6.19979 21.41 7.57979 22 9.07979 22H13.7598C15.4498 22 16.9298 21.34 17.9398 20.15C18.9498 18.96 19.3498 17.38 19.0798 15.72Z" fill="#292D32"/>
<path d="M10.2801 7.86C11.8983 7.86 13.2101 6.54819 13.2101 4.93C13.2101 3.31181 11.8983 2 10.2801 2C8.6619 2 7.3501 3.31181 7.3501 4.93C7.3501 6.54819 8.6619 7.86 10.2801 7.86Z" fill="#292D32"/>
<path d="M16.94 9.03C18.2876 9.03 19.38 7.93757 19.38 6.59C19.38 5.24242 18.2876 4.15 16.94 4.15C15.5924 4.15 14.5 5.24242 14.5 6.59C14.5 7.93757 15.5924 9.03 16.94 9.03Z" fill="#292D32"/>
<path d="M20.5501 12.93C21.6271 12.93 22.5001 12.057 22.5001 10.98C22.5001 9.90304 21.6271 9.03 20.5501 9.03C19.4731 9.03 18.6001 9.90304 18.6001 10.98C18.6001 12.057 19.4731 12.93 20.5501 12.93Z" fill="#292D32"/>
<path d="M3.94 10.98C5.28757 10.98 6.38 9.88758 6.38 8.54C6.38 7.19243 5.28757 6.1 3.94 6.1C2.59243 6.1 1.5 7.19243 1.5 8.54C1.5 9.88758 2.59243 10.98 3.94 10.98Z" fill="#292D32"/>
</svg>
