<svg width="24" height="24" viewBox="0 0 24 24" fill="none" xmlns="http://www.w3.org/2000/svg">
<path d="M21.9702 18V19C21.9702 20.65 21.9702 22 18.9702 22H4.97021C1.97021 22 1.97021 20.65 1.97021 19V18C1.97021 17.45 2.42021 17 2.97021 17H20.9702C21.5202 17 21.9702 17.45 21.9702 18Z" fill="#292D32"/>
<path d="M14.41 5.18C14.46 4.98 14.49 4.79 14.5 4.58C14.53 3.42 13.82 2.4 12.7 2.1C11.02 1.64 9.50002 2.9 9.50002 4.5C9.50002 4.74 9.53002 4.96 9.59002 5.18C5.98002 5.95 3.27002 9.16 3.27002 13V14.5C3.27002 15.05 3.72002 15.5 4.27002 15.5H19.72C20.27 15.5 20.72 15.05 20.72 14.5V13C20.72 9.16 18.02 5.96 14.41 5.18ZM15 11.75H9.00002C8.59002 11.75 8.25002 11.41 8.25002 11C8.25002 10.59 8.59002 10.25 9.00002 10.25H15C15.41 10.25 15.75 10.59 15.75 11C15.75 11.41 15.41 11.75 15 11.75Z" fill="#292D32"/>
</svg>
