<svg width="24" height="24" viewBox="0 0 24 24" fill="none" xmlns="http://www.w3.org/2000/svg">
<path d="M8.82005 4.9L7.54005 2.78C7.06005 2 6.11005 1.56 5.22005 1.82C3.88005 2.22 3.36005 3.73 4.03005 4.84L5.35005 7.01C5.50005 7.24 5.81005 7.32 6.04005 7.18L8.65005 5.59C8.89005 5.44 8.97005 5.13 8.82005 4.9Z" fill="#292D32"/>
<path d="M19.7399 14.21L16.9299 10.41C15.9499 9.09001 14.2499 8.47001 12.6499 8.90001C12.6499 8.89001 12.6399 8.89001 12.6399 8.88001L10.9799 6.15001C10.6799 5.68001 10.0599 5.53001 9.58988 5.82001L6.11988 7.93001C5.63988 8.21001 5.48988 8.84001 5.77988 9.32001L7.42988 12.05C7.42988 12.05 7.42988 12.06 7.43988 12.06C6.32988 13.29 6.08988 15.08 6.82988 16.57L8.90988 20.81C9.54988 22.12 11.0599 22.62 12.3399 21.96C12.4399 21.91 12.4699 21.79 12.4099 21.69L10.8499 19.11C10.6299 18.75 10.7399 18.29 11.0999 18.06C11.4599 17.85 11.9199 17.96 12.1499 18.31L13.7199 20.89C13.7799 20.98 13.8999 21.01 13.9899 20.96L14.9499 20.38C15.0399 20.32 15.0699 20.2 15.0199 20.11L13.4499 17.53C13.2399 17.17 13.3499 16.71 13.6999 16.48C14.0699 16.27 14.5299 16.38 14.7499 16.73L16.3199 19.31C16.3799 19.4 16.4999 19.43 16.5899 19.38L17.5499 18.8C17.6399 18.74 17.6699 18.62 17.6199 18.53L16.0499 15.95C15.8399 15.59 15.9499 15.13 16.2999 14.9C16.6699 14.69 17.1299 14.8 17.3499 15.15L18.9299 17.72C18.9899 17.81 19.1099 17.84 19.1999 17.78C20.3599 16.95 20.6199 15.39 19.7399 14.21Z" fill="#292D32"/>
</svg>
