<svg width="24" height="24" viewBox="0 0 24 24" fill="none" xmlns="http://www.w3.org/2000/svg">
<path opacity="0.4" d="M9.82997 5.57001L6.35997 7.68L4.77997 5.08002C4.19997 4.13002 4.49998 2.86998 5.45998 2.28998C6.40998 1.70998 7.66997 2.00998 8.24997 2.96998L9.82997 5.57001Z" fill="#292D32"/>
<path opacity="0.4" d="M19.2702 17.64L19.2601 17.65L17.9602 18.44L16.6602 19.23L15.3602 20.02L14.0602 20.81L12.7601 21.6H12.7502C11.4402 22.4 9.82015 21.92 9.15015 20.55L7.07016 16.31C6.34016 14.83 6.57016 13.03 7.69016 11.8C7.95016 11.52 8.25016 11.26 8.60016 11.05L11.8102 9.1C12.1702 8.89 12.5301 8.73004 12.9001 8.64004C14.5001 8.20004 16.2001 8.82005 17.1801 10.15L19.9902 13.95C20.9002 15.2 20.5802 16.85 19.2702 17.64Z" fill="#292D32"/>
<path d="M12.8998 8.66C12.5298 8.75 12.1698 8.90002 11.8098 9.12002L8.59981 11.07C8.23981 11.28 7.9498 11.54 7.6898 11.82C7.6798 11.82 7.67979 11.81 7.67979 11.81L6.0298 9.08005C5.7398 8.60005 5.8898 7.97003 6.3598 7.69003L9.8298 5.58005C10.3098 5.29005 10.9298 5.44 11.2198 5.91L12.8798 8.64004C12.8898 8.65004 12.8998 8.65 12.8998 8.66Z" fill="#292D32"/>
<path d="M16.6599 19.23L15.3599 20.02L13.6899 17.27C13.4799 16.91 13.5899 16.45 13.9399 16.22C14.3099 16.01 14.7699 16.12 14.9899 16.47L16.6599 19.23Z" fill="#292D32"/>
<path d="M14.0602 20.82L12.7602 21.61L11.0902 18.86C10.8702 18.5 10.9802 18.04 11.3402 17.81C11.7002 17.6 12.1602 17.71 12.3902 18.06L14.0602 20.82Z" fill="#292D32"/>
<path d="M19.26 17.65L17.96 18.44L16.29 15.69C16.08 15.33 16.19 14.87 16.54 14.64C16.91 14.43 17.37 14.54 17.59 14.89L19.26 17.65Z" fill="#292D32"/>
</svg>
