<svg width="24" height="24" viewBox="0 0 24 24" fill="none" xmlns="http://www.w3.org/2000/svg">
<path d="M20.4202 9.00001C20.2802 8.99001 20.1002 8.98001 19.9002 8.98001C19.5102 8.98001 19.2002 9.29001 19.2002 9.68001V14.33C19.2002 14.72 19.5102 15.03 19.9002 15.03C20.1002 15.03 20.2702 15.02 20.4402 15.01C22.0002 14.83 22.0002 13.73 22.0002 12.93V11.07C22.0002 10.27 22.0002 9.17001 20.4202 9.00001Z" fill="#292D32"/>
<path opacity="0.4" d="M14.5 4.87001L5.52 19.09C2.87 18.71 2 17.27 2 13.86V10.14C2 6.04001 3.25 4.79001 7.35 4.79001H12.93C13.51 4.79001 14.03 4.81001 14.5 4.87001Z" fill="#292D32"/>
<path opacity="0.4" d="M18.2802 10.14V13.86C18.2802 16.81 15.8802 19.21 12.9302 19.21H7.4502L16.2302 5.31C17.7502 6 18.2802 7.46 18.2802 10.14Z" fill="#292D32"/>
<path d="M3.99991 22.25C3.85991 22.25 3.71991 22.21 3.59991 22.13C3.24991 21.91 3.13991 21.45 3.36991 21.1L15.3699 2.09999C15.5899 1.74999 16.0599 1.64999 16.3999 1.86999C16.7499 2.08999 16.8599 2.54999 16.6299 2.89999L4.62991 21.9C4.48991 22.13 4.24991 22.25 3.99991 22.25Z" fill="#292D32"/>
</svg>
