<svg width="24" height="24" viewBox="0 0 24 24" fill="none" xmlns="http://www.w3.org/2000/svg">
<path d="M17.8801 6.12001L3.92009 20.08C3.49009 20.51 2.77009 20.47 2.42009 19.98C1.92009 19.29 1.82009 18.33 2.34009 17.5L5.10009 13.07C5.47009 12.48 5.47009 11.52 5.10009 10.93L2.34009 6.50001C1.41009 5.02001 2.48009 3.10001 4.22009 3.10001H15.6701C16.3501 3.10001 17.1901 3.57001 17.5501 4.14001L18.0201 4.88001C18.2601 5.28001 18.2101 5.79001 17.8801 6.12001Z" fill="#292D32"/>
<path d="M21.6299 13.11L16.4499 20.01C16.0899 20.5 15.2899 20.9 14.6699 20.9H7.50987C6.61987 20.9 6.16987 19.82 6.79987 19.19L18.3199 7.67999C18.7699 7.22999 19.5399 7.30999 19.8799 7.85999L21.7299 10.83C22.1299 11.47 22.0899 12.5 21.6299 13.11Z" fill="#292D32"/>
</svg>
