<svg width="24" height="24" viewBox="0 0 24 24" fill="none" xmlns="http://www.w3.org/2000/svg">
<path d="M17.02 2.88C16.54 2.4 15.58 2 14.9 2H9.1C8.42 2 7.46 2.4 6.98 2.88L2.88 6.98C2.4 7.46 2 8.42 2 9.1V14.9C2 15.58 2.4 16.54 2.88 17.02L4.41 18.55L18.55 4.41L17.02 2.88Z" fill="#292D32"/>
<path d="M21.1202 6.98L19.6102 5.47L5.47021 19.61L6.98022 21.12C7.46022 21.6 8.42022 22 9.10022 22H14.9002C15.5802 22 16.5402 21.6 17.0202 21.12L21.1202 17.02C21.6002 16.54 22.0002 15.58 22.0002 14.9V9.1C22.0002 8.42 21.6002 7.46 21.1202 6.98Z" fill="#292D32"/>
<path d="M2.48996 20.47C2.19996 20.76 2.19996 21.24 2.48996 21.53C2.63996 21.68 2.82996 21.75 3.01996 21.75C3.20996 21.75 3.39996 21.68 3.54996 21.53L5.46996 19.61L4.40996 18.55L2.48996 20.47Z" fill="#292D32"/>
<path d="M21.5298 3.55001C21.8198 3.26001 21.8198 2.78001 21.5298 2.49001C21.2398 2.20001 20.7598 2.20001 20.4698 2.49001L18.5498 4.41001L19.6098 5.47001L21.5298 3.55001Z" fill="#292D32"/>
</svg>
