<svg width="24" height="24" viewBox="0 0 24 24" fill="none" xmlns="http://www.w3.org/2000/svg">
<path d="M2.52022 12.0498C2.02022 13.4498 2.92022 14.6498 4.42022 14.6498H8.42022C9.02022 14.6498 9.52022 15.1498 9.42022 15.8498L8.92022 19.0498C8.72022 19.9498 9.32022 20.9498 10.2202 21.2498C11.0202 21.5498 12.0202 21.1498 12.4202 20.5498L16.5202 14.4498" stroke="#292D32" stroke-width="1.5" stroke-miterlimit="10" stroke-linecap="round" stroke-linejoin="round"/>
<path d="M16.5198 5.6499L13.4198 3.2499C13.0198 2.8499 12.1198 2.6499 11.5198 2.6499H7.71978C6.51978 2.6499 5.21979 3.5499 4.91979 4.7499L3.77979 8.2199" stroke="#292D32" stroke-width="1.5" stroke-miterlimit="10" stroke-linecap="round" stroke-linejoin="round"/>
<path d="M21.6201 5.65V15.45C21.6201 16.85 21.0201 17.35 19.6201 17.35H18.6201C17.2201 17.35 16.6201 16.85 16.6201 15.45V5.65C16.6201 4.25 17.2201 3.75 18.6201 3.75H19.6201C21.0201 3.75 21.6201 4.25 21.6201 5.65Z" stroke="#292D32" stroke-width="1.5" stroke-linecap="round" stroke-linejoin="round"/>
</svg>
