<svg width="24" height="24" viewBox="0 0 24 24" fill="none" xmlns="http://www.w3.org/2000/svg">
<path d="M2 11.5602V13.4302C2 16.4302 4 18.4302 7 18.4302H11L15.45 21.3902C16.11 21.8302 17 21.3602 17 20.5602V18.4302C20 18.4302 22 16.4302 22 13.4302V7.43018C22 4.43018 20 2.43018 17 2.43018H7C4 2.43018 2 4.43018 2 7.43018" stroke="#292D32" stroke-width="1.5" stroke-miterlimit="10" stroke-linecap="round" stroke-linejoin="round"/>
<path d="M12.0001 11.3599V11.1499C12.0001 10.4699 12.4201 10.1099 12.8401 9.81989C13.2501 9.53989 13.66 9.1799 13.66 8.5199C13.66 7.5999 12.9201 6.85986 12.0001 6.85986C11.0801 6.85986 10.3401 7.5999 10.3401 8.5199" stroke="#292D32" stroke-width="1.5" stroke-linecap="round" stroke-linejoin="round"/>
<path d="M11.9955 13.75H12.0045" stroke="#292D32" stroke-width="1.5" stroke-linecap="round" stroke-linejoin="round"/>
</svg>
