<svg width="24" height="24" viewBox="0 0 24 24" fill="none" xmlns="http://www.w3.org/2000/svg">
<path d="M16.0502 7.67014C15.8102 7.49014 15.6102 7.26014 15.5002 7.03014L13.7402 3.51014C12.7902 1.60014 11.2302 1.60014 10.2702 3.51014L8.50016 7.03014C8.38016 7.28014 8.16016 7.51014 7.91016 7.70014" stroke="#292D32" stroke-width="1.5" stroke-linecap="round" stroke-linejoin="round"/>
<path d="M5.27991 18.6499L5.84991 16.1799C5.97991 15.5999 5.74991 14.7899 5.32991 14.3699L2.84991 11.8899C1.38991 10.4299 1.85991 8.94986 3.89991 8.60986" stroke="#292D32" stroke-width="1.5" stroke-linecap="round" stroke-linejoin="round"/>
<path d="M20.1 8.60986C22.14 8.94986 22.62 10.4299 21.15 11.8899L18.67 14.3699C18.25 14.7899 18.02 15.5999 18.15 16.1799L18.86 19.2499C19.42 21.6799 18.13 22.6199 15.98 21.3499L12.99 19.5799C12.45 19.2599 11.56 19.2599 11.01 19.5799L8.02002 21.3499" stroke="#292D32" stroke-width="1.5" stroke-linecap="round" stroke-linejoin="round"/>
<path d="M22 2L2 22" stroke="#292D32" stroke-width="1.5" stroke-linecap="round" stroke-linejoin="round"/>
</svg>
