<svg width="24" height="24" viewBox="0 0 24 24" fill="none" xmlns="http://www.w3.org/2000/svg">
<path d="M6.18981 22.0601C5.18981 22.0601 4.21981 21.6701 3.44981 20.9201C2.19981 19.7001 1.89981 17.9001 2.67981 16.3401L4.29981 13.1001C4.63981 12.4201 4.63981 11.6001 4.29981 10.9101L2.67981 7.66009C1.89981 6.10009 2.19981 4.30009 3.44981 3.08009C4.69981 1.86009 6.49981 1.59009 8.04981 2.41009L19.6398 8.51009C20.9398 9.19009 21.7498 10.5301 21.7498 12.0001C21.7498 13.4701 20.9398 14.8101 19.6398 15.4901L8.04981 21.5901C7.44981 21.9101 6.81981 22.0601 6.18981 22.0601ZM6.19981 3.44009C5.50981 3.44009 4.90981 3.76009 4.49981 4.16009C3.87981 4.76009 3.43981 5.83009 4.01981 7.00009L5.63981 10.2401C6.18981 11.3501 6.18981 12.6601 5.63981 13.7701L4.01981 17.0101C3.42981 18.1801 3.87981 19.2501 4.49981 19.8501C5.11981 20.4501 6.18981 20.8801 7.34981 20.2701L18.9398 14.1701C19.7598 13.7401 20.2498 12.9301 20.2498 12.0101C20.2498 11.0901 19.7598 10.2801 18.9398 9.85009L7.34981 3.73009C6.94981 3.52009 6.55981 3.44009 6.19981 3.44009Z" fill="#292D32"/>
</svg>
