<svg width="24" height="24" viewBox="0 0 24 24" fill="none" xmlns="http://www.w3.org/2000/svg">
<path d="M10.4199 13.75C10.2899 13.75 10.1599 13.72 10.0399 13.65C8.85988 12.96 8.12988 11.68 8.12988 10.32C8.12988 8.18995 9.85988 6.44995 11.9999 6.44995C13.3699 6.44995 14.6499 7.17995 15.3399 8.36995C15.5499 8.72995 15.4299 9.18995 15.0699 9.39995C14.7099 9.60995 14.2499 9.48995 14.0399 9.12995C13.6199 8.38995 12.8399 7.93995 11.9999 7.93995C10.6999 7.93995 9.62988 8.99995 9.62988 10.31C9.62988 11.15 10.0799 11.93 10.7999 12.35C11.1599 12.56 11.2799 13.02 11.0699 13.38C10.9299 13.61 10.6799 13.75 10.4199 13.75Z" fill="#292D32"/>
<path d="M5.99024 18.5601C5.76024 18.5601 5.53024 18.4501 5.38024 18.2501C2.98024 14.9601 2.14024 11.6201 2.89024 8.32007C3.67024 4.89007 6.19024 2.35007 9.63024 1.52007C13.2302 0.650071 17.0102 1.82007 19.2402 4.49007C19.5102 4.81007 19.4602 5.28007 19.1502 5.55007C18.8302 5.82007 18.3602 5.77007 18.0902 5.45007C16.2202 3.21007 13.0402 2.24007 9.98024 2.97007C7.06024 3.67007 5.01024 5.74007 4.35024 8.64007C3.70024 11.5001 4.45024 14.4301 6.59024 17.3501C6.83024 17.6801 6.76024 18.1501 6.43024 18.4001C6.30024 18.5101 6.14024 18.5601 5.99024 18.5601Z" fill="#292D32"/>
<path d="M12.0001 22.76C10.5201 22.76 9.03006 22.2 7.87006 21.09C7.57006 20.8 7.56006 20.33 7.85006 20.03C8.14006 19.73 8.61006 19.72 8.91006 20.01C10.6401 21.68 13.3501 21.68 15.0801 20.01C17.7501 17.44 20.7101 13.38 19.6501 8.67002C19.5601 8.27002 19.8101 7.86002 20.2201 7.77002C20.6201 7.68002 21.0301 7.93002 21.1201 8.34002C22.3401 13.73 19.0801 18.25 16.1301 21.09C14.9701 22.2 13.4801 22.76 12.0001 22.76Z" fill="#292D32"/>
<path d="M1.99994 22.7499C1.80994 22.7499 1.61994 22.6799 1.46994 22.5299C1.17994 22.2399 1.17994 21.7599 1.46994 21.4699L21.4699 1.46994C21.7599 1.17994 22.2399 1.17994 22.5299 1.46994C22.8199 1.75994 22.8199 2.23994 22.5299 2.52994L2.52994 22.5299C2.37994 22.6799 2.18994 22.7499 1.99994 22.7499Z" fill="#292D32"/>
</svg>
