<svg width="24" height="24" viewBox="0 0 24 24" fill="none" xmlns="http://www.w3.org/2000/svg">
<g clip-path="url(#clip0_2_17934)">
<path d="M18.7299 14.6701L14.5799 18.8201C14.4199 18.9801 14.2699 19.2901 14.2299 19.5101L13.9999 21.1001C13.9199 21.6701 14.3199 22.0801 14.8899 21.9901L16.4799 21.7601C16.6999 21.7301 17.0099 21.5701 17.1699 21.4101L21.3199 17.2601C22.0299 16.5501 22.3699 15.7101 21.3199 14.6601C20.2799 13.6201 19.4499 13.9501 18.7299 14.6701Z" fill="#292D32"/>
<path d="M18.1401 15.26C18.4901 16.52 19.4801 17.5 20.7401 17.86L18.1401 15.26Z" fill="#292D32"/>
<path d="M2.02977 14.6299C2.02977 14.6599 2.00977 14.6999 2.00977 14.7299C2.92977 16.5699 4.42977 18.0799 6.26977 18.9899C6.29977 18.9899 6.33977 18.9699 6.36977 18.9699C6.02977 17.8099 5.76977 16.6199 5.57977 15.4299C4.37977 15.2299 3.18977 14.9699 2.02977 14.6299Z" fill="#292D32"/>
<path d="M19.0701 6.42994C18.1301 4.45994 16.5401 2.86994 14.5801 1.93994C14.9401 3.12994 15.2401 4.34994 15.4401 5.56994C16.6601 5.76994 17.8801 6.05994 19.0701 6.42994Z" fill="#292D32"/>
<path d="M1.93018 6.43002C3.13018 6.07002 4.35018 5.77002 5.57018 5.57002C5.77018 4.38002 6.02018 3.20002 6.36018 2.04002C6.33018 2.04002 6.29018 2.02002 6.26018 2.02002C4.38018 2.95002 2.85018 4.52002 1.93018 6.43002Z" fill="#292D32"/>
<path d="M13.8202 5.36C13.5802 4.06 13.2802 2.76 12.8502 1.5C12.8302 1.43 12.8302 1.37 12.8202 1.29C12.0802 1.11 11.3002 1 10.5002 1C9.69018 1 8.92018 1.11 8.17018 1.3C8.16018 1.37 8.17018 1.43 8.15018 1.51C7.73018 2.77 7.42018 4.06 7.18018 5.36C9.39018 5.12 11.6102 5.12 13.8202 5.36Z" fill="#292D32"/>
<path d="M5.36 7.17993C4.05 7.41993 2.77 7.72993 1.5 8.14993C1.43 8.16993 1.37 8.16993 1.3 8.17993C1.11 8.91993 1 9.69993 1 10.4999C1 11.3099 1.11 12.0799 1.3 12.8299C1.37 12.8399 1.43 12.8299 1.51 12.8499C2.77 13.2699 4.06 13.5799 5.37 13.8199C5.12 11.6099 5.12 9.38993 5.36 7.17993Z" fill="#292D32"/>
<path d="M19.6999 8.17993C19.6299 8.17993 19.5699 8.16993 19.4899 8.14993C18.2299 7.72993 16.9299 7.41993 15.6299 7.17993C15.8799 9.38993 15.8799 11.6099 15.6299 13.8099C16.9299 13.5699 18.2299 13.2699 19.4899 12.8399C19.5599 12.8199 19.6199 12.8299 19.6999 12.8199C19.8799 12.0699 19.9999 11.2999 19.9999 10.4899C19.9999 9.69993 19.8899 8.92993 19.6999 8.17993Z" fill="#292D32"/>
<path d="M7.18018 15.6399C7.42018 16.9499 7.72018 18.2399 8.15018 19.4999C8.17018 19.5699 8.16018 19.6299 8.17018 19.7099C8.92018 19.8899 9.69018 19.9999 10.5002 19.9999C11.3002 19.9999 12.0802 19.8899 12.8202 19.6999C12.8302 19.6299 12.8302 19.5699 12.8502 19.4899C13.2702 18.2299 13.5802 16.9399 13.8202 15.6299C12.7202 15.7499 11.6102 15.8399 10.5002 15.8399C9.39018 15.8399 8.28018 15.7599 7.18018 15.6399Z" fill="#292D32"/>
<path d="M6.9501 6.9501C6.6501 9.3101 6.6501 11.6901 6.9501 14.0601C9.3101 14.3601 11.6901 14.3601 14.0601 14.0601C14.3601 11.7001 14.3601 9.3201 14.0601 6.9501C11.6901 6.6501 9.3101 6.6501 6.9501 6.9501Z" fill="#292D32"/>
</g>
<defs>
<clipPath id="clip0_2_17934">
<rect width="24" height="24" fill="white"/>
</clipPath>
</defs>
</svg>
