<svg width="24" height="24" viewBox="0 0 24 24" fill="none" xmlns="http://www.w3.org/2000/svg">
<g clip-path="url(#clip0_2_18226)">
<path d="M21.2902 17.0201L19.5502 13.5401C19.0702 12.5701 19.0702 11.4401 19.5502 10.4701L21.2902 6.99007C22.7802 4.00007 19.5702 0.860073 16.6202 2.42007L15.0802 3.24007C14.8702 3.35007 14.7002 3.53007 14.6002 3.75007L8.90017 16.3901C8.67017 16.9101 8.88017 17.5201 9.38017 17.7801L16.6202 21.5901C19.5702 23.1501 22.7802 20.0001 21.2902 17.0201Z" fill="#292D32"/>
<path d="M7.69002 15.6L11.42 7.31996C11.84 6.38996 10.84 5.44996 9.94002 5.92996L4.17002 8.95996C1.72002 10.25 1.72002 13.75 4.17002 15.04L6.21002 16.11C6.76002 16.4 7.43002 16.17 7.69002 15.6Z" fill="#292D32"/>
</g>
<defs>
<clipPath id="clip0_2_18226">
<rect width="24" height="24" fill="white"/>
</clipPath>
</defs>
</svg>
