<svg width="24" height="24" viewBox="0 0 24 24" fill="none" xmlns="http://www.w3.org/2000/svg">
<path d="M22 8.34V15.66C22 17.16 20.37 18.1 19.07 17.35L15.9 15.53L12.73 13.7C12.53 13.58 12.37 13.45 12.24 13.29V10.73C12.37 10.57 12.53 10.44 12.73 10.32L15.9 8.48999L19.07 6.67002C20.37 5.90002 22 6.84 22 8.34Z" stroke="#292D32" stroke-width="1.5" stroke-linecap="round" stroke-linejoin="round"/>
<path d="M9.32 6.64998C10.62 5.89998 12.25 6.83998 12.25 8.33998V15.66C12.25 17.16 10.62 18.1 9.32 17.35L6.14999 15.53L2.98 13.7C1.68 12.95 1.68 11.08 2.98 10.32L5.39001 8.92998" stroke="#292D32" stroke-width="1.5" stroke-linecap="round" stroke-linejoin="round"/>
</svg>
