<svg width="24" height="24" viewBox="0 0 24 24" fill="none" xmlns="http://www.w3.org/2000/svg">
<path opacity="0.4" d="M19.26 2.87001L14.84 1.40001C13.92 1.09001 12.99 1.20001 12.31 1.70001C11.62 2.20001 11.23 3.04001 11.23 4.01001V7.78001L18.11 10.07C18.45 10.19 18.8 10.24 19.13 10.24C19.69 10.24 20.21 10.08 20.64 9.77001C21.33 9.27001 21.72 8.43001 21.72 7.46001V6.28001C21.72 4.85001 20.62 3.32001 19.26 2.87001Z" fill="#292D32"/>
<path d="M12.72 8.26999V18C12.72 20.62 10.59 22.75 7.97 22.75C5.35 22.75 3.22 20.62 3.22 18C3.22 15.38 5.35 13.25 7.97 13.25C9.23 13.25 10.37 13.75 11.22 14.55V7.76999L12.72 8.26999Z" fill="#292D32"/>
</svg>
