<svg width="24" height="24" viewBox="0 0 24 24" fill="none" xmlns="http://www.w3.org/2000/svg">
<path d="M20.89 5.17999V16.48C20.89 18.46 19.28 20.07 17.3 20.07C15.33 20.07 13.71 18.46 13.71 16.48C13.71 14.51 15.33 12.9 17.3 12.9C18.14 12.9 18.89 13.19 19.5 13.67V7.71999L10.29 10.34V18.41C10.29 20.39 8.67 22 6.7 22C4.72 22 3.11 20.39 3.11 18.41C3.11 16.44 4.72 14.83 6.7 14.83C7.53 14.83 8.28 15.12 8.89 15.59V6.74999C8.89 5.27999 9.78 4.13999 11.19 3.75999L16.97 2.17999C18.14 1.85999 19.13 1.96999 19.83 2.50999C20.54 3.03999 20.89 3.93999 20.89 5.17999Z" fill="#292D32"/>
</svg>
