<svg width="24" height="24" viewBox="0 0 24 24" fill="none" xmlns="http://www.w3.org/2000/svg">
<path d="M9 10.75C7.48 10.75 6.25 9.52 6.25 8C6.25 6.48 7.48 5.25 9 5.25C10.52 5.25 11.75 6.48 11.75 8C11.75 9.52 10.52 10.75 9 10.75ZM9 6.75C8.31 6.75 7.75 7.31 7.75 8C7.75 8.69 8.31 9.25 9 9.25C9.69 9.25 10.25 8.69 10.25 8C10.25 7.31 9.69 6.75 9 6.75Z" fill="#292D32"/>
<path d="M15 22.75H9C3.57 22.75 1.25 20.43 1.25 15V9C1.25 3.57 3.57 1.25 9 1.25H13C13.41 1.25 13.75 1.59 13.75 2C13.75 2.41 13.41 2.75 13 2.75H9C4.39 2.75 2.75 4.39 2.75 9V15C2.75 19.61 4.39 21.25 9 21.25H15C19.61 21.25 21.25 19.61 21.25 15V10C21.25 9.59 21.59 9.25 22 9.25C22.41 9.25 22.75 9.59 22.75 10V15C22.75 20.43 20.43 22.75 15 22.75Z" fill="#292D32"/>
<path d="M16.56 7.68999C16.37 7.68999 16.18 7.61999 16.03 7.46999C15.74 7.17999 15.74 6.69999 16.03 6.40999L19.92 2.51999C20.21 2.22999 20.69 2.22999 20.98 2.51999C21.27 2.80999 21.27 3.28999 20.98 3.57999L17.09 7.46999C16.94 7.61999 16.75 7.68999 16.56 7.68999Z" fill="#292D32"/>
<path d="M20.44 7.68999C20.25 7.68999 20.06 7.61999 19.91 7.46999L16.02 3.57999C15.73 3.28999 15.73 2.80999 16.02 2.51999C16.31 2.22999 16.79 2.22999 17.08 2.51999L20.97 6.40999C21.26 6.69999 21.26 7.17999 20.97 7.46999C20.83 7.61999 20.64 7.68999 20.44 7.68999Z" fill="#292D32"/>
<path d="M2.67 19.7C2.43 19.7 2.19 19.58 2.05 19.37C1.82 19.03 1.91 18.56 2.25 18.33L7.18 15.02C8.26 14.3 9.75 14.38 10.73 15.21L11.06 15.5C11.56 15.93 12.41 15.93 12.9 15.5L17.06 11.93C18.12 11.02 19.79 11.02 20.86 11.93L22.49 13.33C22.8 13.6 22.84 14.07 22.57 14.39C22.3 14.7 21.83 14.74 21.51 14.47L19.88 13.07C19.38 12.64 18.53 12.64 18.04 13.07L13.88 16.64C12.82 17.55 11.15 17.55 10.08 16.64L9.75 16.35C9.29 15.96 8.53 15.92 8.02 16.27L3.1 19.58C2.96 19.66 2.81 19.7 2.67 19.7Z" fill="#292D32"/>
</svg>
