<svg width="24" height="24" viewBox="0 0 24 24" fill="none" xmlns="http://www.w3.org/2000/svg">
<path d="M14.43 16.92H12.14C11.73 16.92 11.39 16.58 11.39 16.17C11.39 15.76 11.73 15.42 12.14 15.42H14.43C14.86 15.42 15.21 15.07 15.21 14.64C15.21 14.21 14.86 13.86 14.43 13.86H12.14C11.9 13.86 11.67 13.74 11.53 13.55C11.39 13.36 11.35 13.1 11.43 12.87L12.19 10.58C12.29 10.27 12.58 10.07 12.9 10.07H15.96C16.37 10.07 16.71 10.41 16.71 10.82C16.71 11.23 16.37 11.57 15.96 11.57H13.44L13.18 12.36H14.43C15.69 12.36 16.71 13.38 16.71 14.64C16.71 15.9 15.68 16.92 14.43 16.92Z" fill="#292D32"/>
<path d="M9.53998 16.92C9.12998 16.92 8.78998 16.58 8.78998 16.17V12.78L8.59998 13C8.31998 13.31 7.84998 13.33 7.53998 13.06C7.23998 12.78 7.20998 12.31 7.48998 12L8.98998 10.33C9.19998 10.1 9.52998 10.02 9.81998 10.13C10.11 10.24 10.3 10.52 10.3 10.83V16.18C10.29 16.59 9.95998 16.92 9.53998 16.92Z" fill="#292D32"/>
<path d="M12 3.48C11.92 3.48 11.84 3.49 11.76 3.49L12.58 2.47C12.84 2.15 12.79 1.67 12.46 1.42C12.13 1.17 11.67 1.21 11.41 1.54L9.43998 4C9.42998 4.01 9.42998 4.02 9.41998 4.04C9.38998 4.08 9.36998 4.13 9.34998 4.17C9.32998 4.22 9.30998 4.26 9.29998 4.3C9.28998 4.35 9.28998 4.39 9.28998 4.44C9.28998 4.49 9.28998 4.54 9.28998 4.59C9.28998 4.61 9.28998 4.62 9.28998 4.64C9.29998 4.67 9.31998 4.69 9.32998 4.72C9.34998 4.77 9.36998 4.81 9.38998 4.86C9.41998 4.9 9.44998 4.94 9.48998 4.97C9.50998 5 9.51998 5.03 9.54998 5.05C9.56998 5.06 9.57998 5.07 9.59998 5.08C9.61998 5.1 9.64998 5.11 9.67998 5.12C9.72998 5.15 9.78998 5.17 9.83998 5.18C9.87998 5.2 9.90998 5.2 9.93998 5.2C9.96998 5.2 9.98998 5.21 10.02 5.21C10.05 5.21 10.07 5.2 10.09 5.19C10.12 5.19 10.15 5.2 10.18 5.19C10.82 5.04 11.42 4.97 11.99 4.97C16.48 4.97 20.13 8.62 20.13 13.11C20.13 17.6 16.48 21.25 11.99 21.25C7.49998 21.25 3.84998 17.6 3.84998 13.11C3.84998 11.37 4.41998 9.69 5.49998 8.25C5.74998 7.92 5.67998 7.45 5.34998 7.2C5.01998 6.95 4.54998 7.02 4.29998 7.35C3.01998 9.05 2.34998 11.04 2.34998 13.11C2.34998 18.42 6.66997 22.75 11.99 22.75C17.31 22.75 21.63 18.43 21.63 13.11C21.63 7.79 17.31 3.48 12 3.48Z" fill="#292D32"/>
</svg>
