<svg width="24" height="24" viewBox="0 0 24 24" fill="none" xmlns="http://www.w3.org/2000/svg">
<path d="M19.63 7.24C19.93 7.71 19.77 8.34 19.29 8.63L18.7 8.98L5.59 16.84C5.11 17.13 4.48 16.97 4.2 16.48C3.2 14.74 2.75 12.62 3.14 10.4C3.8 6.63 6.9 3.63 10.69 3.09C14.44 2.56 17.83 4.36 19.63 7.24Z" fill="#292D32"/>
<path d="M20.89 13.43C20.21 17.68 16.45 20.93 12.14 21C10.24 21.03 8.48 20.48 7.02 19.49C6.4 19.08 6.42 18.16 7.06 17.78L19.47 10.49C20.12 10.11 20.92 10.55 20.98 11.3C21.03 12 21 12.71 20.89 13.43Z" fill="#292D32"/>
</svg>
