<svg width="24" height="24" viewBox="0 0 24 24" fill="none" xmlns="http://www.w3.org/2000/svg">
<path d="M13.98 4.46997L12 2" stroke="#292D32" stroke-width="1.5" stroke-linecap="round" stroke-linejoin="round"/>
<path d="M19.09 7.79974C20.2 9.27974 20.89 11.1097 20.89 13.1097C20.89 18.0197 16.91 21.9998 12 21.9998C7.09 21.9998 3.10999 18.0197 3.10999 13.1097C3.10999 8.19974 7.09 4.21973 12 4.21973C12.68 4.21973 13.34 4.30978 13.98 4.45978" stroke="#292D32" stroke-width="1.5" stroke-linecap="round" stroke-linejoin="round"/>
<path opacity="0.4" d="M9.54004 15.92V10.58L8.04004 12.25" stroke="#292D32" stroke-width="1.5" stroke-linecap="round" stroke-linejoin="round"/>
<path opacity="0.4" d="M14 10.58C15.1 10.58 16 11.48 16 12.58V13.93C16 15.03 15.1 15.93 14 15.93C12.9 15.93 12 15.03 12 13.93V12.58C12 11.47 12.9 10.58 14 10.58Z" stroke="#292D32" stroke-width="1.5" stroke-linecap="round" stroke-linejoin="round"/>
</svg>
