<svg width="24" height="24" viewBox="0 0 24 24" fill="none" xmlns="http://www.w3.org/2000/svg">
<path d="M18.36 22.75H5.59C4.07 22.75 2.68 21.98 1.88 20.68C1.08 19.38 1.01 17.8 1.69 16.43L3.41 12.98C3.97 11.86 4.87 11.16 5.88 11.05C6.89 10.94 7.92 11.44 8.7 12.41L8.92 12.69C9.36 13.23 9.87 13.52 10.37 13.47C10.87 13.43 11.33 13.07 11.67 12.46L13.56 9.04999C14.34 7.63999 15.38 6.90999 16.51 6.95999C17.63 7.01999 18.59 7.85999 19.23 9.33999L22.36 16.65C22.94 18 22.8 19.54 21.99 20.77C21.19 22.02 19.83 22.75 18.36 22.75ZM6.16 12.55C6.12 12.55 6.08 12.55 6.04 12.56C5.54 12.61 5.08 13.01 4.75 13.66L3.03 17.11C2.58 18 2.63 19.05 3.15 19.9C3.67 20.75 4.59 21.26 5.59 21.26H18.35C19.33 21.26 20.2 20.79 20.74 19.97C21.28 19.15 21.37 18.17 20.98 17.27L17.85 9.95999C17.47 9.05999 16.94 8.50999 16.43 8.48999C15.96 8.45999 15.35 8.95999 14.87 9.80999L12.98 13.22C12.4 14.26 11.49 14.91 10.5 15C9.51 15.08 8.5 14.6 7.75 13.66L7.53 13.38C7.11 12.83 6.63 12.55 6.16 12.55Z" fill="#292D32"/>
<path d="M6.97 8.75C4.91 8.75 3.22 7.07 3.22 5C3.22 2.93 4.9 1.25 6.97 1.25C9.04 1.25 10.72 2.93 10.72 5C10.72 7.07 9.04 8.75 6.97 8.75ZM6.97 2.75C5.73 2.75 4.72 3.76 4.72 5C4.72 6.24 5.73 7.25 6.97 7.25C8.21 7.25 9.22 6.24 9.22 5C9.22 3.76 8.21 2.75 6.97 2.75Z" fill="#292D32"/>
</svg>
