<svg width="24" height="24" viewBox="0 0 24 24" fill="none" xmlns="http://www.w3.org/2000/svg">
<path d="M14.43 16.92H12.14C11.73 16.92 11.39 16.58 11.39 16.17C11.39 15.76 11.73 15.42 12.14 15.42H14.43C14.86 15.42 15.21 15.07 15.21 14.64C15.21 14.21 14.86 13.86 14.43 13.86H12.14C11.9 13.86 11.67 13.74 11.53 13.55C11.39 13.36 11.35 13.1 11.43 12.87L12.19 10.58C12.29 10.27 12.58 10.07 12.9 10.07H15.96C16.37 10.07 16.71 10.41 16.71 10.82C16.71 11.23 16.37 11.57 15.96 11.57H13.44L13.18 12.36H14.43C15.69 12.36 16.71 13.38 16.71 14.64C16.71 15.9 15.68 16.92 14.43 16.92Z" fill="#292D32"/>
<path d="M9.53998 16.92C9.12998 16.92 8.78998 16.58 8.78998 16.17V12.78L8.59997 13C8.31997 13.31 7.84998 13.33 7.53998 13.06C7.22998 12.78 7.20998 12.31 7.47998 12L8.97998 10.33C9.18998 10.1 9.52 10.02 9.81 10.13C10.1 10.24 10.29 10.52 10.29 10.83V16.18C10.29 16.59 9.95998 16.92 9.53998 16.92Z" fill="#292D32"/>
<path opacity="0.4" d="M12 3.48C11.92 3.48 11.84 3.49001 11.76 3.49001L12.58 2.46999C12.84 2.14999 12.79 1.67 12.46 1.42C12.13 1.17 11.67 1.21 11.41 1.54L9.42999 4.01003C9.41999 4.02003 9.41997 4.04001 9.40997 4.05001C9.37997 4.09001 9.36003 4.14002 9.34003 4.19002C9.32003 4.23002 9.29998 4.27003 9.28998 4.32003C9.27998 4.37003 9.28003 4.41004 9.28003 4.46004C9.28003 4.51004 9.28003 4.56 9.28003 4.61C9.28003 4.63 9.28003 4.63999 9.28003 4.65999C9.29003 4.68999 9.31001 4.72002 9.32001 4.75002C9.34001 4.80002 9.36 4.84003 9.38 4.89003C9.41001 4.93003 9.43998 4.97002 9.47998 5.00002C9.49998 5.02002 9.51998 5.05004 9.53998 5.08004C9.54998 5.09004 9.57002 5.08999 9.58002 5.09999C9.61002 5.11999 9.63998 5.13004 9.66998 5.15004C9.71998 5.18004 9.78002 5.20004 9.83002 5.21004C9.86002 5.22004 9.88999 5.22 9.92999 5.23C9.95999 5.23 9.98001 5.24001 10.01 5.24001C10.04 5.24001 10.06 5.22999 10.08 5.21999C10.11 5.21999 10.14 5.22999 10.17 5.21999C10.81 5.06999 11.41 5.00002 11.98 5.00002C16.47 5.00002 20.12 8.65003 20.12 13.14C20.12 17.63 16.47 21.28 11.98 21.28C7.48998 21.28 3.84003 17.63 3.84003 13.14C3.84003 11.4 4.40999 9.72005 5.48999 8.28005C5.73999 7.95005 5.67003 7.48 5.34003 7.23C5.01003 6.98 4.53998 7.05002 4.28998 7.38002C3.00998 9.08002 2.34003 11.07 2.34003 13.14C2.34003 18.45 6.65998 22.78 11.98 22.78C17.3 22.78 21.62 18.46 21.62 13.14C21.62 7.82003 17.31 3.48 12 3.48Z" fill="#292D32"/>
</svg>
