<svg width="24" height="24" viewBox="0 0 24 24" fill="none" xmlns="http://www.w3.org/2000/svg">
<path d="M15.72 9.69002C13.67 7.63002 10.33 7.63002 8.27999 9.69002C6.21999 11.75 6.21999 15.08 8.27999 17.13C10.34 19.19 13.67 19.19 15.72 17.13C16.75 16.1 17.26 14.76 17.26 13.41" stroke="#292D32" stroke-width="1.5093" stroke-linecap="round" stroke-linejoin="round"/>
<path d="M12 13.41L10.41 15" stroke="#292D32" stroke-width="1.5093" stroke-linecap="round" stroke-linejoin="round"/>
<path d="M19.07 6.34003C19.22 6.49003 19.22 6.74003 19.07 6.90003C18.92 7.05003 18.67 7.05003 18.51 6.90003C18.35 6.75003 18.36 6.50003 18.51 6.34003C18.66 6.18003 18.92 6.18003 19.07 6.34003Z" stroke="#292D32" stroke-miterlimit="10"/>
<path d="M19.07 6.34003C19.22 6.49003 19.22 6.74003 19.07 6.90003C18.92 7.05003 18.67 7.05003 18.51 6.90003C18.35 6.75003 18.36 6.50003 18.51 6.34003C18.66 6.18003 18.92 6.18003 19.07 6.34003Z" stroke="#292D32" stroke-width="1.5" stroke-linecap="round" stroke-linejoin="round"/>
<path d="M5.49 19.92C5.64 20.07 5.64 20.32 5.49 20.48C5.34 20.64 5.09 20.63 4.93 20.48C4.78 20.33 4.78 20.08 4.93 19.92C5.08 19.76 5.34 19.76 5.49 19.92Z" stroke="#292D32" stroke-miterlimit="10"/>
<path d="M5.49 19.92C5.64 20.07 5.64 20.32 5.49 20.48C5.34 20.64 5.09 20.63 4.93 20.48C4.78 20.33 4.78 20.08 4.93 19.92C5.08 19.76 5.34 19.76 5.49 19.92Z" stroke="#292D32" stroke-width="1.5" stroke-linecap="round" stroke-linejoin="round"/>
<path d="M21.88 13.13C22.03 13.28 22.03 13.53 21.88 13.69C21.73 13.84 21.48 13.84 21.32 13.69C21.16 13.54 21.17 13.29 21.32 13.13C21.47 12.97 21.73 12.97 21.88 13.13Z" stroke="#292D32" stroke-miterlimit="10"/>
<path d="M21.88 13.13C22.03 13.28 22.03 13.53 21.88 13.69C21.73 13.84 21.48 13.84 21.32 13.69C21.16 13.54 21.17 13.29 21.32 13.13C21.47 12.97 21.73 12.97 21.88 13.13Z" stroke="#292D32" stroke-width="1.5" stroke-linecap="round" stroke-linejoin="round"/>
<path d="M2.67003 13.13C2.82003 13.28 2.82003 13.53 2.67003 13.69C2.52003 13.85 2.27 13.84 2.11 13.69C1.96 13.54 1.96 13.29 2.11 13.13C2.27 12.97 2.52003 12.97 2.67003 13.13Z" stroke="#292D32" stroke-miterlimit="10"/>
<path d="M2.67003 13.13C2.82003 13.28 2.82003 13.53 2.67003 13.69C2.52003 13.85 2.27 13.84 2.11 13.69C1.96 13.54 1.96 13.29 2.11 13.13C2.27 12.97 2.52003 12.97 2.67003 13.13Z" stroke="#292D32" stroke-width="1.5" stroke-linecap="round" stroke-linejoin="round"/>
<path d="M19.07 19.92C19.22 20.07 19.22 20.32 19.07 20.48C18.92 20.63 18.67 20.63 18.51 20.48C18.35 20.33 18.36 20.08 18.51 19.92C18.67 19.76 18.92 19.76 19.07 19.92Z" stroke="#292D32" stroke-miterlimit="10"/>
<path d="M19.07 19.92C19.22 20.07 19.22 20.32 19.07 20.48C18.92 20.63 18.67 20.63 18.51 20.48C18.35 20.33 18.36 20.08 18.51 19.92C18.67 19.76 18.92 19.76 19.07 19.92Z" stroke="#292D32" stroke-width="1.5" stroke-linecap="round" stroke-linejoin="round"/>
<path d="M5.49 6.34003C5.64 6.49003 5.64 6.74003 5.49 6.90003C5.34 7.06003 5.09 7.05003 4.93 6.90003C4.78 6.75003 4.78 6.50003 4.93 6.34003C5.08 6.18003 5.34 6.18003 5.49 6.34003Z" stroke="#292D32" stroke-miterlimit="10"/>
<path d="M5.49 6.34003C5.64 6.49003 5.64 6.74003 5.49 6.90003C5.34 7.06003 5.09 7.05003 4.93 6.90003C4.78 6.75003 4.78 6.50003 4.93 6.34003C5.08 6.18003 5.34 6.18003 5.49 6.34003Z" stroke="#292D32" stroke-width="1.5" stroke-linecap="round" stroke-linejoin="round"/>
<path d="M12.28 3.52003C12.43 3.67003 12.43 3.92003 12.28 4.08003C12.13 4.24003 11.88 4.23003 11.72 4.08003C11.56 3.93003 11.57 3.68003 11.72 3.52003C11.87 3.36003 12.13 3.37003 12.28 3.52003Z" stroke="#292D32" stroke-miterlimit="10"/>
<path d="M12.28 3.52003C12.43 3.67003 12.43 3.92003 12.28 4.08003C12.13 4.24003 11.88 4.23003 11.72 4.08003C11.56 3.93003 11.57 3.68003 11.72 3.52003C11.87 3.36003 12.13 3.37003 12.28 3.52003Z" stroke="#292D32" stroke-width="1.5" stroke-linecap="round" stroke-linejoin="round"/>
</svg>
