<svg width="24" height="24" viewBox="0 0 24 24" fill="none" xmlns="http://www.w3.org/2000/svg">
<path d="M12.3298 12.84C11.3698 14.57 9.57978 14.72 8.33978 13.17L8.11978 12.89C6.82978 11.27 5.00978 11.47 4.07978 13.32L2.35978 16.77C1.15978 19.17 2.90978 22 5.58978 22H18.3498C20.9398 22 22.6898 19.35 21.6698 16.96L18.5398 9.65001C17.4798 7.17001 15.5298 7.07001 14.2198 9.43001" stroke="#292D32" stroke-width="1.5" stroke-linecap="round" stroke-linejoin="round"/>
<path d="M9.96978 5C9.96978 6.66 8.62978 8 6.96978 8C5.30978 8 3.96978 6.66 3.96978 5C3.96978 3.34 5.30978 2 6.96978 2C7.32978 2 7.66978 2.06 7.97978 2.18" stroke="#292D32" stroke-width="1.5" stroke-linecap="round" stroke-linejoin="round"/>
</svg>
