<svg width="24" height="24" viewBox="0 0 24 24" fill="none" xmlns="http://www.w3.org/2000/svg">
<path d="M9 6C7.9 6 7 6.9 7 8C7 9.1 7.9 10 9 10C10.1 10 11 9.1 11 8" stroke="#292D32" stroke-width="1.5" stroke-linecap="round" stroke-linejoin="round"/>
<path d="M2 12.98V15C2 20 4 22 9 22H15C20 22 22 20 22 15V11" stroke="#292D32" stroke-width="1.5" stroke-linecap="round" stroke-linejoin="round"/>
<path d="M12 2H9C4 2 2 4 2 9" stroke="#292D32" stroke-width="1.5" stroke-linecap="round" stroke-linejoin="round"/>
<path d="M16.12 5.10999C15.79 4.06999 16.18 2.77999 17.26 2.42999C17.83 2.24999 18.54 2.39999 18.94 2.94999C19.32 2.37999 20.05 2.23999 20.62 2.42999C21.71 2.77999 22.1 4.06999 21.77 5.10999C21.25 6.74999 19.45 7.60999 18.95 7.60999C18.44 7.60999 16.65 6.76999 16.12 5.10999Z" stroke="#292D32" stroke-width="1.5" stroke-linecap="round" stroke-linejoin="round"/>
<path d="M2.66998 18.95L7.59998 15.64C8.38998 15.11 9.52998 15.17 10.24 15.78L10.57 16.07C11.35 16.74 12.61 16.74 13.39 16.07L17.55 12.5C18.33 11.83 19.59 11.83 20.37 12.5L22 13.9" stroke="#292D32" stroke-width="1.5" stroke-linecap="round" stroke-linejoin="round"/>
</svg>
