<svg width="24" height="24" viewBox="0 0 24 24" fill="none" xmlns="http://www.w3.org/2000/svg">
<path d="M9.53998 16.67C9.12998 16.67 8.78998 16.33 8.78998 15.92V12.53L8.59998 12.75C8.31998 13.06 7.84998 13.08 7.53998 12.81C7.22998 12.53 7.20998 12.06 7.47998 11.75L8.97998 10.08C9.18998 9.85 9.51998 9.77 9.80998 9.88C10.1 9.99 10.29 10.27 10.29 10.58V15.93C10.29 16.34 9.95998 16.67 9.53998 16.67Z" fill="#292D32"/>
<path d="M12 3.48C11.92 3.48 11.84 3.49 11.76 3.49L12.58 2.47C12.84 2.15 12.79 1.67 12.46 1.42C12.14 1.16 11.67 1.21 11.41 1.54L9.43999 4C9.42999 4.01 9.43 4.02 9.42 4.04C9.39 4.08 9.37 4.13 9.35 4.17C9.33 4.22 9.31 4.26 9.3 4.3C9.29 4.35 9.29 4.39 9.29 4.44C9.29 4.49 9.29 4.54 9.29 4.59C9.29 4.61 9.29 4.62 9.29 4.64C9.3 4.67 9.31999 4.69 9.33 4.73C9.35 4.78 9.36 4.82 9.39 4.86C9.42 4.9 9.45 4.94 9.49 4.98C9.50999 5 9.53 5.03 9.55 5.05C9.56 5.06 9.58 5.06 9.59 5.07C9.62 5.09 9.64999 5.11 9.68999 5.12C9.74 5.15 9.79 5.17 9.84 5.18C9.88 5.2 9.91 5.2 9.95 5.2C9.98 5.2 9.99999 5.21 10.03 5.21C10.05 5.21 10.08 5.2 10.1 5.19C10.13 5.19 10.16 5.19 10.2 5.19C10.84 5.04 11.44 4.97 12.01 4.97C16.5 4.97 20.15 8.62 20.15 13.11C20.15 17.6 16.5 21.25 12.01 21.25C7.52 21.25 3.87 17.6 3.87 13.11C3.87 11.37 4.44 9.69 5.52 8.25C5.77 7.92 5.7 7.45 5.37 7.2C5.04 6.95 4.57 7.02 4.32 7.35C3.04 9.05 2.37 11.04 2.37 13.11C2.37 18.42 6.69 22.75 12.01 22.75C17.33 22.75 21.65 18.43 21.65 13.11C21.65 7.79 17.31 3.48 12 3.48Z" fill="#292D32"/>
<path d="M14 16.67C12.48 16.67 11.25 15.44 11.25 13.92V12.57C11.25 11.05 12.48 9.82 14 9.82C15.52 9.82 16.75 11.05 16.75 12.57V13.92C16.75 15.44 15.52 16.67 14 16.67ZM14 11.33C13.31 11.33 12.75 11.89 12.75 12.58V13.93C12.75 14.62 13.31 15.18 14 15.18C14.69 15.18 15.25 14.62 15.25 13.93V12.58C15.25 11.89 14.69 11.33 14 11.33Z" fill="#292D32"/>
</svg>
