<svg width="24" height="24" viewBox="0 0 24 24" fill="none" xmlns="http://www.w3.org/2000/svg">
<path d="M19.48 7.09C19.22 6.77 18.75 6.72 18.43 6.98C18.11 7.24 18.06 7.71 18.32 8.03C19.45 9.43 20.08 11.09 20.14 12.83C20.3 17.31 16.78 21.09 12.29 21.24C7.79997 21.4 4.02997 17.88 3.86997 13.4C3.70997 8.92 7.22997 5.14 11.72 4.99C12.29 4.97 12.89 5.02 13.54 5.15C13.58 5.16 13.62 5.15 13.66 5.15C13.76 5.2 13.88 5.23 13.99 5.23C14.16 5.23 14.32 5.18 14.46 5.06C14.78 4.8 14.83 4.33 14.58 4.01L12.6 1.54C12.34 1.22 11.87 1.16 11.55 1.42C11.23 1.68 11.18 2.15 11.43 2.47L12.26 3.5C12.07 3.49 11.87 3.48 11.68 3.49C6.36997 3.67 2.19997 8.15 2.38997 13.46C2.57997 18.77 7.04997 22.94 12.36 22.75C17.67 22.56 21.84 18.09 21.65 12.78C21.56 10.71 20.82 8.74 19.48 7.09Z" fill="#292D32"/>
<path d="M12.38 16.92H10.09C9.68001 16.92 9.34001 16.58 9.34001 16.17C9.34001 15.76 9.68001 15.42 10.09 15.42H12.38C12.81 15.42 13.16 15.07 13.16 14.64C13.16 14.21 12.81 13.86 12.38 13.86H10.09C9.85001 13.86 9.62001 13.74 9.48001 13.55C9.34001 13.36 9.30001 13.1 9.38001 12.87L10.14 10.58C10.24 10.27 10.53 10.07 10.85 10.07H13.91C14.32 10.07 14.66 10.41 14.66 10.82C14.66 11.23 14.32 11.57 13.91 11.57H11.39L11.13 12.36H12.38C13.64 12.36 14.66 13.38 14.66 14.64C14.66 15.9 13.64 16.92 12.38 16.92Z" fill="#292D32"/>
</svg>
