<svg width="24" height="24" viewBox="0 0 24 24" fill="none" xmlns="http://www.w3.org/2000/svg">
<path opacity="0.4" d="M19.07 19.82C18.88 19.82 18.69 19.7499 18.54 19.5999C18.25 19.3099 18.25 18.8299 18.54 18.5399C22.15 14.9299 22.15 9.05999 18.54 5.45999C18.25 5.16999 18.25 4.69 18.54 4.4C18.83 4.11 19.31 4.11 19.6 4.4C23.79 8.59 23.79 15.4099 19.6 19.5999C19.45 19.7499 19.26 19.82 19.07 19.82Z" fill="#292D32"/>
<path opacity="0.4" d="M4.93007 19.82C4.74007 19.82 4.55007 19.7499 4.40007 19.5999C0.210068 15.4099 0.210068 8.59 4.40007 4.4C4.69007 4.11 5.17007 4.11 5.46007 4.4C5.75007 4.69 5.75007 5.16999 5.46007 5.45999C1.85007 9.06999 1.85007 14.9399 5.46007 18.5399C5.75007 18.8299 5.75007 19.3099 5.46007 19.5999C5.31007 19.7499 5.12007 19.82 4.93007 19.82Z" fill="#292D32"/>
<path opacity="0.4" d="M12 22.71C10.75 22.7 9.56002 22.5 8.45002 22.11C8.06002 21.97 7.85 21.54 7.99 21.15C8.13 20.76 8.55002 20.55 8.95002 20.69C9.91002 21.02 10.93 21.2 12.01 21.2C13.08 21.2 14.11 21.02 15.06 20.69C15.45 20.56 15.88 20.76 16.02 21.15C16.16 21.54 15.95 21.97 15.56 22.11C14.44 22.5 13.25 22.71 12 22.71Z" fill="#292D32"/>
<path opacity="0.4" d="M15.3 3.34003C15.22 3.34003 15.13 3.32999 15.05 3.29999C14.09 2.96999 13.06 2.78998 11.99 2.78998C10.92 2.78998 9.89999 2.96999 8.93999 3.29999C8.54999 3.42999 8.11999 3.23003 7.97999 2.84003C7.83999 2.45003 8.04999 2.02 8.43999 1.88C9.54999 1.49 10.75 1.28998 11.99 1.28998C13.23 1.28998 14.43 1.49 15.54 1.88C15.93 2.02 16.14 2.45003 16 2.84003C15.9 3.15003 15.61 3.34003 15.3 3.34003Z" fill="#292D32"/>
<path d="M8.73999 12V10.33C8.73999 8.25003 10.21 7.40002 12.01 8.44002L13.46 9.28005L14.91 10.12C16.71 11.16 16.71 12.86 14.91 13.9L13.46 14.74L12.01 15.58C10.21 16.62 8.73999 15.77 8.73999 13.69V12Z" fill="#292D32"/>
</svg>
