<svg width="24" height="24" viewBox="0 0 24 24" fill="none" xmlns="http://www.w3.org/2000/svg">
<path d="M22.0002 10V9C22.0002 4 20.0002 2 15.0002 2H9.00024C4.00024 2 2.00024 4 2.00024 9V15C2.00024 20 4.00024 22 9.00024 22H11.0002" stroke="#292D32" stroke-width="1.5" stroke-linecap="round" stroke-linejoin="round"/>
<g opacity="0.4">
<path d="M15.2703 22C16.0656 22 16.7103 21.3553 16.7103 20.56C16.7103 19.7647 16.0656 19.12 15.2703 19.12C14.475 19.12 13.8303 19.7647 13.8303 20.56C13.8303 21.3553 14.475 22 15.2703 22Z" stroke="#292D32" stroke-width="1.5" stroke-linecap="round" stroke-linejoin="round"/>
<path d="M22.0004 19.6V13.96C22.0004 12.76 21.2504 12.59 20.4804 12.8L17.5904 13.59C17.0704 13.73 16.7004 14.15 16.7004 14.75V15.76V16.44V20.57" stroke="#292D32" stroke-width="1.5" stroke-linecap="round" stroke-linejoin="round"/>
<path d="M20.5604 21.04C21.3556 21.04 22.0004 20.3953 22.0004 19.6C22.0004 18.8047 21.3556 18.16 20.5604 18.16C19.7651 18.16 19.1204 18.8047 19.1204 19.6C19.1204 20.3953 19.7651 21.04 20.5604 21.04Z" stroke="#292D32" stroke-width="1.5" stroke-linecap="round" stroke-linejoin="round"/>
<path d="M16.7102 16.43L22.0002 14.99" stroke="#292D32" stroke-width="1.5" stroke-linecap="round" stroke-linejoin="round"/>
</g>
</svg>
