<svg width="24" height="24" viewBox="0 0 24 24" fill="none" xmlns="http://www.w3.org/2000/svg">
<path d="M2.00024 12.98V15C2.00024 20 4.00024 22 9.00024 22H11.0002" stroke="#292D32" stroke-width="1.5" stroke-linecap="round" stroke-linejoin="round"/>
<path d="M22.0002 10V9C22.0002 4 20.0002 2 15.0002 2H9.00024C4.00024 2 2.00024 4 2.00024 9" stroke="#292D32" stroke-width="1.5" stroke-linecap="round" stroke-linejoin="round"/>
<path d="M15.2702 22C16.0655 22 16.7102 21.3553 16.7102 20.56C16.7102 19.7647 16.0655 19.12 15.2702 19.12C14.4749 19.12 13.8302 19.7647 13.8302 20.56C13.8302 21.3553 14.4749 22 15.2702 22Z" stroke="#292D32" stroke-width="1.5" stroke-linecap="round" stroke-linejoin="round"/>
<path d="M22.0002 19.6V13.96C22.0002 12.76 21.2502 12.59 20.4802 12.8L17.5902 13.59C17.0702 13.73 16.7002 14.15 16.7002 14.75V15.76V16.44V20.57" stroke="#292D32" stroke-width="1.5" stroke-linecap="round" stroke-linejoin="round"/>
<path d="M20.5602 21.04C21.3555 21.04 22.0002 20.3953 22.0002 19.6C22.0002 18.8047 21.3555 18.16 20.5602 18.16C19.7649 18.16 19.1202 18.8047 19.1202 19.6C19.1202 20.3953 19.7649 21.04 20.5602 21.04Z" stroke="#292D32" stroke-width="1.5" stroke-linecap="round" stroke-linejoin="round"/>
<path d="M16.7102 16.43L22.0002 14.99" stroke="#292D32" stroke-width="1.5" stroke-linecap="round" stroke-linejoin="round"/>
</svg>
