<svg width="24" height="24" viewBox="0 0 24 24" fill="none" xmlns="http://www.w3.org/2000/svg">
<path d="M12.38 16.92H10.09C9.68001 16.92 9.34001 16.58 9.34001 16.17C9.34001 15.76 9.68001 15.42 10.09 15.42H12.38C12.81 15.42 13.16 15.07 13.16 14.64C13.16 14.21 12.81 13.86 12.38 13.86H10.09C9.85001 13.86 9.62001 13.74 9.48001 13.55C9.34001 13.36 9.30001 13.1 9.38001 12.87L10.14 10.58C10.24 10.27 10.53 10.07 10.85 10.07H13.91C14.32 10.07 14.66 10.41 14.66 10.82C14.66 11.23 14.32 11.57 13.91 11.57H11.39L11.13 12.36H12.38C13.64 12.36 14.66 13.38 14.66 14.64C14.66 15.9 13.64 16.92 12.38 16.92Z" fill="#292D32"/>
<path d="M12 3.48C11.92 3.48 11.84 3.49 11.76 3.49L12.58 2.47C12.84 2.15 12.79 1.67 12.46 1.42C12.13 1.17 11.67 1.21 11.41 1.54L9.43998 4C9.42998 4.01 9.42998 4.02 9.41998 4.04C9.38998 4.08 9.36998 4.13 9.34998 4.17C9.32998 4.22 9.30998 4.26 9.29998 4.3C9.28998 4.35 9.28998 4.39 9.28998 4.44C9.28998 4.49 9.28998 4.54 9.28998 4.59C9.28998 4.61 9.28998 4.62 9.28998 4.64C9.29998 4.67 9.31998 4.69 9.32998 4.72C9.34998 4.77 9.36998 4.81 9.38998 4.86C9.41998 4.9 9.44998 4.94 9.48998 4.97C9.50998 5 9.51998 5.03 9.54998 5.05C9.56998 5.06 9.57998 5.07 9.59998 5.08C9.62998 5.1 9.64998 5.11 9.67998 5.12C9.72998 5.15 9.78998 5.17 9.84998 5.18C9.87998 5.2 9.90998 5.2 9.93998 5.2C9.96998 5.2 9.98998 5.21 10.02 5.21C10.05 5.21 10.07 5.2 10.09 5.19C10.12 5.19 10.15 5.2 10.18 5.19C10.82 5.04 11.42 4.97 11.99 4.97C16.48 4.97 20.13 8.62 20.13 13.11C20.13 17.6 16.48 21.25 11.99 21.25C7.49998 21.25 3.84998 17.6 3.84998 13.11C3.84998 11.37 4.41998 9.69 5.49998 8.25C5.74998 7.92 5.67998 7.45 5.34998 7.2C5.01998 6.95 4.54998 7.02 4.29998 7.35C3.01998 9.05 2.34998 11.04 2.34998 13.11C2.34998 18.42 6.66997 22.75 11.99 22.75C17.31 22.75 21.63 18.43 21.63 13.11C21.63 7.79 17.31 3.48 12 3.48Z" fill="#292D32"/>
</svg>
