<svg width="24" height="24" viewBox="0 0 24 24" fill="none" xmlns="http://www.w3.org/2000/svg">
<path d="M11.97 22C17.4928 22 21.97 17.5228 21.97 12C21.97 6.47715 17.4928 2 11.97 2C6.44712 2 1.96997 6.47715 1.96997 12C1.96997 17.5228 6.44712 22 11.97 22Z" stroke="#292D32" stroke-width="1.5" stroke-linecap="round" stroke-linejoin="round"/>
<path d="M10.72 14.53V9.47C10.72 8.99 10.52 8.8 10.01 8.8H8.71C8.2 8.8 8 8.99 8 9.47V14.53C8 15.01 8.2 15.2 8.71 15.2H10C10.52 15.2 10.72 15.01 10.72 14.53Z" stroke="#292D32" stroke-width="1.5" stroke-linecap="round" stroke-linejoin="round"/>
<path d="M16 14.53V9.47C16 8.99 15.8 8.8 15.29 8.8H14C13.49 8.8 13.29 8.99 13.29 9.47V14.53C13.29 15.01 13.49 15.2 14 15.2H15.29C15.8 15.2 16 15.01 16 14.53Z" stroke="#292D32" stroke-width="1.5" stroke-linecap="round" stroke-linejoin="round"/>
</svg>
