<svg width="24" height="24" viewBox="0 0 24 24" fill="none" xmlns="http://www.w3.org/2000/svg">
<path d="M12.38 16.92H10.09C9.68 16.92 9.34 16.58 9.34 16.17C9.34 15.76 9.68 15.42 10.09 15.42H12.38C12.81 15.42 13.16 15.07 13.16 14.64C13.16 14.21 12.81 13.86 12.38 13.86H10.09C9.85 13.86 9.62001 13.74 9.48001 13.55C9.34001 13.36 9.30001 13.1 9.38001 12.87L10.14 10.58C10.24 10.27 10.53 10.07 10.85 10.07H13.91C14.32 10.07 14.66 10.41 14.66 10.82C14.66 11.23 14.32 11.57 13.91 11.57H11.39L11.13 12.36H12.38C13.64 12.36 14.66 13.38 14.66 14.64C14.66 15.9 13.64 16.92 12.38 16.92Z" fill="#292D32"/>
<path opacity="0.4" d="M12 3.48C11.92 3.48 11.84 3.49001 11.76 3.49001L12.58 2.46999C12.84 2.14999 12.79 1.67 12.46 1.42C12.13 1.17 11.67 1.21 11.41 1.54L9.42996 4.01003C9.41996 4.02003 9.41997 4.04001 9.40997 4.05001C9.37997 4.09001 9.35997 4.14002 9.33997 4.19002C9.31997 4.23002 9.29998 4.27003 9.28998 4.32003C9.27998 4.37003 9.27997 4.41004 9.27997 4.46004C9.27997 4.51004 9.27997 4.56 9.27997 4.61C9.27997 4.63 9.27997 4.63999 9.27997 4.65999C9.28997 4.68999 9.30998 4.72002 9.31998 4.75002C9.33998 4.80002 9.35997 4.84003 9.37997 4.89003C9.40997 4.93003 9.43997 4.97002 9.46997 5.00002C9.48997 5.03002 9.50998 5.06004 9.53998 5.08004C9.54998 5.09004 9.56997 5.1 9.58997 5.11C9.61997 5.13 9.64998 5.13999 9.66998 5.15999C9.71998 5.18999 9.77997 5.20999 9.83997 5.21999C9.86997 5.22999 9.89996 5.23001 9.92996 5.24001C9.95996 5.24001 9.97998 5.25002 10.01 5.25002C10.04 5.25002 10.06 5.24 10.08 5.23C10.11 5.23 10.14 5.24 10.17 5.23C10.81 5.08 11.41 5.01003 11.98 5.01003C16.47 5.01003 20.12 8.66004 20.12 13.15C20.12 17.64 16.47 21.29 11.98 21.29C7.48998 21.29 3.83997 17.64 3.83997 13.15C3.83997 11.41 4.40996 9.73 5.48996 8.29C5.73996 7.96 5.66997 7.49001 5.33997 7.24001C5.00997 6.99001 4.53998 7.06003 4.28998 7.39003C3.00998 9.09003 2.33997 11.08 2.33997 13.15C2.33997 18.46 6.65998 22.79 11.98 22.79C17.3 22.79 21.62 18.47 21.62 13.15C21.62 7.83004 17.31 3.48 12 3.48Z" fill="#292D32"/>
</svg>
