<svg width="24" height="24" viewBox="0 0 24 24" fill="none" xmlns="http://www.w3.org/2000/svg">
<path opacity="0.4" d="M19.69 7.34996C19.44 7.01996 18.97 6.95 18.64 7.2C18.31 7.45 18.24 7.91998 18.49 8.24998C19.57 9.68999 20.14 11.37 20.14 13.11C20.14 17.6 16.49 21.25 12 21.25C7.50997 21.25 3.85995 17.6 3.85995 13.11C3.85995 8.61997 7.50997 4.96996 12 4.96996C12.58 4.96996 13.17 5.03999 13.81 5.18999C13.84 5.19999 13.87 5.18999 13.91 5.18999C13.93 5.18999 13.96 5.21001 13.98 5.21001C14.01 5.21001 14.03 5.2 14.06 5.2C14.1 5.2 14.13 5.18998 14.16 5.17998C14.21 5.16998 14.26 5.14998 14.31 5.11998C14.34 5.09998 14.38 5.08999 14.41 5.06999C14.42 5.05999 14.44 5.05997 14.45 5.04997C14.48 5.02997 14.49 4.99996 14.51 4.97996C14.55 4.93997 14.58 4.90997 14.61 4.85997C14.64 4.81997 14.65 4.76996 14.67 4.72996C14.68 4.69997 14.7 4.67 14.71 4.64C14.71 4.62 14.71 4.61001 14.71 4.59001C14.72 4.54001 14.72 4.48999 14.71 4.43999C14.71 4.38999 14.71 4.34997 14.7 4.29997C14.69 4.25997 14.67 4.21997 14.65 4.16997C14.63 4.11997 14.61 4.07001 14.58 4.03001C14.57 4.02001 14.57 3.99997 14.56 3.98997L12.58 1.52C12.32 1.2 11.85 1.15001 11.53 1.40001C11.21 1.66001 11.16 2.13 11.41 2.45L12.23 3.46996C12.15 3.46996 12.07 3.46001 11.99 3.46001C6.67996 3.46001 2.34998 7.77996 2.34998 13.1C2.34998 18.42 6.66996 22.74 11.99 22.74C17.31 22.74 21.63 18.42 21.63 13.1C21.64 11.04 20.96 9.04996 19.69 7.34996Z" fill="#292D32"/>
<path d="M9.54004 16.67C9.13004 16.67 8.79004 16.33 8.79004 15.92V12.53L8.60003 12.74C8.32003 13.05 7.85004 13.07 7.54004 12.8C7.23004 12.52 7.21004 12.05 7.48004 11.74L8.98004 10.07C9.19004 9.84002 9.52003 9.76001 9.81003 9.87001C10.1 9.98001 10.29 10.26 10.29 10.57V15.92C10.29 16.34 9.96004 16.67 9.54004 16.67Z" fill="#292D32"/>
<path d="M14 16.67C12.48 16.67 11.25 15.44 11.25 13.92V12.57C11.25 11.05 12.48 9.82001 14 9.82001C15.52 9.82001 16.75 11.05 16.75 12.57V13.92C16.75 15.44 15.52 16.67 14 16.67ZM14 11.33C13.31 11.33 12.75 11.89 12.75 12.58V13.93C12.75 14.62 13.31 15.18 14 15.18C14.69 15.18 15.25 14.62 15.25 13.93V12.58C15.25 11.89 14.69 11.33 14 11.33Z" fill="#292D32"/>
</svg>
