<svg width="24" height="24" viewBox="0 0 24 24" fill="none" xmlns="http://www.w3.org/2000/svg">
<path d="M19.33 16.75C19.17 16.75 19.02 16.7 18.88 16.6C18.55 16.35 18.48 15.88 18.73 15.55C20.3 13.46 20.3 10.54 18.73 8.45C18.48 8.12 18.55 7.65 18.88 7.4C19.21 7.15 19.68 7.22 19.93 7.55C21.9 10.17 21.9 13.83 19.93 16.45C19.79 16.65 19.56 16.75 19.33 16.75Z" fill="#292D32"/>
<path opacity="0.4" d="M17.08 7.41V16.59C17.08 18.31 16.46 19.6 15.35 20.22C14.9 20.47 14.4 20.59 13.88 20.59C13.08 20.59 12.22 20.32 11.34 19.77L8.41996 17.94C8.21996 17.82 7.98996 17.75 7.75996 17.75H6.82996V6.25H7.75996C7.98996 6.25 8.21996 6.18 8.41996 6.06L11.34 4.23C12.8 3.32 14.23 3.16 15.35 3.78C16.46 4.4 17.08 5.69 17.08 7.41Z" fill="#292D32"/>
<path d="M6.82996 6.25V17.75H6.32996C3.90996 17.75 2.57996 16.42 2.57996 14V10C2.57996 7.58 3.90996 6.25 6.32996 6.25H6.82996Z" fill="#292D32"/>
</svg>
