<svg width="24" height="24" viewBox="0 0 24 24" fill="none" xmlns="http://www.w3.org/2000/svg">
<path d="M11.25 7.86H2V16.19C2 16.25 2 16.31 2.01 16.36H11.25V7.86Z" fill="#292D32"/>
<path d="M7.68994 6.36H11.2499V2H7.71994V6.24C7.71994 6.28 7.69994 6.32 7.68994 6.36Z" fill="#292D32"/>
<path d="M6.22 6.24V2.16C4 2.62 2.55 4.1 2.13 6.36H6.24C6.23 6.32 6.22 6.28 6.22 6.24Z" fill="#292D32"/>
<path d="M16.22 2H12.75V6.36H16.22V2Z" fill="#292D32"/>
<path d="M17.71 6.35999H21.87C21.45 4.07999 19.98 2.58999 17.72 2.14999V6.32999C17.72 6.33999 17.71 6.34999 17.71 6.35999Z" fill="#292D32"/>
<path d="M17.72 21.85C19.91 21.42 21.35 20.02 21.82 17.86H17.72V21.85Z" fill="#292D32"/>
<path d="M16.22 17.86H12.75V22H16.22V17.86Z" fill="#292D32"/>
<path d="M12.75 16.36H21.99C22 16.31 22 16.25 22 16.19V7.86H12.75V16.36Z" fill="#292D32"/>
<path d="M11.25 17.86H7.71997V22H11.25V17.86Z" fill="#292D32"/>
<path d="M2.18005 17.86C2.65005 20 4.07005 21.4 6.22005 21.84V17.86H2.18005Z" fill="#292D32"/>
</svg>
