<svg width="24" height="24" viewBox="0 0 24 24" fill="none" xmlns="http://www.w3.org/2000/svg">
<path opacity="0.4" d="M22.0004 9.20999V14.79C22.0004 18.89 20.7504 20.14 16.6504 20.14H9.91045V17.12C9.91045 16.74 9.59045 16.42 9.21045 16.42V7.57999C9.59045 7.57999 9.91045 7.25999 9.91045 6.87999V3.85999H16.6504C20.7504 3.85999 22.0004 5.10999 22.0004 9.20999Z" fill="#292D32"/>
<path d="M18.4704 11.9C18.6404 11.74 18.7004 11.49 18.6304 11.27C18.5604 11.04 18.3704 10.88 18.1304 10.85L16.8504 10.66C16.8004 10.65 16.7604 10.62 16.7404 10.58L16.1704 9.41996C16.0704 9.20996 15.8504 9.07996 15.6204 9.07996C15.3804 9.07996 15.1704 9.20996 15.0604 9.41996L14.4904 10.58C14.4704 10.63 14.4204 10.66 14.3704 10.66L13.0904 10.85C12.8604 10.88 12.6604 11.05 12.5904 11.27C12.5204 11.5 12.5804 11.74 12.7504 11.9L13.6804 12.8C13.7204 12.83 13.7304 12.89 13.7204 12.94L13.5004 14.21C13.4604 14.44 13.5504 14.68 13.7504 14.81C13.8604 14.89 13.9804 14.93 14.1104 14.93C14.2104 14.93 14.3104 14.91 14.4004 14.86L15.5504 14.26C15.5904 14.24 15.6504 14.24 15.6904 14.26L16.8404 14.86C17.0504 14.97 17.3004 14.95 17.4904 14.81C17.6804 14.67 17.7804 14.44 17.7404 14.2L17.5204 12.93C17.5104 12.88 17.5304 12.83 17.5604 12.79L18.4704 11.9Z" fill="#292D32"/>
<path d="M9.21061 7.57999V16.42C8.83061 16.42 8.51061 16.74 8.51061 17.12V20.14H7.35061C3.40061 20.14 2.10061 18.96 2.01061 15.28C2.00061 15.09 2.08061 14.91 2.21061 14.78C2.34061 14.64 2.53061 14.57 2.71061 14.57C4.11061 14.57 5.26061 13.42 5.26061 12.01C5.26061 10.6 4.11061 9.43999 2.71061 9.43999C2.51061 9.43999 2.34061 9.36999 2.21061 9.22999C2.08061 9.09999 2.00061 8.90999 2.01061 8.72999C2.10061 5.03999 3.40061 3.85999 7.35061 3.85999H8.51061V6.87999C8.51061 7.26999 8.83061 7.57999 9.21061 7.57999Z" fill="#292D32"/>
</svg>
