<svg width="25" height="24" viewBox="0 0 25 24" fill="none" xmlns="http://www.w3.org/2000/svg">
<path d="M8.58344 16.02C8.39344 16.02 8.20344 15.95 8.05344 15.8C7.76344 15.51 7.76344 15.03 8.05344 14.74L14.6034 8.19003C14.8934 7.90003 15.3734 7.90003 15.6634 8.19003C15.9534 8.48003 15.9534 8.96003 15.6634 9.25003L9.11344 15.8C8.96344 15.95 8.77344 16.02 8.58344 16.02Z" fill="#292D32"/>
<path d="M8.99368 11.11C7.90368 11.11 7.01367 10.22 7.01367 9.13004C7.01367 8.04004 7.90368 7.15002 8.99368 7.15002C10.0837 7.15002 10.9737 8.04004 10.9737 9.13004C10.9737 10.22 10.0837 11.11 8.99368 11.11ZM8.99368 8.66003C8.73368 8.66003 8.51367 8.87005 8.51367 9.14005C8.51367 9.41005 8.72368 9.62003 8.99368 9.62003C9.26368 9.62003 9.47366 9.41005 9.47366 9.14005C9.47366 8.87005 9.25368 8.66003 8.99368 8.66003Z" fill="#292D32"/>
<path d="M15.5337 16.84C14.4437 16.84 13.5537 15.95 13.5537 14.86C13.5537 13.77 14.4437 12.88 15.5337 12.88C16.6237 12.88 17.5137 13.77 17.5137 14.86C17.5137 15.95 16.6237 16.84 15.5337 16.84ZM15.5337 14.39C15.2737 14.39 15.0537 14.6 15.0537 14.87C15.0537 15.14 15.2637 15.35 15.5337 15.35C15.8037 15.35 16.0137 15.14 16.0137 14.87C16.0137 14.6 15.8037 14.39 15.5337 14.39Z" fill="#292D32"/>
<path d="M12.0137 22.75C6.08367 22.75 1.26367 17.93 1.26367 12C1.26367 6.07 6.08367 1.25 12.0137 1.25C17.9437 1.25 22.7637 6.07 22.7637 12C22.7637 17.93 17.9437 22.75 12.0137 22.75ZM12.0137 2.75C6.91367 2.75 2.76367 6.9 2.76367 12C2.76367 17.1 6.91367 21.25 12.0137 21.25C17.1137 21.25 21.2637 17.1 21.2637 12C21.2637 6.9 17.1137 2.75 12.0137 2.75Z" fill="#292D32"/>
</svg>
