<svg width="24" height="24" viewBox="0 0 24 24" fill="none" xmlns="http://www.w3.org/2000/svg">
<path d="M11.9419 2.20995L9.5319 7.81995H7.1219C6.7219 7.81995 6.3319 7.84995 5.9519 7.92995L6.9519 5.52995L6.9919 5.43995L7.0519 5.27995C7.0819 5.20995 7.1019 5.14995 7.1319 5.09995C8.2919 2.40995 9.5919 1.56995 11.9419 2.20995Z" fill="#292D32"/>
<path d="M18.7321 8.09002L18.7121 8.08002C18.1121 7.91002 17.5021 7.82002 16.8821 7.82002H10.6221L12.8721 2.59002L12.9021 2.52002C13.0421 2.57002 13.1921 2.64002 13.3421 2.69002L15.5521 3.62002C16.7821 4.13002 17.6421 4.66002 18.1721 5.30002C18.2621 5.42002 18.3421 5.53002 18.4221 5.66002C18.5121 5.80002 18.5821 5.94002 18.6221 6.09002C18.6621 6.18002 18.6921 6.26002 18.7121 6.35002C18.8621 6.86002 18.8721 7.44002 18.7321 8.09002Z" fill="#292D32"/>
<path d="M18.2919 9.51995C17.8419 9.38995 17.3719 9.31995 16.8819 9.31995H7.12194C6.44194 9.31995 5.80194 9.44995 5.20194 9.70995C3.46194 10.4599 2.24194 12.1899 2.24194 14.1999V16.1499C2.24194 16.3899 2.26194 16.6199 2.29194 16.8599C2.51194 20.0399 4.21194 21.7399 7.39194 21.9499C7.62194 21.9799 7.85194 21.9999 8.10194 21.9999H15.9019C19.6019 21.9999 21.5519 20.2399 21.7419 16.7399C21.7519 16.5499 21.7619 16.3499 21.7619 16.1499V14.1999C21.7619 11.9899 20.2919 10.1299 18.2919 9.51995ZM14.5019 16.7499H9.50194C9.09194 16.7499 8.75194 16.4099 8.75194 15.9999C8.75194 15.5899 9.09194 15.2499 9.50194 15.2499H14.5019C14.9119 15.2499 15.2519 15.5899 15.2519 15.9999C15.2519 16.4099 14.9119 16.7499 14.5019 16.7499Z" fill="#292D32"/>
</svg>
