<svg width="24" height="24" viewBox="0 0 24 24" fill="none" xmlns="http://www.w3.org/2000/svg">
<path d="M22.002 21.25C22.002 21.66 21.662 22 21.252 22H2.75195C2.34195 22 2.00195 21.66 2.00195 21.25C2.00195 20.84 2.34195 20.5 2.75195 20.5H21.252C21.662 20.5 22.002 20.84 22.002 21.25Z" fill="#292D32"/>
<path d="M15.3919 4.52001L4.65189 15.26C4.24189 15.67 3.58189 15.67 3.18189 15.26H3.17189C1.78189 13.86 1.78189 11.6 3.17189 10.21L10.3219 3.06001C11.7219 1.66001 13.9819 1.66001 15.3819 3.06001C15.7919 3.45001 15.7919 4.12001 15.3919 4.52001Z" fill="#292D32"/>
<path d="M20.8219 8.48995L17.7719 5.43995C17.3619 5.02995 16.7019 5.02995 16.3019 5.43995L5.56189 16.1799C5.15189 16.5799 5.15189 17.2399 5.56189 17.6499L8.61189 20.7099C10.0119 22.0999 12.2719 22.0999 13.6719 20.7099L20.8119 13.5599C22.2319 12.1599 22.2319 9.88995 20.8219 8.48995ZM12.7619 17.5199L11.5519 18.7399C11.3019 18.9899 10.8919 18.9899 10.6319 18.7399C10.3819 18.4899 10.3819 18.0799 10.6319 17.8199L11.8519 16.5999C12.0919 16.3599 12.5119 16.3599 12.7619 16.5999C13.0119 16.8499 13.0119 17.2799 12.7619 17.5199ZM16.7319 13.5499L14.2919 15.9999C14.0419 16.2399 13.6319 16.2399 13.3719 15.9999C13.1219 15.7499 13.1219 15.3399 13.3719 15.0799L15.8219 12.6299C16.0619 12.3899 16.4819 12.3899 16.7319 12.6299C16.9819 12.8899 16.9819 13.2999 16.7319 13.5499Z" fill="#292D32"/>
</svg>
