<svg width="24" height="24" viewBox="0 0 24 24" fill="none" xmlns="http://www.w3.org/2000/svg">
<path opacity="0.4" d="M16.1905 2H7.81049C4.17049 2 2.00049 4.17 2.00049 7.81V16.18C2.00049 19.83 4.17049 22 7.81049 22H16.1805C19.8205 22 21.9905 19.83 21.9905 16.19V7.81C22.0005 4.17 19.8305 2 16.1905 2Z" fill="#292D32"/>
<path d="M10.5005 8.81006H6.00049C5.59049 8.81006 5.25049 8.47006 5.25049 8.06006C5.25049 7.65006 5.59049 7.31006 6.00049 7.31006H10.5005C10.9105 7.31006 11.2505 7.65006 11.2505 8.06006C11.2505 8.47006 10.9105 8.81006 10.5005 8.81006Z" fill="#292D32"/>
<path d="M18.0005 14.8101H13.5005C13.0905 14.8101 12.7505 14.4701 12.7505 14.0601C12.7505 13.6501 13.0905 13.3101 13.5005 13.3101H18.0005C18.4105 13.3101 18.7505 13.6501 18.7505 14.0601C18.7505 14.4701 18.4105 14.8101 18.0005 14.8101Z" fill="#292D32"/>
<path d="M18.0005 18.5601H13.5005C13.0905 18.5601 12.7505 18.2201 12.7505 17.8101C12.7505 17.4001 13.0905 17.0601 13.5005 17.0601H18.0005C18.4105 17.0601 18.7505 17.4001 18.7505 17.8101C18.7505 18.2201 18.4105 18.5601 18.0005 18.5601Z" fill="#292D32"/>
<path d="M18.0005 7.31006H16.5205V5.81006C16.5205 5.40006 16.1805 5.06006 15.7705 5.06006C15.3605 5.06006 15.0205 5.40006 15.0205 5.81006V7.31006H13.5005C13.0905 7.31006 12.7505 7.65006 12.7505 8.06006C12.7505 8.47006 13.0905 8.81006 13.5005 8.81006H15.0205V10.3101C15.0205 10.7201 15.3605 11.0601 15.7705 11.0601C16.1805 11.0601 16.5205 10.7201 16.5205 10.3101V8.81006H18.0005C18.4105 8.81006 18.7505 8.47006 18.7505 8.06006C18.7505 7.65006 18.4105 7.31006 18.0005 7.31006Z" fill="#292D32"/>
<path d="M9.31043 15.94L11.0304 14.22C11.3204 13.93 11.3204 13.45 11.0304 13.16C10.7404 12.87 10.2604 12.87 9.97043 13.16L8.25043 14.88L6.53043 13.16C6.24043 12.87 5.76043 12.87 5.47043 13.16C5.18043 13.45 5.18043 13.93 5.47043 14.22L7.19043 15.94L5.47043 17.66C5.18043 17.95 5.18043 18.43 5.47043 18.72C5.62043 18.87 5.81043 18.94 6.00043 18.94C6.19043 18.94 6.38043 18.87 6.53043 18.72L8.25043 17L9.97043 18.72C10.1204 18.87 10.3104 18.94 10.5004 18.94C10.6904 18.94 10.8804 18.87 11.0304 18.72C11.3204 18.43 11.3204 17.95 11.0304 17.66L9.31043 15.94Z" fill="#292D32"/>
</svg>
