<svg width="24" height="24" viewBox="0 0 24 24" fill="none" xmlns="http://www.w3.org/2000/svg">
<path d="M12.0706 21.9801C10.6606 21.9801 9.24058 21.4401 8.17058 20.3701L3.64058 15.8401C2.54058 14.7401 1.96058 13.2201 2.03058 11.6701L2.27058 6.67005C2.38058 4.28005 4.27058 2.39005 6.67058 2.27005L11.6706 2.03005C13.2206 1.97005 14.7406 2.54005 15.8406 3.64005L20.3706 8.17005C22.5206 10.3201 22.5206 13.8301 20.3706 15.9801L15.9806 20.3701C14.9006 21.4401 13.4906 21.9801 12.0706 21.9801ZM4.70058 14.7701L9.23058 19.3001C9.99058 20.0601 11.0006 20.4801 12.0706 20.4801C13.1406 20.4801 14.1506 20.0601 14.9106 19.3001L19.3006 14.9101C20.0606 14.1501 20.4806 13.1401 20.4806 12.0701C20.4806 11.0001 20.0606 9.99005 19.3006 9.23005L14.7706 4.70005C13.9706 3.90005 12.8606 3.47005 11.7406 3.53005L6.74058 3.77005C5.11058 3.84005 3.84058 5.11005 3.76058 6.73005L3.52058 11.7301C3.47058 12.8601 3.90058 13.9701 4.70058 14.7701Z" fill="#292D32"/>
<path d="M9.50049 12.75C7.71049 12.75 6.25049 11.29 6.25049 9.5C6.25049 7.71 7.71049 6.25 9.50049 6.25C11.2905 6.25 12.7505 7.71 12.7505 9.5C12.7505 11.29 11.2905 12.75 9.50049 12.75ZM9.50049 7.75C8.54049 7.75 7.75049 8.54 7.75049 9.5C7.75049 10.46 8.54049 11.25 9.50049 11.25C10.4605 11.25 11.2505 10.46 11.2505 9.5C11.2505 8.54 10.4605 7.75 9.50049 7.75Z" fill="#292D32"/>
</svg>
