<svg width="24" height="24" viewBox="0 0 24 24" fill="none" xmlns="http://www.w3.org/2000/svg">
<path d="M17.0068 3.5H7.00684C4.00684 3.5 2.00684 5 2.00684 8.5V15.5C2.00684 19 4.00684 20.5 7.00684 20.5H17.0068C20.0068 20.5 22.0068 19 22.0068 15.5V8.5C22.0068 5 20.0068 3.5 17.0068 3.5ZM8.00684 17.75H5.00684C4.59684 17.75 4.25684 17.41 4.25684 17C4.25684 16.59 4.59684 16.25 5.00684 16.25H8.00684C8.41684 16.25 8.75684 16.59 8.75684 17C8.75684 17.41 8.41684 17.75 8.00684 17.75ZM12.0068 15C10.3468 15 9.00684 13.66 9.00684 12C9.00684 10.34 10.3468 9 12.0068 9C13.6668 9 15.0068 10.34 15.0068 12C15.0068 13.66 13.6668 15 12.0068 15ZM19.0068 7.75H16.0068C15.5968 7.75 15.2568 7.41 15.2568 7C15.2568 6.59 15.5968 6.25 16.0068 6.25H19.0068C19.4168 6.25 19.7568 6.59 19.7568 7C19.7568 7.41 19.4168 7.75 19.0068 7.75Z" fill="#292D32"/>
</svg>
