<svg width="24" height="24" viewBox="0 0 24 24" fill="none" xmlns="http://www.w3.org/2000/svg">
<path d="M22.0014 12.62V14.68C22.0014 15.24 21.5414 15.7 20.9714 15.7H19.0414C17.9614 15.7 16.9714 14.91 16.8814 13.83C16.8214 13.2 17.0614 12.61 17.4814 12.2C17.8514 11.82 18.3614 11.6 18.9214 11.6H20.9714C21.5414 11.6 22.0014 12.06 22.0014 12.62Z" fill="#292D32"/>
<path d="M15.3815 13.96C15.2915 12.91 15.6715 11.88 16.4315 11.13C17.0715 10.48 17.9615 10.1 18.9215 10.1H19.4915C19.7715 10.1 20.0015 9.87002 19.9615 9.59002C19.6915 7.65002 18.0115 6.15002 16.0015 6.15002H6.00146C3.79146 6.15002 2.00146 7.94002 2.00146 10.15V17.15C2.00146 19.36 3.79146 21.15 6.00146 21.15H16.0015C18.0215 21.15 19.6915 19.65 19.9615 17.71C20.0015 17.43 19.7715 17.2 19.4915 17.2H19.0415C17.1415 17.2 15.5415 15.78 15.3815 13.96ZM13.0015 11.9H7.00146C6.59146 11.9 6.25146 11.57 6.25146 11.15C6.25146 10.73 6.59146 10.4 7.00146 10.4H13.0015C13.4115 10.4 13.7515 10.74 13.7515 11.15C13.7515 11.56 13.4115 11.9 13.0015 11.9Z" fill="#292D32"/>
<path d="M14.2114 3.97998C14.4714 4.24998 14.2414 4.64998 13.8614 4.64998H6.03137C4.94137 4.64998 3.92137 4.96998 3.07137 5.51998C2.68137 5.76998 2.15137 5.49998 2.34137 5.06998C2.90137 3.75998 4.21137 2.84998 5.72137 2.84998H11.3414C12.5014 2.84998 13.5314 3.25998 14.2114 3.97998Z" fill="#292D32"/>
</svg>
