<svg width="24" height="24" viewBox="0 0 24 24" fill="none" xmlns="http://www.w3.org/2000/svg">
<path d="M5.00879 15C4.06879 15 3.19879 15.33 2.50879 15.88C1.58879 16.61 1.00879 17.74 1.00879 19C1.00879 21.21 2.79879 23 5.00879 23C6.01879 23 6.93879 22.62 7.64879 22C8.47879 21.27 9.00879 20.2 9.00879 19C9.00879 16.79 7.21879 15 5.00879 15ZM6.00879 19.25C6.00879 19.51 5.86879 19.76 5.64879 19.89L4.39879 20.64C4.27879 20.72 4.13879 20.75 4.00879 20.75C3.75879 20.75 3.50879 20.62 3.36879 20.39C3.15879 20.03 3.26879 19.57 3.62879 19.36L4.51879 18.83V17.75C4.50879 17.34 4.84879 17 5.25879 17C5.66879 17 6.00879 17.34 6.00879 17.75V19.25Z" fill="#292D32"/>
<path d="M14.8588 3.94999V7.74999H13.3588V3.94999C13.3588 3.67999 13.1188 3.54999 12.9588 3.54999C12.9088 3.54999 12.8588 3.55999 12.8088 3.57999L4.87879 6.56999C4.34879 6.76999 4.00879 7.26999 4.00879 7.83999V8.50999C3.09879 9.18999 2.50879 10.28 2.50879 11.51V7.83999C2.50879 6.64999 3.23879 5.58999 4.34879 5.16999L12.2888 2.16999C12.5088 2.08999 12.7388 2.04999 12.9588 2.04999C13.9588 2.04999 14.8588 2.85999 14.8588 3.94999Z" fill="#292D32"/>
<path d="M21.5087 14.5V15.5C21.5087 15.77 21.2987 15.99 21.0187 16H19.5587C19.0287 16 18.5487 15.61 18.5087 15.09C18.4787 14.78 18.5987 14.49 18.7987 14.29C18.9787 14.1 19.2287 14 19.4987 14H21.0087C21.2987 14.01 21.5087 14.23 21.5087 14.5Z" fill="#292D32"/>
<path d="M19.4888 12.95H20.5088C21.0588 12.95 21.5088 12.5 21.5088 11.95V11.51C21.5088 9.44 19.8188 7.75 17.7488 7.75H6.26879C5.41879 7.75 4.63879 8.03 4.00879 8.51C3.09879 9.19 2.50879 10.28 2.50879 11.51V13.29C2.50879 13.67 2.90879 13.91 3.26879 13.79C3.82879 13.6 4.41879 13.5 5.00879 13.5C8.03879 13.5 10.5088 15.97 10.5088 19C10.5088 19.72 10.3188 20.51 10.0188 21.21C9.85879 21.57 10.1088 22 10.4988 22H17.7488C19.8188 22 21.5088 20.31 21.5088 18.24V18.05C21.5088 17.5 21.0588 17.05 20.5088 17.05H19.6388C18.6788 17.05 17.7588 16.46 17.5088 15.53C17.3088 14.77 17.5488 14.03 18.0488 13.55C18.4188 13.17 18.9288 12.95 19.4888 12.95ZM14.0088 12.75H9.00879C8.59879 12.75 8.25879 12.41 8.25879 12C8.25879 11.59 8.59879 11.25 9.00879 11.25H14.0088C14.4188 11.25 14.7588 11.59 14.7588 12C14.7588 12.41 14.4188 12.75 14.0088 12.75Z" fill="#292D32"/>
</svg>
