<svg width="24" height="24" viewBox="0 0 24 24" fill="none" xmlns="http://www.w3.org/2000/svg">
<path d="M19.852 12.9401C19.852 13.7401 20.502 14.4001 21.302 14.4001C21.682 14.4001 22.002 14.7101 22.002 15.0901C22.002 18.9301 20.842 20.0901 17.002 20.0901H11.752V18.5001C11.752 18.1101 11.452 17.7901 11.072 17.7601C11.052 17.7501 11.022 17.7501 11.002 17.7501C10.592 17.7501 10.252 18.0901 10.252 18.5001V20.0901H8.49204C6.61204 20.0901 5.64204 18.6801 4.76204 16.5501L4.59204 16.1301C4.45204 15.7701 4.62204 15.3601 4.98204 15.2201C5.35204 15.0801 5.64204 14.7901 5.79204 14.4101C5.95204 14.0401 5.95204 13.6301 5.80204 13.2601C5.48204 12.4901 4.60204 12.1201 3.82204 12.4301C3.65204 12.5101 3.45204 12.5101 3.28204 12.4301C3.11204 12.3601 2.98204 12.2201 2.90204 12.0401L2.75204 11.6401C1.26204 8.02006 1.91204 6.47006 5.53204 4.97006L7.98204 3.96006C8.34204 3.81006 8.75204 3.98006 8.89204 4.34006L11.072 9.09006C10.662 9.09006 10.252 9.42006 10.252 9.83006V14.1701C10.252 14.5801 10.592 14.9201 11.002 14.9201C11.022 14.9201 11.052 14.9201 11.072 14.9101C11.452 14.8801 11.752 14.5601 11.752 14.1701V9.83006C11.752 9.44006 11.452 9.12006 11.072 9.09006V4.93006H17.002C20.842 4.93006 22.002 6.09006 22.002 9.93006V10.7801C22.002 11.1701 21.682 11.4801 21.302 11.4801C20.502 11.4801 19.852 12.1301 19.852 12.9401Z" fill="#292D32"/>
</svg>
