<svg width="24" height="24" viewBox="0 0 24 24" fill="none" xmlns="http://www.w3.org/2000/svg">
<path d="M13.4004 17.42H10.8904C9.2504 17.42 7.9204 16.04 7.9204 14.34C7.9204 13.93 8.2604 13.59 8.6704 13.59C9.0804 13.59 9.4204 13.93 9.4204 14.34C9.4204 15.21 10.0804 15.92 10.8904 15.92H13.4004C14.0504 15.92 14.5904 15.34 14.5904 14.64C14.5904 13.77 14.2804 13.6 13.7704 13.42L9.7404 12C8.9604 11.73 7.9104 11.15 7.9104 9.35996C7.9104 7.81996 9.1204 6.57996 10.6004 6.57996H13.1104C14.7504 6.57996 16.0804 7.95996 16.0804 9.65996C16.0804 10.07 15.7404 10.41 15.3304 10.41C14.9204 10.41 14.5804 10.07 14.5804 9.65996C14.5804 8.78996 13.9204 8.07996 13.1104 8.07996H10.6004C9.9504 8.07996 9.4104 8.65996 9.4104 9.35996C9.4104 10.23 9.7204 10.4 10.2304 10.58L14.2604 12C15.0404 12.27 16.0904 12.85 16.0904 14.64C16.0804 16.17 14.8804 17.42 13.4004 17.42Z" fill="#292D32"/>
<path d="M12.0005 18.75C11.5905 18.75 11.2505 18.41 11.2505 18V6C11.2505 5.59 11.5905 5.25 12.0005 5.25C12.4105 5.25 12.7505 5.59 12.7505 6V18C12.7505 18.41 12.4105 18.75 12.0005 18.75Z" fill="#292D32"/>
<path d="M12.0005 22.75C6.07049 22.75 1.25049 17.93 1.25049 12C1.25049 6.07 6.07049 1.25 12.0005 1.25C17.9305 1.25 22.7505 6.07 22.7505 12C22.7505 17.93 17.9305 22.75 12.0005 22.75ZM12.0005 2.75C6.90049 2.75 2.75049 6.9 2.75049 12C2.75049 17.1 6.90049 21.25 12.0005 21.25C17.1005 21.25 21.2505 17.1 21.2505 12C21.2505 6.9 17.1005 2.75 12.0005 2.75Z" fill="#292D32"/>
</svg>
