<svg width="24" height="24" viewBox="0 0 24 24" fill="none" xmlns="http://www.w3.org/2000/svg">
<path d="M12.0029 15C13.6598 15 15.0029 13.6569 15.0029 12C15.0029 10.3431 13.6598 9 12.0029 9C10.3461 9 9.00293 10.3431 9.00293 12C9.00293 13.6569 10.3461 15 12.0029 15Z" fill="#292D32"/>
<path d="M17.0029 3.5H7.00293C4.00293 3.5 2.00293 5 2.00293 8.5V9V15V15.5C2.00293 19 4.00293 20.5 7.00293 20.5H17.0029C20.0029 20.5 22.0029 19 22.0029 15.5V15V9V8.5C22.0029 5 20.0029 3.5 17.0029 3.5ZM7.00293 19C7.00293 16.18 6.09293 15.14 3.50293 15.02V15V9V8.98C6.09293 8.86 7.00293 7.82 7.00293 5H17.0029C17.0029 7.82 17.9129 8.86 20.5029 8.98V9V15V15.02C17.9129 15.14 17.0029 16.18 17.0029 19H7.00293Z" fill="#292D32"/>
</svg>
