<svg width="24" height="24" viewBox="0 0 24 24" fill="none" xmlns="http://www.w3.org/2000/svg">
<path d="M17.0029 20.5H7.00293C4.00293 20.5 2.00293 19 2.00293 15.5V8.5C2.00293 5 4.00293 3.5 7.00293 3.5H17.0029C20.0029 3.5 22.0029 5 22.0029 8.5V15.5C22.0029 19 20.0029 20.5 17.0029 20.5Z" stroke="#292D32" stroke-width="1.5" stroke-miterlimit="10" stroke-linecap="round" stroke-linejoin="round"/>
<path d="M12.0029 15C13.6598 15 15.0029 13.6569 15.0029 12C15.0029 10.3431 13.6598 9 12.0029 9C10.3461 9 9.00293 10.3431 9.00293 12C9.00293 13.6569 10.3461 15 12.0029 15Z" stroke="#292D32" stroke-width="1.5" stroke-miterlimit="10" stroke-linecap="round" stroke-linejoin="round"/>
<path d="M8.50293 6H7.00293C5.62293 6 4.50293 7.12 4.50293 8.5V10" stroke="#292D32" stroke-width="1.5" stroke-miterlimit="10" stroke-linecap="round" stroke-linejoin="round"/>
<path d="M15.5029 6H17.0029C18.3829 6 19.5029 7.12 19.5029 8.5V10" stroke="#292D32" stroke-width="1.5" stroke-miterlimit="10" stroke-linecap="round" stroke-linejoin="round"/>
<path d="M8.50293 18H7.00293C5.62293 18 4.50293 16.88 4.50293 15.5V14" stroke="#292D32" stroke-width="1.5" stroke-miterlimit="10" stroke-linecap="round" stroke-linejoin="round"/>
<path d="M15.5029 18H17.0029C18.3829 18 19.5029 16.88 19.5029 15.5V14" stroke="#292D32" stroke-width="1.5" stroke-miterlimit="10" stroke-linecap="round" stroke-linejoin="round"/>
</svg>
