<svg width="24" height="24" viewBox="0 0 24 24" fill="none" xmlns="http://www.w3.org/2000/svg">
<path d="M13.252 12.58V14.56C13.252 15.25 12.692 15.81 12.002 15.81C11.312 15.81 10.752 15.25 10.752 14.56V12.58C10.392 12.36 10.112 12.04 9.91195 11.66H3.00195C2.45195 11.66 2.00195 12.11 2.00195 12.66V16.19C2.00195 19.4 4.60195 22 7.81195 22H16.182C19.402 22 22.002 19.4 22.002 16.19V12.66C22.002 12.11 21.552 11.66 21.002 11.66H14.092C13.892 12.04 13.612 12.36 13.252 12.58Z" fill="#292D32"/>
<path d="M16.192 2H7.81195C4.60195 2 2.00195 4.6 2.00195 7.81V9.16C2.00195 9.71 2.45195 10.16 3.00195 10.16H9.67195C9.90195 8.84 11.212 7.9 12.642 8.28C13.442 8.49 14.092 9.14 14.302 9.94C14.322 10.01 14.322 10.09 14.332 10.16H21.002C21.552 10.16 22.002 9.71 22.002 9.16V7.81C22.002 4.6 19.402 2 16.192 2Z" fill="#292D32"/>
</svg>
