<svg width="24" height="24" viewBox="0 0 24 24" fill="none" xmlns="http://www.w3.org/2000/svg">
<path d="M21.302 10.84C21.692 10.84 22.002 10.53 22.002 10.14V9.20999C22.002 5.10999 20.752 3.85999 16.652 3.85999H7.35195C3.25195 3.85999 2.00195 5.10999 2.00195 9.20999V9.67999C2.00195 10.07 2.31195 10.38 2.70195 10.38C3.60195 10.38 4.33195 11.11 4.33195 12.01C4.33195 12.91 3.60195 13.63 2.70195 13.63C2.31195 13.63 2.00195 13.94 2.00195 14.33V14.8C2.00195 18.9 3.25195 20.15 7.35195 20.15H16.652C20.752 20.15 22.002 18.9 22.002 14.8C22.002 14.41 21.692 14.1 21.302 14.1C20.402 14.1 19.672 13.37 19.672 12.47C19.672 11.57 20.402 10.84 21.302 10.84ZM9.00195 8.87999C9.55195 8.87999 10.002 9.32999 10.002 9.87999C10.002 10.43 9.56195 10.88 9.00195 10.88C8.45195 10.88 8.00195 10.43 8.00195 9.87999C8.00195 9.32999 8.44195 8.87999 9.00195 8.87999ZM15.002 15.88C14.442 15.88 13.992 15.43 13.992 14.88C13.992 14.33 14.442 13.88 14.992 13.88C15.542 13.88 15.992 14.33 15.992 14.88C15.992 15.43 15.562 15.88 15.002 15.88ZM15.902 9.47999L9.17195 16.21C9.02195 16.36 8.83195 16.43 8.64195 16.43C8.45195 16.43 8.26195 16.36 8.11195 16.21C7.82195 15.92 7.82195 15.44 8.11195 15.15L14.842 8.41999C15.132 8.12999 15.612 8.12999 15.902 8.41999C16.192 8.70999 16.192 9.18999 15.902 9.47999Z" fill="#292D32"/>
</svg>
