<svg width="24" height="24" viewBox="0 0 24 24" fill="none" xmlns="http://www.w3.org/2000/svg">
<path d="M13.4919 13.38H11.0019C10.7019 13.38 10.4619 13.62 10.4619 13.92C10.4619 14.22 10.7019 14.46 11.0019 14.46H13.4919C13.7919 14.46 14.0319 14.22 14.0319 13.92C14.0319 13.62 13.7919 13.38 13.4919 13.38Z" fill="#292D32"/>
<path d="M9.44185 13.38H8.19185C7.89185 13.38 7.65186 13.62 7.65186 13.92C7.65186 14.22 7.89185 14.46 8.19185 14.46H9.44185C9.74185 14.46 9.98185 14.22 9.98185 13.92C9.98185 13.62 9.74185 13.38 9.44185 13.38Z" fill="#292D32"/>
<path d="M18.5418 4.21994L13.0418 2.15994C12.4718 1.94994 11.5418 1.94994 10.9718 2.15994L5.47176 4.21994C4.41176 4.61994 3.55176 5.85994 3.55176 6.98994V15.0899C3.55176 15.8999 4.08176 16.9699 4.73176 17.4499L10.2318 21.5599C11.2018 22.2899 12.7918 22.2899 13.7618 21.5599L19.2618 17.4499C19.9118 16.9599 20.4418 15.8999 20.4418 15.0899V6.98994C20.4518 5.85994 19.5918 4.61994 18.5418 4.21994ZM18.1718 13.6499C18.1518 15.7199 17.5818 16.2399 15.4318 16.2399H8.58176C6.39176 16.2399 5.84176 15.6999 5.84176 13.5299V11.1999C5.84176 10.9199 6.06176 10.6999 6.34176 10.6999H17.6718C17.9518 10.6999 18.1718 10.9199 18.1718 11.1999V13.6499ZM18.1718 9.10994C18.1718 9.38994 17.9518 9.60994 17.6718 9.60994H6.34176C6.06176 9.60994 5.84176 9.38994 5.84176 9.10994V8.46994C5.84176 6.50994 6.30176 5.87994 8.01176 5.76994C8.19176 5.76994 8.38176 5.75994 8.58176 5.75994H15.4318C17.6218 5.75994 18.1718 6.29994 18.1718 8.46994V9.10994Z" fill="#292D32"/>
</svg>
