<svg width="25" height="24" viewBox="0 0 25 24" fill="none" xmlns="http://www.w3.org/2000/svg">
<path d="M15.012 22.75H9.01196C3.58196 22.75 1.26196 20.43 1.26196 15V9C1.26196 3.57 3.58196 1.25 9.01196 1.25H15.012C20.442 1.25 22.762 3.57 22.762 9V15C22.762 20.43 20.442 22.75 15.012 22.75ZM9.01196 2.75C4.40196 2.75 2.76196 4.39 2.76196 9V15C2.76196 19.61 4.40196 21.25 9.01196 21.25H15.012C19.622 21.25 21.262 19.61 21.262 15V9C21.262 4.39 19.622 2.75 15.012 2.75H9.01196Z" fill="#292D32"/>
<path d="M8.58173 16.02C8.39173 16.02 8.20173 15.95 8.05173 15.8C7.76173 15.51 7.76173 15.03 8.05173 14.74L14.6017 8.19003C14.8917 7.90003 15.3717 7.90003 15.6617 8.19003C15.9517 8.48003 15.9517 8.96003 15.6617 9.25003L9.11173 15.8C8.96173 15.95 8.77173 16.02 8.58173 16.02Z" fill="#292D32"/>
<path d="M8.99197 11.11C7.90197 11.11 7.01196 10.22 7.01196 9.13004C7.01196 8.04004 7.90197 7.15002 8.99197 7.15002C10.082 7.15002 10.972 8.04004 10.972 9.13004C10.972 10.22 10.082 11.11 8.99197 11.11ZM8.99197 8.66003C8.73197 8.66003 8.51196 8.87005 8.51196 9.14005C8.51196 9.41005 8.72197 9.62003 8.99197 9.62003C9.26197 9.62003 9.47195 9.41005 9.47195 9.14005C9.47195 8.87005 9.25197 8.66003 8.99197 8.66003Z" fill="#292D32"/>
<path d="M15.532 16.84C14.442 16.84 13.552 15.95 13.552 14.86C13.552 13.77 14.442 12.88 15.532 12.88C16.622 12.88 17.512 13.77 17.512 14.86C17.512 15.95 16.622 16.84 15.532 16.84ZM15.532 14.39C15.272 14.39 15.052 14.6 15.052 14.87C15.052 15.14 15.262 15.35 15.532 15.35C15.802 15.35 16.012 15.14 16.012 14.87C16.012 14.6 15.802 14.39 15.532 14.39Z" fill="#292D32"/>
</svg>
