<svg width="24" height="24" viewBox="0 0 24 24" fill="none" xmlns="http://www.w3.org/2000/svg">
<path opacity="0.8" d="M12.9004 2.51997L12.8704 2.58997L9.97044 9.31997H7.12044C6.44044 9.31997 5.80044 9.44997 5.20044 9.70997L6.95044 5.52997L6.99044 5.43997L7.05044 5.27997C7.08044 5.20997 7.10044 5.14997 7.13044 5.09997C8.44044 2.06997 9.92044 1.37997 12.9004 2.51997Z" fill="#292D32"/>
<path d="M18.2905 9.52002C17.8405 9.39002 17.3705 9.32002 16.8805 9.32002H9.97046L12.8705 2.59002L12.9005 2.52002C13.0405 2.57002 13.1905 2.64002 13.3405 2.69002L15.5505 3.62002C16.7805 4.13002 17.6405 4.66002 18.1705 5.30002C18.2605 5.42002 18.3405 5.53002 18.4205 5.66002C18.5105 5.80002 18.5805 5.94002 18.6205 6.09002C18.6605 6.18002 18.6905 6.26002 18.7105 6.35002C18.9705 7.20002 18.8105 8.23002 18.2905 9.52002Z" fill="#292D32"/>
<path opacity="0.4" d="M21.7605 14.1999V16.1499C21.7605 16.3499 21.7505 16.5499 21.7405 16.7399C21.5505 20.2399 19.6005 21.9999 15.9005 21.9999H8.10048C7.85048 21.9999 7.62048 21.9799 7.39048 21.9499C4.21048 21.7399 2.51048 20.0399 2.29048 16.8599C2.26048 16.6199 2.24048 16.3899 2.24048 16.1499V14.1999C2.24048 12.1899 3.46048 10.4599 5.20048 9.70995C5.80048 9.44995 6.44048 9.31995 7.12048 9.31995H16.8805C17.3705 9.31995 17.8405 9.38995 18.2905 9.51995C20.2905 10.1299 21.7605 11.9899 21.7605 14.1999Z" fill="#292D32"/>
<path opacity="0.6" d="M6.95048 5.53003L5.20048 9.71003C3.46048 10.46 2.24048 12.19 2.24048 14.2V11.27C2.24048 8.43003 4.26048 6.06003 6.95048 5.53003Z" fill="#292D32"/>
<path opacity="0.6" d="M21.7605 11.27V14.2C21.7605 11.99 20.2905 10.13 18.2905 9.51997C18.8105 8.22997 18.9705 7.19997 18.7105 6.34997C18.6905 6.25997 18.6605 6.17997 18.6205 6.08997C20.4905 7.05997 21.7605 9.02997 21.7605 11.27Z" fill="#292D32"/>
<path d="M14.5005 16.75H9.50049C9.09049 16.75 8.75049 16.41 8.75049 16C8.75049 15.59 9.09049 15.25 9.50049 15.25H14.5005C14.9105 15.25 15.2505 15.59 15.2505 16C15.2505 16.41 14.9105 16.75 14.5005 16.75Z" fill="#292D32"/>
</svg>
