<svg width="24" height="24" viewBox="0 0 24 24" fill="none" xmlns="http://www.w3.org/2000/svg">
<path d="M8.25913 21.2458C8.9061 20.5988 9.27777 19.7729 9.37413 18.9195C9.5049 17.7838 9.12635 16.6069 8.25913 15.7397C7.74293 15.2235 7.10972 14.8793 6.4421 14.721C5.1688 14.3975 3.75785 14.7348 2.75297 15.7397C2.05782 16.4348 1.67927 17.3227 1.63109 18.2381C1.59668 18.6304 1.63109 19.0365 1.73433 19.4288C1.89264 20.0964 2.23677 20.7296 2.75297 21.2458C4.27405 22.7669 6.73805 22.7669 8.25913 21.2458ZM6.96518 17.7769C7.36438 17.7769 7.69475 18.1073 7.69475 18.5065C7.68787 18.9126 7.36438 19.2361 6.9583 19.243L6.23562 19.2361L6.2425 19.9312C6.23562 20.3373 5.91213 20.6608 5.50605 20.6677C5.09997 20.6608 4.77648 20.3373 4.7696 19.9312L4.77648 19.2361L4.0538 19.243C3.64772 19.2361 3.32424 18.9126 3.31735 18.5065C3.32424 18.3069 3.40683 18.128 3.5376 17.9972C3.66837 17.8664 3.84732 17.7838 4.04692 17.7769L4.77648 17.7769L4.77648 17.0198C4.77648 16.8134 4.85908 16.6344 4.98985 16.5036C5.12062 16.3729 5.29957 16.2903 5.50605 16.2903C5.90525 16.2903 6.23562 16.6206 6.23562 17.0198L6.23562 17.7769L6.96518 17.7769Z" fill="#292D32"/>
<path d="M15.0952 3.84652V7.54528H13.6352V3.84652C13.6352 3.58371 13.4016 3.45717 13.2458 3.45717C13.1972 3.45717 13.1485 3.46691 13.0998 3.48637L5.38108 6.39672C4.8652 6.59139 4.53426 7.07807 4.53426 7.63289V8.28504C3.6485 8.94692 3.07422 10.0079 3.07422 11.2051V7.63289C3.07422 6.47459 3.78477 5.44283 4.8652 5.03401L12.5937 2.11393C12.8078 2.03607 13.0317 1.99713 13.2458 1.99713C14.2192 1.99713 15.0952 2.78555 15.0952 3.84652Z" fill="#292D32"/>
<path d="M21.5696 14.1163V15.0896C21.5696 15.3524 21.3651 15.5666 21.0926 15.5763H19.6715C19.1556 15.5763 18.6884 15.1967 18.6495 14.6905C18.6203 14.3888 18.7371 14.1065 18.9317 13.9119C19.107 13.7269 19.3503 13.6296 19.6131 13.6296H21.0829C21.3651 13.6393 21.5696 13.8535 21.5696 14.1163Z" fill="#292D32"/>
<path d="M19.6019 12.606H20.5947C21.1301 12.606 21.5681 12.168 21.5681 11.6326V11.2043C21.5681 9.18947 19.9231 7.54449 17.9082 7.54449H6.73405C5.9067 7.54449 5.14748 7.81704 4.53426 8.28425C3.6485 8.94613 3.07422 10.0071 3.07422 11.2043V12.9369C3.07422 13.3068 3.46356 13.5404 3.81397 13.4236C4.35905 13.2387 4.93334 13.1413 5.50762 13.1413C8.4569 13.1413 10.8611 15.5455 10.8611 18.4948C10.8611 19.1956 10.6762 19.9646 10.3842 20.6459C10.2284 20.9963 10.4718 21.4149 10.8514 21.4149H17.9082C19.9231 21.4149 21.5681 19.7699 21.5681 17.755V17.5701C21.5681 17.0348 21.1301 16.5967 20.5947 16.5967H19.7479C18.8135 16.5967 17.918 16.0225 17.6746 15.1172C17.4799 14.3775 17.7136 13.6572 18.2002 13.19C18.5604 12.8201 19.0568 12.606 19.6019 12.606ZM14.2679 12.4113H9.40106C9.00198 12.4113 8.67104 12.0804 8.67104 11.6813C8.67104 11.2822 9.00198 10.9513 9.40106 10.9513H14.2679C14.6669 10.9513 14.9979 11.2822 14.9979 11.6813C14.9979 12.0804 14.6669 12.4113 14.2679 12.4113Z" fill="#292D32"/>
</svg>
