<svg width="24" height="24" viewBox="0 0 24 24" fill="none" xmlns="http://www.w3.org/2000/svg">
<path d="M11.9421 2.20995L9.53215 7.81995H7.12215C6.72215 7.81995 6.33215 7.84995 5.95215 7.92995L6.95215 5.52995L6.99215 5.43995L7.05215 5.27995C7.08215 5.20995 7.10215 5.14995 7.13215 5.09995C8.29215 2.40995 9.59215 1.56995 11.9421 2.20995Z" fill="#292D32"/>
<path d="M18.7321 8.09002L18.7121 8.08002C18.1121 7.91002 17.5021 7.82002 16.8821 7.82002H10.6221L12.8721 2.59002L12.9021 2.52002C13.0421 2.57002 13.1921 2.64002 13.3421 2.69002L15.5521 3.62002C16.7821 4.13002 17.6421 4.66002 18.1721 5.30002C18.2621 5.42002 18.3421 5.53002 18.4221 5.66002C18.5121 5.80002 18.5821 5.94002 18.6221 6.09002C18.6621 6.18002 18.6921 6.26002 18.7121 6.35002C18.8621 6.86002 18.8721 7.44002 18.7321 8.09002Z" fill="#292D32"/>
<path d="M12.522 17.66H12.772C13.072 17.66 13.322 17.39 13.322 17.06C13.322 16.64 13.202 16.58 12.942 16.48L12.522 16.33V17.66Z" fill="#292D32"/>
<path d="M18.2922 9.51995C17.8422 9.38995 17.3722 9.31995 16.8822 9.31995H7.12219C6.44219 9.31995 5.80219 9.44995 5.20219 9.70995C3.46219 10.4599 2.24219 12.1899 2.24219 14.1999V16.1499C2.24219 16.3899 2.26219 16.6199 2.29219 16.8599C2.51219 20.0399 4.21219 21.7399 7.39219 21.9499C7.62219 21.9799 7.85219 21.9999 8.10219 21.9999H15.9022C19.6022 21.9999 21.5522 20.2399 21.7422 16.7399C21.7522 16.5499 21.7622 16.3499 21.7622 16.1499V14.1999C21.7622 11.9899 20.2922 10.1299 18.2922 9.51995ZM13.2822 15.4999C13.7422 15.6599 14.3622 15.9999 14.3622 17.0599C14.3622 17.9699 13.6522 18.6999 12.7722 18.6999H12.5222V18.9199C12.5222 19.2099 12.2922 19.4399 12.0022 19.4399C11.7122 19.4399 11.4822 19.2099 11.4822 18.9199V18.6999H11.3922C10.4322 18.6999 9.64219 17.8899 9.64219 16.8899C9.64219 16.5999 9.87219 16.3699 10.1622 16.3699C10.4522 16.3699 10.6822 16.5999 10.6822 16.8899C10.6822 17.3099 11.0022 17.6599 11.3922 17.6599H11.4822V15.9699L10.7222 15.6999C10.2622 15.5399 9.64219 15.1999 9.64219 14.1399C9.64219 13.2299 10.3522 12.4999 11.2322 12.4999H11.4822V12.2799C11.4822 11.9899 11.7122 11.7599 12.0022 11.7599C12.2922 11.7599 12.5222 11.9899 12.5222 12.2799V12.4999H12.6122C13.5722 12.4999 14.3622 13.3099 14.3622 14.3099C14.3622 14.5999 14.1322 14.8299 13.8422 14.8299C13.5522 14.8299 13.3222 14.5999 13.3222 14.3099C13.3222 13.8899 13.0022 13.5399 12.6122 13.5399H12.5222V15.2299L13.2822 15.4999Z" fill="#292D32"/>
<path d="M10.6821 14.14C10.6821 14.56 10.8021 14.62 11.0621 14.72L11.4821 14.87V13.54H11.2321C10.9221 13.54 10.6821 13.81 10.6821 14.14Z" fill="#292D32"/>
</svg>
