<svg width="24" height="24" viewBox="0 0 24 24" fill="none" xmlns="http://www.w3.org/2000/svg">
<path d="M17.0005 20.75H7.00046C2.75046 20.75 1.36046 19.48 1.26046 15.52C1.26046 15.32 1.33046 15.12 1.47046 14.98C1.61046 14.84 1.80046 14.75 2.01046 14.75C3.52046 14.75 4.75046 13.51 4.75046 12C4.75046 10.49 3.52046 9.25 2.01046 9.25C1.81046 9.25 1.62046 9.17 1.47046 9.02C1.32046 8.87 1.25046 8.68 1.26046 8.48C1.36046 4.52 2.75046 3.25 7.00046 3.25H17.0005C21.4105 3.25 22.7505 4.59 22.7505 9V15C22.7505 19.41 21.4105 20.75 17.0005 20.75ZM2.79046 16.18C2.96046 18.72 3.82046 19.25 7.00046 19.25H17.0005C20.5805 19.25 21.2505 18.57 21.2505 15V9C21.2505 5.43 20.5805 4.75 17.0005 4.75H7.00046C3.82046 4.75 2.96046 5.29 2.79046 7.82C4.76046 8.2 6.25046 9.93 6.25046 12C6.25046 14.07 4.76046 15.8 2.79046 16.18Z" fill="#292D32"/>
<path d="M9.00049 8.25C8.59049 8.25 8.25049 7.91 8.25049 7.5V4C8.25049 3.59 8.59049 3.25 9.00049 3.25C9.41049 3.25 9.75049 3.59 9.75049 4V7.5C9.75049 7.91 9.41049 8.25 9.00049 8.25Z" fill="#292D32"/>
<path d="M9.00049 20.75C8.59049 20.75 8.25049 20.41 8.25049 20V16.5C8.25049 16.09 8.59049 15.75 9.00049 15.75C9.41049 15.75 9.75049 16.09 9.75049 16.5V20C9.75049 20.41 9.41049 20.75 9.00049 20.75Z" fill="#292D32"/>
<path d="M13.0404 15.65C12.8004 15.65 12.5604 15.57 12.3604 15.43C12.0004 15.17 11.8204 14.73 11.9004 14.29L12.1104 13.1L11.2404 12.25C10.9204 11.94 10.8104 11.48 10.9404 11.06C11.0804 10.64 11.4404 10.33 11.8804 10.27L13.0804 10.09L13.6204 8.99998C13.8204 8.59998 14.2204 8.34998 14.6604 8.34998C15.1104 8.34998 15.5104 8.59998 15.7004 8.99998L16.2404 10.09L17.4404 10.27C17.8804 10.33 18.2404 10.64 18.3804 11.06C18.5204 11.48 18.4004 11.94 18.0804 12.25L17.2104 13.1L17.4204 14.29C17.5004 14.73 17.3204 15.17 16.9604 15.43C16.6004 15.69 16.1304 15.72 15.7404 15.52L14.6704 14.96L13.5904 15.52C13.4204 15.61 13.2304 15.65 13.0404 15.65ZM12.7704 11.65L13.2804 12.15C13.5604 12.42 13.6804 12.8 13.6204 13.18L13.5004 13.88L14.1304 13.55C14.4704 13.37 14.8704 13.37 15.2104 13.55L15.8404 13.88L15.7204 13.18C15.6604 12.79 15.7804 12.41 16.0604 12.15L16.5704 11.65L15.8704 11.55C15.4904 11.49 15.1604 11.25 14.9904 10.91L14.6804 10.27L14.3704 10.91C14.2004 11.25 13.8704 11.49 13.4904 11.55L12.7704 11.65Z" fill="#292D32"/>
</svg>
