<svg width="24" height="24" viewBox="0 0 24 24" fill="none" xmlns="http://www.w3.org/2000/svg">
<path d="M5.00684 15C4.06684 15 3.19684 15.33 2.50684 15.88C1.58684 16.61 1.00684 17.74 1.00684 19C1.00684 21.21 2.79684 23 5.00684 23C6.01684 23 6.93684 22.62 7.64684 22C8.47684 21.27 9.00684 20.2 9.00684 19C9.00684 16.79 7.21684 15 5.00684 15ZM6.00684 19.25C6.00684 19.51 5.86684 19.76 5.64684 19.89L4.39684 20.64C4.27684 20.71 4.14684 20.75 4.00684 20.75C3.75684 20.75 3.50684 20.62 3.36684 20.39C3.15684 20.03 3.26683 19.57 3.62683 19.36L4.51683 18.83V17.75C4.51683 17.34 4.85683 17 5.26683 17C5.67683 17 6.01683 17.34 6.01683 17.75V19.25H6.00684Z" fill="#292D32"/>
<path opacity="0.4" d="M19.4868 12.95H21.5068V11.51C21.5068 9.44001 19.8168 7.75 17.7468 7.75H6.26683C4.19683 7.75 2.50684 9.44001 2.50684 11.51V15.88C3.19684 15.33 4.06684 15 5.00684 15C7.21684 15 9.00684 16.79 9.00684 19C9.00684 19.75 8.79683 20.46 8.42683 21.06C8.21683 21.42 7.94684 21.74 7.63684 22H17.7468C19.8168 22 21.5068 20.31 21.5068 18.24V17.05H19.6068C18.5268 17.05 17.5368 16.26 17.4468 15.18C17.3868 14.55 17.6268 13.96 18.0468 13.55C18.4168 13.17 18.9268 12.95 19.4868 12.95Z" fill="#292D32"/>
<path d="M14.8568 3.95V7.74999H6.26683C4.19683 7.74999 2.50684 9.44 2.50684 11.51V7.84002C2.50684 6.65002 3.23683 5.58997 4.34683 5.16997L12.2868 2.16997C13.5268 1.70997 14.8568 2.62 14.8568 3.95Z" fill="#292D32"/>
<path d="M22.5669 13.9699V16.03C22.5669 16.58 22.1269 17.0299 21.5669 17.0499H19.6069C18.5269 17.0499 17.5369 16.2599 17.4469 15.1799C17.3869 14.5499 17.6269 13.9599 18.0469 13.5499C18.4169 13.1699 18.9269 12.95 19.4869 12.95H21.5669C22.1269 12.97 22.5669 13.4199 22.5669 13.9699Z" fill="#292D32"/>
<path d="M14.0068 12.75H7.00684C6.59684 12.75 6.25684 12.41 6.25684 12C6.25684 11.59 6.59684 11.25 7.00684 11.25H14.0068C14.4168 11.25 14.7568 11.59 14.7568 12C14.7568 12.41 14.4168 12.75 14.0068 12.75Z" fill="#292D32"/>
</svg>
