<svg width="24" height="24" viewBox="0 0 24 24" fill="none" xmlns="http://www.w3.org/2000/svg">
<path opacity="0.4" d="M21.3005 10.84C21.6905 10.84 22.0005 10.53 22.0005 10.14V9.20999C22.0005 5.10999 20.7505 3.85999 16.6505 3.85999H7.35049C3.25049 3.85999 2.00049 5.10999 2.00049 9.20999V9.67999C2.00049 10.07 2.31049 10.38 2.70049 10.38C3.60049 10.38 4.33049 11.11 4.33049 12.01C4.33049 12.91 3.60049 13.63 2.70049 13.63C2.31049 13.63 2.00049 13.94 2.00049 14.33V14.8C2.00049 18.9 3.25049 20.15 7.35049 20.15H16.6505C20.7505 20.15 22.0005 18.9 22.0005 14.8C22.0005 14.41 21.6905 14.1 21.3005 14.1C20.4005 14.1 19.6705 13.37 19.6705 12.47C19.6705 11.57 20.4005 10.84 21.3005 10.84Z" fill="#292D32"/>
<path d="M15.0005 15.88C14.4405 15.88 13.9905 15.43 13.9905 14.88C13.9905 14.33 14.4405 13.88 14.9905 13.88C15.5405 13.88 15.9905 14.33 15.9905 14.88C15.9905 15.43 15.5605 15.88 15.0005 15.88Z" fill="#292D32"/>
<path d="M9.00048 10.88C8.44048 10.88 7.99048 10.43 7.99048 9.88C7.99048 9.33 8.44048 8.88 8.99048 8.88C9.54048 8.88 9.99048 9.33 9.99048 9.88C9.99048 10.43 9.56048 10.88 9.00048 10.88Z" fill="#292D32"/>
<path d="M8.63056 16.43C8.44056 16.43 8.25056 16.36 8.10056 16.21C7.81056 15.92 7.81056 15.44 8.10056 15.15L14.8306 8.42001C15.1206 8.13001 15.6006 8.13001 15.8906 8.42001C16.1806 8.71001 16.1806 9.19001 15.8906 9.48001L9.16056 16.21C9.02056 16.36 8.82056 16.43 8.63056 16.43Z" fill="#292D32"/>
</svg>
