<svg width="24" height="24" viewBox="0 0 24 24" fill="none" xmlns="http://www.w3.org/2000/svg">
<path d="M17.0049 20.5H7.00488C4.00488 20.5 2.00488 19 2.00488 15.5V8.5C2.00488 5 4.00488 3.5 7.00488 3.5H17.0049C20.0049 3.5 22.0049 5 22.0049 8.5V15.5C22.0049 19 20.0049 20.5 17.0049 20.5Z" stroke="#292D32" stroke-width="1.5" stroke-miterlimit="10" stroke-linecap="round" stroke-linejoin="round"/>
<path d="M12.0049 15C13.6617 15 15.0049 13.6569 15.0049 12C15.0049 10.3431 13.6617 9 12.0049 9C10.348 9 9.00488 10.3431 9.00488 12C9.00488 13.6569 10.348 15 12.0049 15Z" stroke="#292D32" stroke-width="1.5" stroke-miterlimit="10" stroke-linecap="round" stroke-linejoin="round"/>
<path d="M19.0049 7H16.0049" stroke="#292D32" stroke-width="1.5" stroke-miterlimit="10" stroke-linecap="round" stroke-linejoin="round"/>
<path d="M8.00488 17H5.00488" stroke="#292D32" stroke-width="1.5" stroke-miterlimit="10" stroke-linecap="round" stroke-linejoin="round"/>
</svg>
