<svg width="25" height="24" viewBox="0 0 25 24" fill="none" xmlns="http://www.w3.org/2000/svg">
<path d="M9.01196 2H15.012C20.012 2 22.012 4 22.012 9V15C22.012 20 20.012 22 15.012 22H9.01196C4.01196 22 2.01196 20 2.01196 15V9C2.01196 4 4.01196 2 9.01196 2Z" stroke="#292D32" stroke-width="1.5" stroke-linecap="round" stroke-linejoin="round"/>
<path opacity="0.4" d="M8.33179 15.27L14.8718 8.72998" stroke="#292D32" stroke-width="1.5" stroke-linecap="round" stroke-linejoin="round"/>
<path opacity="0.4" d="M8.74197 10.37C9.42128 10.37 9.97195 9.81936 9.97195 9.14005C9.97195 8.46073 9.42128 7.91003 8.74197 7.91003C8.06266 7.91003 7.51196 8.46073 7.51196 9.14005C7.51196 9.81936 8.06266 10.37 8.74197 10.37Z" stroke="#292D32" stroke-width="1.5" stroke-linecap="round" stroke-linejoin="round"/>
<path opacity="0.4" d="M15.282 16.09C15.9613 16.09 16.512 15.5393 16.512 14.86C16.512 14.1807 15.9613 13.63 15.282 13.63C14.6027 13.63 14.052 14.1807 14.052 14.86C14.052 15.5393 14.6027 16.09 15.282 16.09Z" stroke="#292D32" stroke-width="1.5" stroke-linecap="round" stroke-linejoin="round"/>
</svg>
