<svg width="24" height="24" viewBox="0 0 24 24" fill="none" xmlns="http://www.w3.org/2000/svg">
<path opacity="0.4" d="M9.99049 17.98C14.4032 17.98 17.9805 14.4028 17.9805 9.99C17.9805 5.57724 14.4032 2 9.99049 2C5.57773 2 2.00049 5.57724 2.00049 9.99C2.00049 14.4028 5.57773 17.98 9.99049 17.98Z" fill="#292D32"/>
<path d="M21.9706 15.99C21.9706 19.29 19.2906 21.97 15.9906 21.97C13.9506 21.97 12.1606 20.95 11.0806 19.4C15.4406 18.91 18.9106 15.44 19.4006 11.08C20.9506 12.16 21.9706 13.95 21.9706 15.99Z" fill="#292D32"/>
<path d="M11.4505 9.71003L9.05049 8.87003C8.81049 8.79003 8.76049 8.77003 8.76049 8.42003C8.76049 8.16003 8.94049 7.95003 9.17049 7.95003H10.6705C10.9905 7.95003 11.2505 8.24003 11.2505 8.60003C11.2505 9.01003 11.5905 9.35003 12.0005 9.35003C12.4105 9.35003 12.7505 9.01003 12.7505 8.60003C12.7505 7.45003 11.8605 6.51003 10.7505 6.46003V6.41003C10.7505 6.00003 10.4105 5.66003 10.0005 5.66003C9.59049 5.66003 9.25049 5.99003 9.25049 6.41003V6.46003H9.16049C8.11049 6.46003 7.25049 7.34003 7.25049 8.43003C7.25049 9.38003 7.67049 9.99003 8.54049 10.29L10.9505 11.13C11.1905 11.21 11.2405 11.23 11.2405 11.58C11.2405 11.84 11.0605 12.05 10.8305 12.05H9.33049C9.01049 12.05 8.75049 11.76 8.75049 11.4C8.75049 10.99 8.41049 10.65 8.00049 10.65C7.59049 10.65 7.25049 10.99 7.25049 11.4C7.25049 12.55 8.14049 13.49 9.25049 13.54V13.6C9.25049 14.01 9.59049 14.35 10.0005 14.35C10.4105 14.35 10.7505 14.01 10.7505 13.6V13.55H10.8405C11.8905 13.55 12.7505 12.67 12.7505 11.58C12.7505 10.63 12.3205 10.02 11.4505 9.71003Z" fill="#292D32"/>
</svg>
