<svg width="24" height="24" viewBox="0 0 24 24" fill="none" xmlns="http://www.w3.org/2000/svg">
<path d="M21.502 12.5H19.002C17.902 12.5 17.002 13.4 17.002 14.5C17.002 15.6 17.902 16.5 19.002 16.5H21.502C21.782 16.5 22.002 16.28 22.002 16V13C22.002 12.72 21.782 12.5 21.502 12.5Z" fill="#292D32"/>
<path d="M5.00195 15C3.80195 15 2.73195 15.53 2.00195 16.36C1.38195 17.07 1.00195 17.99 1.00195 19C1.00195 19.75 1.21195 20.46 1.58195 21.06C2.27195 22.22 3.54195 23 5.00195 23C6.01195 23 6.93195 22.63 7.63195 22C7.94195 21.74 8.21195 21.42 8.42195 21.06C8.79195 20.46 9.00195 19.75 9.00195 19C9.00195 16.79 7.21195 15 5.00195 15ZM6.60195 20.58C6.45195 20.73 6.26195 20.8 6.07195 20.8C5.88195 20.8 5.69195 20.73 5.54195 20.58L5.01195 20.05L4.46195 20.6C4.31195 20.75 4.12195 20.82 3.93195 20.82C3.74195 20.82 3.55195 20.75 3.40195 20.6C3.11195 20.31 3.11195 19.83 3.40195 19.54L3.95195 18.99L3.42195 18.46C3.13195 18.17 3.13195 17.69 3.42195 17.4C3.71195 17.11 4.19195 17.11 4.48195 17.4L5.01195 17.93L5.51195 17.43C5.80195 17.14 6.28195 17.14 6.57195 17.43C6.86195 17.72 6.86195 18.2 6.57195 18.49L6.07195 18.99L6.60195 19.52C6.89195 19.81 6.89195 20.28 6.60195 20.58Z" fill="#292D32"/>
<path d="M16.5322 5.40003C16.8322 5.69003 16.5822 6.14003 16.1622 6.14003L7.88216 6.13003C7.40216 6.13003 7.16216 5.55003 7.50216 5.21003L9.25216 3.45003C10.7322 1.98003 13.1222 1.98003 14.6022 3.45003L16.4922 5.36003C16.5022 5.37003 16.5222 5.39003 16.5322 5.40003Z" fill="#292D32"/>
<path d="M21.8718 18.66C21.2618 20.72 19.5018 22 17.1018 22H10.6018C10.2118 22 9.96182 21.57 10.1218 21.21C10.4218 20.51 10.6118 19.72 10.6118 19C10.6118 15.97 8.14182 13.5 5.11182 13.5C4.35182 13.5 3.61182 13.66 2.93182 13.96C2.56182 14.12 2.11182 13.87 2.11182 13.47V12C2.11182 9.28 3.75182 7.38 6.30182 7.06C6.55182 7.02 6.82182 7 7.10182 7H17.1018C17.3618 7 17.6118 7.01 17.8518 7.05C19.8718 7.28 21.3318 8.51 21.8718 10.34C21.9718 10.67 21.7318 11 21.3918 11H19.1018C16.9318 11 15.2118 12.98 15.6818 15.23C16.0118 16.87 17.5318 18 19.2018 18H21.3918C21.7418 18 21.9718 18.34 21.8718 18.66Z" fill="#292D32"/>
</svg>
