<svg width="24" height="24" viewBox="0 0 24 24" fill="none" xmlns="http://www.w3.org/2000/svg">
<path d="M21.7004 6.39001H14.4304C14.0204 6.39001 13.6804 6.05001 13.6804 5.64001C13.6804 5.23001 14.0204 4.89001 14.4304 4.89001H21.7004C22.1104 4.89001 22.4504 5.23001 22.4504 5.64001C22.4504 6.05001 22.1104 6.39001 21.7004 6.39001Z" fill="#292D32"/>
<path d="M9.58054 6.39001H2.30054C1.89054 6.39001 1.55054 6.05001 1.55054 5.64001C1.55054 5.23001 1.89054 4.89001 2.30054 4.89001H9.57054C9.98054 4.89001 10.3205 5.23001 10.3205 5.64001C10.3205 6.05001 9.99054 6.39001 9.58054 6.39001Z" fill="#292D32"/>
<path d="M21.7004 16.08H14.4304C14.0204 16.08 13.6804 15.74 13.6804 15.33C13.6804 14.92 14.0204 14.58 14.4304 14.58H21.7004C22.1104 14.58 22.4504 14.92 22.4504 15.33C22.4504 15.74 22.1104 16.08 21.7004 16.08Z" fill="#292D32"/>
<path d="M21.7004 22.14H14.4304C14.0204 22.14 13.6804 21.8 13.6804 21.39C13.6804 20.98 14.0204 20.64 14.4304 20.64H21.7004C22.1104 20.64 22.4504 20.98 22.4504 21.39C22.4504 21.8 22.1104 22.14 21.7004 22.14Z" fill="#292D32"/>
<path d="M18.0906 10.02C17.6806 10.02 17.3406 9.68 17.3406 9.27V2C17.3406 1.59 17.6806 1.25 18.0906 1.25C18.5006 1.25 18.8406 1.59 18.8406 2V9.27C18.8406 9.69 18.5106 10.02 18.0906 10.02Z" fill="#292D32"/>
<path d="M2.30048 22.75C2.11048 22.75 1.92048 22.68 1.77048 22.53C1.48048 22.24 1.48048 21.76 1.77048 21.47L9.04048 14.2C9.33048 13.91 9.81048 13.91 10.1005 14.2C10.3905 14.49 10.3905 14.97 10.1005 15.26L2.83048 22.53C2.69048 22.68 2.50048 22.75 2.30048 22.75Z" fill="#292D32"/>
<path d="M9.58049 22.75C9.39049 22.75 9.20049 22.68 9.05049 22.53L1.78049 15.26C1.49049 14.97 1.49049 14.49 1.78049 14.2C2.07049 13.91 2.55049 13.91 2.84049 14.2L10.1105 21.47C10.4005 21.76 10.4005 22.24 10.1105 22.53C9.96049 22.68 9.77049 22.75 9.58049 22.75Z" fill="#292D32"/>
</svg>
