<svg width="25" height="24" viewBox="0 0 25 24" fill="none" xmlns="http://www.w3.org/2000/svg">
<path opacity="0.4" d="M12.0134 22C17.5363 22 22.0134 17.5228 22.0134 12C22.0134 6.47715 17.5363 2 12.0134 2C6.49058 2 2.01343 6.47715 2.01343 12C2.01343 17.5228 6.49058 22 12.0134 22Z" fill="#292D32"/>
<path d="M8.33344 16.02C8.14344 16.02 7.95344 15.95 7.80344 15.8C7.51344 15.51 7.51344 15.03 7.80344 14.74L14.3534 8.19003C14.6434 7.90003 15.1234 7.90003 15.4134 8.19003C15.7034 8.48003 15.7034 8.96003 15.4134 9.25003L8.86344 15.8C8.71344 15.95 8.52344 16.02 8.33344 16.02Z" fill="#292D32"/>
<path d="M8.74344 7.66003C7.93344 7.66003 7.26343 8.32005 7.26343 9.14005C7.26343 9.95005 7.92344 10.62 8.74344 10.62C9.55344 10.62 10.2234 9.96005 10.2234 9.14005C10.2134 8.32005 9.55344 7.66003 8.74344 7.66003Z" fill="#292D32"/>
<path d="M15.2834 13.39C14.4734 13.39 13.8035 14.05 13.8035 14.87C13.8035 15.68 14.4634 16.35 15.2834 16.35C16.0934 16.35 16.7635 15.69 16.7635 14.87C16.7635 14.05 16.1034 13.39 15.2834 13.39Z" fill="#292D32"/>
</svg>
