<svg width="24" height="24" viewBox="0 0 24 24" fill="none" xmlns="http://www.w3.org/2000/svg">
<path d="M2.00195 12.53V15.5C2.00195 19 4.00195 20.5 7.00195 20.5H17.002C20.002 20.5 22.002 19 22.002 15.5V8.5C22.002 5 20.002 3.5 17.002 3.5H7.00195C4.00195 3.5 2.00195 5 2.00195 8.5V9H3.00195C6.00195 9 7.00195 8 7.00195 5V4" stroke="#292D32" stroke-width="1.5" stroke-miterlimit="10" stroke-linecap="round" stroke-linejoin="round"/>
<path d="M15.002 12C15.002 10.34 13.662 9 12.002 9C10.342 9 9.00195 10.34 9.00195 12C9.00195 13.66 10.342 15 12.002 15" stroke="#292D32" stroke-width="1.5" stroke-miterlimit="10" stroke-linecap="round" stroke-linejoin="round"/>
<path d="M22.002 9H21.002C18.002 9 17.002 8 17.002 5V4" stroke="#292D32" stroke-width="1.5" stroke-miterlimit="10" stroke-linecap="round" stroke-linejoin="round"/>
<path d="M2.00195 15H3.00195C6.00195 15 7.00195 16 7.00195 19V20" stroke="#292D32" stroke-width="1.5" stroke-miterlimit="10" stroke-linecap="round" stroke-linejoin="round"/>
<path d="M22.002 15H21.002C18.002 15 17.002 16 17.002 19V20" stroke="#292D32" stroke-width="1.5" stroke-miterlimit="10" stroke-linecap="round" stroke-linejoin="round"/>
</svg>
