<svg width="25" height="24" viewBox="0 0 25 24" fill="none" xmlns="http://www.w3.org/2000/svg">
<path d="M9.01196 2H15.012C20.012 2 22.012 4 22.012 9V15C22.012 20 20.012 22 15.012 22H9.01196C4.01196 22 2.01196 20 2.01196 15V9C2.01196 4 4.01196 2 9.01196 2Z" stroke="#292D32" stroke-width="1.5" stroke-linecap="round" stroke-linejoin="round"/>
<path d="M8.58203 15.27L15.122 8.72998" stroke="#292D32" stroke-width="1.5" stroke-linecap="round" stroke-linejoin="round"/>
<path d="M8.99197 10.37C9.67128 10.37 10.222 9.81936 10.222 9.14005C10.222 8.46073 9.67128 7.91003 8.99197 7.91003C8.31266 7.91003 7.76196 8.46073 7.76196 9.14005C7.76196 9.81936 8.31266 10.37 8.99197 10.37Z" stroke="#292D32" stroke-width="1.5" stroke-linecap="round" stroke-linejoin="round"/>
<path d="M15.532 16.09C16.2113 16.09 16.762 15.5393 16.762 14.86C16.762 14.1807 16.2113 13.63 15.532 13.63C14.8527 13.63 14.302 14.1807 14.302 14.86C14.302 15.5393 14.8527 16.09 15.532 16.09Z" stroke="#292D32" stroke-width="1.5" stroke-linecap="round" stroke-linejoin="round"/>
</svg>
