<svg width="24" height="24" viewBox="0 0 24 24" fill="none" xmlns="http://www.w3.org/2000/svg">
<path d="M16.6906 22.75H7.31061C3.14061 22.75 1.87061 21.48 1.87061 17.31V16.85C1.87061 16.44 2.21061 16.1 2.62061 16.1C3.50061 16.1 4.22061 15.38 4.22061 14.5C4.22061 13.62 3.50061 12.9 2.62061 12.9C2.21061 12.9 1.87061 12.56 1.87061 12.15V11.69C1.87061 7.52 3.14061 6.25 7.31061 6.25H16.6906C20.8606 6.25 22.1306 7.52 22.1306 11.69V12.63C22.1306 13.04 21.7906 13.38 21.3806 13.38C20.5006 13.38 19.7806 14.1 19.7806 14.98C19.7806 15.86 20.5006 16.57 21.3806 16.57C21.7906 16.57 22.1306 16.91 22.1306 17.32C22.1206 21.48 20.8506 22.75 16.6906 22.75ZM3.38061 17.51C3.40061 20.69 4.03061 21.25 7.32061 21.25H16.7006C19.8206 21.25 20.5406 20.74 20.6306 17.97C19.2906 17.63 18.2906 16.42 18.2906 14.97C18.2906 13.52 19.2906 12.3 20.6406 11.96V11.68C20.6406 8.33 20.0506 7.74 16.7006 7.74H7.31061C4.03061 7.74 3.40061 8.31 3.37061 11.48C4.72061 11.82 5.72061 13.04 5.72061 14.49C5.72061 15.94 4.72061 17.17 3.38061 17.51Z" fill="#292D32"/>
<path d="M10.0005 10.25C9.59049 10.25 9.25049 9.91 9.25049 9.5V7C9.25049 6.59 9.59049 6.25 10.0005 6.25C10.4105 6.25 10.7505 6.59 10.7505 7V9.5C10.7505 9.91 10.4105 10.25 10.0005 10.25Z" fill="#292D32"/>
<path d="M10.0005 16.92C9.59049 16.92 9.25049 16.58 9.25049 16.17V12.84C9.25049 12.43 9.59049 12.09 10.0005 12.09C10.4105 12.09 10.7505 12.43 10.7505 12.84V16.17C10.7505 16.58 10.4105 16.92 10.0005 16.92Z" fill="#292D32"/>
<path d="M10.0005 22.75C9.59049 22.75 9.25049 22.41 9.25049 22V19.5C9.25049 19.09 9.59049 18.75 10.0005 18.75C10.4105 18.75 10.7505 19.09 10.7505 19.5V22C10.7505 22.41 10.4105 22.75 10.0005 22.75Z" fill="#292D32"/>
<path d="M16.3304 7.75001H7.24042C6.94042 7.75001 6.66042 7.57001 6.55042 7.29001C6.44042 7.01001 6.50042 6.68001 6.71042 6.47001L9.64042 3.54001C12.3404 0.840015 13.9904 0.840015 16.6804 3.54001L17.2804 4.14001C17.4204 4.28001 17.5004 4.47001 17.5004 4.67001C17.5004 4.87001 17.4204 5.06001 17.2804 5.20001C16.8804 5.60001 16.7704 6.19001 17.0004 6.70001C17.1104 6.93001 17.0904 7.20002 16.9504 7.42001C16.8204 7.62001 16.5804 7.75001 16.3304 7.75001ZM9.05042 6.25001H15.3804C15.3604 5.72001 15.4904 5.19001 15.7604 4.73001L15.6304 4.60001C13.5404 2.51001 12.8004 2.51001 10.7104 4.60001L9.05042 6.25001Z" fill="#292D32"/>
</svg>
