<svg width="24" height="24" viewBox="0 0 24 24" fill="none" xmlns="http://www.w3.org/2000/svg">
<path d="M5.00195 14C2.79195 14 1.00195 15.79 1.00195 18C1.00195 20.21 2.79195 22 5.00195 22C7.21195 22 9.00195 20.21 9.00195 18C9.00195 15.79 7.21195 14 5.00195 14ZM6.00195 17.68C6.00195 18.29 5.67195 18.87 5.15195 19.18L4.39195 19.64C4.27195 19.72 4.13195 19.75 4.00195 19.75C3.75195 19.75 3.50195 19.62 3.36195 19.39C3.15195 19.04 3.26195 18.57 3.62195 18.36L4.38195 17.9C4.45195 17.86 4.50195 17.77 4.50195 17.69V16.76C4.50195 16.34 4.84195 16 5.25195 16C5.66195 16 6.00195 16.34 6.00195 16.75V17.68Z" fill="#292D32"/>
<path d="M17.002 4H7.00195C4.00195 4 2.00195 5.5 2.00195 9V12.56C2.00195 12.93 2.38195 13.16 2.71195 13.01C3.69195 12.56 4.82195 12.39 6.01195 12.6C8.64195 13.07 10.572 15.51 10.502 18.18C10.492 18.6 10.432 19.01 10.322 19.41C10.242 19.72 10.492 20.01 10.812 20.01H17.002C20.002 20.01 22.002 18.51 22.002 15.01V9C22.002 5.5 20.002 4 17.002 4ZM12.002 14.5C10.622 14.5 9.50195 13.38 9.50195 12C9.50195 10.62 10.622 9.5 12.002 9.5C13.382 9.5 14.502 10.62 14.502 12C14.502 13.38 13.382 14.5 12.002 14.5ZM19.252 14C19.252 14.41 18.912 14.75 18.502 14.75C18.092 14.75 17.752 14.41 17.752 14V10C17.752 9.59 18.092 9.25 18.502 9.25C18.912 9.25 19.252 9.59 19.252 10V14Z" fill="#292D32"/>
</svg>
