<svg width="25" height="24" viewBox="0 0 25 24" fill="none" xmlns="http://www.w3.org/2000/svg">
<path opacity="0.4" d="M16.2017 2H7.83173C4.19173 2 2.02173 4.17 2.02173 7.81V16.18C2.02173 19.82 4.19173 21.99 7.83173 21.99H16.2017C19.8417 21.99 22.0117 19.82 22.0117 16.18V7.81C22.0117 4.17 19.8417 2 16.2017 2Z" fill="#292D32"/>
<path d="M8.83173 16.02C8.64173 16.02 8.45173 15.95 8.30173 15.8C8.01173 15.51 8.01173 15.03 8.30173 14.74L14.8517 8.19003C15.1417 7.90003 15.6217 7.90003 15.9117 8.19003C16.2017 8.48003 16.2017 8.96003 15.9117 9.25003L9.36173 15.8C9.21173 15.95 9.02173 16.02 8.83173 16.02Z" fill="#292D32"/>
<path d="M9.24173 7.66003C8.43173 7.66003 7.76172 8.32005 7.76172 9.14005C7.76172 9.95005 8.42173 10.62 9.24173 10.62C10.0517 10.62 10.7217 9.96005 10.7217 9.14005C10.7117 8.32005 10.0517 7.66003 9.24173 7.66003Z" fill="#292D32"/>
<path d="M15.7817 13.39C14.9717 13.39 14.3018 14.05 14.3018 14.87C14.3018 15.68 14.9617 16.35 15.7817 16.35C16.5917 16.35 17.2617 15.69 17.2617 14.87C17.2617 14.05 16.6017 13.39 15.7817 13.39Z" fill="#292D32"/>
</svg>
