<svg width="24" height="24" viewBox="0 0 24 24" fill="none" xmlns="http://www.w3.org/2000/svg">
<path d="M5.00195 15C4.06195 15 3.19195 15.33 2.50195 15.88C1.58195 16.61 1.00195 17.74 1.00195 19C1.00195 19.75 1.21195 20.46 1.58195 21.06C2.27195 22.22 3.54195 23 5.00195 23C6.01195 23 6.93195 22.63 7.63195 22C7.94195 21.74 8.21195 21.42 8.42195 21.06C8.79195 20.46 9.00195 19.75 9.00195 19C9.00195 16.79 7.21195 15 5.00195 15ZM7.07195 18.57L4.94195 20.54C4.80195 20.67 4.61195 20.74 4.43195 20.74C4.24195 20.74 4.05195 20.67 3.90195 20.52L2.91195 19.53C2.62195 19.24 2.62195 18.76 2.91195 18.47C3.20195 18.18 3.68195 18.18 3.97195 18.47L4.45195 18.95L6.05195 17.47C6.35195 17.19 6.83195 17.21 7.11195 17.51C7.39195 17.81 7.37195 18.29 7.07195 18.57Z" fill="#292D32"/>
<path d="M14.852 3.94999V7.74999H13.352V3.94999C13.352 3.67999 13.112 3.54999 12.952 3.54999C12.902 3.54999 12.852 3.55999 12.802 3.57999L4.87195 6.56999C4.34195 6.76999 4.00195 7.26999 4.00195 7.83999V8.50999C3.09195 9.18999 2.50195 10.28 2.50195 11.51V7.83999C2.50195 6.64999 3.23195 5.58999 4.34195 5.16999L12.282 2.16999C12.502 2.08999 12.732 2.04999 12.952 2.04999C13.952 2.04999 14.852 2.85999 14.852 3.94999Z" fill="#292D32"/>
<path d="M21.5021 14.5V15.5C21.5021 15.77 21.2921 15.99 21.0121 16H19.5521C19.0221 16 18.5421 15.61 18.5021 15.09C18.4721 14.78 18.5921 14.49 18.7921 14.29C18.9721 14.1 19.2221 14 19.4921 14H21.0021C21.2921 14.01 21.5021 14.23 21.5021 14.5Z" fill="#292D32"/>
<path d="M19.482 12.95H20.502C21.052 12.95 21.502 12.5 21.502 11.95V11.51C21.502 9.44 19.812 7.75 17.742 7.75H6.26195C5.41195 7.75 4.63195 8.03 4.00195 8.51C3.09195 9.19 2.50195 10.28 2.50195 11.51V13.29C2.50195 13.67 2.90195 13.91 3.26195 13.79C3.82195 13.6 4.41195 13.5 5.00195 13.5C8.03195 13.5 10.502 15.97 10.502 19C10.502 19.72 10.312 20.51 10.012 21.21C9.85195 21.57 10.102 22 10.492 22H17.742C19.812 22 21.502 20.31 21.502 18.24V18.05C21.502 17.5 21.052 17.05 20.502 17.05H19.632C18.672 17.05 17.752 16.46 17.502 15.53C17.302 14.77 17.542 14.03 18.042 13.55C18.412 13.17 18.922 12.95 19.482 12.95ZM14.002 12.75H9.00195C8.59195 12.75 8.25195 12.41 8.25195 12C8.25195 11.59 8.59195 11.25 9.00195 11.25H14.002C14.412 11.25 14.752 11.59 14.752 12C14.752 12.41 14.412 12.75 14.002 12.75Z" fill="#292D32"/>
</svg>
