<svg width="24" height="24" viewBox="0 0 24 24" fill="none" xmlns="http://www.w3.org/2000/svg">
<path d="M8.67041 14.33C8.67041 15.62 9.66041 16.66 10.8904 16.66H13.4004C14.4704 16.66 15.3404 15.75 15.3404 14.63C15.3404 13.41 14.8104 12.98 14.0204 12.7L9.99041 11.3C9.20041 11.02 8.67041 10.59 8.67041 9.36997C8.67041 8.24997 9.54041 7.33997 10.6104 7.33997H13.1204C14.3504 7.33997 15.3404 8.37997 15.3404 9.66997" stroke="#292D32" stroke-width="1.5" stroke-linecap="round" stroke-linejoin="round"/>
<path d="M12.0005 6V18" stroke="#292D32" stroke-width="1.5" stroke-linecap="round" stroke-linejoin="round"/>
<path d="M2.00049 9C2.00049 4 4.00049 2 9.00049 2H15.0005C20.0005 2 22.0005 4 22.0005 9V15C22.0005 20 20.0005 22 15.0005 22H9.00049C4.00049 22 2.00049 20 2.00049 15V13.03" stroke="#292D32" stroke-width="1.5" stroke-linecap="round" stroke-linejoin="round"/>
</svg>
