<svg width="24" height="24" viewBox="0 0 24 24" fill="none" xmlns="http://www.w3.org/2000/svg">
<path d="M5.20067 10.46C5.01067 10.46 4.81067 10.38 4.67067 10.24C4.46067 10.02 4.39067 9.7 4.51067 9.42L6.37067 4.98C6.41067 4.89 6.43067 4.83 6.46067 4.78C7.94067 1.37 9.83067 0.539999 13.1707 1.82C13.3607 1.89 13.5107 2.04 13.5907 2.23C13.6707 2.42 13.6707 2.63 13.5907 2.82L10.6607 9.62C10.5407 9.9 10.2707 10.07 9.97067 10.07H7.12067C6.55067 10.07 6.01067 10.18 5.49067 10.4C5.40067 10.44 5.30067 10.46 5.20067 10.46ZM10.6107 2.75C9.37067 2.75 8.61067 3.56 7.82067 5.4C7.81067 5.43 7.79067 5.46 7.78067 5.49L6.47067 8.6C6.69067 8.58 6.90067 8.57 7.12067 8.57H9.47067L11.8807 2.97C11.4107 2.82 10.9907 2.75 10.6107 2.75Z" fill="#292D32"/>
<path d="M18.2907 10.27C18.2207 10.27 18.1407 10.26 18.0707 10.24C17.6907 10.13 17.2907 10.07 16.8707 10.07H9.97072C9.72072 10.07 9.48072 9.93999 9.34072 9.72999C9.21072 9.51999 9.18072 9.24999 9.28072 9.01999L12.1807 2.28999C12.3307 1.92999 12.7707 1.67999 13.1407 1.80999C13.2607 1.84999 13.3707 1.89999 13.4907 1.94999L15.8507 2.93999C17.2307 3.50999 18.1507 4.10999 18.7507 4.82999C18.8707 4.96999 18.9707 5.11999 19.0707 5.27999C19.1807 5.44999 19.2807 5.64999 19.3507 5.85999C19.3807 5.92999 19.4307 6.05999 19.4607 6.19999C19.7407 7.14999 19.6007 8.30999 19.0007 9.80999C18.8707 10.09 18.5907 10.27 18.2907 10.27ZM11.1107 8.56999H16.8807C17.2007 8.56999 17.5107 8.59999 17.8207 8.64999C18.1007 7.77999 18.1607 7.10999 18.0007 6.56999C17.9807 6.47999 17.9607 6.43999 17.9507 6.39999C17.8907 6.23999 17.8507 6.14999 17.8007 6.06999C17.7307 5.95999 17.6807 5.86999 17.6007 5.77999C17.1707 5.25999 16.4107 4.77999 15.2707 4.30999L13.3007 3.48999L11.1107 8.56999Z" fill="#292D32"/>
<path d="M15.9005 22.7499H8.10049C7.82049 22.7499 7.56049 22.7299 7.30049 22.6999C3.79049 22.4699 1.79049 20.4599 1.55049 16.9099C1.52049 16.6899 1.50049 16.4199 1.50049 16.1499V14.1999C1.50049 11.9499 2.84049 9.91995 4.91049 9.01995C5.62049 8.71995 6.36049 8.56995 7.13049 8.56995H16.8905C17.4605 8.56995 18.0105 8.64995 18.5205 8.80995C20.8705 9.51995 22.5205 11.7399 22.5205 14.1999V16.1499C22.5205 16.3699 22.5105 16.5799 22.5005 16.7799C22.2805 20.6899 20.0005 22.7499 15.9005 22.7499ZM7.12049 10.0699C6.55049 10.0699 6.01049 10.1799 5.49049 10.3999C3.97049 11.0599 2.99049 12.5499 2.99049 14.1999V16.1499C2.99049 16.3599 3.01049 16.5699 3.03049 16.7699C3.22049 19.6199 4.62049 21.0199 7.43049 21.2099C7.68049 21.2399 7.88049 21.2599 8.09049 21.2599H15.8905C19.1905 21.2599 20.8105 19.8099 20.9705 16.7099C20.9805 16.5299 20.9905 16.3499 20.9905 16.1499V14.1999C20.9905 12.3899 19.7805 10.7699 18.0605 10.2399C17.6805 10.1299 17.2805 10.0699 16.8605 10.0699H7.12049Z" fill="#292D32"/>
<path d="M2.24072 14.95C1.83072 14.95 1.49072 14.61 1.49072 14.2V11.27C1.49072 8.12005 3.72072 5.40005 6.80072 4.80005C7.07072 4.75005 7.35072 4.85004 7.53072 5.06004C7.70072 5.27004 7.75072 5.57005 7.64072 5.82005L5.89072 10C5.81072 10.18 5.67072 10.32 5.50072 10.4C3.98072 11.06 3.00072 12.55 3.00072 14.2C2.99072 14.61 2.66072 14.95 2.24072 14.95ZM5.60072 6.82005C4.32072 7.54005 3.39072 8.80005 3.10072 10.27C3.54072 9.82005 4.05072 9.44004 4.63072 9.16004L5.60072 6.82005Z" fill="#292D32"/>
<path d="M21.7606 14.95C21.3506 14.95 21.0106 14.61 21.0106 14.2C21.0106 12.39 19.8006 10.77 18.0806 10.24C17.8806 10.18 17.7106 10.04 17.6206 9.85002C17.5306 9.66002 17.5206 9.44002 17.6006 9.25002C18.0706 8.08002 18.1906 7.23002 18.0006 6.57002C17.9806 6.48002 17.9606 6.44002 17.9506 6.40002C17.8206 6.11002 17.8906 5.77002 18.1206 5.55002C18.3506 5.33002 18.7006 5.28002 18.9806 5.43002C21.1606 6.57002 22.5106 8.81002 22.5106 11.27V14.2C22.5106 14.61 22.1706 14.95 21.7606 14.95ZM19.2506 9.09002C19.8806 9.38002 20.4406 9.79002 20.9106 10.28C20.7206 9.30002 20.2506 8.41002 19.5606 7.71002C19.5106 8.13002 19.4106 8.59002 19.2506 9.09002Z" fill="#292D32"/>
</svg>
