<svg width="24" height="24" viewBox="0 0 24 24" fill="none" xmlns="http://www.w3.org/2000/svg">
<path opacity="0.4" d="M4.17038 15.3L8.70038 19.83C10.5604 21.6901 13.5804 21.6901 15.4504 19.83L19.8404 15.44C21.7004 13.58 21.7004 10.56 19.8404 8.69005L15.3004 4.17005C14.3504 3.22005 13.0404 2.71005 11.7004 2.78005L6.70038 3.02005C4.70038 3.11005 3.11038 4.70005 3.01038 6.69005L2.77038 11.69C2.71038 13.04 3.22038 14.35 4.17038 15.3Z" fill="#292D32"/>
<path d="M9.50061 12.38C11.0912 12.38 12.3806 11.0906 12.3806 9.5C12.3806 7.90942 11.0912 6.62 9.50061 6.62C7.91003 6.62 6.62061 7.90942 6.62061 9.5C6.62061 11.0906 7.91003 12.38 9.50061 12.38Z" fill="#292D32"/>
<path d="M13.0004 17.7499C12.8104 17.7499 12.6204 17.6799 12.4704 17.5299C12.1804 17.2399 12.1804 16.7599 12.4704 16.4699L16.4704 12.4699C16.7604 12.1799 17.2404 12.1799 17.5304 12.4699C17.8204 12.7599 17.8204 13.2399 17.5304 13.5299L13.5304 17.5299C13.3804 17.6799 13.1904 17.7499 13.0004 17.7499Z" fill="#292D32"/>
</svg>
