<svg width="24" height="24" viewBox="0 0 24 24" fill="none" xmlns="http://www.w3.org/2000/svg">
<path d="M14.5005 16H9.50049" stroke="#292D32" stroke-width="1.5" stroke-miterlimit="10" stroke-linecap="round" stroke-linejoin="round"/>
<path d="M12.9004 2.51997L12.8704 2.58997L9.97044 9.31997H7.12044C6.44044 9.31997 5.79044 9.45997 5.20044 9.70997L6.95044 5.52997L6.99044 5.42997L7.06044 5.26997C7.08044 5.20997 7.10044 5.14997 7.13044 5.09997C8.44044 2.06997 9.92044 1.37997 12.9004 2.51997Z" stroke="#292D32" stroke-width="1.5" stroke-linecap="round" stroke-linejoin="round"/>
<path d="M18.2905 9.52002C17.8405 9.38002 17.3605 9.32002 16.8805 9.32002H9.97046L12.8705 2.59002L12.9005 2.52002C13.0505 2.57002 13.1905 2.64002 13.3405 2.70002L15.5505 3.63002C16.7805 4.14002 17.6405 4.67002 18.1605 5.31002C18.2605 5.43002 18.3405 5.54002 18.4105 5.67002C18.5005 5.81002 18.5705 5.95002 18.6105 6.10002C18.6505 6.19002 18.6805 6.28002 18.7005 6.36002C18.9705 7.20002 18.8105 8.23002 18.2905 9.52002Z" stroke="#292D32" stroke-width="1.5" stroke-linecap="round" stroke-linejoin="round"/>
<path d="M12.0005 21.9999H8.10049C7.86049 21.9999 7.62049 21.9799 7.39049 21.9499C4.21049 21.7399 2.51049 20.0399 2.30049 16.8599C2.27049 16.6299 2.25049 16.3899 2.25049 16.1499V14.1999C2.25049 12.1899 3.47049 10.4599 5.21049 9.70995C5.81049 9.45995 6.45049 9.31995 7.13049 9.31995H16.8905C17.3805 9.31995 17.8605 9.38995 18.3005 9.51995C20.3005 10.1199 21.7605 11.9899 21.7605 14.1899V16.1399C21.7605 16.3399 21.7505 16.5399 21.7405 16.7399C21.5505 20.2399 19.6005 21.9999 15.9005 21.9999" stroke="#292D32" stroke-width="1.5" stroke-linecap="round" stroke-linejoin="round"/>
<path d="M6.95048 5.53003L5.20048 9.71003C3.46048 10.46 2.24048 12.19 2.24048 14.2V11.27C2.24048 8.43003 4.26048 6.06003 6.95048 5.53003Z" stroke="#292D32" stroke-width="1.5" stroke-linecap="round" stroke-linejoin="round"/>
<path d="M21.7605 11.27V14.2C21.7605 12 20.3005 10.13 18.3005 9.52998C18.8205 8.22998 18.9705 7.20998 18.7205 6.35998C18.7005 6.26998 18.6705 6.17998 18.6305 6.09998C20.4905 7.05998 21.7605 9.02998 21.7605 11.27Z" stroke="#292D32" stroke-width="1.5" stroke-linecap="round" stroke-linejoin="round"/>
</svg>
