<svg width="24" height="24" viewBox="0 0 24 24" fill="none" xmlns="http://www.w3.org/2000/svg">
<path d="M2.00072 7.14C2.00072 5.92 2.93072 4.57 4.07072 4.14L9.05072 2.26998C9.87072 1.95998 11.2307 1.95998 12.0507 2.26998L17.0207 4.14C17.9707 4.5 18.7807 5.49998 19.0307 6.51998H11.7307C11.5107 6.51998 11.3107 6.52999 11.1207 6.52999C9.27071 6.63999 8.79071 7.31 8.79071 9.42V14.85C8.79071 17.16 9.38071 17.75 11.7307 17.75H17.6507C17.5607 17.83 17.4707 17.9 17.3807 17.98L13.1107 21.18C11.7007 22.23 9.40071 22.23 7.98071 21.18L3.70071 17.98C2.76071 17.28 1.99072 15.73 1.99072 14.56V11.24" stroke="#292D32" stroke-width="1.5" stroke-linecap="round" stroke-linejoin="round"/>
<path d="M8.80078 11.22H22.0008" stroke="#292D32" stroke-width="1.5" stroke-miterlimit="10" stroke-linecap="round" stroke-linejoin="round"/>
<path d="M22.0008 9.42001V14.97C21.9808 17.19 21.3708 17.74 19.0608 17.74H11.7408C9.39078 17.74 8.80078 17.15 8.80078 14.84V9.41C8.80078 7.31 9.28078 6.63999 11.1308 6.51999C11.3208 6.51999 11.5208 6.51001 11.7408 6.51001H19.0608C21.4108 6.52001 22.0008 7.10001 22.0008 9.42001Z" stroke="#292D32" stroke-width="1.5" stroke-linecap="round" stroke-linejoin="round"/>
<path d="M11.3208 15.26H12.6508" stroke="#292D32" stroke-width="1.5" stroke-miterlimit="10" stroke-linecap="round" stroke-linejoin="round"/>
<path d="M14.7505 15.26H18.0205" stroke="#292D32" stroke-width="1.5" stroke-miterlimit="10" stroke-linecap="round" stroke-linejoin="round"/>
</svg>
