<svg width="24" height="24" viewBox="0 0 24 24" fill="none" xmlns="http://www.w3.org/2000/svg">
<path d="M21.2505 22H2.75049C2.34049 22 2.00049 21.66 2.00049 21.25C2.00049 20.84 2.34049 20.5 2.75049 20.5H21.2505C21.6605 20.5 22.0005 20.84 22.0005 21.25C22.0005 21.66 21.6605 22 21.2505 22Z" fill="#292D32"/>
<path opacity="0.4" d="M20.5904 13.7L13.3604 20.93C11.9404 22.35 9.65037 22.35 8.24037 20.94L3.63037 16.33L15.9904 3.96997L20.6004 8.57997C22.0104 9.98997 22.0104 12.28 20.5904 13.7Z" fill="#292D32"/>
<path d="M15.9906 3.97004L3.62055 16.33L2.71055 15.42C1.30055 14.01 1.30055 11.72 2.72055 10.3L9.95055 3.07004C11.3706 1.65004 13.6606 1.65004 15.0705 3.06004L15.9906 3.97004Z" fill="#292D32"/>
<path d="M12.8906 17.6L11.5406 18.95C11.2606 19.23 10.8106 19.23 10.5306 18.95C10.2506 18.67 10.2506 18.22 10.5306 17.94L11.8806 16.59C12.1606 16.31 12.6106 16.31 12.8906 16.59C13.1706 16.87 13.1706 17.32 12.8906 17.6Z" fill="#292D32"/>
<path d="M17.2706 13.22L14.5806 15.91C14.3006 16.19 13.8506 16.19 13.5706 15.91C13.2906 15.63 13.2906 15.18 13.5706 14.9L16.2606 12.21C16.5406 11.93 16.9906 11.93 17.2706 12.21C17.5406 12.49 17.5406 12.94 17.2706 13.22Z" fill="#292D32"/>
</svg>
