<svg width="24" height="24" viewBox="0 0 24 24" fill="none" xmlns="http://www.w3.org/2000/svg">
<path opacity="0.4" d="M6.72977 19.7C7.54977 18.82 8.79974 18.89 9.51974 19.85L10.5298 21.2C11.3398 22.27 12.6497 22.27 13.4597 21.2L14.4698 19.85C15.1898 18.89 16.4398 18.82 17.2598 19.7C19.0398 21.6 20.4897 20.97 20.4897 18.31V7.04999C20.4897 3.01999 19.5497 2.01001 15.7697 2.01001H8.20975C4.42975 2.01001 3.48975 3.01999 3.48975 7.04999V18.31C3.49975 20.97 4.95977 21.59 6.72977 19.7Z" fill="#292D32"/>
<path d="M14.8397 9.98993L14.3397 10.4999H14.3297L11.2997 13.5299C11.1697 13.6599 10.8997 13.7999 10.7097 13.8199L9.35969 14.0199C8.86969 14.0899 8.52971 13.7399 8.59971 13.2599L8.78971 11.8999C8.81971 11.7099 8.94969 11.4499 9.07969 11.3099L12.1197 8.27994L12.6197 7.76993C12.9497 7.43993 13.3197 7.19995 13.7197 7.19995C14.0597 7.19995 14.4297 7.35993 14.8397 7.76993C15.7397 8.66993 15.4497 9.37993 14.8397 9.98993Z" fill="#292D32"/>
</svg>
