<svg width="24" height="24" viewBox="0 0 24 24" fill="none" xmlns="http://www.w3.org/2000/svg">
<path d="M17.7469 22.75H7.64685C7.33685 22.75 7.05685 22.56 6.94685 22.26C6.83685 21.96 6.91685 21.64 7.15685 21.43C7.85684 20.81 8.26685 19.92 8.26685 18.99C8.26685 17.2 6.80685 15.74 5.01685 15.74C4.27685 15.74 3.57685 15.99 2.98685 16.46C2.75685 16.64 2.45685 16.67 2.19685 16.55C1.93685 16.43 1.77686 16.16 1.77686 15.87V11.5C1.77686 9.01 3.79685 6.98999 6.28685 6.98999H17.7668C20.2568 6.98999 22.2769 9.01 22.2769 11.5V12.94C22.2769 13.35 21.9369 13.69 21.5269 13.69H19.5069C19.1569 13.69 18.8369 13.82 18.6069 14.06L18.5968 14.07C18.3168 14.34 18.1869 14.71 18.2169 15.09C18.2769 15.75 18.9068 16.28 19.6268 16.28H21.5269C21.9369 16.28 22.2769 16.62 22.2769 17.03V18.22C22.2569 20.73 20.2369 22.75 17.7469 22.75ZM9.18684 21.25H17.7469C19.4069 21.25 20.7569 19.9 20.7569 18.24V17.8H19.6069C18.0969 17.8 16.8169 16.68 16.6969 15.24C16.6169 14.42 16.9168 13.61 17.5168 13.02C18.0368 12.49 18.7368 12.2 19.4868 12.2H20.7569V11.51C20.7569 9.85001 19.4069 8.5 17.7469 8.5H6.26685C4.60685 8.5 3.25685 9.85001 3.25685 11.51V14.59C3.81685 14.37 4.40685 14.25 5.00685 14.25C7.62685 14.25 9.75685 16.38 9.75685 19C9.75685 19.79 9.55684 20.57 9.18684 21.25Z" fill="#292D32"/>
<path d="M2.50684 12.2601C2.09684 12.2601 1.75684 11.9201 1.75684 11.5101V7.84011C1.75684 6.35011 2.68684 4.99005 4.07684 4.47005L12.0168 1.47005C12.8368 1.17005 13.7568 1.28011 14.4668 1.78011C15.1768 2.28011 15.6068 3.09009 15.6068 3.95009V7.75008C15.6068 8.16008 15.2668 8.50008 14.8568 8.50008C14.4468 8.50008 14.1068 8.16008 14.1068 7.75008V3.95009C14.1068 3.57009 13.9268 3.23009 13.6168 3.01009C13.2968 2.79009 12.9068 2.74008 12.5468 2.87008L4.60684 5.87008C3.78684 6.18008 3.25684 6.95011 3.25684 7.84011V11.5101C3.25684 11.9201 2.91684 12.2601 2.50684 12.2601Z" fill="#292D32"/>
<path d="M19.6068 17.7999C18.0968 17.7999 16.8168 16.6799 16.6968 15.2399C16.6168 14.4099 16.9168 13.5999 17.5168 13.0099C18.0268 12.4899 18.7268 12.2 19.4768 12.2H21.5568C22.5468 12.23 23.3068 13.0099 23.3068 13.9699V16.03C23.3068 16.99 22.5468 17.7699 21.5868 17.7999H19.6068ZM21.5368 13.7H19.4868C19.1368 13.7 18.8168 13.8299 18.5868 14.0699C18.2968 14.3499 18.1568 14.7299 18.1968 15.1099C18.2568 15.7699 18.8868 16.2999 19.6068 16.2999H21.5668C21.6968 16.2999 21.8168 16.18 21.8168 16.03V13.9699C21.8168 13.8199 21.6968 13.71 21.5368 13.7Z" fill="#292D32"/>
<path d="M14.0068 12.75H7.00684C6.59684 12.75 6.25684 12.41 6.25684 12C6.25684 11.59 6.59684 11.25 7.00684 11.25H14.0068C14.4168 11.25 14.7568 11.59 14.7568 12C14.7568 12.41 14.4168 12.75 14.0068 12.75Z" fill="#292D32"/>
<path d="M5.00684 23.75C2.38684 23.75 0.256836 21.62 0.256836 19C0.256836 17.54 0.906835 16.19 2.03683 15.29C2.87683 14.62 3.93684 14.25 5.00684 14.25C7.62684 14.25 9.75684 16.38 9.75684 19C9.75684 20.36 9.16684 21.66 8.14684 22.56C7.26684 23.33 6.15684 23.75 5.00684 23.75ZM5.00684 15.75C4.26684 15.75 3.56684 16 2.97684 16.47C2.20684 17.08 1.75684 18.01 1.75684 19C1.75684 20.79 3.21684 22.25 5.00684 22.25C5.78684 22.25 6.54683 21.96 7.15683 21.44C7.85683 20.82 8.25684 19.94 8.25684 19C8.25684 17.21 6.79684 15.75 5.00684 15.75Z" fill="#292D32"/>
<path d="M4.00672 20.75C3.75672 20.75 3.50672 20.62 3.36672 20.39C3.15672 20.03 3.26671 19.57 3.62671 19.36L4.51671 18.83V17.75C4.51671 17.34 4.85671 17 5.26671 17C5.67671 17 6.01671 17.34 6.01671 17.75V19.25C6.01671 19.51 5.87671 19.76 5.65671 19.89L4.40671 20.64C4.27671 20.72 4.13672 20.75 4.00672 20.75Z" fill="#292D32"/>
</svg>
