<svg width="24" height="24" viewBox="0 0 24 24" fill="none" xmlns="http://www.w3.org/2000/svg">
<path d="M17.0049 21.25H7.00488C3.35488 21.25 1.25488 19.15 1.25488 15.5V8.5C1.25488 4.85 3.35488 2.75 7.00488 2.75H17.0049C20.6549 2.75 22.7549 4.85 22.7549 8.5V15.5C22.7549 19.15 20.6549 21.25 17.0049 21.25ZM7.00488 4.25C4.14488 4.25 2.75488 5.64 2.75488 8.5V15.5C2.75488 18.36 4.14488 19.75 7.00488 19.75H17.0049C19.8649 19.75 21.2549 18.36 21.2549 15.5V8.5C21.2549 5.64 19.8649 4.25 17.0049 4.25H7.00488Z" fill="#292D32"/>
<path d="M12.0049 15.75C9.93488 15.75 8.25488 14.07 8.25488 12C8.25488 9.93 9.93488 8.25 12.0049 8.25C14.0749 8.25 15.7549 9.93 15.7549 12C15.7549 14.07 14.0749 15.75 12.0049 15.75ZM12.0049 9.75C10.7649 9.75 9.75488 10.76 9.75488 12C9.75488 13.24 10.7649 14.25 12.0049 14.25C13.2449 14.25 14.2549 13.24 14.2549 12C14.2549 10.76 13.2449 9.75 12.0049 9.75Z" fill="#292D32"/>
<path d="M19.0049 7.75H16.0049C15.5949 7.75 15.2549 7.41 15.2549 7C15.2549 6.59 15.5949 6.25 16.0049 6.25H19.0049C19.4149 6.25 19.7549 6.59 19.7549 7C19.7549 7.41 19.4149 7.75 19.0049 7.75Z" fill="#292D32"/>
<path d="M8.00488 17.75H5.00488C4.59488 17.75 4.25488 17.41 4.25488 17C4.25488 16.59 4.59488 16.25 5.00488 16.25H8.00488C8.41488 16.25 8.75488 16.59 8.75488 17C8.75488 17.41 8.41488 17.75 8.00488 17.75Z" fill="#292D32"/>
</svg>
