<svg width="24" height="24" viewBox="0 0 24 24" fill="none" xmlns="http://www.w3.org/2000/svg">
<path d="M17.0029 21.25H7.00293C3.35293 21.25 1.25293 19.15 1.25293 15.5V8.5C1.25293 4.85 3.35293 2.75 7.00293 2.75H17.0029C20.6529 2.75 22.7529 4.85 22.7529 8.5V15.5C22.7529 19.15 20.6529 21.25 17.0029 21.25ZM7.00293 4.25C4.14293 4.25 2.75293 5.64 2.75293 8.5V15.5C2.75293 18.36 4.14293 19.75 7.00293 19.75H17.0029C19.8629 19.75 21.2529 18.36 21.2529 15.5V8.5C21.2529 5.64 19.8629 4.25 17.0029 4.25H7.00293Z" fill="#292D32"/>
<path d="M12.0029 15.75C9.93293 15.75 8.25293 14.07 8.25293 12C8.25293 9.93 9.93293 8.25 12.0029 8.25C14.0729 8.25 15.7529 9.93 15.7529 12C15.7529 14.07 14.0729 15.75 12.0029 15.75ZM12.0029 9.75C10.7629 9.75 9.75293 10.76 9.75293 12C9.75293 13.24 10.7629 14.25 12.0029 14.25C13.2429 14.25 14.2529 13.24 14.2529 12C14.2529 10.76 13.2429 9.75 12.0029 9.75Z" fill="#292D32"/>
<path d="M4.50293 10.75C4.09293 10.75 3.75293 10.41 3.75293 10V8.5C3.75293 6.71 5.21293 5.25 7.00293 5.25H8.50293C8.91293 5.25 9.25293 5.59 9.25293 6C9.25293 6.41 8.91293 6.75 8.50293 6.75H7.00293C6.04293 6.75 5.25293 7.54 5.25293 8.5V10C5.25293 10.41 4.91293 10.75 4.50293 10.75Z" fill="#292D32"/>
<path d="M19.5029 10.75C19.0929 10.75 18.7529 10.41 18.7529 10V8.5C18.7529 7.54 17.9629 6.75 17.0029 6.75H15.5029C15.0929 6.75 14.7529 6.41 14.7529 6C14.7529 5.59 15.0929 5.25 15.5029 5.25H17.0029C18.7929 5.25 20.2529 6.71 20.2529 8.5V10C20.2529 10.41 19.9129 10.75 19.5029 10.75Z" fill="#292D32"/>
<path d="M8.50293 18.75H7.00293C5.21293 18.75 3.75293 17.29 3.75293 15.5V14C3.75293 13.59 4.09293 13.25 4.50293 13.25C4.91293 13.25 5.25293 13.59 5.25293 14V15.5C5.25293 16.46 6.04293 17.25 7.00293 17.25H8.50293C8.91293 17.25 9.25293 17.59 9.25293 18C9.25293 18.41 8.91293 18.75 8.50293 18.75Z" fill="#292D32"/>
<path d="M17.0029 18.75H15.5029C15.0929 18.75 14.7529 18.41 14.7529 18C14.7529 17.59 15.0929 17.25 15.5029 17.25H17.0029C17.9629 17.25 18.7529 16.46 18.7529 15.5V14C18.7529 13.59 19.0929 13.25 19.5029 13.25C19.9129 13.25 20.2529 13.59 20.2529 14V15.5C20.2529 17.29 18.7929 18.75 17.0029 18.75Z" fill="#292D32"/>
</svg>
