<svg width="24" height="24" viewBox="0 0 24 24" fill="none" xmlns="http://www.w3.org/2000/svg">
<path d="M16.6521 3.85999H9.91207V6.87999C9.91207 7.26999 9.59207 7.57999 9.21207 7.57999C8.83207 7.57999 8.51207 7.26999 8.51207 6.87999V3.85999H7.35207C3.40207 3.85999 2.10207 5.03999 2.01207 8.72999C2.00207 8.90999 2.08207 9.09999 2.21207 9.22999C2.34207 9.36999 2.51207 9.43999 2.71207 9.43999C4.11207 9.43999 5.26207 10.6 5.26207 12C5.26207 13.4 4.11207 14.56 2.71207 14.56C2.52207 14.56 2.34207 14.63 2.21207 14.77C2.08207 14.9 2.00207 15.09 2.01207 15.27C2.10207 18.96 3.40207 20.14 7.35207 20.14H8.51207V17.12C8.51207 16.73 8.83207 16.42 9.21207 16.42C9.59207 16.42 9.91207 16.73 9.91207 17.12V20.14H16.6521C20.7521 20.14 22.0021 18.89 22.0021 14.79V9.20999C22.0021 5.10999 20.7521 3.85999 16.6521 3.85999ZM18.4721 11.9L17.5421 12.8C17.5021 12.83 17.4921 12.89 17.5021 12.94L17.7221 14.21C17.7621 14.44 17.6721 14.68 17.4721 14.82C17.2821 14.96 17.0321 14.98 16.8221 14.87L15.6721 14.27C15.6321 14.25 15.5721 14.25 15.5321 14.27L14.3821 14.87C14.2921 14.92 14.1921 14.94 14.0921 14.94C13.9621 14.94 13.8421 14.9 13.7321 14.82C13.5421 14.68 13.4421 14.45 13.4821 14.21L13.7021 12.94C13.7121 12.89 13.6921 12.84 13.6621 12.8L12.7321 11.9C12.5621 11.74 12.5021 11.49 12.5721 11.27C12.6421 11.04 12.8321 10.88 13.0721 10.85L14.3521 10.66C14.4021 10.65 14.4421 10.62 14.4721 10.58L15.0421 9.41999C15.1521 9.20999 15.3621 9.07999 15.6021 9.07999C15.8421 9.07999 16.0521 9.20999 16.1521 9.41999L16.7221 10.58C16.7421 10.63 16.7821 10.66 16.8321 10.66L18.1121 10.85C18.3521 10.88 18.5421 11.05 18.6121 11.27C18.7021 11.49 18.6421 11.73 18.4721 11.9Z" fill="#292D32"/>
</svg>
