<svg width="24" height="24" viewBox="0 0 24 24" fill="none" xmlns="http://www.w3.org/2000/svg">
<path d="M17.002 21.25H7.00195C3.35195 21.25 1.25195 19.15 1.25195 15.5V8.5C1.25195 4.85 3.35195 2.75 7.00195 2.75H17.002C20.652 2.75 22.752 4.85 22.752 8.5V15.5C22.752 19.15 20.652 21.25 17.002 21.25ZM7.00195 4.25C4.14195 4.25 2.75195 5.64 2.75195 8.5V15.5C2.75195 18.36 4.14195 19.75 7.00195 19.75H17.002C19.862 19.75 21.252 18.36 21.252 15.5V8.5C21.252 5.64 19.862 4.25 17.002 4.25H7.00195Z" fill="#292D32"/>
<path d="M12.002 15.75C9.93195 15.75 8.25195 14.07 8.25195 12C8.25195 9.93 9.93195 8.25 12.002 8.25C14.072 8.25 15.752 9.93 15.752 12C15.752 14.07 14.072 15.75 12.002 15.75ZM12.002 9.75C10.762 9.75 9.75195 10.76 9.75195 12C9.75195 13.24 10.762 14.25 12.002 14.25C13.242 14.25 14.252 13.24 14.252 12C14.252 10.76 13.242 9.75 12.002 9.75Z" fill="#292D32"/>
<path d="M3.00195 9.75H2.00195C1.59195 9.75 1.25195 9.41 1.25195 9C1.25195 8.59 1.59195 8.25 2.00195 8.25H3.00195C5.58195 8.25 6.25195 7.58 6.25195 5V4C6.25195 3.59 6.59195 3.25 7.00195 3.25C7.41195 3.25 7.75195 3.59 7.75195 4V5C7.75195 8.42 6.42195 9.75 3.00195 9.75Z" fill="#292D32"/>
<path d="M22.002 9.75H21.002C17.582 9.75 16.252 8.42 16.252 5V4C16.252 3.59 16.592 3.25 17.002 3.25C17.412 3.25 17.752 3.59 17.752 4V5C17.752 7.58 18.422 8.25 21.002 8.25H22.002C22.412 8.25 22.752 8.59 22.752 9C22.752 9.41 22.412 9.75 22.002 9.75Z" fill="#292D32"/>
<path d="M7.00195 20.75C6.59195 20.75 6.25195 20.41 6.25195 20V19C6.25195 16.42 5.58195 15.75 3.00195 15.75H2.00195C1.59195 15.75 1.25195 15.41 1.25195 15C1.25195 14.59 1.59195 14.25 2.00195 14.25H3.00195C6.42195 14.25 7.75195 15.58 7.75195 19V20C7.75195 20.41 7.41195 20.75 7.00195 20.75Z" fill="#292D32"/>
<path d="M17.002 20.75C16.592 20.75 16.252 20.41 16.252 20V19C16.252 15.58 17.582 14.25 21.002 14.25H22.002C22.412 14.25 22.752 14.59 22.752 15C22.752 15.41 22.412 15.75 22.002 15.75H21.002C18.422 15.75 17.752 16.42 17.752 19V20C17.752 20.41 17.412 20.75 17.002 20.75Z" fill="#292D32"/>
</svg>
