<svg width="24" height="24" viewBox="0 0 24 24" fill="none" xmlns="http://www.w3.org/2000/svg">
<path d="M17.1919 4.96C17.1919 4.97 17.1919 4.97 17.1919 4.98C16.9419 4.97 16.6919 4.96 16.4219 4.96H8.72192L9.79192 3.9C10.7719 2.91 11.8519 2 13.1019 2C14.3619 2 15.4419 2.91 16.4219 3.9L16.9819 4.46C17.1219 4.59 17.1919 4.77 17.1919 4.96Z" fill="#292D32"/>
<path d="M20.8419 13.17C21.2319 13.17 21.5419 12.85 21.5419 12.45V11.57C21.5419 7.63995 20.3419 6.44995 16.4219 6.44995H10.1219H7.58191C3.66191 6.44995 2.46191 7.64995 2.46191 11.57V12C2.46191 12.4 2.77191 12.71 3.16191 12.71C4.00191 12.71 4.67191 13.39 4.67191 14.22C4.67191 15.05 4.00191 15.74 3.16191 15.74C2.77191 15.74 2.46191 16.05 2.46191 16.45V16.88C2.46191 20.81 3.66191 22 7.58191 22H10.1119H16.4119C20.3319 22 21.5319 20.8 21.5319 16.88C21.5319 16.49 21.2219 16.17 20.8319 16.17C19.9919 16.17 19.3219 15.5 19.3219 14.67C19.3319 13.84 20.0019 13.17 20.8419 13.17ZM10.8219 18.86C10.8219 19.25 10.5019 19.57 10.1119 19.57C9.72191 19.57 9.40191 19.25 9.40191 18.86V16.18C9.40191 15.79 9.72191 15.47 10.1119 15.47C10.5019 15.47 10.8219 15.79 10.8219 16.18V18.86ZM10.8219 12.27C10.8219 12.66 10.5019 12.98 10.1119 12.98C9.72191 12.98 9.40191 12.66 9.40191 12.27V9.58995C9.40191 9.19995 9.72191 8.87995 10.1119 8.87995C10.5019 8.87995 10.8219 9.19995 10.8219 9.58995V12.27Z" fill="#292D32"/>
</svg>
