<svg width="24" height="24" viewBox="0 0 24 24" fill="none" xmlns="http://www.w3.org/2000/svg">
<path opacity="0.8" d="M12.9007 2.51997L12.8707 2.58997L9.97068 9.31997H7.12068C6.44068 9.31997 5.80068 9.44997 5.20068 9.70997L6.95068 5.52997L6.99068 5.43997L7.05068 5.27997C7.08068 5.20997 7.10068 5.14997 7.13068 5.09997C8.44068 2.06997 9.92068 1.37997 12.9007 2.51997Z" fill="#292D32"/>
<path d="M18.2907 9.52002C17.8407 9.39002 17.3707 9.32002 16.8807 9.32002H9.9707L12.8707 2.59002L12.9007 2.52002C13.0407 2.57002 13.1907 2.64002 13.3407 2.69002L15.5507 3.62002C16.7807 4.13002 17.6407 4.66002 18.1707 5.30002C18.2607 5.42002 18.3407 5.53002 18.4207 5.66002C18.5107 5.80002 18.5807 5.94002 18.6207 6.09002C18.6607 6.18002 18.6907 6.26002 18.7107 6.35002C18.9707 7.20002 18.8107 8.23002 18.2907 9.52002Z" fill="#292D32"/>
<path opacity="0.4" d="M21.7607 14.1999V16.1499C21.7607 16.3499 21.7507 16.5499 21.7407 16.7399C21.5507 20.2399 19.6007 21.9999 15.9007 21.9999H8.10072C7.85072 21.9999 7.62072 21.9799 7.39072 21.9499C4.21072 21.7399 2.51072 20.0399 2.29072 16.8599C2.26072 16.6199 2.24072 16.3899 2.24072 16.1499V14.1999C2.24072 12.1899 3.46072 10.4599 5.20072 9.70995C5.80072 9.44995 6.44072 9.31995 7.12072 9.31995H16.8807C17.3707 9.31995 17.8407 9.38995 18.2907 9.51995C20.2907 10.1299 21.7607 11.9899 21.7607 14.1999Z" fill="#292D32"/>
<path opacity="0.6" d="M6.95072 5.53003L5.20072 9.71003C3.46072 10.46 2.24072 12.19 2.24072 14.2V11.27C2.24072 8.43003 4.26072 6.06003 6.95072 5.53003Z" fill="#292D32"/>
<path opacity="0.6" d="M21.7605 11.27V14.2C21.7605 11.99 20.2905 10.13 18.2905 9.51997C18.8105 8.22997 18.9705 7.19997 18.7105 6.34997C18.6905 6.25997 18.6605 6.17997 18.6205 6.08997C20.4905 7.05997 21.7605 9.02997 21.7605 11.27Z" fill="#292D32"/>
</svg>
