<svg width="24" height="24" viewBox="0 0 24 24" fill="none" xmlns="http://www.w3.org/2000/svg">
<path d="M1.23132 21.6817L1.99132 20.9217C1.59132 20.3217 1.36132 19.6017 1.36132 18.8317C1.36132 16.7217 3.07132 15.0117 5.18132 15.0117C7.29132 15.0117 9.00132 16.7117 9.00132 18.8217C9.00132 20.9317 7.29132 22.6417 5.18132 22.6417C4.41132 22.6417 3.69132 22.4117 3.09132 22.0117L2.33132 22.7717C2.17132 22.9217 1.97132 23.0017 1.77132 23.0017C1.57132 23.0017 1.37132 22.9217 1.22132 22.7717C0.921324 22.4717 0.921324 21.9817 1.23132 21.6817Z" fill="#292D32"/>
<path d="M21.5015 12.5H19.0015C17.9015 12.5 17.0015 13.4 17.0015 14.5C17.0015 15.6 17.9015 16.5 19.0015 16.5H21.5015C21.7815 16.5 22.0015 16.28 22.0015 16V13C22.0015 12.72 21.7815 12.5 21.5015 12.5Z" fill="#292D32"/>
<path d="M16.5317 5.39997C16.8317 5.68997 16.5817 6.13997 16.1617 6.13997L7.88167 6.12997C7.40167 6.12997 7.16167 5.54997 7.50167 5.20997L9.25167 3.44997C10.7317 1.97997 13.1217 1.97997 14.6017 3.44997L16.4917 5.35997C16.5017 5.36997 16.5217 5.38997 16.5317 5.39997Z" fill="#292D32"/>
<path d="M21.8713 18.66C21.2613 20.72 19.5013 22 17.1013 22H10.6013C10.2113 22 9.96133 21.57 10.1213 21.21C10.4213 20.51 10.6113 19.72 10.6113 19C10.6113 15.97 8.14133 13.5 5.11133 13.5C4.35133 13.5 3.61133 13.66 2.93133 13.96C2.56133 14.12 2.11133 13.87 2.11133 13.47V12C2.11133 9.28 3.75133 7.38 6.30133 7.06C6.55133 7.02 6.82133 7 7.10133 7H17.1013C17.3613 7 17.6113 7.01 17.8513 7.05C19.8713 7.28 21.3313 8.51 21.8713 10.34C21.9713 10.67 21.7313 11 21.3913 11H19.1013C16.9313 11 15.2113 12.98 15.6813 15.23C16.0113 16.87 17.5313 18 19.2013 18H21.3913C21.7413 18 21.9713 18.34 21.8713 18.66Z" fill="#292D32"/>
</svg>
