<svg width="25" height="24" viewBox="0 0 25 24" fill="none" xmlns="http://www.w3.org/2000/svg">
<path d="M8.58374 15.27L15.1237 8.72998" stroke="#292D32" stroke-width="1.5" stroke-linecap="round" stroke-linejoin="round"/>
<path d="M8.99368 10.37C9.67299 10.37 10.2237 9.81936 10.2237 9.14005C10.2237 8.46073 9.67299 7.91003 8.99368 7.91003C8.31437 7.91003 7.76367 8.46073 7.76367 9.14005C7.76367 9.81936 8.31437 10.37 8.99368 10.37Z" stroke="#292D32" stroke-width="1.5" stroke-linecap="round" stroke-linejoin="round"/>
<path d="M15.5337 16.09C16.213 16.09 16.7637 15.5393 16.7637 14.86C16.7637 14.1807 16.213 13.63 15.5337 13.63C14.8544 13.63 14.3037 14.1807 14.3037 14.86C14.3037 15.5393 14.8544 16.09 15.5337 16.09Z" stroke="#292D32" stroke-width="1.5" stroke-linecap="round" stroke-linejoin="round"/>
<path d="M12.0137 22C17.5365 22 22.0137 17.5228 22.0137 12C22.0137 6.47715 17.5365 2 12.0137 2C6.49082 2 2.01367 6.47715 2.01367 12C2.01367 17.5228 6.49082 22 12.0137 22Z" stroke="#292D32" stroke-width="1.5" stroke-linecap="round" stroke-linejoin="round"/>
</svg>
