<svg width="24" height="24" viewBox="0 0 24 24" fill="none" xmlns="http://www.w3.org/2000/svg">
<path opacity="0.4" d="M6.72977 19.7C7.54977 18.82 8.79974 18.89 9.51974 19.85L10.5298 21.2C11.3398 22.27 12.6497 22.27 13.4597 21.2L14.4698 19.85C15.1898 18.89 16.4398 18.82 17.2598 19.7C19.0398 21.6 20.4897 20.97 20.4897 18.31V7.04999C20.4897 3.01999 19.5497 2.01001 15.7697 2.01001H8.20975C4.42975 2.01001 3.48975 3.01999 3.48975 7.04999V18.31C3.49975 20.97 4.95977 21.59 6.72977 19.7Z" fill="#292D32"/>
<path d="M15.6599 13.47L14.9199 12.73C15.2999 12.15 15.5299 11.45 15.5299 10.7C15.5299 8.66001 13.8699 7 11.8299 7C9.78986 7 8.12988 8.66001 8.12988 10.7C8.12988 12.74 9.78986 14.4 11.8299 14.4C12.5799 14.4 13.2799 14.17 13.8599 13.79L14.5999 14.53C14.7499 14.68 14.9399 14.75 15.1299 14.75C15.3199 14.75 15.5099 14.68 15.6599 14.53C15.9499 14.24 15.9499 13.76 15.6599 13.47Z" fill="#292D32"/>
</svg>
