<svg width="24" height="24" viewBox="0 0 24 24" fill="none" xmlns="http://www.w3.org/2000/svg">
<path d="M10.5603 22.71C9.48026 22.71 8.39026 22.4 7.55026 21.77L3.27026 18.57C2.14026 17.73 1.26025 15.96 1.26025 14.54V7.12998C1.26025 5.59998 2.38027 3.96997 3.82027 3.42997L8.80026 1.55997C9.79026 1.18997 11.3403 1.18997 12.3303 1.55997L17.3003 3.42997C18.4703 3.86997 19.4603 5.03997 19.7803 6.33997C19.8303 6.55997 19.7803 6.79998 19.6403 6.97998C19.5003 7.15998 19.2803 7.26996 19.0503 7.26996L11.1403 7.27997C9.87026 7.35997 9.56026 7.56999 9.56026 9.41999V14.85C9.56026 16.76 9.81026 17 11.7503 17H17.6703C17.9803 17 18.2603 17.19 18.3703 17.48C18.4803 17.77 18.4003 18.1 18.1703 18.31C18.0603 18.4 17.9703 18.49 17.8603 18.57L13.5803 21.78C12.7203 22.4 11.6403 22.71 10.5603 22.71ZM10.5603 2.78998C10.1103 2.78998 9.65027 2.84998 9.32027 2.97998L4.34026 4.84998C3.50026 5.16998 2.75026 6.23997 2.75026 7.14997V14.56C2.75026 15.5 3.41026 16.82 4.16026 17.38L8.44026 20.58C9.59026 21.43 11.5203 21.43 12.6703 20.58L15.4403 18.51H11.7403C8.98026 18.51 8.05026 17.59 8.05026 14.86V9.42997C8.05026 7.29997 8.56026 5.94998 11.0903 5.78998L11.7403 5.77997H17.8903C17.5903 5.34997 17.1903 5.00998 16.7703 4.84998L11.8003 2.97998C11.4603 2.84998 11.0103 2.78998 10.5603 2.78998Z" fill="#292D32"/>
<path d="M22.0003 11.97H8.80029C8.39029 11.97 8.05029 11.63 8.05029 11.22C8.05029 10.81 8.39029 10.47 8.80029 10.47H22.0003C22.4103 10.47 22.7503 10.81 22.7503 11.22C22.7503 11.63 22.4103 11.97 22.0003 11.97Z" fill="#292D32"/>
<path d="M19.0603 18.5H11.7403C8.9803 18.5 8.05029 17.58 8.05029 14.85V9.42004C8.05029 7.29004 8.56029 5.94003 11.0903 5.78003L11.7403 5.77002H19.0603C21.8203 5.77002 22.7503 6.69004 22.7503 9.42004V14.97C22.7303 17.61 21.8003 18.5 19.0603 18.5ZM11.7403 7.27002L11.1303 7.28003C9.86029 7.36003 9.55029 7.57004 9.55029 9.42004V14.85C9.55029 16.76 9.8003 17 11.7403 17H19.0603C20.9703 17 21.2303 16.75 21.2503 14.97V9.43002C21.2503 7.52002 21.0003 7.28003 19.0603 7.28003H11.7403V7.27002Z" fill="#292D32"/>
<path d="M12.6505 16.01H11.3105C10.9005 16.01 10.5605 15.67 10.5605 15.26C10.5605 14.85 10.9005 14.51 11.3105 14.51H12.6505C13.0605 14.51 13.4005 14.85 13.4005 15.26C13.4005 15.67 13.0705 16.01 12.6505 16.01Z" fill="#292D32"/>
<path d="M18.0205 16.01H14.7505C14.3405 16.01 14.0005 15.67 14.0005 15.26C14.0005 14.85 14.3405 14.51 14.7505 14.51H18.0205C18.4305 14.51 18.7705 14.85 18.7705 15.26C18.7705 15.67 18.4405 16.01 18.0205 16.01Z" fill="#292D32"/>
</svg>
