<svg width="24" height="24" viewBox="0 0 24 24" fill="none" xmlns="http://www.w3.org/2000/svg">
<path d="M19.8319 8.70005L15.3019 4.17005C14.3519 3.22005 13.0419 2.71005 11.7019 2.78005L6.70193 3.02005C4.70193 3.11005 3.11193 4.70005 3.01193 6.69005L2.77193 11.69C2.71193 13.03 3.21193 14.34 4.16193 15.29L8.69193 19.82C10.5519 21.68 13.5719 21.68 15.4419 19.82L19.8319 15.43C21.7019 13.58 21.7019 10.56 19.8319 8.70005ZM9.50193 12.38C7.92193 12.38 6.62193 11.09 6.62193 9.50005C6.62193 7.91005 7.92193 6.62005 9.50193 6.62005C11.0819 6.62005 12.3819 7.91005 12.3819 9.50005C12.3819 11.09 11.0819 12.38 9.50193 12.38ZM17.5319 13.53L13.5319 17.53C13.3819 17.68 13.1919 17.75 13.0019 17.75C12.8119 17.75 12.6219 17.68 12.4719 17.53C12.1819 17.24 12.1819 16.76 12.4719 16.47L16.4719 12.47C16.7619 12.18 17.2419 12.18 17.5319 12.47C17.8219 12.76 17.8219 13.24 17.5319 13.53Z" fill="#292D32"/>
</svg>
