<svg width="24" height="24" viewBox="0 0 24 24" fill="none" xmlns="http://www.w3.org/2000/svg">
<path opacity="0.4" d="M19.8506 12.9401C19.8506 13.7401 20.5006 14.4001 21.3006 14.4001C21.6806 14.4001 22.0006 14.7101 22.0006 15.0901C22.0006 18.9301 20.8406 20.0901 17.0006 20.0901H11.7506V18.5001C11.7506 18.1101 11.4506 17.7901 11.0706 17.7601V14.9101C11.4506 14.8801 11.7506 14.5601 11.7506 14.1701V9.83005C11.7506 9.44005 11.4506 9.12005 11.0706 9.09005V4.93005H17.0006C20.8406 4.93005 22.0006 6.09005 22.0006 9.93005V10.7801C22.0006 11.1701 21.6806 11.4801 21.3006 11.4801C20.5006 11.4801 19.8506 12.1301 19.8506 12.9401Z" fill="#292D32"/>
<path d="M11.0706 9.09006C10.6606 9.09006 10.2506 9.42006 10.2506 9.83006V14.1701C10.2506 14.5801 10.5906 14.9201 11.0006 14.9201C11.0206 14.9201 11.0506 14.9201 11.0706 14.9101V17.7601C11.0506 17.7501 11.0206 17.7501 11.0006 17.7501C10.5906 17.7501 10.2506 18.0901 10.2506 18.5001V20.0901H8.49058C6.61058 20.0901 5.64058 18.6801 4.76058 16.5501L4.59058 16.1301C4.45058 15.7701 4.62058 15.3601 4.98058 15.2201C5.35058 15.0801 5.64058 14.7901 5.79058 14.4101C5.95058 14.0401 5.95058 13.6301 5.80058 13.2601C5.48058 12.4901 4.60058 12.1201 3.82058 12.4301C3.65058 12.5101 3.45058 12.5101 3.28058 12.4301C3.11058 12.3601 2.98058 12.2201 2.90058 12.0401L2.75058 11.6401C1.26058 8.02006 1.91058 6.47006 5.53058 4.97006L7.98058 3.96006C8.34058 3.81006 8.75058 3.98006 8.89058 4.34006L11.0706 9.09006Z" fill="#292D32"/>
</svg>
