<svg width="24" height="24" viewBox="0 0 24 24" fill="none" xmlns="http://www.w3.org/2000/svg">
<path d="M12.752 15.9199H13.402C14.052 15.9199 14.592 15.3399 14.592 14.6399C14.592 13.7699 14.282 13.5999 13.772 13.4199L12.762 13.0699V15.9199H12.752Z" fill="#292D32"/>
<path d="M11.972 1.90004C6.45202 1.92004 1.98202 6.41004 2.00202 11.93C2.02202 17.45 6.51202 21.92 12.032 21.9C17.552 21.88 22.022 17.39 22.002 11.87C21.982 6.35004 17.492 1.89004 11.972 1.90004ZM14.262 12C15.042 12.27 16.092 12.85 16.092 14.64C16.092 16.18 14.882 17.42 13.402 17.42H12.752V18C12.752 18.41 12.412 18.75 12.002 18.75C11.592 18.75 11.252 18.41 11.252 18V17.42H10.892C9.25202 17.42 7.92202 16.04 7.92202 14.34C7.92202 13.93 8.26202 13.59 8.67202 13.59C9.08202 13.59 9.42202 13.93 9.42202 14.34C9.42202 15.21 10.082 15.92 10.892 15.92H11.252V12.54L9.74202 12C8.96202 11.73 7.91202 11.15 7.91202 9.36004C7.91202 7.82004 9.12202 6.58004 10.602 6.58004H11.252V6.00004C11.252 5.59004 11.592 5.25004 12.002 5.25004C12.412 5.25004 12.752 5.59004 12.752 6.00004V6.58004H13.112C14.752 6.58004 16.082 7.96004 16.082 9.66004C16.082 10.07 15.742 10.41 15.332 10.41C14.922 10.41 14.582 10.07 14.582 9.66004C14.582 8.79004 13.922 8.08004 13.112 8.08004H12.752V11.46L14.262 12Z" fill="#292D32"/>
<path d="M9.42188 9.36996C9.42188 10.24 9.73187 10.41 10.2419 10.59L11.2519 10.94V8.07996H10.6019C9.95188 8.07996 9.42188 8.65996 9.42188 9.36996Z" fill="#292D32"/>
</svg>
