<svg width="24" height="24" viewBox="0 0 24 24" fill="none" xmlns="http://www.w3.org/2000/svg">
<path d="M17.0005 20.75H7.00049C2.59049 20.75 1.25049 19.41 1.25049 15V14.5C1.25049 14.09 1.59049 13.75 2.00049 13.75C2.96049 13.75 3.75049 12.96 3.75049 12C3.75049 11.04 2.96049 10.25 2.00049 10.25C1.59049 10.25 1.25049 9.91 1.25049 9.5V9C1.25049 4.59 2.59049 3.25 7.00049 3.25H17.0005C21.4105 3.25 22.7505 4.59 22.7505 9V10C22.7505 10.41 22.4105 10.75 22.0005 10.75C21.0405 10.75 20.2505 11.54 20.2505 12.5C20.2505 13.46 21.0405 14.25 22.0005 14.25C22.4105 14.25 22.7505 14.59 22.7505 15C22.7505 19.41 21.4105 20.75 17.0005 20.75ZM2.75049 15.16C2.77049 18.6 3.48049 19.25 7.00049 19.25H17.0005C20.3405 19.25 21.1505 18.66 21.2405 15.66C19.8105 15.32 18.7505 14.03 18.7505 12.5C18.7505 10.97 19.8205 9.68 21.2505 9.34V9C21.2505 5.43 20.5705 4.75 17.0005 4.75H7.00049C3.48049 4.75 2.77049 5.4 2.75049 8.84C4.18049 9.18 5.25049 10.47 5.25049 12C5.25049 13.53 4.18049 14.82 2.75049 15.16Z" fill="#292D32"/>
<path d="M15.0005 15.88C14.4405 15.88 13.9905 15.43 13.9905 14.88C13.9905 14.33 14.4405 13.88 14.9905 13.88C15.5405 13.88 15.9905 14.33 15.9905 14.88C15.9905 15.43 15.5605 15.88 15.0005 15.88Z" fill="#292D32"/>
<path d="M9.00048 10.88C8.44048 10.88 7.99048 10.43 7.99048 9.88C7.99048 9.33 8.44048 8.88 8.99048 8.88C9.54048 8.88 9.99048 9.33 9.99048 9.88C9.99048 10.43 9.56048 10.88 9.00048 10.88Z" fill="#292D32"/>
<path d="M8.63056 16.43C8.44056 16.43 8.25056 16.36 8.10056 16.21C7.81056 15.92 7.81056 15.44 8.10056 15.15L14.8306 8.42001C15.1206 8.13001 15.6006 8.13001 15.8906 8.42001C16.1806 8.71001 16.1806 9.19001 15.8906 9.48001L9.16056 16.21C9.02056 16.36 8.82056 16.43 8.63056 16.43Z" fill="#292D32"/>
</svg>
