<svg width="24" height="24" viewBox="0 0 24 24" fill="none" xmlns="http://www.w3.org/2000/svg">
<path d="M3.2405 15.27C2.8605 15.41 2.4405 15.49 2.0105 15.49C2.1005 19.08 3.1705 20 7.0005 20H17.0005C21.0005 20 22.0005 19 22.0005 15V9C22.0005 5 21.0005 4 17.0005 4H7.0005C3.1705 4 2.1005 4.92 2.0105 8.5C3.9405 8.5 5.5005 10.07 5.5005 12" stroke="#292D32" stroke-width="1.5" stroke-linecap="round" stroke-linejoin="round"/>
<path d="M9.00049 4V7.5" stroke="#292D32" stroke-width="1.5" stroke-linecap="round" stroke-linejoin="round"/>
<path d="M9.00049 16.5V20" stroke="#292D32" stroke-width="1.5" stroke-linecap="round" stroke-linejoin="round"/>
<path d="M14.8604 14.21C14.7404 14.15 14.5904 14.15 14.4704 14.21L13.2404 14.86C12.9304 15.02 12.5804 14.76 12.6404 14.42L12.8804 13.05C12.9004 12.91 12.8604 12.78 12.7604 12.68L11.7704 11.71C11.5204 11.47 11.6604 11.05 12.0004 11L13.3804 10.8C13.5204 10.78 13.6304 10.7 13.6904 10.57L14.3004 9.32002C14.4504 9.01002 14.8904 9.01002 15.0404 9.32002L15.6604 10.57C15.7204 10.69 15.8404 10.78 15.9704 10.8L17.3504 11C17.6904 11.05 17.8304 11.47 17.5804 11.71L16.5804 12.68C16.4804 12.77 16.4404 12.91 16.4604 13.05" stroke="#292D32" stroke-width="1.5" stroke-linecap="round" stroke-linejoin="round"/>
</svg>
