<svg width="24" height="24" viewBox="0 0 24 24" fill="none" xmlns="http://www.w3.org/2000/svg">
<path d="M3.93061 16.63C3.74061 16.63 3.55061 16.56 3.40061 16.41C3.11061 16.12 3.11061 15.64 3.40061 15.35L15.3506 3.4C15.6406 3.11 16.1206 3.11 16.4106 3.4C16.7006 3.69 16.7006 4.17 16.4106 4.46L4.46061 16.42C4.32061 16.56 4.12061 16.63 3.93061 16.63Z" fill="#292D32"/>
<path d="M11.1005 19.03C10.9105 19.03 10.7205 18.96 10.5705 18.81C10.2805 18.52 10.2805 18.04 10.5705 17.75L11.7705 16.55C12.0605 16.26 12.5405 16.26 12.8305 16.55C13.1205 16.84 13.1205 17.32 12.8305 17.61L11.6305 18.81C11.4905 18.95 11.3005 19.03 11.1005 19.03Z" fill="#292D32"/>
<path d="M13.7905 16.34C13.6005 16.34 13.4105 16.27 13.2605 16.12C12.9705 15.83 12.9705 15.35 13.2605 15.06L15.6505 12.67C15.9405 12.38 16.4205 12.38 16.7105 12.67C17.0005 12.96 17.0005 13.44 16.7105 13.73L14.3205 16.12C14.1805 16.26 13.9805 16.34 13.7905 16.34Z" fill="#292D32"/>
<path d="M11.1004 22.75C10.1204 22.75 9.1404 22.15 7.9504 20.96L3.0404 16.05C0.650402 13.66 0.660402 12.12 3.0704 9.71004L9.7104 3.07004C12.1204 0.660036 13.6604 0.650036 16.0504 3.04004L20.9604 7.95004C23.3504 10.34 23.3404 11.88 20.9304 14.29L14.2904 20.93C13.0804 22.14 12.0904 22.75 11.1004 22.75ZM12.9004 2.75004C12.3804 2.75004 11.7204 3.18004 10.7704 4.13004L4.1304 10.77C3.1804 11.72 2.7504 12.38 2.7504 12.89C2.7504 13.41 3.1504 14.04 4.1004 14.99L9.0104 19.9C9.9604 20.85 10.5804 21.25 11.1004 21.25C11.1004 21.25 11.1004 21.25 11.1104 21.25C11.6304 21.25 12.2804 20.82 13.2304 19.87L19.8704 13.23C20.8204 12.28 21.2504 11.62 21.2504 11.11C21.2504 10.59 20.8504 9.96004 19.9004 9.01004L14.9904 4.10004C14.0504 3.15004 13.4204 2.75004 12.9004 2.75004Z" fill="#292D32"/>
<path d="M22.0005 22.75H2.00049C1.59049 22.75 1.25049 22.41 1.25049 22C1.25049 21.59 1.59049 21.25 2.00049 21.25H22.0005C22.4105 21.25 22.7505 21.59 22.7505 22C22.7505 22.41 22.4105 22.75 22.0005 22.75Z" fill="#292D32"/>
</svg>
