<svg width="25" height="24" viewBox="0 0 25 24" fill="none" xmlns="http://www.w3.org/2000/svg">
<path opacity="0.4" d="M8.3335 15.27L14.8735 8.72998" stroke="#292D32" stroke-width="1.5" stroke-linecap="round" stroke-linejoin="round"/>
<path opacity="0.4" d="M8.74368 10.37C9.42299 10.37 9.97366 9.81936 9.97366 9.14005C9.97366 8.46073 9.42299 7.91003 8.74368 7.91003C8.06437 7.91003 7.51367 8.46073 7.51367 9.14005C7.51367 9.81936 8.06437 10.37 8.74368 10.37Z" stroke="#292D32" stroke-width="1.5" stroke-linecap="round" stroke-linejoin="round"/>
<path opacity="0.4" d="M15.2837 16.09C15.963 16.09 16.5137 15.5393 16.5137 14.86C16.5137 14.1807 15.963 13.63 15.2837 13.63C14.6044 13.63 14.0537 14.1807 14.0537 14.86C14.0537 15.5393 14.6044 16.09 15.2837 16.09Z" stroke="#292D32" stroke-width="1.5" stroke-linecap="round" stroke-linejoin="round"/>
<path d="M12.0137 22C17.5365 22 22.0137 17.5228 22.0137 12C22.0137 6.47715 17.5365 2 12.0137 2C6.49082 2 2.01367 6.47715 2.01367 12C2.01367 17.5228 6.49082 22 12.0137 22Z" stroke="#292D32" stroke-width="1.5" stroke-linecap="round" stroke-linejoin="round"/>
</svg>
