<svg width="24" height="24" viewBox="0 0 24 24" fill="none" xmlns="http://www.w3.org/2000/svg">
<path d="M22.0005 10.75V9.82996C22.0005 6.12996 21.0805 5.20996 17.3805 5.20996H11.0005V12" stroke="#292D32" stroke-width="1.5" stroke-linecap="round" stroke-linejoin="round"/>
<path d="M10.9104 19.9999H17.3804C21.0804 19.9999 22.0004 19.0799 22.0004 15.3799C20.7204 15.3799 19.6904 14.3399 19.6904 13.0699" stroke="#292D32" stroke-width="1.5" stroke-linecap="round" stroke-linejoin="round"/>
<path d="M11.0004 17V20H8.2304C6.7504 20 5.8804 18.99 4.9204 16.67L4.7404 16.22C5.9504 15.74 6.5404 14.34 6.0304 13.13C5.5404 11.92 4.1504 11.34 2.9304 11.84L2.7604 11.41C1.3204 7.89 1.8204 6.66 5.3404 5.21L7.9804 4.13L11.0004 11.45V14" stroke="#292D32" stroke-width="1.5" stroke-linecap="round" stroke-linejoin="round"/>
<path d="M8.17049 20H8.00049" stroke="#292D32" stroke-width="1.5" stroke-linecap="round" stroke-linejoin="round"/>
</svg>
