<svg width="24" height="24" viewBox="0 0 24 24" fill="none" xmlns="http://www.w3.org/2000/svg">
<path d="M21.5313 10.87L20.0113 9.35001C19.7513 9.09 19.5413 8.58001 19.5413 8.22001V6.06C19.5413 5.18 18.8213 4.46 17.9413 4.46H15.7913C15.4313 4.46 14.9213 4.25 14.6613 3.99L13.1413 2.47C12.5213 1.85 11.5013 1.85 10.8813 2.47L9.34135 3.99C9.09135 4.25 8.58135 4.46 8.21135 4.46H6.06135C5.18135 4.46 4.46135 5.18 4.46135 6.06V8.21C4.46135 8.57 4.25135 9.08 3.99135 9.34L2.47135 10.86C1.85135 11.48 1.85135 12.5 2.47135 13.12L3.99135 14.64C4.25135 14.9 4.46135 15.41 4.46135 15.77V17.92C4.46135 18.8 5.18135 19.52 6.06135 19.52H8.21135C8.57135 19.52 9.08135 19.73 9.34135 19.99L10.8613 21.51C11.4813 22.13 12.5013 22.13 13.1213 21.51L14.6413 19.99C14.9013 19.73 15.4113 19.52 15.7713 19.52H17.9213C18.8013 19.52 19.5213 18.8 19.5213 17.92V15.77C19.5213 15.41 19.7313 14.9 19.9913 14.64L21.5113 13.12C22.1613 12.51 22.1613 11.49 21.5313 10.87ZM8.00135 9C8.00135 8.45 8.45135 8 9.00135 8C9.55135 8 10.0013 8.45 10.0013 9C10.0013 9.55 9.56135 10 9.00135 10C8.45135 10 8.00135 9.55 8.00135 9ZM9.53135 15.53C9.38135 15.68 9.19135 15.75 9.00135 15.75C8.81135 15.75 8.62135 15.68 8.47135 15.53C8.18135 15.24 8.18135 14.76 8.47135 14.47L14.4713 8.47001C14.7613 8.18001 15.2413 8.18001 15.5313 8.47001C15.8213 8.76 15.8213 9.24 15.5313 9.53L9.53135 15.53ZM15.0013 16C14.4413 16 13.9913 15.55 13.9913 15C13.9913 14.45 14.4413 14 14.9913 14C15.5413 14 15.9913 14.45 15.9913 15C15.9913 15.55 15.5513 16 15.0013 16Z" fill="#292D32"/>
</svg>
