<svg width="24" height="24" viewBox="0 0 24 24" fill="none" xmlns="http://www.w3.org/2000/svg">
<path opacity="0.4" d="M16.1898 2H7.81976C4.17976 2 2.00977 4.17 2.00977 7.81V16.18C2.00977 19.82 4.17976 21.99 7.81976 21.99H16.1898C19.8298 21.99 21.9998 19.82 21.9998 16.18V7.81C21.9998 4.17 19.8298 2 16.1898 2Z" fill="#292D32"/>
<path d="M8.55011 14.55V10.26C9.39011 9.95001 10.0001 9.15001 10.0001 8.20001C10.0001 6.99001 9.01011 6 7.80011 6C6.59011 6 5.6001 6.99001 5.6001 8.20001C5.6001 9.15001 6.21011 9.95001 7.05011 10.26V14.55C6.29011 14.85 5.75012 15.59 5.75012 16.45C5.75012 17.58 6.67011 18.5 7.80011 18.5C8.93011 18.5 9.8501 17.58 9.8501 16.45C9.8501 15.59 9.31011 14.85 8.55011 14.55Z" fill="#292D32"/>
<path d="M17.5003 14.5499V8.74993C17.5003 7.78993 16.7103 6.99993 15.7503 6.99993H14.6203L14.8303 6.82991C15.1503 6.55991 15.1903 6.08992 14.9303 5.76992C14.6603 5.44992 14.1903 5.40994 13.8703 5.66994L12.0703 7.16994C11.9003 7.30994 11.8003 7.51993 11.8003 7.74993C11.8003 7.97993 11.9003 8.17991 12.0703 8.32991L13.8703 9.82991C14.0103 9.94991 14.1803 9.99993 14.3503 9.99993C14.5603 9.99993 14.7803 9.90994 14.9303 9.72994C15.2003 9.40994 15.1503 8.93994 14.8303 8.66994L14.6203 8.49993H15.7503C15.8903 8.49993 16.0003 8.60993 16.0003 8.74993V14.5499C15.2403 14.8499 14.7003 15.5899 14.7003 16.4499C14.7003 17.5799 15.6203 18.4999 16.7503 18.4999C17.8803 18.4999 18.8003 17.5799 18.8003 16.4499C18.8003 15.5899 18.2603 14.8499 17.5003 14.5499Z" fill="#292D32"/>
</svg>
