<svg width="24" height="24" viewBox="0 0 24 24" fill="none" xmlns="http://www.w3.org/2000/svg">
<path opacity="0.4" d="M11.5 21C16.7467 21 21 16.7467 21 11.5C21 6.25329 16.7467 2 11.5 2C6.25329 2 2 6.25329 2 11.5C2 16.7467 6.25329 21 11.5 21Z" fill="#292D32"/>
<path d="M21.3 22.0001C21.12 22.0001 20.94 21.9301 20.81 21.8001L18.95 19.9401C18.68 19.6701 18.68 19.2301 18.95 18.9501C19.22 18.6801 19.66 18.6801 19.94 18.9501L21.8 20.8101C22.07 21.0801 22.07 21.5201 21.8 21.8001C21.66 21.9301 21.48 22.0001 21.3 22.0001Z" fill="#292D32"/>
<path d="M14.2 10.9502H12.45V9.2002C12.45 8.7902 12.11 8.4502 11.7 8.4502C11.29 8.4502 10.95 8.7902 10.95 9.2002V10.9502H9.20001C8.79001 10.9502 8.45001 11.2902 8.45001 11.7002C8.45001 12.1102 8.79001 12.4502 9.20001 12.4502H10.95V14.2002C10.95 14.6102 11.29 14.9502 11.7 14.9502C12.11 14.9502 12.45 14.6102 12.45 14.2002V12.4502H14.2C14.61 12.4502 14.95 12.1102 14.95 11.7002C14.95 11.2902 14.61 10.9502 14.2 10.9502Z" fill="#292D32"/>
</svg>
