<svg width="24" height="24" viewBox="0 0 24 24" fill="none" xmlns="http://www.w3.org/2000/svg">
<path d="M12.9899 2.15021C15.3699 1.69021 17.9399 2.38021 19.7899 4.22021C22.7399 7.17021 22.7399 11.9802 19.7899 14.9202C17.7299 16.9702 14.7799 17.6002 12.1899 16.7902L7.4799 21.4902C7.1399 21.8402 6.4699 22.0502 5.9899 21.9802L3.8099 21.6802C3.0899 21.5802 2.4199 20.9002 2.3099 20.1802L2.0099 18.0002C1.9399 17.5202 2.1699 16.8502 2.4999 16.5102L3.6199 15.3902L7.1899 11.8202C6.3899 9.22021 7.0099 6.27021 9.0699 4.22021" stroke="#292D32" stroke-width="1.5" stroke-miterlimit="10" stroke-linecap="round" stroke-linejoin="round"/>
<path d="M6.88989 17.4902L9.18989 19.7902" stroke="#292D32" stroke-width="1.5" stroke-miterlimit="10" stroke-linecap="round" stroke-linejoin="round"/>
<path d="M14.5 11C15.3284 11 16 10.3284 16 9.5C16 8.67157 15.3284 8 14.5 8C13.6716 8 13 8.67157 13 9.5C13 10.3284 13.6716 11 14.5 11Z" stroke="#292D32" stroke-width="1.5" stroke-linecap="round" stroke-linejoin="round"/>
</svg>
