<svg width="24" height="24" viewBox="0 0 24 24" fill="none" xmlns="http://www.w3.org/2000/svg">
<path d="M3.08984 6.72979C3.08984 5.90979 3.70986 4.97979 4.47986 4.66979L10.0498 2.38982C11.2998 1.87982 12.7098 1.87982 13.9598 2.38982L19.5298 4.66979C20.2898 4.97979 20.9199 5.90979 20.9199 6.72979V11.1198C20.9199 16.0098 17.3698 20.5898 12.5198 21.9298C12.1898 22.0198 11.8298 22.0198 11.4998 21.9298C6.64985 20.5898 3.09985 16.0098 3.09985 11.1198" stroke="#292D32" stroke-width="1.5" stroke-linecap="round" stroke-linejoin="round"/>
<path d="M12 12.5C13.1046 12.5 14 11.6046 14 10.5C14 9.39543 13.1046 8.5 12 8.5C10.8954 8.5 10 9.39543 10 10.5C10 11.6046 10.8954 12.5 12 12.5Z" stroke="#292D32" stroke-width="1.5" stroke-miterlimit="10" stroke-linecap="round" stroke-linejoin="round"/>
<path d="M12 12.5V15.5" stroke="#292D32" stroke-width="1.5" stroke-miterlimit="10" stroke-linecap="round" stroke-linejoin="round"/>
</svg>
