<svg width="24" height="24" viewBox="0 0 24 24" fill="none" xmlns="http://www.w3.org/2000/svg">
<path d="M3.40991 11.02V14.56C3.40991 15.74 4.18991 17.29 5.13991 18L9.43991 21.21C10.1399 21.74 11.0699 22 11.9999 22" stroke="#292D32" stroke-width="1.5" stroke-linecap="round" stroke-linejoin="round"/>
<path d="M20.5899 10.5501V7.12006C20.5899 5.89006 19.6499 4.53006 18.4999 4.10006L13.5099 2.23006C12.6799 1.92006 11.3199 1.92006 10.4899 2.23006L5.49991 4.11006C4.34991 4.54006 3.40991 5.90006 3.40991 7.12006" stroke="#292D32" stroke-width="1.5" stroke-linecap="round" stroke-linejoin="round"/>
<path d="M20 15.9998C20 18.2098 18.21 19.9998 16 19.9998C13.79 19.9998 12 18.2098 12 15.9998C12 15.2698 12.19 14.5898 12.53 14.0098C13.22 12.8098 14.51 12.0098 15.99 12.0098C16.6 12.0098 17.17 12.1498 17.69 12.3898" stroke="#292D32" stroke-width="1.5" stroke-linecap="round" stroke-linejoin="round"/>
<path d="M20.9955 21H21.0045" stroke="#292D32" stroke-width="2" stroke-linecap="round" stroke-linejoin="round"/>
</svg>
