<svg width="24" height="24" viewBox="0 0 24 24" fill="none" xmlns="http://www.w3.org/2000/svg">
<path opacity="0.4" d="M16.1901 8.8599C15.8001 8.8599 15.4901 8.5499 15.4901 8.1599V6.8799C15.4901 5.8999 15.0701 4.9599 14.3501 4.2999C13.6101 3.6299 12.6601 3.3199 11.6601 3.4099C9.98011 3.5699 8.51011 5.2799 8.51011 7.0599V7.9599C8.51011 8.3499 8.20011 8.6599 7.81011 8.6599C7.42011 8.6599 7.11011 8.3499 7.11011 7.9599V7.0599C7.11011 4.5599 9.13011 2.2499 11.5201 2.0199C12.9101 1.8899 14.2501 2.3299 15.2801 3.2699C16.3001 4.1899 16.8801 5.5099 16.8801 6.8799V8.1599C16.8801 8.5499 16.5701 8.8599 16.1901 8.8599Z" fill="#292D32"/>
<path d="M19.96 8.96008C19.12 8.03008 17.74 7.58008 15.72 7.58008H8.27999C6.25999 7.58008 4.87999 8.03008 4.03999 8.96008C3.06999 10.0401 3.09999 11.4801 3.20999 12.4801L3.90999 18.0501C4.11999 20.0001 4.90999 22.0001 9.20999 22.0001H14.79C19.09 22.0001 19.88 20.0001 20.09 18.0601L20.79 12.4701C20.9 11.4801 20.93 10.0401 19.96 8.96008ZM12 18.5801C9.90999 18.5801 8.20999 16.8801 8.20999 14.7901C8.20999 12.7001 9.90999 11.0001 12 11.0001C14.09 11.0001 15.79 12.7001 15.79 14.7901C15.79 16.8801 14.09 18.5801 12 18.5801Z" fill="#292D32"/>
<path opacity="0.4" d="M12 18.58C14.0931 18.58 15.79 16.8832 15.79 14.79C15.79 12.6968 14.0931 11 12 11C9.9068 11 8.20996 12.6968 8.20996 14.79C8.20996 16.8832 9.9068 18.58 12 18.58Z" fill="#292D32"/>
<path d="M11.4299 16.64C11.2399 16.64 11.0499 16.57 10.8999 16.42L9.90988 15.43C9.61988 15.14 9.61988 14.66 9.90988 14.37C10.1999 14.08 10.6799 14.08 10.9699 14.37L11.4499 14.85L13.0499 13.37C13.3499 13.09 13.8299 13.11 14.1099 13.41C14.3899 13.71 14.3699 14.19 14.0699 14.47L11.9399 16.44C11.7899 16.57 11.6099 16.64 11.4299 16.64Z" fill="#292D32"/>
</svg>
