<svg width="24" height="24" viewBox="0 0 24 24" fill="none" xmlns="http://www.w3.org/2000/svg">
<path opacity="0.4" d="M16.1901 8.8599C15.8001 8.8599 15.4901 8.5499 15.4901 8.1599V6.8799C15.4901 5.8999 15.0701 4.9599 14.3501 4.2999C13.6101 3.6299 12.6601 3.3199 11.6601 3.4099C9.98011 3.5699 8.51011 5.2799 8.51011 7.0599V7.9599C8.51011 8.3499 8.20011 8.6599 7.81011 8.6599C7.42011 8.6599 7.11011 8.3499 7.11011 7.9599V7.0599C7.11011 4.5599 9.13011 2.2499 11.5201 2.0199C12.9101 1.8899 14.2501 2.3299 15.2801 3.2699C16.3001 4.1899 16.8801 5.5099 16.8801 6.8799V8.1599C16.8801 8.5499 16.5701 8.8599 16.1901 8.8599Z" fill="#292D32"/>
<path d="M19.96 8.96008C19.12 8.03008 17.74 7.58008 15.72 7.58008H8.27999C6.25999 7.58008 4.87999 8.03008 4.03999 8.96008C3.06999 10.0401 3.09999 11.4801 3.20999 12.4801L3.90999 18.0501C4.11999 20.0001 4.90999 22.0001 9.20999 22.0001H14.79C19.09 22.0001 19.88 20.0001 20.09 18.0601L20.79 12.4701C20.9 11.4801 20.93 10.0401 19.96 8.96008ZM12 18.5801C9.90999 18.5801 8.20999 16.8801 8.20999 14.7901C8.20999 12.7001 9.90999 11.0001 12 11.0001C14.09 11.0001 15.79 12.7001 15.79 14.7901C15.79 16.8801 14.09 18.5801 12 18.5801Z" fill="#292D32"/>
<path opacity="0.4" d="M12 18.58C14.0931 18.58 15.79 16.8832 15.79 14.79C15.79 12.6968 14.0931 11 12 11C9.9068 11 8.20996 12.6968 8.20996 14.79C8.20996 16.8832 9.9068 18.58 12 18.58Z" fill="#292D32"/>
<path d="M13.6001 15.3102L13.0701 14.7802L13.5701 14.2802C13.8601 13.9902 13.8601 13.5102 13.5701 13.2202C13.2801 12.9302 12.8001 12.9302 12.5101 13.2202L12.0101 13.7202L11.4801 13.1902C11.1901 12.9002 10.7101 12.9002 10.4201 13.1902C10.1301 13.4802 10.1301 13.9602 10.4201 14.2502L10.9501 14.7802L10.4001 15.3302C10.1101 15.6202 10.1101 16.1002 10.4001 16.3902C10.5501 16.5402 10.7401 16.6102 10.9301 16.6102C11.1201 16.6102 11.3101 16.5402 11.4601 16.3902L12.0101 15.8402L12.5401 16.3702C12.6901 16.5202 12.8801 16.5902 13.0701 16.5902C13.2601 16.5902 13.4501 16.5202 13.6001 16.3702C13.8901 16.0802 13.8901 15.6102 13.6001 15.3102Z" fill="#292D32"/>
</svg>
