<svg width="24" height="24" viewBox="0 0 24 24" fill="none" xmlns="http://www.w3.org/2000/svg">
<path opacity="0.4" d="M17.4797 10.55C17.0597 10.96 16.8198 11.55 16.8798 12.18C16.9698 13.26 17.9597 14.05 19.0397 14.05H20.9998V15.5C20.9998 18.5 18.9998 20.5 15.9998 20.5H6.99976C3.99976 20.5 1.99976 18.5 1.99976 15.5V8.5C1.99976 5.78 3.63976 3.88 6.18976 3.56C6.44976 3.52 6.71976 3.5 6.99976 3.5H15.9998C16.2598 3.5 16.5098 3.50999 16.7498 3.54999C19.3298 3.84999 20.9998 5.76 20.9998 8.5V9.95001H18.9197C18.3597 9.95001 17.8497 10.17 17.4797 10.55Z" fill="#292D32"/>
<path d="M21.9997 10.9699V13.03C21.9997 13.58 21.5597 14.0299 20.9997 14.0499H19.0397C17.9597 14.0499 16.9697 13.2599 16.8797 12.1799C16.8197 11.5499 17.0597 10.9599 17.4797 10.5499C17.8497 10.1699 18.3597 9.94995 18.9197 9.94995H20.9997C21.5597 9.96995 21.9997 10.4199 21.9997 10.9699Z" fill="#292D32"/>
</svg>
