<svg width="24" height="24" viewBox="0 0 24 24" fill="none" xmlns="http://www.w3.org/2000/svg">
<path d="M9.22995 19.1601H10.23V21.4901C10.23 21.8301 10.66 22.0001 10.88 21.7401L13.33 18.9501C13.63 18.6101 13.5 18.3301 13.05 18.3301H12.05V16.0001C12.05 15.6601 11.62 15.4901 11.4 15.7501L8.94995 18.5401C8.64995 18.8801 8.77995 19.1601 9.22995 19.1601Z" stroke="#292D32" stroke-width="1.5" stroke-miterlimit="10" stroke-linecap="round" stroke-linejoin="round"/>
<path d="M11.9999 3.98007C8.00994 3.64007 3.65994 7.09007 5.61994 12.5601" stroke="#292D32" stroke-width="1.5" stroke-miterlimit="10" stroke-linecap="round" stroke-linejoin="round"/>
<path d="M16.61 20C17.95 20.01 19.24 19.51 20.23 18.61C23.5 15.75 21.75 10.01 17.44 9.47002C17.2 8.02002 16.67 6.88002 15.96 6.02002" stroke="#292D32" stroke-width="1.5" stroke-miterlimit="10" stroke-linecap="round" stroke-linejoin="round"/>
<path d="M7.27999 12.9701C6.74999 12.7001 6.15999 12.5601 5.56999 12.5701C0.909986 12.9001 0.919986 19.6801 5.56999 20.0101" stroke="#292D32" stroke-width="1.5" stroke-miterlimit="10" stroke-linecap="round" stroke-linejoin="round"/>
<path d="M15.8199 9.88998C16.3399 9.62998 16.8999 9.48998 17.4799 9.47998" stroke="#292D32" stroke-width="1.5" stroke-miterlimit="10" stroke-linecap="round" stroke-linejoin="round"/>
</svg>
